<svg width="10" height="12" viewBox="0 0 10 12" fill="none" xmlns="http://www.w3.org/2000/svg">
<path d="M4.90872 1.14537C6.35406 1.55443 7.93576 2.0453 8.72661 2.31801V6.5995C8.72661 7.5267 7.7176 9.16294 4.90872 10.7992C2.09984 9.13567 1.09083 7.5267 1.09083 6.5995V2.31801C1.88168 2.01803 3.46337 1.55443 4.90872 1.14537ZM4.90872 0C4.90872 0 0 1.3908 0 1.63624V6.5995C0 9.1084 3.627 11.3173 4.63601 11.9173C4.71673 11.9712 4.81164 12 4.90872 12C5.0058 12 5.1007 11.9712 5.18143 11.9173C6.21771 11.3446 9.81744 9.1084 9.81744 6.5995V1.63624C9.81744 1.3908 4.90872 0 4.90872 0Z" fill="white" fill-opacity="0.83"/>
<path d="M3.70851 7.47204L2.34497 6.13578C2.25049 6.0392 2.19319 5.91233 2.18321 5.77759C2.17323 5.64285 2.21121 5.50892 2.29043 5.39947C2.33457 5.33375 2.39319 5.27901 2.46178 5.23947C2.53037 5.19993 2.60711 5.17663 2.6861 5.17136C2.7651 5.1661 2.84425 5.179 2.91748 5.20909C2.99071 5.23918 3.05608 5.28565 3.10855 5.34493L4.09029 6.32668L6.70828 3.70869C6.81331 3.62992 6.94323 3.59168 7.07419 3.60098C7.20515 3.61029 7.32836 3.66652 7.42119 3.75936C7.51403 3.85219 7.57026 3.9754 7.57957 4.10636C7.58887 4.23732 7.55063 4.36724 7.47186 4.47227L4.47208 7.47204C4.42355 7.52494 4.36455 7.56718 4.29882 7.59607C4.2331 7.62497 4.16209 7.63989 4.09029 7.63989C4.0185 7.63989 3.94749 7.62497 3.88177 7.59607C3.81604 7.56718 3.75704 7.52494 3.70851 7.47204Z" fill="white" fill-opacity="0.83"/>
</svg>
