<svg width="20" height="20" viewBox="0 0 20 20" fill="none" xmlns="http://www.w3.org/2000/svg">
<path d="M1.64377 12.3411H2.1194V17.2932C2.1194 18.7857 3.07772 20 4.2555 20H6.14489C6.43691 20 6.67366 19.7 6.67366 19.33V14.3513C6.67366 13.9813 6.43691 13.6813 6.14489 13.6813C5.85287 13.6813 5.61612 13.9813 5.61612 14.3513V18.66H4.2555C3.66079 18.66 3.17694 18.0469 3.17694 17.2933V12.3412H8.19025L19.3262 16.3674C19.374 16.3846 19.4227 16.3931 19.4712 16.3931C19.5849 16.3931 19.697 16.3467 19.7898 16.258C19.9222 16.1314 20 15.9333 20 15.7231V0.670115C20 0.45992 19.9221 0.261945 19.7898 0.135238C19.6573 0.00853047 19.4857 -0.0319013 19.3262 0.0256706L8.19025 4.05185H1.64377C0.737361 4.05185 4.25984e-09 4.98628 4.25984e-09 6.13477V10.258C-6.47163e-05 11.4068 0.737361 12.3411 1.64377 12.3411ZM18.9424 14.8351L8.79293 11.1656V5.22773L18.9424 1.55822V14.8351ZM1.05753 6.13502C1.05753 5.72537 1.32049 5.39216 1.64377 5.39216H7.73546V11.0012H1.64377C1.32049 11.0012 1.05753 10.6679 1.05753 10.2583V6.13502Z" fill="#1E3167"/>
</svg>
