<svg width="9" height="9" viewBox="0 0 9 9" fill="none" xmlns="http://www.w3.org/2000/svg">
<path d="M7.56859 2.4334L1.19881 8.80318C1.06759 8.93439 0.900596 9 0.697813 9C0.49503 9 0.328031 8.93439 0.196819 8.80318C0.0656061 8.67197 0 8.50497 0 8.30219C0 8.0994 0.0656061 7.9324 0.196819 7.80119L6.5666 1.43141H1.12724C0.924453 1.43141 0.754592 1.3627 0.617654 1.22529C0.480716 1.08787 0.412008 0.918012 0.411531 0.715706C0.411531 0.512922 0.480238 0.343062 0.617654 0.206123C0.755069 0.069185 0.92493 0.000477137 1.12724 0H8.28429C8.48707 0 8.65717 0.0687078 8.79459 0.206123C8.932 0.343539 9.00047 0.5134 9 0.715706V7.87276C9 8.07555 8.93129 8.24564 8.79387 8.38306C8.65646 8.52048 8.4866 8.58895 8.28429 8.58847C8.08151 8.58847 7.91165 8.51976 7.77471 8.38235C7.63777 8.24493 7.56906 8.07507 7.56859 7.87276V2.4334Z" fill="white"/>
</svg>
