<svg width="8" height="10" viewBox="0 0 8 10" fill="none" xmlns="http://www.w3.org/2000/svg">
<path d="M7.55554 6C7.73531 6 7.89736 6.09744 7.96616 6.24693C8.03494 6.39637 7.99692 6.56844 7.86981 6.68284L4.31426 9.88284C4.23094 9.95786 4.11788 10 4.00001 10C3.88214 10 3.76908 9.95786 3.6857 9.88284L0.130156 6.68284C0.00304478 6.56844 -0.0349401 6.39637 0.0338594 6.24693C0.102659 6.09744 0.264673 6 0.444465 6L7.55554 6Z" fill="#C5C5C5" fill-opacity="0.81"/>
<path d="M0.444577 4C0.264815 4 0.102759 3.90256 0.0339649 3.75307C-0.0348231 3.60363 0.00319759 3.43156 0.130308 3.31716L3.68586 0.117157C3.76918 0.042144 3.88224 0 4.00011 0C4.11798 0 4.23104 0.042144 4.31442 0.117157L7.86997 3.31716C7.99708 3.43156 8.03506 3.60363 7.96626 3.75307C7.89746 3.90256 7.73545 4 7.55566 4L0.444577 4Z" fill="#C5C5C5" fill-opacity="0.81"/>
</svg>
