<svg width="21" height="21" viewBox="0 0 21 21" fill="none" xmlns="http://www.w3.org/2000/svg">
<path d="M15.8518 19.6687C15.556 19.6687 15.2601 19.5923 14.9929 19.4301L11.1661 17.1587C10.7653 17.1492 10.3644 17.1206 9.9827 17.0634C9.72504 17.0252 9.50554 16.8533 9.41011 16.6052C9.31468 16.3571 9.36239 16.0899 9.53417 15.8894C10.164 15.1546 10.4885 14.2766 10.4885 13.3414C10.4885 11.0319 8.45578 9.15191 5.95543 9.15191C5.02019 9.15191 4.12312 9.40967 3.3692 9.90592C3.15925 10.0395 2.90158 10.0586 2.67254 9.95364C2.45305 9.84866 2.29082 9.63861 2.26219 9.39049C2.23356 9.12328 2.21448 8.85616 2.21448 8.57941C2.21448 3.84592 6.31808 0 11.3569 0C16.3958 0 20.4994 3.84592 20.4994 8.57941C20.4994 11.1752 19.2969 13.5609 17.1783 15.1928L17.5028 17.7886C17.5791 18.4376 17.2928 19.0484 16.7489 19.4015C16.4817 19.5732 16.1667 19.6687 15.8518 19.6687ZM11.3474 15.7177C11.481 15.7081 11.6146 15.7464 11.7291 15.8227L15.7277 18.199C15.8327 18.2658 15.9186 18.2372 15.9759 18.199C16.0236 18.1704 16.0999 18.094 16.0808 17.9604L15.7087 14.9447C15.68 14.6774 15.7945 14.4199 16.0045 14.2672C17.9513 12.9025 19.0679 10.822 19.0679 8.56023C19.0679 4.6189 15.6132 1.41238 11.3569 1.41238C7.26286 1.41238 3.90362 4.38991 3.6555 8.13087C4.37124 7.85411 5.14426 7.7014 5.94589 7.7014C9.23833 7.7014 11.9104 10.2208 11.9104 13.3223C11.92 14.1621 11.7196 14.9733 11.3474 15.7177Z" fill="white"/>
<path d="M3.16836 20.5084C2.92023 20.5084 2.68165 20.4416 2.46216 20.2984C2.03271 20.0217 1.80368 19.5445 1.86094 19.0387L2.0518 17.5691C0.76346 16.5193 0 14.9638 0 13.3319C0 11.4709 0.973421 9.73407 2.60532 8.69385C3.58827 8.05447 4.75254 7.71094 5.96453 7.71094C9.25698 7.71094 11.9291 10.2303 11.9291 13.3319C11.9291 14.5916 11.471 15.8322 10.6312 16.8152C9.55282 18.1226 7.93998 18.886 6.16494 18.9433L3.83639 20.3271C3.62643 20.4511 3.3974 20.5084 3.16836 20.5084ZM5.95499 9.14239C5.01975 9.14239 4.12267 9.40005 3.36876 9.8963C2.14722 10.6788 1.42194 11.9576 1.42194 13.3319C1.42194 14.6584 2.07089 15.8704 3.21608 16.6529C3.43558 16.8056 3.55009 17.0633 3.52146 17.3305L3.31151 18.9624L5.59234 17.6073C5.70686 17.5404 5.83093 17.5023 5.95499 17.5023C7.35785 17.5023 8.68439 16.901 9.52419 15.8799C10.154 15.1355 10.4881 14.2576 10.4881 13.3223C10.4881 11.0224 8.45535 9.14239 5.95499 9.14239Z" fill="white"/>
</svg>
