<svg width="16" height="16" viewBox="0 0 16 16" fill="none" xmlns="http://www.w3.org/2000/svg">
<path d="M3.16853 0.308594H12.4315C14.1806 0.310516 15.598 1.69545 15.6 3.4043V9.86726C15.598 11.5763 14.1806 12.9612 12.4317 12.9631H9.99857L7.8 15.1113L5.60144 12.9631H3.16853C1.4194 12.9613 0.00196773 11.5763 0 9.86743V3.4045C0.00196773 1.69544 1.41959 0.310516 3.16853 0.308594ZM12.4315 11.947C13.6065 11.9458 14.5588 11.0154 14.56 9.86739V3.4045C14.5588 2.25635 13.6065 1.3259 12.4316 1.32475H3.16853C1.99346 1.3259 1.04116 2.25635 1.03998 3.40436V9.86724C1.04116 11.0154 1.99346 11.9458 3.16841 11.947H6.03268L7.8 13.6738L9.5673 11.947H12.4315Z" fill="white"/>
</svg>
