<svg width="16" height="16" viewBox="0 0 16 16" fill="none" xmlns="http://www.w3.org/2000/svg">
<g clip-path="url(#clip0_226_286)">
<path d="M3.16853 1.19727H12.4315C14.1806 1.19919 15.598 2.58412 15.6 4.29297V10.7559C15.598 12.465 14.1806 13.8499 12.4317 13.8518H9.99857L7.8 16L5.60144 13.8518H3.16853C1.4194 13.8499 0.00196773 12.465 0 10.7561V4.29317C0.00196773 2.58411 1.41959 1.19919 3.16853 1.19727ZM12.4315 12.8357C13.6065 12.8345 14.5588 11.9041 14.56 10.7561V4.29317C14.5588 3.14502 13.6065 2.21458 12.4316 2.21342H3.16853C1.99346 2.21458 1.04116 3.14502 1.03998 4.29303V10.7559C1.04116 11.9041 1.99346 12.8345 3.16841 12.8357H6.03268L7.8 14.5625L9.5673 12.8357H12.4315Z" fill="black"/>
</g>
<defs>
<clipPath id="clip0_226_286">
<rect width="15.6" height="15.1111" fill="white" transform="translate(0 0.888672)"/>
</clipPath>
</defs>
</svg>
