<svg width="132" height="93" viewBox="0 0 132 93" fill="none" xmlns="http://www.w3.org/2000/svg">
<path d="M0 0H121C127.075 0 132 4.92487 132 11V92.5L128.23 85.8525C119.626 70.6822 100.819 64.6557 85 72L78.9954 74.552C70.5021 78.1616 60.6755 76.3721 54 70L51.3228 66.5354C47.5944 61.7104 45.9346 55.6024 46.7082 49.554L46.9638 47.5559C49.2994 29.2957 38.2105 11.9876 20.6458 6.47711L0 0Z" fill="url(#paint0_linear_1360_2622)"/>
<path d="M75.0656 58.9547L74.2545 57.5256C72.8675 55.0816 70.5162 53.334 67.7761 52.7105L66.4098 52.3996C65.8946 52.2922 65.4824 52.0149 65.1733 51.5679C64.8642 51.1209 64.744 50.628 64.8126 50.0892L64.9922 48.1661C65.24 45.5112 64.4172 42.8672 62.7066 40.8216L61.5152 39.397C61.1717 39.003 61 38.5373 61 38C61 37.4627 61.1717 36.997 61.5152 36.603L62.7066 35.1784C64.4172 33.1328 65.24 30.4888 64.9922 27.8339L64.8126 25.9108C64.744 25.3735 64.8642 24.8806 65.1733 24.4321C65.4824 23.9836 65.8946 23.7064 66.4098 23.6004L67.7761 23.2895C70.5162 22.666 72.8675 20.9184 74.2545 18.4744L75.0656 17.0453C75.3404 16.5796 75.7182 16.2659 76.1991 16.104C76.6799 15.942 77.1608 15.9693 77.6417 16.1856L78.9634 16.7688C81.5349 17.9033 84.4651 17.9033 87.0366 16.7688L88.3583 16.1856C88.8392 15.9707 89.3201 15.9435 89.8009 16.104C90.2818 16.2644 90.6596 16.5782 90.9344 17.0453L91.7455 18.4744C93.1325 20.9184 95.4838 22.666 98.2239 23.2895L99.5902 23.6004C100.105 23.7078 100.518 23.9858 100.827 24.4343C101.136 24.8827 101.256 25.3749 101.187 25.9108L101.008 27.8339C100.76 30.4888 101.583 33.1328 103.293 35.1784L104.485 36.603C104.828 36.997 105 37.4627 105 38C105 38.5373 104.828 39.003 104.485 39.397L103.293 40.8216C101.583 42.8672 100.76 45.5112 101.008 48.1661L101.187 50.0892C101.256 50.6265 101.136 51.1194 100.827 51.5679C100.518 52.0164 100.105 52.2936 99.5902 52.3996L98.2239 52.7105C95.4838 53.334 93.1325 55.0816 91.7455 57.5256L90.9344 58.9547C90.6596 59.4204 90.2818 59.7341 89.8009 59.896C89.3201 60.058 88.8392 60.0307 88.3583 59.8144L87.0366 59.2312C84.4651 58.0967 81.5349 58.0967 78.9634 59.2312L77.6417 59.8144C77.1608 60.0293 76.6799 60.0565 76.1991 59.896C75.7182 59.7356 75.3404 59.4218 75.0656 58.9547Z" fill="#1E3167"/>
<mask id="path-3-inside-1_1360_2622" fill="white">
<path d="M82.5408 27.0082C82.5377 27.0132 82.5232 27.0202 82.5096 27.0232C82.4951 27.0262 82.4566 27.0472 82.4233 27.0682C82.389 27.0902 82.3453 27.1152 82.3256 27.1232C82.3058 27.1323 82.2434 27.1663 82.1862 27.1993C82.1291 27.2313 82.0594 27.2703 82.0303 27.2853C82.0022 27.3003 81.9554 27.3263 81.9263 27.3444C81.8982 27.3624 81.8639 27.3804 81.8514 27.3834C81.8389 27.3874 81.7973 27.4104 81.7589 27.4344C81.7193 27.4594 81.684 27.4794 81.6788 27.4794C81.6736 27.4794 81.6403 27.4974 81.605 27.5194C81.5696 27.5415 81.5207 27.5695 81.4968 27.5815C81.3752 27.6445 81.2566 27.7105 81.2514 27.7185C81.2483 27.7235 81.2348 27.7295 81.2213 27.7335C81.2077 27.7365 81.1651 27.7596 81.1256 27.7846C81.0861 27.8096 81.0486 27.8296 81.0414 27.8296C81.0351 27.8296 81.006 27.8446 80.9779 27.8636C80.9498 27.8826 80.8989 27.9116 80.8646 27.9286C80.7959 27.9647 80.6566 28.0427 80.6005 28.0767C80.5807 28.0897 80.5599 28.0997 80.5547 28.0997C80.5505 28.0997 80.5121 28.1197 80.4715 28.1447C80.4299 28.1698 80.3914 28.1898 80.3852 28.1898C80.379 28.1898 80.3634 28.1978 80.3498 28.2088C80.3363 28.2188 80.2875 28.2478 80.2417 28.2718C80.1959 28.2968 80.1169 28.3408 80.0649 28.3699C80.014 28.3989 79.9516 28.4329 79.9287 28.4449C79.9048 28.4569 79.858 28.4829 79.8237 28.5029C79.7883 28.5239 79.7561 28.5399 79.7509 28.5399C79.7446 28.5399 79.729 28.5479 79.7155 28.559C79.702 28.569 79.6531 28.598 79.6074 28.622C79.5616 28.647 79.4826 28.691 79.4306 28.72C79.3796 28.75 79.3141 28.7851 79.285 28.7991C79.2569 28.8141 79.2143 28.8371 79.1914 28.8511C79.1686 28.8661 79.1311 28.8861 79.1082 28.8971C79.0854 28.9081 79.0438 28.9301 79.0147 28.9471C78.8576 29.0382 78.7828 29.0802 78.7765 29.0802C78.7734 29.0802 78.737 29.1002 78.6954 29.1252C78.6538 29.1502 78.6164 29.1703 78.6112 29.1703C78.607 29.1703 78.5904 29.1783 78.5748 29.1883C78.4937 29.2413 78.4614 29.2603 78.4479 29.2603C78.4406 29.2603 78.4198 29.2703 78.4022 29.2833C78.3845 29.2963 78.3377 29.3243 78.2971 29.3453C78.2576 29.3663 78.2129 29.3904 78.1984 29.4004C78.1838 29.4104 78.162 29.4204 78.1495 29.4244C78.137 29.4284 78.0954 29.4514 78.0569 29.4754C78.0174 29.5004 77.9821 29.5204 77.9769 29.5204C77.9706 29.5204 77.9405 29.5374 77.9093 29.5574C77.877 29.5775 77.8292 29.6045 77.8032 29.6175C77.7772 29.6295 77.7117 29.6675 77.6576 29.7005C77.6036 29.7335 77.5422 29.7685 77.5224 29.7786C77.4715 29.8026 77.2469 29.9256 77.119 29.9997C77.0867 30.0177 77.0295 30.0497 76.9921 30.0687C76.9557 30.0887 76.9089 30.1147 76.8892 30.1277C76.8704 30.1407 76.8496 30.1507 76.8444 30.1507C76.8361 30.1507 76.8247 30.1567 76.7477 30.2078C76.7301 30.2188 76.7041 30.2318 76.6905 30.2358C76.676 30.2398 76.651 30.2538 76.6334 30.2658C76.6167 30.2788 76.572 30.3028 76.5346 30.3208C76.4971 30.3388 76.4524 30.3638 76.4347 30.3768C76.4171 30.3899 76.3994 30.4009 76.3942 30.4009C76.39 30.4009 76.3474 30.4229 76.2996 30.4509C76.2517 30.4779 76.2091 30.5009 76.2039 30.5009C76.1987 30.5009 76.1831 30.5089 76.1696 30.5199C76.1561 30.5299 76.1124 30.5549 76.0718 30.5759C76.0323 30.596 75.9918 30.619 75.9834 30.626C75.9751 30.633 75.9387 30.653 75.9034 30.671C75.867 30.688 75.8139 30.718 75.7848 30.737C75.7557 30.755 75.7276 30.771 75.7224 30.771C75.7162 30.771 75.685 30.787 75.6528 30.8081C75.6205 30.8281 75.58 30.8501 75.5623 30.8581C75.5457 30.8651 75.5009 30.8891 75.4645 30.9111C75.4292 30.9331 75.3959 30.9511 75.3918 30.9511C75.3876 30.9511 75.3522 30.9711 75.3127 30.9962C75.2722 31.0212 75.2358 31.0412 75.2295 31.0412C75.2243 31.0412 75.1983 31.0552 75.1723 31.0722C75.1297 31.1002 75.0673 31.1342 74.9353 31.2013C74.9082 31.2153 74.8593 31.2433 74.8261 31.2633C74.7938 31.2843 74.7616 31.3013 74.7564 31.3013C74.7502 31.3013 74.7231 31.3163 74.6961 31.3333L74.6462 31.3663L74.6389 32.0467C74.6347 32.4209 74.6316 33.2813 74.6316 33.9586C74.6316 34.6359 74.6285 35.2182 74.6254 35.2522L74.6181 35.3143L74.5183 35.3593C74.2635 35.4764 74.2292 35.4914 74.2053 35.4984C74.1907 35.5024 74.1606 35.5164 74.1377 35.5294C74.1148 35.5414 74.0732 35.5604 74.0441 35.5714C74.016 35.5824 73.9547 35.6074 73.9089 35.6284C73.8631 35.6484 73.7789 35.6855 73.7217 35.7105C73.6645 35.7345 73.5751 35.7755 73.5231 35.7995C73.4701 35.8235 73.4222 35.8435 73.416 35.8435C73.4098 35.8435 73.3692 35.8615 73.3266 35.8836C73.2839 35.9056 73.2444 35.9236 73.2382 35.9236C73.233 35.9236 73.1779 35.9466 73.1165 35.9746C73.0541 36.0026 72.9574 36.0456 72.9002 36.0706C72.843 36.0957 72.7536 36.1357 72.7016 36.1597C72.6496 36.1837 72.6018 36.2037 72.5955 36.2037C72.5893 36.2037 72.5498 36.2207 72.5072 36.2427C72.4656 36.2637 72.4198 36.2847 72.4063 36.2888C72.3917 36.2928 72.3356 36.3168 72.2815 36.3408C72.2274 36.3658 72.1359 36.4058 72.0787 36.4308C72.0215 36.4558 71.9363 36.4939 71.8895 36.5149C71.8437 36.5369 71.8021 36.5539 71.798 36.5539C71.7834 36.5539 71.5754 36.6759 71.5515 36.698C71.538 36.71 71.5141 36.728 71.4964 36.739C71.4798 36.749 71.459 36.766 71.4507 36.777C71.4434 36.787 71.4247 36.803 71.4091 36.812C71.3935 36.822 71.3539 36.858 71.3207 36.894C71.2874 36.9301 71.2479 36.9731 71.2323 36.9891C71.1626 37.0631 71.017 37.3012 70.9827 37.3963C70.9723 37.4253 70.9494 37.4883 70.9318 37.5354C70.9099 37.5964 70.8954 37.6694 70.8787 37.7955C70.8527 38.0016 70.8091 38.4108 70.7997 38.5449C70.7955 38.5969 70.7789 38.761 70.7623 38.91C70.7227 39.2672 70.7134 39.3623 70.7009 39.5353C70.6947 39.6154 70.678 39.7815 70.6635 39.9045C70.6489 40.0276 70.6385 40.1336 70.6406 40.1406C70.6427 40.1507 70.6552 40.1486 70.6905 40.1336C70.7165 40.1226 70.7768 40.0966 70.8257 40.0756C71.0139 39.9946 71.1564 39.9315 71.2364 39.8945C71.2832 39.8725 71.3248 39.8555 71.329 39.8555C71.3342 39.8555 71.381 39.8355 71.433 39.8115C71.485 39.7875 71.5765 39.7465 71.6368 39.7204C71.6971 39.6944 71.7938 39.6514 71.852 39.6244C71.9103 39.5974 71.9623 39.5754 71.9685 39.5754C71.9747 39.5754 72.0205 39.5554 72.0704 39.5303C72.1203 39.5053 72.165 39.4853 72.1692 39.4853C72.1744 39.4853 72.216 39.4673 72.2638 39.4463C72.3106 39.4253 72.4032 39.3833 72.4687 39.3553C72.5342 39.3262 72.6319 39.2832 72.6839 39.2592C72.737 39.2352 72.7848 39.2152 72.79 39.2152C72.7952 39.2152 72.8295 39.2002 72.8659 39.1812C72.9023 39.1632 72.9429 39.1452 72.9574 39.1412C72.972 39.1372 73.0209 39.1161 73.0666 39.0951C73.1124 39.0731 73.2039 39.0331 73.2694 39.0041C73.3349 38.9761 73.4285 38.9351 73.4774 38.913C73.5262 38.89 73.5824 38.867 73.6021 38.86C73.6219 38.853 73.6625 38.836 73.6905 38.822C73.7394 38.799 73.8548 38.748 74.1065 38.6379C74.1637 38.6129 74.2437 38.5779 74.2833 38.5599C74.3238 38.5419 74.3841 38.5148 74.4184 38.5008C74.4528 38.4868 74.5037 38.4638 74.5318 38.4498C74.6108 38.4108 74.615 38.4128 74.6077 38.4918C74.6035 38.5299 74.6004 38.918 74.6004 39.3563V40.1527L74.5463 40.1757C74.4153 40.2307 74.2562 40.3007 74.1813 40.3367C74.1366 40.3588 74.095 40.3758 74.0898 40.3758C74.0836 40.3758 74.0358 40.3958 73.9838 40.4198C73.9307 40.4438 73.834 40.4868 73.7685 40.5158C73.5741 40.5999 73.4472 40.6559 73.3463 40.7019C73.2943 40.7259 73.2475 40.7459 73.2423 40.7459C73.2382 40.7459 73.1966 40.764 73.1498 40.785C73.104 40.807 73.0125 40.848 72.947 40.876C72.6735 40.9941 72.6361 41.0101 72.5436 41.0521C72.4905 41.0761 72.4448 41.0961 72.4416 41.0961C72.4385 41.0961 72.3969 41.1131 72.3512 41.1351C72.3044 41.1561 72.2118 41.1972 72.1463 41.2262C71.9092 41.3292 71.8593 41.3522 71.7522 41.4043C71.6576 41.4513 71.5588 41.5083 71.5432 41.5263C71.5401 41.5293 71.5245 41.5403 71.5078 41.5503C71.4382 41.5934 71.2073 41.8175 71.1751 41.8745C71.1699 41.8845 71.1626 41.8935 71.1585 41.8965C71.1491 41.9035 71.0753 42.0126 71.0753 42.0186C71.0753 42.0216 71.0586 42.0496 71.0389 42.0816C71.0191 42.1136 70.9952 42.1626 70.9858 42.1907C70.9765 42.2187 70.965 42.2467 70.9598 42.2517C70.9442 42.2717 70.9078 42.3757 70.8922 42.4478C70.8652 42.5768 70.8184 42.956 70.8049 43.1641C70.7987 43.2512 70.7758 43.4863 70.7539 43.6874C70.7311 43.8885 70.7103 44.0996 70.7061 44.1576C70.702 44.2156 70.6853 44.3817 70.6687 44.5278C70.652 44.6739 70.6354 44.837 70.6312 44.891L70.625 44.988L70.7071 44.952C70.7519 44.932 70.8361 44.896 70.8933 44.871C70.9505 44.846 71.0399 44.8059 71.0919 44.7819C71.1449 44.7579 71.1917 44.7379 71.1969 44.7379C71.2021 44.7379 71.2416 44.7199 71.2853 44.6989C71.329 44.6769 71.3758 44.6569 71.3893 44.6529C71.4122 44.6459 71.4517 44.6289 71.6805 44.5238C71.7356 44.4988 71.7845 44.4778 71.7897 44.4778C71.7938 44.4778 71.8344 44.4598 71.8812 44.4388C71.9269 44.4167 71.9903 44.3897 72.0215 44.3777C72.0527 44.3657 72.0933 44.3477 72.111 44.3367C72.1286 44.3267 72.1619 44.3117 72.1838 44.3037C72.2233 44.2907 72.3241 44.2457 72.4947 44.1676C72.5404 44.1466 72.5893 44.1266 72.6039 44.1226C72.6184 44.1186 72.6704 44.0956 72.7193 44.0716C72.7692 44.0476 72.8118 44.0276 72.816 44.0276C72.8202 44.0276 72.8566 44.0115 72.8982 43.9915C72.9387 43.9715 72.9907 43.9495 73.0125 43.9415C73.05 43.9285 73.077 43.9165 73.3131 43.8084C73.3744 43.7804 73.4285 43.7574 73.4337 43.7574C73.4378 43.7574 73.4836 43.7374 73.5335 43.7124C73.5845 43.6874 73.6313 43.6674 73.6385 43.6674C73.6458 43.6674 73.6812 43.6524 73.7186 43.6334C73.756 43.6154 73.7976 43.5963 73.8112 43.5923C73.8351 43.5853 73.9183 43.5483 74.119 43.4563C74.1647 43.4353 74.2073 43.4173 74.2125 43.4173C74.2167 43.4173 74.2583 43.3992 74.3041 43.3782C74.4517 43.3082 74.5713 43.2572 74.5869 43.2572C74.5994 43.2572 74.6004 43.3732 74.5952 44.0296C74.5921 44.4548 74.5879 45.7364 74.5848 46.876L74.5786 48.95L74.6077 48.938C74.6233 48.932 74.6514 48.916 74.668 48.905C74.6857 48.8929 74.7294 48.8679 74.7668 48.8499C74.8042 48.8319 74.8489 48.8079 74.8656 48.7959C74.8833 48.7829 74.9249 48.7599 74.9592 48.7429C74.9935 48.7259 75.0403 48.7009 75.0621 48.6858C75.084 48.6718 75.1068 48.6598 75.111 48.6598C75.1162 48.6598 75.1526 48.6398 75.1931 48.6148C75.2337 48.5898 75.2701 48.5698 75.2742 48.5698C75.2784 48.5698 75.3148 48.5498 75.3543 48.5248C75.3949 48.4998 75.4323 48.4797 75.4385 48.4797C75.4448 48.4797 75.4697 48.4667 75.4926 48.4497C75.5165 48.4337 75.5581 48.4097 75.5872 48.3967C75.6153 48.3827 75.66 48.3587 75.686 48.3407C75.7131 48.3237 75.738 48.3097 75.7422 48.3097C75.7474 48.3097 75.7848 48.2887 75.8275 48.2636C75.8701 48.2386 75.9148 48.2136 75.9273 48.2096C75.9387 48.2046 75.9782 48.1826 76.0146 48.1606C76.051 48.1376 76.0843 48.1196 76.0895 48.1196C76.0947 48.1196 76.1238 48.1046 76.1529 48.0856C76.1831 48.0665 76.2184 48.0465 76.233 48.0415C76.2476 48.0365 76.284 48.0155 76.3152 47.9955C76.3453 47.9755 76.3734 47.9595 76.3775 47.9595C76.3817 47.9595 76.4347 47.9285 76.4951 47.8905C76.651 47.7924 76.8174 47.6313 76.9224 47.4763C76.9661 47.4122 77.0025 47.3562 77.0025 47.3522C77.0025 47.3492 77.0191 47.3132 77.0389 47.2732C77.0795 47.1911 77.1419 46.972 77.1574 46.8559C77.1647 46.8039 77.171 45.9085 77.1762 44.1966C77.1793 42.7779 77.1855 41.6164 77.1886 41.6164C77.2011 41.6174 77.3685 41.7084 77.458 41.7644C77.4954 41.7875 77.5308 41.8065 77.536 41.8065C77.5401 41.8065 77.5713 41.8235 77.6036 41.8435C77.6618 41.8795 77.694 41.8965 77.8261 41.9655C77.8625 41.9836 77.9103 42.0116 77.9332 42.0266C77.9737 42.0536 78.0673 42.1066 78.1661 42.1566C78.1932 42.1706 78.2368 42.1967 78.2628 42.2137C78.2888 42.2307 78.3221 42.2477 78.3356 42.2517C78.3481 42.2567 78.3741 42.2697 78.3907 42.2817C78.4084 42.2947 78.4531 42.3207 78.4916 42.3407C78.5301 42.3607 78.5789 42.3877 78.5997 42.4018C78.6205 42.4158 78.6424 42.4268 78.6476 42.4268C78.6528 42.4268 78.6881 42.4468 78.7276 42.4718C78.7672 42.4968 78.8025 42.5168 78.8077 42.5168C78.8129 42.5168 78.8493 42.5368 78.8878 42.5618C78.9273 42.5868 78.9627 42.6069 78.9679 42.6069C78.972 42.6069 78.9928 42.6179 79.0136 42.6319C79.0354 42.6459 79.0885 42.6759 79.1322 42.6979C79.1758 42.7209 79.2195 42.7449 79.2278 42.7529C79.2361 42.7599 79.2559 42.7699 79.2705 42.7759C79.285 42.7809 79.3256 42.802 79.3588 42.823C79.3921 42.844 79.4379 42.87 79.4587 42.882C79.5907 42.951 79.6822 43.0021 79.6958 43.0131C79.7041 43.0191 79.7446 43.0421 79.7842 43.0621C79.8247 43.0831 79.8684 43.1081 79.8819 43.1181C79.8954 43.1291 79.911 43.1371 79.9162 43.1371C79.9225 43.1371 79.9557 43.1551 79.9911 43.1771C80.0264 43.1991 80.0743 43.2272 80.0982 43.2392C80.2157 43.3012 80.2958 43.3452 80.3415 43.3752C80.3696 43.3922 80.3956 43.4073 80.3998 43.4073C80.405 43.4073 80.4393 43.4273 80.4777 43.4513C80.5162 43.4763 80.5578 43.4993 80.5693 43.5023C80.5817 43.5063 80.6192 43.5263 80.6524 43.5483C80.6868 43.5693 80.718 43.5873 80.7232 43.5873C80.7284 43.5873 80.7502 43.5983 80.771 43.6124C80.7918 43.6254 80.8355 43.6514 80.8687 43.6684C80.901 43.6864 80.9467 43.7124 80.9696 43.7274C80.9925 43.7424 81.0226 43.7584 81.0351 43.7624C81.0486 43.7664 81.0798 43.7824 81.1027 43.7974C81.1266 43.8124 81.1703 43.8385 81.1994 43.8535C81.2275 43.8695 81.2764 43.8955 81.3065 43.9125C81.3367 43.9285 81.3928 43.9615 81.4303 43.9855C81.4677 44.0085 81.5041 44.0276 81.5103 44.0276C81.5155 44.0276 81.553 44.0476 81.5914 44.0726C81.631 44.0976 81.6663 44.1176 81.6705 44.1176C81.6736 44.1176 81.7141 44.1396 81.7599 44.1676C81.8057 44.1946 81.8473 44.2176 81.8525 44.2176C81.8577 44.2176 81.8764 44.2287 81.894 44.2417C81.9117 44.2547 81.9523 44.2777 81.9835 44.2927C82.0147 44.3077 82.0594 44.3327 82.0823 44.3477C82.1051 44.3627 82.1405 44.3827 82.1603 44.3917C82.18 44.4007 82.2174 44.4207 82.2434 44.4378C82.2694 44.4538 82.3017 44.4728 82.3162 44.4778C82.3308 44.4838 82.3661 44.5048 82.3963 44.5238C82.4254 44.5428 82.4545 44.5578 82.4597 44.5578C82.4649 44.5578 82.5013 44.5778 82.5408 44.6028C82.5804 44.6269 82.6168 44.6479 82.6209 44.6479C82.6251 44.6479 82.6604 44.6679 82.6999 44.6929C82.7395 44.7179 82.7748 44.7379 82.78 44.7379C82.7852 44.7379 82.806 44.7479 82.8258 44.7609C82.8767 44.7919 83.0192 44.872 83.0805 44.904C83.1097 44.919 83.1564 44.945 83.1845 44.963C83.2136 44.98 83.2688 45.013 83.3083 45.0341C83.3478 45.0551 83.405 45.0861 83.4351 45.1031C83.4653 45.1191 83.5214 45.1501 83.561 45.1721C83.5994 45.1931 83.6504 45.2231 83.6733 45.2372C83.6961 45.2522 83.7409 45.2772 83.772 45.2922C83.8032 45.3082 83.8365 45.3262 83.8448 45.3332C83.8532 45.3402 83.8812 45.3572 83.9072 45.3712C83.9332 45.3842 83.9915 45.4142 84.0372 45.4382C84.083 45.4623 84.135 45.4913 84.1516 45.5033C84.1693 45.5153 84.2088 45.5373 84.24 45.5533C84.2712 45.5683 84.3117 45.5913 84.3294 45.6043C84.3471 45.6173 84.3658 45.6283 84.371 45.6283C84.3762 45.6283 84.4178 45.6514 84.4636 45.6784C84.5093 45.7064 84.5499 45.7284 84.554 45.7284C84.5571 45.7284 84.5894 45.7464 84.6237 45.7684C84.658 45.7904 84.6903 45.8084 84.6955 45.8084C84.7007 45.8084 84.7318 45.8254 84.7662 45.8464C84.8348 45.8885 84.9419 45.9495 85.023 45.9905C85.0521 46.0055 85.0948 46.0305 85.1176 46.0455C85.1416 46.0606 85.1842 46.0846 85.2123 46.0986C85.2611 46.1236 85.3121 46.1516 85.4483 46.2296C85.519 46.2707 85.6064 46.3187 85.6428 46.3377C85.6573 46.3447 85.6989 46.3687 85.7343 46.3897C85.7696 46.4117 85.8029 46.4287 85.8071 46.4287C85.8123 46.4287 85.8414 46.4457 85.8747 46.4668C85.9069 46.4868 85.9662 46.5218 86.0078 46.5438C86.0785 46.5818 86.1149 46.6018 86.2168 46.6588C86.2407 46.6729 86.2812 46.6949 86.3052 46.7089C86.3499 46.7329 86.4403 46.7839 86.6317 46.891C86.6837 46.92 86.743 46.953 86.7648 46.964C86.7856 46.975 86.8282 47 86.8594 47.018C86.8906 47.037 86.9332 47.062 86.9551 47.0731C86.9967 47.0951 87.109 47.1571 87.2712 47.2491C87.3232 47.2782 87.3866 47.3132 87.4137 47.3282C87.5395 47.3962 87.6081 47.4352 87.656 47.4652C87.6851 47.4843 87.7131 47.4993 87.7194 47.4993C87.7246 47.4993 87.761 47.5193 87.8005 47.5443C87.839 47.5683 87.8806 47.5913 87.891 47.5943C87.9024 47.5983 87.9398 47.6183 87.9731 47.6403C88.0074 47.6613 88.0386 47.6794 88.0438 47.6794C88.0501 47.6794 88.0771 47.6944 88.1052 47.7134C88.1333 47.7324 88.1821 47.7594 88.2133 47.7744C88.2445 47.7894 88.284 47.8124 88.3007 47.8244C88.3183 47.8364 88.3527 47.8564 88.3787 47.8684C88.4047 47.8815 88.4452 47.9045 88.4691 47.9195C88.492 47.9345 88.5211 47.9505 88.5326 47.9535C88.544 47.9575 88.5856 47.9805 88.6241 48.0045C88.6636 48.0295 88.6989 48.0495 88.7031 48.0495C88.7083 48.0495 88.7364 48.0655 88.7665 48.0846C88.7956 48.1036 88.8248 48.1196 88.83 48.1196C88.8341 48.1196 88.8695 48.1396 88.908 48.1636C88.9454 48.1876 88.988 48.2106 89.0015 48.2146C89.0151 48.2186 89.0504 48.2386 89.0785 48.2576C89.1076 48.2776 89.1523 48.3037 89.1783 48.3167C89.2043 48.3287 89.2688 48.3637 89.3197 48.3937C89.3717 48.4237 89.4414 48.4627 89.4757 48.4797C89.51 48.4968 89.5527 48.5218 89.5693 48.5338C89.587 48.5468 89.6213 48.5668 89.6473 48.5788C89.6962 48.6018 89.8293 48.6758 89.9041 48.7229C89.9291 48.7379 89.952 48.7499 89.9572 48.7499C89.9613 48.7499 89.9905 48.7659 90.0217 48.7859C90.0528 48.8059 90.0934 48.8289 90.11 48.8369C90.1277 48.8439 90.162 48.8639 90.188 48.8799C90.214 48.8969 90.2535 48.919 90.2764 48.93C90.2993 48.941 90.3367 48.962 90.3607 48.975L90.4033 49L90.4095 48.6018C90.4137 48.3837 90.4168 47.8955 90.4168 47.5183C90.4168 46.7869 90.4147 46.7569 90.3638 46.5858C90.3523 46.5458 90.3367 46.4938 90.3295 46.4688C90.3107 46.4077 90.2078 46.2126 90.1683 46.1646C90.1506 46.1436 90.136 46.1216 90.136 46.1156C90.136 46.1046 89.9842 45.9385 89.9426 45.9035C89.8615 45.8354 89.8345 45.8144 89.7887 45.7814C89.7596 45.7614 89.7107 45.7324 89.6795 45.7154C89.6473 45.6984 89.6067 45.6744 89.5891 45.6614C89.5714 45.6484 89.5527 45.6383 89.5475 45.6383C89.5423 45.6383 89.5038 45.6183 89.4622 45.5933C89.4206 45.5683 89.3832 45.5483 89.378 45.5483C89.3738 45.5483 89.3509 45.5353 89.3281 45.5193C89.3041 45.5033 89.2605 45.4773 89.2303 45.4623C89.1991 45.4473 89.1554 45.4232 89.1326 45.4082C89.1097 45.3942 89.0837 45.3792 89.0754 45.3762C89.0671 45.3732 89.0244 45.3502 88.9818 45.3242C88.9392 45.2992 88.9007 45.2782 88.8965 45.2782C88.8924 45.2782 88.857 45.2582 88.8185 45.2331C88.7801 45.2081 88.7437 45.1881 88.7385 45.1881C88.7322 45.1881 88.7 45.1701 88.6657 45.1481C88.6324 45.1261 88.6002 45.1081 88.596 45.1081C88.5908 45.1081 88.5596 45.0911 88.5274 45.0701C88.4941 45.0501 88.4452 45.022 88.4182 45.008C88.3516 44.974 88.2362 44.911 88.1915 44.883C88.1717 44.87 88.1281 44.846 88.0958 44.8289C88.0625 44.8119 88.0189 44.7859 87.9981 44.7729C87.9773 44.7589 87.9554 44.7479 87.9502 44.7479C87.945 44.7479 87.9097 44.7289 87.8712 44.7049C87.8327 44.6819 87.788 44.6549 87.7703 44.6459C87.606 44.5578 87.5592 44.5318 87.5364 44.5148C87.5218 44.5048 87.4948 44.4898 87.4761 44.4828C87.4573 44.4748 87.4178 44.4538 87.3877 44.4358C87.3586 44.4177 87.3201 44.3947 87.3024 44.3857C87.2733 44.3697 87.2514 44.3577 87.1454 44.2977C87.1215 44.2837 87.0674 44.2547 87.0268 44.2327C86.9852 44.2106 86.9291 44.1776 86.901 44.1606C86.8729 44.1426 86.8469 44.1276 86.8438 44.1276C86.8397 44.1276 86.8022 44.1076 86.7606 44.0826C86.7201 44.0576 86.6826 44.0376 86.6785 44.0376C86.6733 44.0376 86.6442 44.0206 86.613 44.0005C86.5807 43.9805 86.5319 43.9535 86.5048 43.9405C86.4767 43.9275 86.4351 43.9035 86.4112 43.8875C86.3884 43.8705 86.3644 43.8575 86.3592 43.8575C86.354 43.8575 86.3166 43.8375 86.2771 43.8124C86.2376 43.7874 86.2012 43.7674 86.197 43.7674C86.1929 43.7674 86.1575 43.7474 86.118 43.7224C86.0795 43.6984 86.0379 43.6754 86.0254 43.6714C86.013 43.6684 85.9953 43.6594 85.987 43.6524C85.9703 43.6384 85.8175 43.5533 85.7135 43.4993C85.6781 43.4803 85.6345 43.4553 85.6157 43.4413C85.5981 43.4283 85.5783 43.4173 85.5741 43.4173C85.5689 43.4173 85.5305 43.3972 85.4889 43.3722C85.4473 43.3472 85.4098 43.3272 85.4067 43.3272C85.4026 43.3272 85.3786 43.3132 85.3526 43.2962C85.3267 43.2802 85.2788 43.2522 85.2455 43.2362C85.2112 43.2192 85.1655 43.1931 85.1426 43.1771C85.1062 43.1511 85.1031 43.1461 85.1197 43.1401C85.1312 43.1371 85.1655 43.1171 85.1977 43.0971C85.2299 43.0771 85.2695 43.0551 85.2861 43.0501C85.3027 43.0441 85.3443 43.0211 85.3776 42.998C85.4119 42.976 85.4442 42.957 85.4504 42.957C85.4566 42.957 85.4785 42.947 85.4982 42.934C85.5596 42.896 85.7821 42.7729 85.936 42.6919C85.9818 42.6679 86.0598 42.6249 86.1409 42.5778C86.1731 42.5598 86.2241 42.5318 86.2521 42.5168C86.2812 42.5018 86.327 42.4758 86.3551 42.4578C86.3842 42.4408 86.4112 42.4268 86.4154 42.4268C86.4206 42.4268 86.4383 42.4178 86.4549 42.4068C86.4726 42.3958 86.4986 42.3787 86.5152 42.3677C86.5308 42.3577 86.5558 42.3457 86.5693 42.3417C86.5839 42.3377 86.6098 42.3237 86.6265 42.3117C86.6442 42.2987 86.6878 42.2737 86.7253 42.2567C86.7627 42.2387 86.8001 42.2177 86.8085 42.2107C86.8251 42.1977 86.9405 42.1336 87.032 42.0866C87.0611 42.0726 87.1121 42.0436 87.1454 42.0226C87.1797 42.0016 87.215 41.9826 87.2234 41.9795C87.2327 41.9755 87.2733 41.9535 87.3138 41.9305C87.3544 41.9065 87.3918 41.8865 87.397 41.8865C87.4022 41.8865 87.4345 41.8685 87.4688 41.8465C87.5031 41.8245 87.5343 41.8065 87.5384 41.8065C87.5436 41.8065 87.58 41.7865 87.6216 41.7614C87.6632 41.7364 87.7007 41.7164 87.7038 41.7164C87.7079 41.7164 87.7454 41.6964 87.787 41.6714C87.8286 41.6464 87.867 41.6264 87.8712 41.6264C87.8754 41.6264 87.9118 41.6064 87.9513 41.5814C87.9908 41.5563 88.0282 41.5363 88.0334 41.5363C88.0386 41.5363 88.0615 41.5243 88.0833 41.5103C88.1229 41.4843 88.2466 41.4153 88.3319 41.3713C88.3547 41.3602 88.4015 41.3332 88.4348 41.3122C88.4681 41.2912 88.5066 41.2712 88.519 41.2662C88.5315 41.2612 88.5679 41.2412 88.6002 41.2222C88.6324 41.2022 88.6709 41.1812 88.6865 41.1762C88.7021 41.1702 88.7281 41.1561 88.7447 41.1451C88.7769 41.1231 88.8892 41.0601 88.9776 41.0161C89.0067 41.0011 89.0525 40.9751 89.0785 40.957C89.1045 40.94 89.1388 40.921 89.1554 40.915C89.171 40.909 89.2085 40.889 89.2376 40.87C89.2677 40.852 89.3031 40.832 89.3166 40.827C89.3312 40.822 89.3717 40.799 89.4081 40.777C89.4445 40.7539 89.4768 40.7359 89.482 40.7359C89.4861 40.7359 89.5236 40.7159 89.5652 40.6909C89.6067 40.6659 89.6442 40.6459 89.6483 40.6459C89.6515 40.6459 89.6868 40.6259 89.7263 40.6009C89.7648 40.5759 89.8022 40.5558 89.8095 40.5558C89.8158 40.5558 89.8449 40.5408 89.873 40.5218C89.901 40.5028 89.952 40.4738 89.9863 40.4568C90.0196 40.4388 90.0643 40.4158 90.084 40.4038C90.1038 40.3928 90.1589 40.3618 90.2057 40.3347C90.2525 40.3077 90.2941 40.2857 90.2972 40.2857C90.3014 40.2857 90.3315 40.2697 90.3638 40.2507L90.4241 40.2147L90.4303 39.7274C90.4345 39.4593 90.4376 38.6999 90.4376 38.0396C90.4376 37.3793 90.4407 36.6749 90.4449 36.4738L90.4522 36.1087L90.553 36.0606C90.6092 36.0346 90.6601 36.0136 90.6674 36.0136C90.6737 36.0136 90.7152 35.9956 90.7589 35.9746C90.8026 35.9526 90.892 35.9116 90.9575 35.8836C91.1198 35.8135 91.2664 35.7495 91.3808 35.6975C91.4338 35.6734 91.4837 35.6534 91.491 35.6534C91.4983 35.6534 91.5128 35.6474 91.5243 35.6394C91.5357 35.6324 91.5804 35.6114 91.623 35.5944C91.6657 35.5764 91.7343 35.5474 91.7738 35.5284C91.8144 35.5104 91.9007 35.4713 91.9662 35.4433C92.0317 35.4143 92.1295 35.3713 92.1825 35.3473C92.2345 35.3233 92.2844 35.3033 92.2917 35.3033C92.2979 35.3033 92.325 35.2913 92.351 35.2773C92.377 35.2632 92.4258 35.2402 92.4601 35.2262C92.5319 35.1972 92.6577 35.1412 92.7929 35.0772C92.8449 35.0531 92.8906 35.0331 92.8948 35.0331C92.899 35.0331 92.927 35.0161 92.9572 34.9951C92.9874 34.9731 93.0238 34.9501 93.0393 34.9421C93.0924 34.9151 93.2546 34.777 93.3305 34.693C93.4366 34.5769 93.4927 34.5029 93.5572 34.3928C93.657 34.2227 93.7371 33.9636 93.7496 33.7775C93.7527 33.7165 93.7725 33.5264 93.7922 33.3533C93.812 33.1812 93.8348 32.9561 93.8432 32.8531C93.8515 32.751 93.8744 32.5179 93.8941 32.3368C93.9139 32.1547 93.9336 31.9616 93.9368 31.9066C93.9409 31.8516 93.9524 31.7315 93.9617 31.6385C93.9742 31.5254 93.9763 31.4714 93.969 31.4714C93.9586 31.4714 93.8577 31.5154 93.6331 31.6175C93.5811 31.6415 93.5343 31.6615 93.5302 31.6615C93.526 31.6615 93.4855 31.6795 93.4387 31.7005C93.3929 31.7225 93.3004 31.7625 93.2348 31.7915C93.1693 31.8196 93.083 31.8576 93.0425 31.8766C93.003 31.8946 92.9437 31.9196 92.9125 31.9316C92.8813 31.9436 92.8459 31.9586 92.8335 31.9666C92.821 31.9736 92.7815 31.9916 92.7451 32.0066C92.7087 32.0217 92.6504 32.0457 92.6161 32.0617C92.5818 32.0767 92.4997 32.1127 92.4341 32.1417C92.3686 32.1707 92.2719 32.2137 92.2199 32.2378C92.1669 32.2618 92.1201 32.2818 92.1149 32.2818C92.1087 32.2818 92.0619 32.3018 92.0099 32.3268C91.9579 32.3518 91.9121 32.3718 91.908 32.3718C91.9038 32.3718 91.8622 32.3898 91.8165 32.4108C91.7697 32.4329 91.6782 32.4739 91.6127 32.5019C91.5471 32.5309 91.4504 32.5739 91.3984 32.5979C91.3464 32.622 91.2986 32.642 91.2924 32.642C91.2861 32.642 91.2445 32.66 91.1998 32.681C91.1551 32.703 91.0646 32.744 90.9991 32.772C90.8463 32.8381 90.6924 32.9061 90.5967 32.9491C90.5551 32.9681 90.5073 32.9871 90.4896 32.9921L90.4584 33.0011V32.2007C90.4584 31.6745 90.4553 31.4014 90.448 31.4014C90.4428 31.4014 90.4376 31.3963 90.4376 31.3913C90.4376 31.3853 90.4449 31.3813 90.4532 31.3813C90.4626 31.3813 90.5052 31.3643 90.5499 31.3423C90.5936 31.3213 90.6414 31.3003 90.656 31.2963C90.6705 31.2923 90.7173 31.2723 90.761 31.2513C90.8036 31.2303 90.8504 31.2103 90.865 31.2063C90.8785 31.2023 90.918 31.1852 90.9523 31.1692C90.9867 31.1522 91.0324 31.1332 91.0542 31.1252C91.075 31.1182 91.127 31.0962 91.1686 31.0772C91.2373 31.0462 91.3371 31.0022 91.5711 30.9011C91.6199 30.8801 91.7114 30.8401 91.7738 30.8121C91.8373 30.784 91.8924 30.761 91.8955 30.761C91.8997 30.761 91.9464 30.741 92.0005 30.716C92.0546 30.691 92.1035 30.671 92.1097 30.671C92.1159 30.671 92.1607 30.651 92.2116 30.626C92.2615 30.601 92.3083 30.5809 92.3156 30.5809C92.3229 30.5809 92.3707 30.5609 92.4206 30.5359C92.4705 30.5109 92.5184 30.4909 92.5277 30.4909C92.5371 30.4909 92.5485 30.4869 92.5548 30.4819C92.56 30.4769 92.6036 30.4569 92.6525 30.4359C92.7014 30.4159 92.7742 30.3839 92.8137 30.3658C92.8543 30.3468 92.9125 30.3208 92.9437 30.3058C93.0872 30.2408 93.2296 30.1427 93.3534 30.0247C93.4491 29.9326 93.4605 29.9176 93.5395 29.8056C93.6217 29.6885 93.6508 29.6395 93.6726 29.5845C93.6851 29.5514 93.6986 29.5204 93.7028 29.5154C93.7548 29.4424 93.8203 29.0322 93.8432 28.635C93.8473 28.569 93.866 28.3709 93.8858 28.1948C93.9056 28.0187 93.9264 27.8116 93.9316 27.7345C93.9409 27.6145 93.9835 27.2033 93.9981 27.1002C94.0023 27.0722 94.0002 27.0682 93.9856 27.0722C93.9565 27.0802 93.8588 27.1202 93.7787 27.1553C93.7381 27.1733 93.6841 27.1943 93.6591 27.2023C93.6342 27.2113 93.579 27.2333 93.5364 27.2523C93.4938 27.2713 93.447 27.2903 93.4324 27.2943C93.4179 27.2983 93.3679 27.3183 93.3201 27.3404C93.2723 27.3614 93.2296 27.3794 93.2234 27.3794C93.2182 27.3794 93.1621 27.4014 93.0986 27.4294C93.0352 27.4564 92.979 27.4794 92.9749 27.4794C92.9697 27.4794 92.9218 27.4994 92.8688 27.5244C92.8158 27.5495 92.7659 27.5695 92.7596 27.5695C92.7523 27.5695 92.7128 27.5845 92.6712 27.6035C92.5891 27.6405 92.4695 27.6905 92.3874 27.7215C92.3593 27.7325 92.3125 27.7516 92.2834 27.7646C92.2553 27.7766 92.2033 27.7976 92.169 27.8096C92.1347 27.8226 92.0744 27.8476 92.0338 27.8656C91.9943 27.8836 91.9257 27.9126 91.883 27.9306C91.751 27.9837 91.6522 28.0257 91.5867 28.0547C91.5523 28.0697 91.5076 28.0877 91.4879 28.0947C91.4681 28.1017 91.4213 28.1207 91.3839 28.1377C91.3038 28.1738 91.1686 28.2308 91.0667 28.2698C91.0272 28.2858 90.9659 28.3128 90.9326 28.3288C90.8983 28.3458 90.866 28.3599 90.8598 28.3599C90.8535 28.3599 90.8057 28.3799 90.7548 28.4039C90.7028 28.4279 90.6497 28.4509 90.6352 28.4549C90.6206 28.4589 90.579 28.4769 90.5416 28.4949C90.5042 28.5119 90.4553 28.5329 90.4324 28.5399C90.4095 28.5469 90.3544 28.57 90.3107 28.591C90.266 28.613 90.2244 28.63 90.2182 28.63C90.2119 28.63 90.1704 28.647 90.1267 28.669C90.083 28.69 90.0362 28.711 90.0217 28.715C90.0071 28.719 89.9634 28.738 89.9229 28.757C89.8834 28.7761 89.8199 28.8031 89.7825 28.8171C89.745 28.8311 89.7014 28.8501 89.6837 28.8601C89.6671 28.8701 89.6411 28.8811 89.6265 28.8851C89.6119 28.8891 89.5527 28.9141 89.4944 28.9411C89.4352 28.9682 89.3832 28.9902 89.378 28.9902C89.3686 28.9902 89.2844 29.0282 89.0598 29.1312C89.013 29.1532 88.9714 29.1703 88.9662 29.1703C88.961 29.1703 88.9277 29.1833 88.8934 29.2003C88.8591 29.2163 88.7988 29.2423 88.7582 29.2583C88.7187 29.2753 88.6313 29.3113 88.5658 29.3403C88.5003 29.3684 88.4182 29.4034 88.3839 29.4174C88.3495 29.4304 88.283 29.4594 88.2362 29.4814C88.1904 29.5024 88.1478 29.5204 88.1426 29.5204C88.1385 29.5204 88.0969 29.5384 88.0511 29.5604C88.0054 29.5825 87.9638 29.6005 87.9596 29.6005C87.9554 29.6005 87.9024 29.6225 87.8431 29.6505C87.7839 29.6775 87.7298 29.7005 87.7246 29.7005C87.7183 29.7005 87.6736 29.7195 87.6258 29.7425L87.5384 29.7836L87.4781 29.7445C87.4438 29.7225 87.4095 29.7015 87.3991 29.6985C87.3897 29.6945 87.3513 29.6735 87.3128 29.6515C87.2743 29.6285 87.241 29.6105 87.2379 29.6105C87.2348 29.6105 87.2057 29.5935 87.1745 29.5735C87.1423 29.5534 87.0934 29.5264 87.0663 29.5134C87.0383 29.5004 86.9967 29.4764 86.9728 29.4604C86.9499 29.4434 86.926 29.4304 86.9208 29.4304C86.9156 29.4304 86.8823 29.4124 86.8459 29.3904C86.8095 29.3684 86.7762 29.3503 86.7721 29.3503C86.7679 29.3503 86.7326 29.3303 86.6951 29.3063C86.6577 29.2833 86.6161 29.2603 86.6036 29.2563C86.5911 29.2523 86.5631 29.2373 86.5412 29.2233C86.4986 29.1953 86.3592 29.1162 86.2677 29.0682C86.2365 29.0512 86.196 29.0272 86.1773 29.0142C86.1596 29.0012 86.1398 28.9902 86.1357 28.9902C86.1305 28.9902 86.092 28.9702 86.0504 28.9451C86.0088 28.9201 85.9714 28.9001 85.9672 28.9001C85.9641 28.9001 85.935 28.8841 85.9038 28.8641C85.8726 28.8441 85.8206 28.8151 85.7894 28.8001C85.7582 28.7841 85.7166 28.7601 85.6968 28.746C85.6771 28.732 85.6552 28.72 85.65 28.72C85.6438 28.72 85.6064 28.7 85.5679 28.675C85.5284 28.65 85.493 28.63 85.4878 28.63C85.4837 28.63 85.4629 28.619 85.4421 28.605C85.4213 28.591 85.3724 28.564 85.3339 28.5439C85.2955 28.5239 85.2518 28.4989 85.2372 28.4889C85.2216 28.4789 85.1977 28.4659 85.1821 28.4599C85.1665 28.4549 85.126 28.4319 85.0916 28.4099C85.0573 28.3879 85.0251 28.3699 85.0209 28.3699C85.0157 28.3699 84.9949 28.3589 84.9741 28.3448C84.9533 28.3308 84.9045 28.3038 84.866 28.2838C84.8275 28.2638 84.7849 28.2398 84.7703 28.2298C84.7474 28.2158 84.6684 28.1708 84.5571 28.1117C84.5405 28.1027 84.5 28.0797 84.4688 28.0607C84.4376 28.0417 84.3908 28.0157 84.3648 28.0027C84.3388 27.9897 84.2764 27.9547 84.2244 27.9246C84.1734 27.8946 84.1048 27.8576 84.0736 27.8406C84.0424 27.8246 83.9915 27.7956 83.9613 27.7766C83.9322 27.7566 83.8968 27.7375 83.8844 27.7335C83.8615 27.7265 83.848 27.7195 83.7752 27.6715C83.7564 27.6595 83.7377 27.6495 83.7325 27.6495C83.7273 27.6495 83.6951 27.6315 83.6618 27.6095C83.6275 27.5875 83.5953 27.5695 83.5901 27.5695C83.5838 27.5695 83.5537 27.5535 83.5225 27.5334C83.4913 27.5134 83.4351 27.4814 83.3977 27.4614C83.3603 27.4424 83.3176 27.4184 83.302 27.4084C83.2875 27.3974 83.2698 27.3894 83.2646 27.3894C83.2594 27.3894 83.2313 27.3744 83.2032 27.3554C83.1752 27.3364 83.1273 27.3093 83.0972 27.2943C83.067 27.2803 83.0233 27.2543 82.9994 27.2383C82.9765 27.2223 82.9537 27.2093 82.9495 27.2093C82.9443 27.2093 82.9069 27.1893 82.8653 27.1653C82.8237 27.1413 82.7769 27.1152 82.7613 27.1082C82.7467 27.1002 82.6979 27.0732 82.6542 27.0462C82.5762 26.9992 82.5512 26.9912 82.5408 27.0082ZM82.6594 29.9296C82.6854 29.9466 82.7103 29.9606 82.7145 29.9606C82.7187 29.9606 82.754 29.9807 82.7935 30.0057C82.833 30.0307 82.8684 30.0507 82.8726 30.0507C82.8809 30.0507 83.0275 30.1327 83.1169 30.1858C83.1544 30.2088 83.2542 30.2638 83.3519 30.3158C83.457 30.3718 83.5485 30.4239 83.5641 30.4359C83.5724 30.4429 83.6171 30.4669 83.6629 30.4909C83.7086 30.5139 83.7606 30.5439 83.7783 30.5569C83.796 30.5699 83.8157 30.5809 83.823 30.5809C83.8292 30.5809 83.8667 30.6 83.9052 30.624C83.9436 30.647 83.9894 30.674 84.006 30.683C84.0237 30.692 84.0767 30.721 84.1256 30.747C84.1745 30.773 84.2285 30.8041 84.2452 30.8161C84.2629 30.8281 84.3013 30.8501 84.3325 30.8651C84.3637 30.8811 84.4012 30.9011 84.4157 30.9101C84.4646 30.9421 84.6237 31.0312 84.631 31.0312C84.6351 31.0312 84.6622 31.0472 84.6923 31.0662C84.7225 31.0842 84.7714 31.1132 84.8026 31.1292C84.8338 31.1442 84.9013 31.1812 84.9523 31.2113C85.0043 31.2403 85.0646 31.2743 85.0875 31.2863C85.1104 31.2983 85.1499 31.3203 85.1748 31.3353C85.1998 31.3513 85.2445 31.3763 85.2736 31.3913C85.3256 31.4174 85.4057 31.4634 85.4982 31.5174C85.5242 31.5334 85.57 31.5584 85.6012 31.5734C85.6324 31.5894 85.6729 31.6135 85.6916 31.6265C85.7104 31.6405 85.7291 31.6515 85.7343 31.6515C85.7395 31.6515 85.7769 31.6715 85.8185 31.6965C85.8601 31.7215 85.8975 31.7415 85.9027 31.7415C85.9079 31.7415 85.9371 31.7575 85.9672 31.7775C85.9984 31.7975 86.0494 31.8266 86.0806 31.8416C86.1118 31.8576 86.1533 31.8816 86.1731 31.8956C86.1929 31.9096 86.2147 31.9216 86.2199 31.9216C86.2261 31.9216 86.2625 31.9416 86.301 31.9656C86.3395 31.9906 86.3811 32.0137 86.3936 32.0167C86.406 32.0207 86.4351 32.0367 86.4591 32.0517C86.5007 32.0787 86.5942 32.1307 86.693 32.1817C86.7201 32.1957 86.7637 32.2218 86.7897 32.2388C86.8157 32.2558 86.849 32.2728 86.8625 32.2768C86.875 32.2818 86.901 32.2948 86.9176 32.3068C86.9353 32.3198 86.9842 32.3488 87.0268 32.3718C87.0695 32.3958 87.1412 32.4359 87.1859 32.4609C87.2296 32.4859 87.2889 32.5179 87.3159 32.5319C87.343 32.5459 87.3908 32.5719 87.422 32.5909C87.4532 32.6099 87.4969 32.635 87.5177 32.646C87.5884 32.684 87.6965 32.744 87.7495 32.776C87.7787 32.793 87.8161 32.814 87.8327 32.822L87.8639 32.8381L87.8608 35.6534C87.8598 37.2022 87.8556 38.5379 87.8525 38.6209L87.8463 38.772L87.8088 38.789C87.787 38.799 87.7537 38.817 87.7339 38.829C87.6955 38.853 87.5863 38.915 87.5145 38.9521C87.4906 38.9641 87.4397 38.9921 87.4012 39.0141C87.3617 39.0371 87.3274 39.0551 87.3242 39.0551C87.3211 39.0551 87.2889 39.0731 87.2514 39.0961C87.1839 39.1362 87.1589 39.1502 87.0352 39.2142C86.9988 39.2322 86.9457 39.2632 86.9166 39.2812C86.8875 39.3002 86.8594 39.3152 86.8542 39.3152C86.849 39.3152 86.8272 39.3262 86.8064 39.3403C86.7856 39.3543 86.7481 39.3753 86.7232 39.3883C86.6743 39.4133 86.5537 39.4803 86.4705 39.5283C86.4424 39.5444 86.3904 39.5724 86.3561 39.5904C86.3218 39.6074 86.275 39.6344 86.2532 39.6484C86.2313 39.6634 86.2085 39.6754 86.2033 39.6754C86.197 39.6754 86.1804 39.6834 86.1658 39.6944C86.1502 39.7044 86.1055 39.7294 86.065 39.7505C86.0254 39.7705 85.9849 39.7935 85.9766 39.8005C85.9682 39.8075 85.9308 39.8275 85.8934 39.8455C85.8559 39.8635 85.8185 39.8835 85.8102 39.8915C85.8008 39.8985 85.7592 39.9225 85.7166 39.9435C85.6729 39.9656 85.6199 39.9946 85.5981 40.0096C85.5762 40.0236 85.5533 40.0356 85.5481 40.0356C85.5419 40.0356 85.5253 40.0436 85.5107 40.0546C85.4951 40.0646 85.4566 40.0866 85.4254 40.1036C85.3942 40.1196 85.3412 40.1486 85.309 40.1667C85.2299 40.2127 85.1572 40.2527 85.0656 40.3007C85.0251 40.3227 84.9845 40.3457 84.9762 40.3527C84.9689 40.3588 84.9409 40.3738 84.9159 40.3858C84.8899 40.3968 84.8483 40.4188 84.8234 40.4338C84.7641 40.4698 84.6955 40.5068 84.6195 40.5458C84.5852 40.5639 84.5343 40.5929 84.5052 40.6119C84.4771 40.6299 84.4417 40.6489 84.4272 40.6539C84.4126 40.6589 84.3762 40.6799 84.3461 40.6989C84.3169 40.7189 84.2816 40.7379 84.2691 40.7419C84.2556 40.7459 84.2337 40.7559 84.2192 40.766C84.1412 40.817 84.1079 40.836 84.0975 40.836C84.0923 40.836 84.0705 40.847 84.0507 40.859C84.031 40.872 83.9842 40.899 83.9467 40.919C83.9093 40.939 83.8604 40.9671 83.8396 40.9811C83.8178 40.9951 83.7949 41.0061 83.7876 41.0061C83.7804 41.0061 83.7429 41.0261 83.7034 41.0511C83.6649 41.0761 83.6285 41.0961 83.6233 41.0961C83.6181 41.0961 83.5849 41.1141 83.5495 41.1361C83.4871 41.1752 83.4653 41.1872 83.3332 41.2552C83.2968 41.2732 83.2448 41.3032 83.2157 41.3222C83.1876 41.3402 83.1523 41.3592 83.1377 41.3642C83.1232 41.3692 83.0868 41.3903 83.0566 41.4093C83.0275 41.4293 82.9921 41.4483 82.9786 41.4523C82.9662 41.4553 82.9277 41.4763 82.8934 41.4973C82.859 41.5183 82.8112 41.5463 82.7873 41.5583C82.7634 41.5713 82.7187 41.5944 82.6885 41.6104C82.6583 41.6254 82.6074 41.6564 82.5752 41.6774L82.5159 41.7154L82.4525 41.6754C82.4181 41.6544 82.388 41.6364 82.3849 41.6364C82.3797 41.6364 82.2382 41.5563 82.1447 41.4993C82.1103 41.4783 82.0708 41.4573 82.0563 41.4513C82.024 41.4393 81.8961 41.3672 81.8129 41.3142C81.7786 41.2932 81.7474 41.2762 81.7412 41.2762C81.736 41.2762 81.6996 41.2562 81.6611 41.2312C81.6226 41.2062 81.5862 41.1862 81.5821 41.1862C81.5769 41.1862 81.5353 41.1631 81.4895 41.1361C81.4438 41.1081 81.4022 41.0861 81.397 41.0861C81.3918 41.0861 81.372 41.0751 81.3544 41.0621C81.3356 41.0481 81.293 41.0241 81.2597 41.0071C81.2265 40.9911 81.1828 40.9661 81.163 40.952C81.1433 40.937 81.1214 40.926 81.1162 40.926C81.11 40.926 81.0736 40.906 81.0351 40.882C80.9966 40.857 80.9561 40.835 80.9446 40.831C80.9332 40.828 80.8927 40.805 80.8542 40.781C80.8147 40.7559 80.7783 40.7359 80.7731 40.7359C80.7668 40.7359 80.7388 40.7209 80.7096 40.7019C80.6587 40.6689 80.5537 40.6099 80.4767 40.5709C80.4559 40.5599 80.4122 40.5358 80.381 40.5168C80.3509 40.4978 80.3062 40.4728 80.2833 40.4608C80.2209 40.4278 80.092 40.3558 80.04 40.3237C80.014 40.3087 79.99 40.2957 79.9848 40.2957C79.9797 40.2957 79.9464 40.2767 79.911 40.2547C79.8757 40.2317 79.8372 40.2097 79.8247 40.2057C79.8122 40.2007 79.7748 40.1807 79.7415 40.1597C79.6781 40.1196 79.6479 40.1036 79.5377 40.0466C79.5013 40.0286 79.4493 39.9986 79.4202 39.9816C79.3921 39.9646 79.3547 39.9425 79.337 39.9335C79.3079 39.9175 79.2861 39.9055 79.18 39.8455C79.1561 39.8315 79.102 39.8025 79.0614 39.7805C79.0199 39.7585 78.9637 39.7254 78.9356 39.7074C78.9075 39.6904 78.8826 39.6754 78.8795 39.6754C78.8764 39.6754 78.8389 39.6554 78.7973 39.6304C78.7547 39.6054 78.7162 39.5854 78.7131 39.5854C78.7089 39.5854 78.6767 39.5674 78.6413 39.5454C78.606 39.5233 78.5582 39.4953 78.5342 39.4833C78.5103 39.4703 78.4427 39.4333 78.3845 39.4003C78.3252 39.3673 78.2566 39.3282 78.2306 39.3142C78.2046 39.3002 78.162 39.2762 78.136 39.2592C78.11 39.2432 78.0777 39.2252 78.0632 39.2202C78.0486 39.2142 78.0164 39.1972 77.9904 39.1822C77.8854 39.1201 77.8157 39.0811 77.7616 39.0521C77.7304 39.0361 77.6847 39.0091 77.6607 38.9941C77.6368 38.9781 77.614 38.9651 77.6088 38.9651C77.6036 38.9651 77.5651 38.9451 77.5235 38.92C77.4819 38.895 77.4445 38.875 77.4403 38.875C77.4372 38.875 77.4153 38.863 77.3925 38.847C77.3696 38.832 77.3155 38.802 77.2729 38.779L77.1949 38.739V38.0586C77.1949 37.6854 77.2001 36.3538 77.2063 35.1002C77.2167 32.8721 77.2178 32.821 77.2375 32.807C77.2479 32.799 77.2843 32.778 77.3176 32.76C77.3509 32.742 77.4018 32.713 77.432 32.695C77.4621 32.678 77.51 32.652 77.538 32.638C77.5672 32.624 77.616 32.5969 77.6472 32.5769C77.6784 32.5579 77.7086 32.5419 77.7138 32.5419C77.719 32.5419 77.7315 32.5359 77.7398 32.5279C77.7491 32.5209 77.7938 32.4959 77.8396 32.4719C77.8854 32.4489 77.9301 32.4239 77.9384 32.4168C77.9467 32.4098 77.9841 32.3888 78.0216 32.3708C78.059 32.3528 78.1037 32.3288 78.1204 32.3168C78.138 32.3048 78.1817 32.2798 78.2192 32.2618C78.2566 32.2438 78.294 32.2238 78.3023 32.2168C78.3107 32.2097 78.3346 32.1957 78.3554 32.1857C78.3762 32.1747 78.4126 32.1557 78.4375 32.1417C78.5374 32.0847 78.5737 32.0647 78.6465 32.0277C78.6892 32.0066 78.737 31.9796 78.7547 31.9676C78.7713 31.9566 78.816 31.9316 78.8535 31.9136C78.8909 31.8946 78.9283 31.8736 78.9367 31.8666C78.946 31.8586 78.9689 31.8456 78.9887 31.8366C79.0084 31.8276 79.051 31.8055 79.0822 31.7865C79.1134 31.7675 79.1561 31.7455 79.1758 31.7365C79.1956 31.7275 79.2185 31.7145 79.2278 31.7075C79.2361 31.6995 79.2694 31.6815 79.3006 31.6655C79.3318 31.6505 79.3724 31.6285 79.389 31.6165C79.4067 31.6045 79.4493 31.5804 79.4857 31.5634C79.5221 31.5454 79.5647 31.5224 79.5814 31.5114C79.598 31.5004 79.6271 31.4844 79.6459 31.4754C79.6646 31.4674 79.701 31.4474 79.727 31.4314C79.753 31.4144 79.7904 31.3943 79.8102 31.3853C79.8299 31.3763 79.8538 31.3633 79.8621 31.3563C79.8705 31.3493 79.9079 31.3293 79.9453 31.3113C79.9828 31.2933 80.0275 31.2683 80.0441 31.2563C80.0618 31.2443 80.1096 31.2163 80.1512 31.1952C80.2667 31.1362 80.2978 31.1192 80.3717 31.0762C80.4424 31.0352 80.4725 31.0182 80.5817 30.9621C80.6181 30.9441 80.6712 30.9141 80.6992 30.8951C80.7284 30.8771 80.7627 30.8581 80.7772 30.8531C80.7918 30.8481 80.8282 30.8271 80.8583 30.8081C80.8875 30.788 80.9228 30.769 80.9353 30.765C80.9488 30.761 80.9706 30.751 80.9852 30.741C81.0622 30.691 81.0965 30.671 81.1058 30.671C81.111 30.671 81.1318 30.66 81.1516 30.648C81.1713 30.635 81.2192 30.608 81.2576 30.5879C81.2951 30.5679 81.3429 30.5409 81.3627 30.5289C81.3824 30.5159 81.4313 30.4889 81.4708 30.4679C81.5862 30.4059 81.6008 30.3979 81.6778 30.3538C81.7193 30.3298 81.7568 30.3108 81.763 30.3108C81.7682 30.3108 81.7838 30.3028 81.7973 30.2918C81.8109 30.2818 81.8577 30.2558 81.9003 30.2338C81.9429 30.2118 81.997 30.1817 82.0188 30.1677C82.0407 30.1527 82.0635 30.1407 82.0687 30.1407C82.0739 30.1407 82.1093 30.1207 82.1488 30.0957C82.1883 30.0707 82.2237 30.0507 82.2278 30.0507C82.232 30.0507 82.2705 30.0307 82.3131 30.0057C82.3547 29.9807 82.3932 29.9606 82.3973 29.9606C82.4015 29.9606 82.4213 29.9496 82.441 29.9366C82.4608 29.9236 82.4961 29.9036 82.518 29.8926C82.5637 29.8686 82.5679 29.8706 82.6594 29.9296Z"/>
</mask>
<path d="M82.5408 27.0082C82.5377 27.0132 82.5232 27.0202 82.5096 27.0232C82.4951 27.0262 82.4566 27.0472 82.4233 27.0682C82.389 27.0902 82.3453 27.1152 82.3256 27.1232C82.3058 27.1323 82.2434 27.1663 82.1862 27.1993C82.1291 27.2313 82.0594 27.2703 82.0303 27.2853C82.0022 27.3003 81.9554 27.3263 81.9263 27.3444C81.8982 27.3624 81.8639 27.3804 81.8514 27.3834C81.8389 27.3874 81.7973 27.4104 81.7589 27.4344C81.7193 27.4594 81.684 27.4794 81.6788 27.4794C81.6736 27.4794 81.6403 27.4974 81.605 27.5194C81.5696 27.5415 81.5207 27.5695 81.4968 27.5815C81.3752 27.6445 81.2566 27.7105 81.2514 27.7185C81.2483 27.7235 81.2348 27.7295 81.2213 27.7335C81.2077 27.7365 81.1651 27.7596 81.1256 27.7846C81.0861 27.8096 81.0486 27.8296 81.0414 27.8296C81.0351 27.8296 81.006 27.8446 80.9779 27.8636C80.9498 27.8826 80.8989 27.9116 80.8646 27.9286C80.7959 27.9647 80.6566 28.0427 80.6005 28.0767C80.5807 28.0897 80.5599 28.0997 80.5547 28.0997C80.5505 28.0997 80.5121 28.1197 80.4715 28.1447C80.4299 28.1698 80.3914 28.1898 80.3852 28.1898C80.379 28.1898 80.3634 28.1978 80.3498 28.2088C80.3363 28.2188 80.2875 28.2478 80.2417 28.2718C80.1959 28.2968 80.1169 28.3408 80.0649 28.3699C80.014 28.3989 79.9516 28.4329 79.9287 28.4449C79.9048 28.4569 79.858 28.4829 79.8237 28.5029C79.7883 28.5239 79.7561 28.5399 79.7509 28.5399C79.7446 28.5399 79.729 28.5479 79.7155 28.559C79.702 28.569 79.6531 28.598 79.6074 28.622C79.5616 28.647 79.4826 28.691 79.4306 28.72C79.3796 28.75 79.3141 28.7851 79.285 28.7991C79.2569 28.8141 79.2143 28.8371 79.1914 28.8511C79.1686 28.8661 79.1311 28.8861 79.1082 28.8971C79.0854 28.9081 79.0438 28.9301 79.0147 28.9471C78.8576 29.0382 78.7828 29.0802 78.7765 29.0802C78.7734 29.0802 78.737 29.1002 78.6954 29.1252C78.6538 29.1502 78.6164 29.1703 78.6112 29.1703C78.607 29.1703 78.5904 29.1783 78.5748 29.1883C78.4937 29.2413 78.4614 29.2603 78.4479 29.2603C78.4406 29.2603 78.4198 29.2703 78.4022 29.2833C78.3845 29.2963 78.3377 29.3243 78.2971 29.3453C78.2576 29.3663 78.2129 29.3904 78.1984 29.4004C78.1838 29.4104 78.162 29.4204 78.1495 29.4244C78.137 29.4284 78.0954 29.4514 78.0569 29.4754C78.0174 29.5004 77.9821 29.5204 77.9769 29.5204C77.9706 29.5204 77.9405 29.5374 77.9093 29.5574C77.877 29.5775 77.8292 29.6045 77.8032 29.6175C77.7772 29.6295 77.7117 29.6675 77.6576 29.7005C77.6036 29.7335 77.5422 29.7685 77.5224 29.7786C77.4715 29.8026 77.2469 29.9256 77.119 29.9997C77.0867 30.0177 77.0295 30.0497 76.9921 30.0687C76.9557 30.0887 76.9089 30.1147 76.8892 30.1277C76.8704 30.1407 76.8496 30.1507 76.8444 30.1507C76.8361 30.1507 76.8247 30.1567 76.7477 30.2078C76.7301 30.2188 76.7041 30.2318 76.6905 30.2358C76.676 30.2398 76.651 30.2538 76.6334 30.2658C76.6167 30.2788 76.572 30.3028 76.5346 30.3208C76.4971 30.3388 76.4524 30.3638 76.4347 30.3768C76.4171 30.3899 76.3994 30.4009 76.3942 30.4009C76.39 30.4009 76.3474 30.4229 76.2996 30.4509C76.2517 30.4779 76.2091 30.5009 76.2039 30.5009C76.1987 30.5009 76.1831 30.5089 76.1696 30.5199C76.1561 30.5299 76.1124 30.5549 76.0718 30.5759C76.0323 30.596 75.9918 30.619 75.9834 30.626C75.9751 30.633 75.9387 30.653 75.9034 30.671C75.867 30.688 75.8139 30.718 75.7848 30.737C75.7557 30.755 75.7276 30.771 75.7224 30.771C75.7162 30.771 75.685 30.787 75.6528 30.8081C75.6205 30.8281 75.58 30.8501 75.5623 30.8581C75.5457 30.8651 75.5009 30.8891 75.4645 30.9111C75.4292 30.9331 75.3959 30.9511 75.3918 30.9511C75.3876 30.9511 75.3522 30.9711 75.3127 30.9962C75.2722 31.0212 75.2358 31.0412 75.2295 31.0412C75.2243 31.0412 75.1983 31.0552 75.1723 31.0722C75.1297 31.1002 75.0673 31.1342 74.9353 31.2013C74.9082 31.2153 74.8593 31.2433 74.8261 31.2633C74.7938 31.2843 74.7616 31.3013 74.7564 31.3013C74.7502 31.3013 74.7231 31.3163 74.6961 31.3333L74.6462 31.3663L74.6389 32.0467C74.6347 32.4209 74.6316 33.2813 74.6316 33.9586C74.6316 34.6359 74.6285 35.2182 74.6254 35.2522L74.6181 35.3143L74.5183 35.3593C74.2635 35.4764 74.2292 35.4914 74.2053 35.4984C74.1907 35.5024 74.1606 35.5164 74.1377 35.5294C74.1148 35.5414 74.0732 35.5604 74.0441 35.5714C74.016 35.5824 73.9547 35.6074 73.9089 35.6284C73.8631 35.6484 73.7789 35.6855 73.7217 35.7105C73.6645 35.7345 73.5751 35.7755 73.5231 35.7995C73.4701 35.8235 73.4222 35.8435 73.416 35.8435C73.4098 35.8435 73.3692 35.8615 73.3266 35.8836C73.2839 35.9056 73.2444 35.9236 73.2382 35.9236C73.233 35.9236 73.1779 35.9466 73.1165 35.9746C73.0541 36.0026 72.9574 36.0456 72.9002 36.0706C72.843 36.0957 72.7536 36.1357 72.7016 36.1597C72.6496 36.1837 72.6018 36.2037 72.5955 36.2037C72.5893 36.2037 72.5498 36.2207 72.5072 36.2427C72.4656 36.2637 72.4198 36.2847 72.4063 36.2888C72.3917 36.2928 72.3356 36.3168 72.2815 36.3408C72.2274 36.3658 72.1359 36.4058 72.0787 36.4308C72.0215 36.4558 71.9363 36.4939 71.8895 36.5149C71.8437 36.5369 71.8021 36.5539 71.798 36.5539C71.7834 36.5539 71.5754 36.6759 71.5515 36.698C71.538 36.71 71.5141 36.728 71.4964 36.739C71.4798 36.749 71.459 36.766 71.4507 36.777C71.4434 36.787 71.4247 36.803 71.4091 36.812C71.3935 36.822 71.3539 36.858 71.3207 36.894C71.2874 36.9301 71.2479 36.9731 71.2323 36.9891C71.1626 37.0631 71.017 37.3012 70.9827 37.3963C70.9723 37.4253 70.9494 37.4883 70.9318 37.5354C70.9099 37.5964 70.8954 37.6694 70.8787 37.7955C70.8527 38.0016 70.8091 38.4108 70.7997 38.5449C70.7955 38.5969 70.7789 38.761 70.7623 38.91C70.7227 39.2672 70.7134 39.3623 70.7009 39.5353C70.6947 39.6154 70.678 39.7815 70.6635 39.9045C70.6489 40.0276 70.6385 40.1336 70.6406 40.1406C70.6427 40.1507 70.6552 40.1486 70.6905 40.1336C70.7165 40.1226 70.7768 40.0966 70.8257 40.0756C71.0139 39.9946 71.1564 39.9315 71.2364 39.8945C71.2832 39.8725 71.3248 39.8555 71.329 39.8555C71.3342 39.8555 71.381 39.8355 71.433 39.8115C71.485 39.7875 71.5765 39.7465 71.6368 39.7204C71.6971 39.6944 71.7938 39.6514 71.852 39.6244C71.9103 39.5974 71.9623 39.5754 71.9685 39.5754C71.9747 39.5754 72.0205 39.5554 72.0704 39.5303C72.1203 39.5053 72.165 39.4853 72.1692 39.4853C72.1744 39.4853 72.216 39.4673 72.2638 39.4463C72.3106 39.4253 72.4032 39.3833 72.4687 39.3553C72.5342 39.3262 72.6319 39.2832 72.6839 39.2592C72.737 39.2352 72.7848 39.2152 72.79 39.2152C72.7952 39.2152 72.8295 39.2002 72.8659 39.1812C72.9023 39.1632 72.9429 39.1452 72.9574 39.1412C72.972 39.1372 73.0209 39.1161 73.0666 39.0951C73.1124 39.0731 73.2039 39.0331 73.2694 39.0041C73.3349 38.9761 73.4285 38.9351 73.4774 38.913C73.5262 38.89 73.5824 38.867 73.6021 38.86C73.6219 38.853 73.6625 38.836 73.6905 38.822C73.7394 38.799 73.8548 38.748 74.1065 38.6379C74.1637 38.6129 74.2437 38.5779 74.2833 38.5599C74.3238 38.5419 74.3841 38.5148 74.4184 38.5008C74.4528 38.4868 74.5037 38.4638 74.5318 38.4498C74.6108 38.4108 74.615 38.4128 74.6077 38.4918C74.6035 38.5299 74.6004 38.918 74.6004 39.3563V40.1527L74.5463 40.1757C74.4153 40.2307 74.2562 40.3007 74.1813 40.3367C74.1366 40.3588 74.095 40.3758 74.0898 40.3758C74.0836 40.3758 74.0358 40.3958 73.9838 40.4198C73.9307 40.4438 73.834 40.4868 73.7685 40.5158C73.5741 40.5999 73.4472 40.6559 73.3463 40.7019C73.2943 40.7259 73.2475 40.7459 73.2423 40.7459C73.2382 40.7459 73.1966 40.764 73.1498 40.785C73.104 40.807 73.0125 40.848 72.947 40.876C72.6735 40.9941 72.6361 41.0101 72.5436 41.0521C72.4905 41.0761 72.4448 41.0961 72.4416 41.0961C72.4385 41.0961 72.3969 41.1131 72.3512 41.1351C72.3044 41.1561 72.2118 41.1972 72.1463 41.2262C71.9092 41.3292 71.8593 41.3522 71.7522 41.4043C71.6576 41.4513 71.5588 41.5083 71.5432 41.5263C71.5401 41.5293 71.5245 41.5403 71.5078 41.5503C71.4382 41.5934 71.2073 41.8175 71.1751 41.8745C71.1699 41.8845 71.1626 41.8935 71.1585 41.8965C71.1491 41.9035 71.0753 42.0126 71.0753 42.0186C71.0753 42.0216 71.0586 42.0496 71.0389 42.0816C71.0191 42.1136 70.9952 42.1626 70.9858 42.1907C70.9765 42.2187 70.965 42.2467 70.9598 42.2517C70.9442 42.2717 70.9078 42.3757 70.8922 42.4478C70.8652 42.5768 70.8184 42.956 70.8049 43.1641C70.7987 43.2512 70.7758 43.4863 70.7539 43.6874C70.7311 43.8885 70.7103 44.0996 70.7061 44.1576C70.702 44.2156 70.6853 44.3817 70.6687 44.5278C70.652 44.6739 70.6354 44.837 70.6312 44.891L70.625 44.988L70.7071 44.952C70.7519 44.932 70.8361 44.896 70.8933 44.871C70.9505 44.846 71.0399 44.8059 71.0919 44.7819C71.1449 44.7579 71.1917 44.7379 71.1969 44.7379C71.2021 44.7379 71.2416 44.7199 71.2853 44.6989C71.329 44.6769 71.3758 44.6569 71.3893 44.6529C71.4122 44.6459 71.4517 44.6289 71.6805 44.5238C71.7356 44.4988 71.7845 44.4778 71.7897 44.4778C71.7938 44.4778 71.8344 44.4598 71.8812 44.4388C71.9269 44.4167 71.9903 44.3897 72.0215 44.3777C72.0527 44.3657 72.0933 44.3477 72.111 44.3367C72.1286 44.3267 72.1619 44.3117 72.1838 44.3037C72.2233 44.2907 72.3241 44.2457 72.4947 44.1676C72.5404 44.1466 72.5893 44.1266 72.6039 44.1226C72.6184 44.1186 72.6704 44.0956 72.7193 44.0716C72.7692 44.0476 72.8118 44.0276 72.816 44.0276C72.8202 44.0276 72.8566 44.0115 72.8982 43.9915C72.9387 43.9715 72.9907 43.9495 73.0125 43.9415C73.05 43.9285 73.077 43.9165 73.3131 43.8084C73.3744 43.7804 73.4285 43.7574 73.4337 43.7574C73.4378 43.7574 73.4836 43.7374 73.5335 43.7124C73.5845 43.6874 73.6313 43.6674 73.6385 43.6674C73.6458 43.6674 73.6812 43.6524 73.7186 43.6334C73.756 43.6154 73.7976 43.5963 73.8112 43.5923C73.8351 43.5853 73.9183 43.5483 74.119 43.4563C74.1647 43.4353 74.2073 43.4173 74.2125 43.4173C74.2167 43.4173 74.2583 43.3992 74.3041 43.3782C74.4517 43.3082 74.5713 43.2572 74.5869 43.2572C74.5994 43.2572 74.6004 43.3732 74.5952 44.0296C74.5921 44.4548 74.5879 45.7364 74.5848 46.876L74.5786 48.95L74.6077 48.938C74.6233 48.932 74.6514 48.916 74.668 48.905C74.6857 48.8929 74.7294 48.8679 74.7668 48.8499C74.8042 48.8319 74.8489 48.8079 74.8656 48.7959C74.8833 48.7829 74.9249 48.7599 74.9592 48.7429C74.9935 48.7259 75.0403 48.7009 75.0621 48.6858C75.084 48.6718 75.1068 48.6598 75.111 48.6598C75.1162 48.6598 75.1526 48.6398 75.1931 48.6148C75.2337 48.5898 75.2701 48.5698 75.2742 48.5698C75.2784 48.5698 75.3148 48.5498 75.3543 48.5248C75.3949 48.4998 75.4323 48.4797 75.4385 48.4797C75.4448 48.4797 75.4697 48.4667 75.4926 48.4497C75.5165 48.4337 75.5581 48.4097 75.5872 48.3967C75.6153 48.3827 75.66 48.3587 75.686 48.3407C75.7131 48.3237 75.738 48.3097 75.7422 48.3097C75.7474 48.3097 75.7848 48.2887 75.8275 48.2636C75.8701 48.2386 75.9148 48.2136 75.9273 48.2096C75.9387 48.2046 75.9782 48.1826 76.0146 48.1606C76.051 48.1376 76.0843 48.1196 76.0895 48.1196C76.0947 48.1196 76.1238 48.1046 76.1529 48.0856C76.1831 48.0665 76.2184 48.0465 76.233 48.0415C76.2476 48.0365 76.284 48.0155 76.3152 47.9955C76.3453 47.9755 76.3734 47.9595 76.3775 47.9595C76.3817 47.9595 76.4347 47.9285 76.4951 47.8905C76.651 47.7924 76.8174 47.6313 76.9224 47.4763C76.9661 47.4122 77.0025 47.3562 77.0025 47.3522C77.0025 47.3492 77.0191 47.3132 77.0389 47.2732C77.0795 47.1911 77.1419 46.972 77.1574 46.8559C77.1647 46.8039 77.171 45.9085 77.1762 44.1966C77.1793 42.7779 77.1855 41.6164 77.1886 41.6164C77.2011 41.6174 77.3685 41.7084 77.458 41.7644C77.4954 41.7875 77.5308 41.8065 77.536 41.8065C77.5401 41.8065 77.5713 41.8235 77.6036 41.8435C77.6618 41.8795 77.694 41.8965 77.8261 41.9655C77.8625 41.9836 77.9103 42.0116 77.9332 42.0266C77.9737 42.0536 78.0673 42.1066 78.1661 42.1566C78.1932 42.1706 78.2368 42.1967 78.2628 42.2137C78.2888 42.2307 78.3221 42.2477 78.3356 42.2517C78.3481 42.2567 78.3741 42.2697 78.3907 42.2817C78.4084 42.2947 78.4531 42.3207 78.4916 42.3407C78.5301 42.3607 78.5789 42.3877 78.5997 42.4018C78.6205 42.4158 78.6424 42.4268 78.6476 42.4268C78.6528 42.4268 78.6881 42.4468 78.7276 42.4718C78.7672 42.4968 78.8025 42.5168 78.8077 42.5168C78.8129 42.5168 78.8493 42.5368 78.8878 42.5618C78.9273 42.5868 78.9627 42.6069 78.9679 42.6069C78.972 42.6069 78.9928 42.6179 79.0136 42.6319C79.0354 42.6459 79.0885 42.6759 79.1322 42.6979C79.1758 42.7209 79.2195 42.7449 79.2278 42.7529C79.2361 42.7599 79.2559 42.7699 79.2705 42.7759C79.285 42.7809 79.3256 42.802 79.3588 42.823C79.3921 42.844 79.4379 42.87 79.4587 42.882C79.5907 42.951 79.6822 43.0021 79.6958 43.0131C79.7041 43.0191 79.7446 43.0421 79.7842 43.0621C79.8247 43.0831 79.8684 43.1081 79.8819 43.1181C79.8954 43.1291 79.911 43.1371 79.9162 43.1371C79.9225 43.1371 79.9557 43.1551 79.9911 43.1771C80.0264 43.1991 80.0743 43.2272 80.0982 43.2392C80.2157 43.3012 80.2958 43.3452 80.3415 43.3752C80.3696 43.3922 80.3956 43.4073 80.3998 43.4073C80.405 43.4073 80.4393 43.4273 80.4777 43.4513C80.5162 43.4763 80.5578 43.4993 80.5693 43.5023C80.5817 43.5063 80.6192 43.5263 80.6524 43.5483C80.6868 43.5693 80.718 43.5873 80.7232 43.5873C80.7284 43.5873 80.7502 43.5983 80.771 43.6124C80.7918 43.6254 80.8355 43.6514 80.8687 43.6684C80.901 43.6864 80.9467 43.7124 80.9696 43.7274C80.9925 43.7424 81.0226 43.7584 81.0351 43.7624C81.0486 43.7664 81.0798 43.7824 81.1027 43.7974C81.1266 43.8124 81.1703 43.8385 81.1994 43.8535C81.2275 43.8695 81.2764 43.8955 81.3065 43.9125C81.3367 43.9285 81.3928 43.9615 81.4303 43.9855C81.4677 44.0085 81.5041 44.0276 81.5103 44.0276C81.5155 44.0276 81.553 44.0476 81.5914 44.0726C81.631 44.0976 81.6663 44.1176 81.6705 44.1176C81.6736 44.1176 81.7141 44.1396 81.7599 44.1676C81.8057 44.1946 81.8473 44.2176 81.8525 44.2176C81.8577 44.2176 81.8764 44.2287 81.894 44.2417C81.9117 44.2547 81.9523 44.2777 81.9835 44.2927C82.0147 44.3077 82.0594 44.3327 82.0823 44.3477C82.1051 44.3627 82.1405 44.3827 82.1603 44.3917C82.18 44.4007 82.2174 44.4207 82.2434 44.4378C82.2694 44.4538 82.3017 44.4728 82.3162 44.4778C82.3308 44.4838 82.3661 44.5048 82.3963 44.5238C82.4254 44.5428 82.4545 44.5578 82.4597 44.5578C82.4649 44.5578 82.5013 44.5778 82.5408 44.6028C82.5804 44.6269 82.6168 44.6479 82.6209 44.6479C82.6251 44.6479 82.6604 44.6679 82.6999 44.6929C82.7395 44.7179 82.7748 44.7379 82.78 44.7379C82.7852 44.7379 82.806 44.7479 82.8258 44.7609C82.8767 44.7919 83.0192 44.872 83.0805 44.904C83.1097 44.919 83.1564 44.945 83.1845 44.963C83.2136 44.98 83.2688 45.013 83.3083 45.0341C83.3478 45.0551 83.405 45.0861 83.4351 45.1031C83.4653 45.1191 83.5214 45.1501 83.561 45.1721C83.5994 45.1931 83.6504 45.2231 83.6733 45.2372C83.6961 45.2522 83.7409 45.2772 83.772 45.2922C83.8032 45.3082 83.8365 45.3262 83.8448 45.3332C83.8532 45.3402 83.8812 45.3572 83.9072 45.3712C83.9332 45.3842 83.9915 45.4142 84.0372 45.4382C84.083 45.4623 84.135 45.4913 84.1516 45.5033C84.1693 45.5153 84.2088 45.5373 84.24 45.5533C84.2712 45.5683 84.3117 45.5913 84.3294 45.6043C84.3471 45.6173 84.3658 45.6283 84.371 45.6283C84.3762 45.6283 84.4178 45.6514 84.4636 45.6784C84.5093 45.7064 84.5499 45.7284 84.554 45.7284C84.5571 45.7284 84.5894 45.7464 84.6237 45.7684C84.658 45.7904 84.6903 45.8084 84.6955 45.8084C84.7007 45.8084 84.7318 45.8254 84.7662 45.8464C84.8348 45.8885 84.9419 45.9495 85.023 45.9905C85.0521 46.0055 85.0948 46.0305 85.1176 46.0455C85.1416 46.0606 85.1842 46.0846 85.2123 46.0986C85.2611 46.1236 85.3121 46.1516 85.4483 46.2296C85.519 46.2707 85.6064 46.3187 85.6428 46.3377C85.6573 46.3447 85.6989 46.3687 85.7343 46.3897C85.7696 46.4117 85.8029 46.4287 85.8071 46.4287C85.8123 46.4287 85.8414 46.4457 85.8747 46.4668C85.9069 46.4868 85.9662 46.5218 86.0078 46.5438C86.0785 46.5818 86.1149 46.6018 86.2168 46.6588C86.2407 46.6729 86.2812 46.6949 86.3052 46.7089C86.3499 46.7329 86.4403 46.7839 86.6317 46.891C86.6837 46.92 86.743 46.953 86.7648 46.964C86.7856 46.975 86.8282 47 86.8594 47.018C86.8906 47.037 86.9332 47.062 86.9551 47.0731C86.9967 47.0951 87.109 47.1571 87.2712 47.2491C87.3232 47.2782 87.3866 47.3132 87.4137 47.3282C87.5395 47.3962 87.6081 47.4352 87.656 47.4652C87.6851 47.4843 87.7131 47.4993 87.7194 47.4993C87.7246 47.4993 87.761 47.5193 87.8005 47.5443C87.839 47.5683 87.8806 47.5913 87.891 47.5943C87.9024 47.5983 87.9398 47.6183 87.9731 47.6403C88.0074 47.6613 88.0386 47.6794 88.0438 47.6794C88.0501 47.6794 88.0771 47.6944 88.1052 47.7134C88.1333 47.7324 88.1821 47.7594 88.2133 47.7744C88.2445 47.7894 88.284 47.8124 88.3007 47.8244C88.3183 47.8364 88.3527 47.8564 88.3787 47.8684C88.4047 47.8815 88.4452 47.9045 88.4691 47.9195C88.492 47.9345 88.5211 47.9505 88.5326 47.9535C88.544 47.9575 88.5856 47.9805 88.6241 48.0045C88.6636 48.0295 88.6989 48.0495 88.7031 48.0495C88.7083 48.0495 88.7364 48.0655 88.7665 48.0846C88.7956 48.1036 88.8248 48.1196 88.83 48.1196C88.8341 48.1196 88.8695 48.1396 88.908 48.1636C88.9454 48.1876 88.988 48.2106 89.0015 48.2146C89.0151 48.2186 89.0504 48.2386 89.0785 48.2576C89.1076 48.2776 89.1523 48.3037 89.1783 48.3167C89.2043 48.3287 89.2688 48.3637 89.3197 48.3937C89.3717 48.4237 89.4414 48.4627 89.4757 48.4797C89.51 48.4968 89.5527 48.5218 89.5693 48.5338C89.587 48.5468 89.6213 48.5668 89.6473 48.5788C89.6962 48.6018 89.8293 48.6758 89.9041 48.7229C89.9291 48.7379 89.952 48.7499 89.9572 48.7499C89.9613 48.7499 89.9905 48.7659 90.0217 48.7859C90.0528 48.8059 90.0934 48.8289 90.11 48.8369C90.1277 48.8439 90.162 48.8639 90.188 48.8799C90.214 48.8969 90.2535 48.919 90.2764 48.93C90.2993 48.941 90.3367 48.962 90.3607 48.975L90.4033 49L90.4095 48.6018C90.4137 48.3837 90.4168 47.8955 90.4168 47.5183C90.4168 46.7869 90.4147 46.7569 90.3638 46.5858C90.3523 46.5458 90.3367 46.4938 90.3295 46.4688C90.3107 46.4077 90.2078 46.2126 90.1683 46.1646C90.1506 46.1436 90.136 46.1216 90.136 46.1156C90.136 46.1046 89.9842 45.9385 89.9426 45.9035C89.8615 45.8354 89.8345 45.8144 89.7887 45.7814C89.7596 45.7614 89.7107 45.7324 89.6795 45.7154C89.6473 45.6984 89.6067 45.6744 89.5891 45.6614C89.5714 45.6484 89.5527 45.6383 89.5475 45.6383C89.5423 45.6383 89.5038 45.6183 89.4622 45.5933C89.4206 45.5683 89.3832 45.5483 89.378 45.5483C89.3738 45.5483 89.3509 45.5353 89.3281 45.5193C89.3041 45.5033 89.2605 45.4773 89.2303 45.4623C89.1991 45.4473 89.1554 45.4232 89.1326 45.4082C89.1097 45.3942 89.0837 45.3792 89.0754 45.3762C89.0671 45.3732 89.0244 45.3502 88.9818 45.3242C88.9392 45.2992 88.9007 45.2782 88.8965 45.2782C88.8924 45.2782 88.857 45.2582 88.8185 45.2331C88.7801 45.2081 88.7437 45.1881 88.7385 45.1881C88.7322 45.1881 88.7 45.1701 88.6657 45.1481C88.6324 45.1261 88.6002 45.1081 88.596 45.1081C88.5908 45.1081 88.5596 45.0911 88.5274 45.0701C88.4941 45.0501 88.4452 45.022 88.4182 45.008C88.3516 44.974 88.2362 44.911 88.1915 44.883C88.1717 44.87 88.1281 44.846 88.0958 44.8289C88.0625 44.8119 88.0189 44.7859 87.9981 44.7729C87.9773 44.7589 87.9554 44.7479 87.9502 44.7479C87.945 44.7479 87.9097 44.7289 87.8712 44.7049C87.8327 44.6819 87.788 44.6549 87.7703 44.6459C87.606 44.5578 87.5592 44.5318 87.5364 44.5148C87.5218 44.5048 87.4948 44.4898 87.4761 44.4828C87.4573 44.4748 87.4178 44.4538 87.3877 44.4358C87.3586 44.4177 87.3201 44.3947 87.3024 44.3857C87.2733 44.3697 87.2514 44.3577 87.1454 44.2977C87.1215 44.2837 87.0674 44.2547 87.0268 44.2327C86.9852 44.2106 86.9291 44.1776 86.901 44.1606C86.8729 44.1426 86.8469 44.1276 86.8438 44.1276C86.8397 44.1276 86.8022 44.1076 86.7606 44.0826C86.7201 44.0576 86.6826 44.0376 86.6785 44.0376C86.6733 44.0376 86.6442 44.0206 86.613 44.0005C86.5807 43.9805 86.5319 43.9535 86.5048 43.9405C86.4767 43.9275 86.4351 43.9035 86.4112 43.8875C86.3884 43.8705 86.3644 43.8575 86.3592 43.8575C86.354 43.8575 86.3166 43.8375 86.2771 43.8124C86.2376 43.7874 86.2012 43.7674 86.197 43.7674C86.1929 43.7674 86.1575 43.7474 86.118 43.7224C86.0795 43.6984 86.0379 43.6754 86.0254 43.6714C86.013 43.6684 85.9953 43.6594 85.987 43.6524C85.9703 43.6384 85.8175 43.5533 85.7135 43.4993C85.6781 43.4803 85.6345 43.4553 85.6157 43.4413C85.5981 43.4283 85.5783 43.4173 85.5741 43.4173C85.5689 43.4173 85.5305 43.3972 85.4889 43.3722C85.4473 43.3472 85.4098 43.3272 85.4067 43.3272C85.4026 43.3272 85.3786 43.3132 85.3526 43.2962C85.3267 43.2802 85.2788 43.2522 85.2455 43.2362C85.2112 43.2192 85.1655 43.1931 85.1426 43.1771C85.1062 43.1511 85.1031 43.1461 85.1197 43.1401C85.1312 43.1371 85.1655 43.1171 85.1977 43.0971C85.2299 43.0771 85.2695 43.0551 85.2861 43.0501C85.3027 43.0441 85.3443 43.0211 85.3776 42.998C85.4119 42.976 85.4442 42.957 85.4504 42.957C85.4566 42.957 85.4785 42.947 85.4982 42.934C85.5596 42.896 85.7821 42.7729 85.936 42.6919C85.9818 42.6679 86.0598 42.6249 86.1409 42.5778C86.1731 42.5598 86.2241 42.5318 86.2521 42.5168C86.2812 42.5018 86.327 42.4758 86.3551 42.4578C86.3842 42.4408 86.4112 42.4268 86.4154 42.4268C86.4206 42.4268 86.4383 42.4178 86.4549 42.4068C86.4726 42.3958 86.4986 42.3787 86.5152 42.3677C86.5308 42.3577 86.5558 42.3457 86.5693 42.3417C86.5839 42.3377 86.6098 42.3237 86.6265 42.3117C86.6442 42.2987 86.6878 42.2737 86.7253 42.2567C86.7627 42.2387 86.8001 42.2177 86.8085 42.2107C86.8251 42.1977 86.9405 42.1336 87.032 42.0866C87.0611 42.0726 87.1121 42.0436 87.1454 42.0226C87.1797 42.0016 87.215 41.9826 87.2234 41.9795C87.2327 41.9755 87.2733 41.9535 87.3138 41.9305C87.3544 41.9065 87.3918 41.8865 87.397 41.8865C87.4022 41.8865 87.4345 41.8685 87.4688 41.8465C87.5031 41.8245 87.5343 41.8065 87.5384 41.8065C87.5436 41.8065 87.58 41.7865 87.6216 41.7614C87.6632 41.7364 87.7007 41.7164 87.7038 41.7164C87.7079 41.7164 87.7454 41.6964 87.787 41.6714C87.8286 41.6464 87.867 41.6264 87.8712 41.6264C87.8754 41.6264 87.9118 41.6064 87.9513 41.5814C87.9908 41.5563 88.0282 41.5363 88.0334 41.5363C88.0386 41.5363 88.0615 41.5243 88.0833 41.5103C88.1229 41.4843 88.2466 41.4153 88.3319 41.3713C88.3547 41.3602 88.4015 41.3332 88.4348 41.3122C88.4681 41.2912 88.5066 41.2712 88.519 41.2662C88.5315 41.2612 88.5679 41.2412 88.6002 41.2222C88.6324 41.2022 88.6709 41.1812 88.6865 41.1762C88.7021 41.1702 88.7281 41.1561 88.7447 41.1451C88.7769 41.1231 88.8892 41.0601 88.9776 41.0161C89.0067 41.0011 89.0525 40.9751 89.0785 40.957C89.1045 40.94 89.1388 40.921 89.1554 40.915C89.171 40.909 89.2085 40.889 89.2376 40.87C89.2677 40.852 89.3031 40.832 89.3166 40.827C89.3312 40.822 89.3717 40.799 89.4081 40.777C89.4445 40.7539 89.4768 40.7359 89.482 40.7359C89.4861 40.7359 89.5236 40.7159 89.5652 40.6909C89.6067 40.6659 89.6442 40.6459 89.6483 40.6459C89.6515 40.6459 89.6868 40.6259 89.7263 40.6009C89.7648 40.5759 89.8022 40.5558 89.8095 40.5558C89.8158 40.5558 89.8449 40.5408 89.873 40.5218C89.901 40.5028 89.952 40.4738 89.9863 40.4568C90.0196 40.4388 90.0643 40.4158 90.084 40.4038C90.1038 40.3928 90.1589 40.3618 90.2057 40.3347C90.2525 40.3077 90.2941 40.2857 90.2972 40.2857C90.3014 40.2857 90.3315 40.2697 90.3638 40.2507L90.4241 40.2147L90.4303 39.7274C90.4345 39.4593 90.4376 38.6999 90.4376 38.0396C90.4376 37.3793 90.4407 36.6749 90.4449 36.4738L90.4522 36.1087L90.553 36.0606C90.6092 36.0346 90.6601 36.0136 90.6674 36.0136C90.6737 36.0136 90.7152 35.9956 90.7589 35.9746C90.8026 35.9526 90.892 35.9116 90.9575 35.8836C91.1198 35.8135 91.2664 35.7495 91.3808 35.6975C91.4338 35.6734 91.4837 35.6534 91.491 35.6534C91.4983 35.6534 91.5128 35.6474 91.5243 35.6394C91.5357 35.6324 91.5804 35.6114 91.623 35.5944C91.6657 35.5764 91.7343 35.5474 91.7738 35.5284C91.8144 35.5104 91.9007 35.4713 91.9662 35.4433C92.0317 35.4143 92.1295 35.3713 92.1825 35.3473C92.2345 35.3233 92.2844 35.3033 92.2917 35.3033C92.2979 35.3033 92.325 35.2913 92.351 35.2773C92.377 35.2632 92.4258 35.2402 92.4601 35.2262C92.5319 35.1972 92.6577 35.1412 92.7929 35.0772C92.8449 35.0531 92.8906 35.0331 92.8948 35.0331C92.899 35.0331 92.927 35.0161 92.9572 34.9951C92.9874 34.9731 93.0238 34.9501 93.0393 34.9421C93.0924 34.9151 93.2546 34.777 93.3305 34.693C93.4366 34.5769 93.4927 34.5029 93.5572 34.3928C93.657 34.2227 93.7371 33.9636 93.7496 33.7775C93.7527 33.7165 93.7725 33.5264 93.7922 33.3533C93.812 33.1812 93.8348 32.9561 93.8432 32.8531C93.8515 32.751 93.8744 32.5179 93.8941 32.3368C93.9139 32.1547 93.9336 31.9616 93.9368 31.9066C93.9409 31.8516 93.9524 31.7315 93.9617 31.6385C93.9742 31.5254 93.9763 31.4714 93.969 31.4714C93.9586 31.4714 93.8577 31.5154 93.6331 31.6175C93.5811 31.6415 93.5343 31.6615 93.5302 31.6615C93.526 31.6615 93.4855 31.6795 93.4387 31.7005C93.3929 31.7225 93.3004 31.7625 93.2348 31.7915C93.1693 31.8196 93.083 31.8576 93.0425 31.8766C93.003 31.8946 92.9437 31.9196 92.9125 31.9316C92.8813 31.9436 92.8459 31.9586 92.8335 31.9666C92.821 31.9736 92.7815 31.9916 92.7451 32.0066C92.7087 32.0217 92.6504 32.0457 92.6161 32.0617C92.5818 32.0767 92.4997 32.1127 92.4341 32.1417C92.3686 32.1707 92.2719 32.2137 92.2199 32.2378C92.1669 32.2618 92.1201 32.2818 92.1149 32.2818C92.1087 32.2818 92.0619 32.3018 92.0099 32.3268C91.9579 32.3518 91.9121 32.3718 91.908 32.3718C91.9038 32.3718 91.8622 32.3898 91.8165 32.4108C91.7697 32.4329 91.6782 32.4739 91.6127 32.5019C91.5471 32.5309 91.4504 32.5739 91.3984 32.5979C91.3464 32.622 91.2986 32.642 91.2924 32.642C91.2861 32.642 91.2445 32.66 91.1998 32.681C91.1551 32.703 91.0646 32.744 90.9991 32.772C90.8463 32.8381 90.6924 32.9061 90.5967 32.9491C90.5551 32.9681 90.5073 32.9871 90.4896 32.9921L90.4584 33.0011V32.2007C90.4584 31.6745 90.4553 31.4014 90.448 31.4014C90.4428 31.4014 90.4376 31.3963 90.4376 31.3913C90.4376 31.3853 90.4449 31.3813 90.4532 31.3813C90.4626 31.3813 90.5052 31.3643 90.5499 31.3423C90.5936 31.3213 90.6414 31.3003 90.656 31.2963C90.6705 31.2923 90.7173 31.2723 90.761 31.2513C90.8036 31.2303 90.8504 31.2103 90.865 31.2063C90.8785 31.2023 90.918 31.1852 90.9523 31.1692C90.9867 31.1522 91.0324 31.1332 91.0542 31.1252C91.075 31.1182 91.127 31.0962 91.1686 31.0772C91.2373 31.0462 91.3371 31.0022 91.5711 30.9011C91.6199 30.8801 91.7114 30.8401 91.7738 30.8121C91.8373 30.784 91.8924 30.761 91.8955 30.761C91.8997 30.761 91.9464 30.741 92.0005 30.716C92.0546 30.691 92.1035 30.671 92.1097 30.671C92.1159 30.671 92.1607 30.651 92.2116 30.626C92.2615 30.601 92.3083 30.5809 92.3156 30.5809C92.3229 30.5809 92.3707 30.5609 92.4206 30.5359C92.4705 30.5109 92.5184 30.4909 92.5277 30.4909C92.5371 30.4909 92.5485 30.4869 92.5548 30.4819C92.56 30.4769 92.6036 30.4569 92.6525 30.4359C92.7014 30.4159 92.7742 30.3839 92.8137 30.3658C92.8543 30.3468 92.9125 30.3208 92.9437 30.3058C93.0872 30.2408 93.2296 30.1427 93.3534 30.0247C93.4491 29.9326 93.4605 29.9176 93.5395 29.8056C93.6217 29.6885 93.6508 29.6395 93.6726 29.5845C93.6851 29.5514 93.6986 29.5204 93.7028 29.5154C93.7548 29.4424 93.8203 29.0322 93.8432 28.635C93.8473 28.569 93.866 28.3709 93.8858 28.1948C93.9056 28.0187 93.9264 27.8116 93.9316 27.7345C93.9409 27.6145 93.9835 27.2033 93.9981 27.1002C94.0023 27.0722 94.0002 27.0682 93.9856 27.0722C93.9565 27.0802 93.8588 27.1202 93.7787 27.1553C93.7381 27.1733 93.6841 27.1943 93.6591 27.2023C93.6342 27.2113 93.579 27.2333 93.5364 27.2523C93.4938 27.2713 93.447 27.2903 93.4324 27.2943C93.4179 27.2983 93.3679 27.3183 93.3201 27.3404C93.2723 27.3614 93.2296 27.3794 93.2234 27.3794C93.2182 27.3794 93.1621 27.4014 93.0986 27.4294C93.0352 27.4564 92.979 27.4794 92.9749 27.4794C92.9697 27.4794 92.9218 27.4994 92.8688 27.5244C92.8158 27.5495 92.7659 27.5695 92.7596 27.5695C92.7523 27.5695 92.7128 27.5845 92.6712 27.6035C92.5891 27.6405 92.4695 27.6905 92.3874 27.7215C92.3593 27.7325 92.3125 27.7516 92.2834 27.7646C92.2553 27.7766 92.2033 27.7976 92.169 27.8096C92.1347 27.8226 92.0744 27.8476 92.0338 27.8656C91.9943 27.8836 91.9257 27.9126 91.883 27.9306C91.751 27.9837 91.6522 28.0257 91.5867 28.0547C91.5523 28.0697 91.5076 28.0877 91.4879 28.0947C91.4681 28.1017 91.4213 28.1207 91.3839 28.1377C91.3038 28.1738 91.1686 28.2308 91.0667 28.2698C91.0272 28.2858 90.9659 28.3128 90.9326 28.3288C90.8983 28.3458 90.866 28.3599 90.8598 28.3599C90.8535 28.3599 90.8057 28.3799 90.7548 28.4039C90.7028 28.4279 90.6497 28.4509 90.6352 28.4549C90.6206 28.4589 90.579 28.4769 90.5416 28.4949C90.5042 28.5119 90.4553 28.5329 90.4324 28.5399C90.4095 28.5469 90.3544 28.57 90.3107 28.591C90.266 28.613 90.2244 28.63 90.2182 28.63C90.2119 28.63 90.1704 28.647 90.1267 28.669C90.083 28.69 90.0362 28.711 90.0217 28.715C90.0071 28.719 89.9634 28.738 89.9229 28.757C89.8834 28.7761 89.8199 28.8031 89.7825 28.8171C89.745 28.8311 89.7014 28.8501 89.6837 28.8601C89.6671 28.8701 89.6411 28.8811 89.6265 28.8851C89.6119 28.8891 89.5527 28.9141 89.4944 28.9411C89.4352 28.9682 89.3832 28.9902 89.378 28.9902C89.3686 28.9902 89.2844 29.0282 89.0598 29.1312C89.013 29.1532 88.9714 29.1703 88.9662 29.1703C88.961 29.1703 88.9277 29.1833 88.8934 29.2003C88.8591 29.2163 88.7988 29.2423 88.7582 29.2583C88.7187 29.2753 88.6313 29.3113 88.5658 29.3403C88.5003 29.3684 88.4182 29.4034 88.3839 29.4174C88.3495 29.4304 88.283 29.4594 88.2362 29.4814C88.1904 29.5024 88.1478 29.5204 88.1426 29.5204C88.1385 29.5204 88.0969 29.5384 88.0511 29.5604C88.0054 29.5825 87.9638 29.6005 87.9596 29.6005C87.9554 29.6005 87.9024 29.6225 87.8431 29.6505C87.7839 29.6775 87.7298 29.7005 87.7246 29.7005C87.7183 29.7005 87.6736 29.7195 87.6258 29.7425L87.5384 29.7836L87.4781 29.7445C87.4438 29.7225 87.4095 29.7015 87.3991 29.6985C87.3897 29.6945 87.3513 29.6735 87.3128 29.6515C87.2743 29.6285 87.241 29.6105 87.2379 29.6105C87.2348 29.6105 87.2057 29.5935 87.1745 29.5735C87.1423 29.5534 87.0934 29.5264 87.0663 29.5134C87.0383 29.5004 86.9967 29.4764 86.9728 29.4604C86.9499 29.4434 86.926 29.4304 86.9208 29.4304C86.9156 29.4304 86.8823 29.4124 86.8459 29.3904C86.8095 29.3684 86.7762 29.3503 86.7721 29.3503C86.7679 29.3503 86.7326 29.3303 86.6951 29.3063C86.6577 29.2833 86.6161 29.2603 86.6036 29.2563C86.5911 29.2523 86.5631 29.2373 86.5412 29.2233C86.4986 29.1953 86.3592 29.1162 86.2677 29.0682C86.2365 29.0512 86.196 29.0272 86.1773 29.0142C86.1596 29.0012 86.1398 28.9902 86.1357 28.9902C86.1305 28.9902 86.092 28.9702 86.0504 28.9451C86.0088 28.9201 85.9714 28.9001 85.9672 28.9001C85.9641 28.9001 85.935 28.8841 85.9038 28.8641C85.8726 28.8441 85.8206 28.8151 85.7894 28.8001C85.7582 28.7841 85.7166 28.7601 85.6968 28.746C85.6771 28.732 85.6552 28.72 85.65 28.72C85.6438 28.72 85.6064 28.7 85.5679 28.675C85.5284 28.65 85.493 28.63 85.4878 28.63C85.4837 28.63 85.4629 28.619 85.4421 28.605C85.4213 28.591 85.3724 28.564 85.3339 28.5439C85.2955 28.5239 85.2518 28.4989 85.2372 28.4889C85.2216 28.4789 85.1977 28.4659 85.1821 28.4599C85.1665 28.4549 85.126 28.4319 85.0916 28.4099C85.0573 28.3879 85.0251 28.3699 85.0209 28.3699C85.0157 28.3699 84.9949 28.3589 84.9741 28.3448C84.9533 28.3308 84.9045 28.3038 84.866 28.2838C84.8275 28.2638 84.7849 28.2398 84.7703 28.2298C84.7474 28.2158 84.6684 28.1708 84.5571 28.1117C84.5405 28.1027 84.5 28.0797 84.4688 28.0607C84.4376 28.0417 84.3908 28.0157 84.3648 28.0027C84.3388 27.9897 84.2764 27.9547 84.2244 27.9246C84.1734 27.8946 84.1048 27.8576 84.0736 27.8406C84.0424 27.8246 83.9915 27.7956 83.9613 27.7766C83.9322 27.7566 83.8968 27.7375 83.8844 27.7335C83.8615 27.7265 83.848 27.7195 83.7752 27.6715C83.7564 27.6595 83.7377 27.6495 83.7325 27.6495C83.7273 27.6495 83.6951 27.6315 83.6618 27.6095C83.6275 27.5875 83.5953 27.5695 83.5901 27.5695C83.5838 27.5695 83.5537 27.5535 83.5225 27.5334C83.4913 27.5134 83.4351 27.4814 83.3977 27.4614C83.3603 27.4424 83.3176 27.4184 83.302 27.4084C83.2875 27.3974 83.2698 27.3894 83.2646 27.3894C83.2594 27.3894 83.2313 27.3744 83.2032 27.3554C83.1752 27.3364 83.1273 27.3093 83.0972 27.2943C83.067 27.2803 83.0233 27.2543 82.9994 27.2383C82.9765 27.2223 82.9537 27.2093 82.9495 27.2093C82.9443 27.2093 82.9069 27.1893 82.8653 27.1653C82.8237 27.1413 82.7769 27.1152 82.7613 27.1082C82.7467 27.1002 82.6979 27.0732 82.6542 27.0462C82.5762 26.9992 82.5512 26.9912 82.5408 27.0082ZM82.6594 29.9296C82.6854 29.9466 82.7103 29.9606 82.7145 29.9606C82.7187 29.9606 82.754 29.9807 82.7935 30.0057C82.833 30.0307 82.8684 30.0507 82.8726 30.0507C82.8809 30.0507 83.0275 30.1327 83.1169 30.1858C83.1544 30.2088 83.2542 30.2638 83.3519 30.3158C83.457 30.3718 83.5485 30.4239 83.5641 30.4359C83.5724 30.4429 83.6171 30.4669 83.6629 30.4909C83.7086 30.5139 83.7606 30.5439 83.7783 30.5569C83.796 30.5699 83.8157 30.5809 83.823 30.5809C83.8292 30.5809 83.8667 30.6 83.9052 30.624C83.9436 30.647 83.9894 30.674 84.006 30.683C84.0237 30.692 84.0767 30.721 84.1256 30.747C84.1745 30.773 84.2285 30.8041 84.2452 30.8161C84.2629 30.8281 84.3013 30.8501 84.3325 30.8651C84.3637 30.8811 84.4012 30.9011 84.4157 30.9101C84.4646 30.9421 84.6237 31.0312 84.631 31.0312C84.6351 31.0312 84.6622 31.0472 84.6923 31.0662C84.7225 31.0842 84.7714 31.1132 84.8026 31.1292C84.8338 31.1442 84.9013 31.1812 84.9523 31.2113C85.0043 31.2403 85.0646 31.2743 85.0875 31.2863C85.1104 31.2983 85.1499 31.3203 85.1748 31.3353C85.1998 31.3513 85.2445 31.3763 85.2736 31.3913C85.3256 31.4174 85.4057 31.4634 85.4982 31.5174C85.5242 31.5334 85.57 31.5584 85.6012 31.5734C85.6324 31.5894 85.6729 31.6135 85.6916 31.6265C85.7104 31.6405 85.7291 31.6515 85.7343 31.6515C85.7395 31.6515 85.7769 31.6715 85.8185 31.6965C85.8601 31.7215 85.8975 31.7415 85.9027 31.7415C85.9079 31.7415 85.9371 31.7575 85.9672 31.7775C85.9984 31.7975 86.0494 31.8266 86.0806 31.8416C86.1118 31.8576 86.1533 31.8816 86.1731 31.8956C86.1929 31.9096 86.2147 31.9216 86.2199 31.9216C86.2261 31.9216 86.2625 31.9416 86.301 31.9656C86.3395 31.9906 86.3811 32.0137 86.3936 32.0167C86.406 32.0207 86.4351 32.0367 86.4591 32.0517C86.5007 32.0787 86.5942 32.1307 86.693 32.1817C86.7201 32.1957 86.7637 32.2218 86.7897 32.2388C86.8157 32.2558 86.849 32.2728 86.8625 32.2768C86.875 32.2818 86.901 32.2948 86.9176 32.3068C86.9353 32.3198 86.9842 32.3488 87.0268 32.3718C87.0695 32.3958 87.1412 32.4359 87.1859 32.4609C87.2296 32.4859 87.2889 32.5179 87.3159 32.5319C87.343 32.5459 87.3908 32.5719 87.422 32.5909C87.4532 32.6099 87.4969 32.635 87.5177 32.646C87.5884 32.684 87.6965 32.744 87.7495 32.776C87.7787 32.793 87.8161 32.814 87.8327 32.822L87.8639 32.8381L87.8608 35.6534C87.8598 37.2022 87.8556 38.5379 87.8525 38.6209L87.8463 38.772L87.8088 38.789C87.787 38.799 87.7537 38.817 87.7339 38.829C87.6955 38.853 87.5863 38.915 87.5145 38.9521C87.4906 38.9641 87.4397 38.9921 87.4012 39.0141C87.3617 39.0371 87.3274 39.0551 87.3242 39.0551C87.3211 39.0551 87.2889 39.0731 87.2514 39.0961C87.1839 39.1362 87.1589 39.1502 87.0352 39.2142C86.9988 39.2322 86.9457 39.2632 86.9166 39.2812C86.8875 39.3002 86.8594 39.3152 86.8542 39.3152C86.849 39.3152 86.8272 39.3262 86.8064 39.3403C86.7856 39.3543 86.7481 39.3753 86.7232 39.3883C86.6743 39.4133 86.5537 39.4803 86.4705 39.5283C86.4424 39.5444 86.3904 39.5724 86.3561 39.5904C86.3218 39.6074 86.275 39.6344 86.2532 39.6484C86.2313 39.6634 86.2085 39.6754 86.2033 39.6754C86.197 39.6754 86.1804 39.6834 86.1658 39.6944C86.1502 39.7044 86.1055 39.7294 86.065 39.7505C86.0254 39.7705 85.9849 39.7935 85.9766 39.8005C85.9682 39.8075 85.9308 39.8275 85.8934 39.8455C85.8559 39.8635 85.8185 39.8835 85.8102 39.8915C85.8008 39.8985 85.7592 39.9225 85.7166 39.9435C85.6729 39.9656 85.6199 39.9946 85.5981 40.0096C85.5762 40.0236 85.5533 40.0356 85.5481 40.0356C85.5419 40.0356 85.5253 40.0436 85.5107 40.0546C85.4951 40.0646 85.4566 40.0866 85.4254 40.1036C85.3942 40.1196 85.3412 40.1486 85.309 40.1667C85.2299 40.2127 85.1572 40.2527 85.0656 40.3007C85.0251 40.3227 84.9845 40.3457 84.9762 40.3527C84.9689 40.3588 84.9409 40.3738 84.9159 40.3858C84.8899 40.3968 84.8483 40.4188 84.8234 40.4338C84.7641 40.4698 84.6955 40.5068 84.6195 40.5458C84.5852 40.5639 84.5343 40.5929 84.5052 40.6119C84.4771 40.6299 84.4417 40.6489 84.4272 40.6539C84.4126 40.6589 84.3762 40.6799 84.3461 40.6989C84.3169 40.7189 84.2816 40.7379 84.2691 40.7419C84.2556 40.7459 84.2337 40.7559 84.2192 40.766C84.1412 40.817 84.1079 40.836 84.0975 40.836C84.0923 40.836 84.0705 40.847 84.0507 40.859C84.031 40.872 83.9842 40.899 83.9467 40.919C83.9093 40.939 83.8604 40.9671 83.8396 40.9811C83.8178 40.9951 83.7949 41.0061 83.7876 41.0061C83.7804 41.0061 83.7429 41.0261 83.7034 41.0511C83.6649 41.0761 83.6285 41.0961 83.6233 41.0961C83.6181 41.0961 83.5849 41.1141 83.5495 41.1361C83.4871 41.1752 83.4653 41.1872 83.3332 41.2552C83.2968 41.2732 83.2448 41.3032 83.2157 41.3222C83.1876 41.3402 83.1523 41.3592 83.1377 41.3642C83.1232 41.3692 83.0868 41.3903 83.0566 41.4093C83.0275 41.4293 82.9921 41.4483 82.9786 41.4523C82.9662 41.4553 82.9277 41.4763 82.8934 41.4973C82.859 41.5183 82.8112 41.5463 82.7873 41.5583C82.7634 41.5713 82.7187 41.5944 82.6885 41.6104C82.6583 41.6254 82.6074 41.6564 82.5752 41.6774L82.5159 41.7154L82.4525 41.6754C82.4181 41.6544 82.388 41.6364 82.3849 41.6364C82.3797 41.6364 82.2382 41.5563 82.1447 41.4993C82.1103 41.4783 82.0708 41.4573 82.0563 41.4513C82.024 41.4393 81.8961 41.3672 81.8129 41.3142C81.7786 41.2932 81.7474 41.2762 81.7412 41.2762C81.736 41.2762 81.6996 41.2562 81.6611 41.2312C81.6226 41.2062 81.5862 41.1862 81.5821 41.1862C81.5769 41.1862 81.5353 41.1631 81.4895 41.1361C81.4438 41.1081 81.4022 41.0861 81.397 41.0861C81.3918 41.0861 81.372 41.0751 81.3544 41.0621C81.3356 41.0481 81.293 41.0241 81.2597 41.0071C81.2265 40.9911 81.1828 40.9661 81.163 40.952C81.1433 40.937 81.1214 40.926 81.1162 40.926C81.11 40.926 81.0736 40.906 81.0351 40.882C80.9966 40.857 80.9561 40.835 80.9446 40.831C80.9332 40.828 80.8927 40.805 80.8542 40.781C80.8147 40.7559 80.7783 40.7359 80.7731 40.7359C80.7668 40.7359 80.7388 40.7209 80.7096 40.7019C80.6587 40.6689 80.5537 40.6099 80.4767 40.5709C80.4559 40.5599 80.4122 40.5358 80.381 40.5168C80.3509 40.4978 80.3062 40.4728 80.2833 40.4608C80.2209 40.4278 80.092 40.3558 80.04 40.3237C80.014 40.3087 79.99 40.2957 79.9848 40.2957C79.9797 40.2957 79.9464 40.2767 79.911 40.2547C79.8757 40.2317 79.8372 40.2097 79.8247 40.2057C79.8122 40.2007 79.7748 40.1807 79.7415 40.1597C79.6781 40.1196 79.6479 40.1036 79.5377 40.0466C79.5013 40.0286 79.4493 39.9986 79.4202 39.9816C79.3921 39.9646 79.3547 39.9425 79.337 39.9335C79.3079 39.9175 79.2861 39.9055 79.18 39.8455C79.1561 39.8315 79.102 39.8025 79.0614 39.7805C79.0199 39.7585 78.9637 39.7254 78.9356 39.7074C78.9075 39.6904 78.8826 39.6754 78.8795 39.6754C78.8764 39.6754 78.8389 39.6554 78.7973 39.6304C78.7547 39.6054 78.7162 39.5854 78.7131 39.5854C78.7089 39.5854 78.6767 39.5674 78.6413 39.5454C78.606 39.5233 78.5582 39.4953 78.5342 39.4833C78.5103 39.4703 78.4427 39.4333 78.3845 39.4003C78.3252 39.3673 78.2566 39.3282 78.2306 39.3142C78.2046 39.3002 78.162 39.2762 78.136 39.2592C78.11 39.2432 78.0777 39.2252 78.0632 39.2202C78.0486 39.2142 78.0164 39.1972 77.9904 39.1822C77.8854 39.1201 77.8157 39.0811 77.7616 39.0521C77.7304 39.0361 77.6847 39.0091 77.6607 38.9941C77.6368 38.9781 77.614 38.9651 77.6088 38.9651C77.6036 38.9651 77.5651 38.9451 77.5235 38.92C77.4819 38.895 77.4445 38.875 77.4403 38.875C77.4372 38.875 77.4153 38.863 77.3925 38.847C77.3696 38.832 77.3155 38.802 77.2729 38.779L77.1949 38.739V38.0586C77.1949 37.6854 77.2001 36.3538 77.2063 35.1002C77.2167 32.8721 77.2178 32.821 77.2375 32.807C77.2479 32.799 77.2843 32.778 77.3176 32.76C77.3509 32.742 77.4018 32.713 77.432 32.695C77.4621 32.678 77.51 32.652 77.538 32.638C77.5672 32.624 77.616 32.5969 77.6472 32.5769C77.6784 32.5579 77.7086 32.5419 77.7138 32.5419C77.719 32.5419 77.7315 32.5359 77.7398 32.5279C77.7491 32.5209 77.7938 32.4959 77.8396 32.4719C77.8854 32.4489 77.9301 32.4239 77.9384 32.4168C77.9467 32.4098 77.9841 32.3888 78.0216 32.3708C78.059 32.3528 78.1037 32.3288 78.1204 32.3168C78.138 32.3048 78.1817 32.2798 78.2192 32.2618C78.2566 32.2438 78.294 32.2238 78.3023 32.2168C78.3107 32.2097 78.3346 32.1957 78.3554 32.1857C78.3762 32.1747 78.4126 32.1557 78.4375 32.1417C78.5374 32.0847 78.5737 32.0647 78.6465 32.0277C78.6892 32.0066 78.737 31.9796 78.7547 31.9676C78.7713 31.9566 78.816 31.9316 78.8535 31.9136C78.8909 31.8946 78.9283 31.8736 78.9367 31.8666C78.946 31.8586 78.9689 31.8456 78.9887 31.8366C79.0084 31.8276 79.051 31.8055 79.0822 31.7865C79.1134 31.7675 79.1561 31.7455 79.1758 31.7365C79.1956 31.7275 79.2185 31.7145 79.2278 31.7075C79.2361 31.6995 79.2694 31.6815 79.3006 31.6655C79.3318 31.6505 79.3724 31.6285 79.389 31.6165C79.4067 31.6045 79.4493 31.5804 79.4857 31.5634C79.5221 31.5454 79.5647 31.5224 79.5814 31.5114C79.598 31.5004 79.6271 31.4844 79.6459 31.4754C79.6646 31.4674 79.701 31.4474 79.727 31.4314C79.753 31.4144 79.7904 31.3943 79.8102 31.3853C79.8299 31.3763 79.8538 31.3633 79.8621 31.3563C79.8705 31.3493 79.9079 31.3293 79.9453 31.3113C79.9828 31.2933 80.0275 31.2683 80.0441 31.2563C80.0618 31.2443 80.1096 31.2163 80.1512 31.1952C80.2667 31.1362 80.2978 31.1192 80.3717 31.0762C80.4424 31.0352 80.4725 31.0182 80.5817 30.9621C80.6181 30.9441 80.6712 30.9141 80.6992 30.8951C80.7284 30.8771 80.7627 30.8581 80.7772 30.8531C80.7918 30.8481 80.8282 30.8271 80.8583 30.8081C80.8875 30.788 80.9228 30.769 80.9353 30.765C80.9488 30.761 80.9706 30.751 80.9852 30.741C81.0622 30.691 81.0965 30.671 81.1058 30.671C81.111 30.671 81.1318 30.66 81.1516 30.648C81.1713 30.635 81.2192 30.608 81.2576 30.5879C81.2951 30.5679 81.3429 30.5409 81.3627 30.5289C81.3824 30.5159 81.4313 30.4889 81.4708 30.4679C81.5862 30.4059 81.6008 30.3979 81.6778 30.3538C81.7193 30.3298 81.7568 30.3108 81.763 30.3108C81.7682 30.3108 81.7838 30.3028 81.7973 30.2918C81.8109 30.2818 81.8577 30.2558 81.9003 30.2338C81.9429 30.2118 81.997 30.1817 82.0188 30.1677C82.0407 30.1527 82.0635 30.1407 82.0687 30.1407C82.0739 30.1407 82.1093 30.1207 82.1488 30.0957C82.1883 30.0707 82.2237 30.0507 82.2278 30.0507C82.232 30.0507 82.2705 30.0307 82.3131 30.0057C82.3547 29.9807 82.3932 29.9606 82.3973 29.9606C82.4015 29.9606 82.4213 29.9496 82.441 29.9366C82.4608 29.9236 82.4961 29.9036 82.518 29.8926C82.5637 29.8686 82.5679 29.8706 82.6594 29.9296Z" fill="#DDC179" stroke="#C19869" mask="url(#path-3-inside-1_1360_2622)"/>
<defs>
<linearGradient id="paint0_linear_1360_2622" x1="66" y1="9.97498e-08" x2="66" y2="92.5" gradientUnits="userSpaceOnUse">
<stop stop-color="#DEBE89"/>
<stop offset="1" stop-color="#C5A162"/>
</linearGradient>
</defs>
</svg>
