<svg width="17" height="15" viewBox="0 0 17 15" fill="none" xmlns="http://www.w3.org/2000/svg">
<path d="M7.70513 14.2L7.6974 14.1923L7.68934 14.1849L6.22351 12.8487C6.22346 12.8486 6.22342 12.8486 6.22338 12.8486C4.73254 11.4865 3.38785 10.137 2.18863 8.8002C1.04924 7.53012 0.499482 6.15717 0.5 4.66778V4.66761C0.5 3.46279 0.898979 2.48226 1.69202 1.69047C2.48512 0.898629 3.46758 0.5 4.675 0.5C5.35263 0.5 5.9872 0.642884 6.58454 0.928138C7.18785 1.21625 7.69752 1.60813 8.1184 2.10525L8.4998 2.55576L8.88144 2.10545C9.30232 1.60883 9.81203 1.21715 10.4155 0.928987C11.0129 0.643705 11.6475 0.500538 12.3252 0.5C13.5325 0.500039 14.5149 0.898668 15.308 1.69047C16.101 2.48226 16.5 3.46279 16.5 4.66761C16.5 6.15754 15.9528 7.53476 14.8197 8.81252C13.6297 10.1544 12.2763 11.5059 10.7587 12.8668L10.7587 12.8668L10.7559 12.8693L9.31091 14.1847L9.30239 14.1925L9.29423 14.2006C9.19118 14.3035 9.0755 14.3756 8.94308 14.4212C8.78562 14.4755 8.63862 14.5 8.5 14.5C8.3621 14.5 8.21539 14.4756 8.05776 14.4212C7.92519 14.3755 7.80897 14.3033 7.70513 14.2Z" stroke="white"/>
</svg>
