<svg width="16" height="16" viewBox="0 0 16 16" fill="none" xmlns="http://www.w3.org/2000/svg">
<path fill-rule="evenodd" clip-rule="evenodd" d="M2.43481 3.2298C2.43481 2.02231 3.46262 1.04346 4.73048 1.04346H8.06962C8.41537 1.04346 8.69568 1.31042 8.69568 1.63973C8.69568 1.96904 8.41537 2.236 8.06962 2.236H4.73048C4.15418 2.236 3.687 2.68094 3.687 3.2298V4.02483C3.687 4.35414 3.40669 4.6211 3.0609 4.6211C2.71513 4.6211 2.43481 4.35414 2.43481 4.02483V3.2298ZM3.0609 11.3789C3.40669 11.3789 3.687 11.6458 3.687 11.9752V12.7702C3.687 13.319 4.15418 13.7639 4.73048 13.7639H8.06962C8.41537 13.7639 8.69568 14.031 8.69568 14.3602C8.69568 14.6895 8.41537 14.9565 8.06962 14.9565H4.73048C3.46262 14.9565 2.43481 13.9776 2.43481 12.7702V11.9752C2.43481 11.6458 2.71513 11.3789 3.0609 11.3789Z" fill="white"/>
<path fill-rule="evenodd" clip-rule="evenodd" d="M8.54639 2.22895C8.54639 1.52393 9.26503 1.03484 9.94119 1.2797L14.082 2.77933C14.4881 2.9264 14.7576 3.30512 14.7576 3.72857V12.2715C14.7576 12.6949 14.4881 13.0736 14.082 13.2207L9.94119 14.7203C9.26503 14.9652 8.54639 14.4761 8.54639 13.7711V2.22895ZM10.3726 0.140609C8.88512 -0.39808 7.3042 0.677906 7.3042 2.22895V13.7711C7.3042 15.3221 8.88512 16.3981 10.3726 15.8594L14.5134 14.3598C15.4069 14.0362 15.9999 13.2031 15.9999 12.2715V3.72857C15.9999 2.79696 15.4069 1.9638 14.5134 1.64024L10.3726 0.140609Z" fill="white"/>
<path fill-rule="evenodd" clip-rule="evenodd" d="M2.73836 6.09369C2.49386 5.85288 2.09745 5.85288 1.85294 6.09369L0.183375 7.73798C-0.0611249 7.9788 -0.0611249 8.36913 0.183375 8.60995L1.85294 10.2542C2.09745 10.495 2.49386 10.495 2.73836 10.2542C2.98286 10.0135 2.98286 9.62307 2.73836 9.38225L2.1376 8.79058H5.63478C5.98056 8.79058 6.26087 8.51451 6.26087 8.17396C6.26087 7.83342 5.98056 7.55735 5.63478 7.55735H2.1376L2.73836 6.96568C2.98286 6.72486 2.98286 6.33449 2.73836 6.09369Z" fill="white"/>
</svg>
