<svg width="22" height="23" viewBox="0 0 22 23" fill="none" xmlns="http://www.w3.org/2000/svg">
<path d="M16.6112 21.6113C16.3012 21.6113 15.9912 21.5313 15.7111 21.3612L11.7009 18.981C11.2809 18.971 10.8608 18.9411 10.4608 18.8811C10.1908 18.8411 9.96079 18.661 9.86079 18.401C9.76078 18.141 9.81078 17.8609 9.99079 17.6509C10.6508 16.8809 10.9909 15.9608 10.9909 14.9808C10.9909 12.5606 8.86073 10.5905 6.24055 10.5905C5.26049 10.5905 4.32042 10.8606 3.53038 11.3807C3.31036 11.5207 3.04035 11.5407 2.80033 11.4307C2.57032 11.3206 2.40032 11.1005 2.37032 10.8405C2.34031 10.5605 2.32031 10.2806 2.32031 9.99057C2.32031 5.03023 6.62057 1 11.9009 1C17.1812 1 21.4815 5.03023 21.4815 9.99057C21.4815 12.7107 20.2214 15.2108 18.0013 16.9209L18.3413 19.6411C18.4213 20.3212 18.1213 20.9612 17.5512 21.3312C17.2712 21.5113 16.9412 21.6113 16.6112 21.6113ZM11.8909 17.4709C12.0309 17.4609 12.1709 17.501 12.2909 17.581L16.4812 20.0712C16.5912 20.1412 16.6812 20.1112 16.7412 20.0712C16.7912 20.0412 16.8712 19.9612 16.8512 19.8212L16.4612 16.6609C16.4312 16.3809 16.5512 16.1109 16.7712 15.9509C18.8113 14.5208 19.9814 12.3406 19.9814 9.97047C19.9814 5.84026 16.3612 2.48007 11.9009 2.48007C7.61063 2.48007 4.09041 5.60029 3.83039 9.52053C4.58044 9.23051 5.3905 9.07048 6.23055 9.07048C9.68077 9.07048 12.4809 11.7106 12.4809 14.9608C12.4909 15.8408 12.2809 16.6909 11.8909 17.4709Z" fill="#427BBD"/>
<path d="M3.3202 22.4918C3.06018 22.4918 2.81017 22.4218 2.58015 22.2718C2.13013 21.9818 1.89012 21.4818 1.95013 20.9517L2.15013 19.4116C0.800048 18.3116 0 16.6815 0 14.9714C0 13.0213 1.02007 11.2011 2.73017 10.1111C3.76024 9.44105 4.9803 9.08105 6.25037 9.08105C9.70061 9.08105 12.5008 11.7212 12.5008 14.9714C12.5008 16.2914 12.0207 17.5915 11.1407 18.6216C10.0106 19.9917 8.3205 20.7917 6.46039 20.8517L4.02024 22.3018C3.80023 22.4318 3.56021 22.4918 3.3202 22.4918ZM6.24037 10.5811C5.26031 10.5811 4.32025 10.8511 3.5302 11.3712C2.25012 12.1912 1.49009 13.5313 1.49009 14.9714C1.49009 16.3615 2.17014 17.6315 3.37021 18.4516C3.60023 18.6116 3.72022 18.8816 3.69022 19.1616L3.47021 20.8717L5.86035 19.4516C5.98036 19.3816 6.11037 19.3416 6.24037 19.3416C7.71046 19.3416 9.10057 18.7116 9.98063 17.6415C10.6407 16.8615 10.9907 15.9414 10.9907 14.9614C10.9907 12.5512 8.86056 10.5811 6.24037 10.5811Z" fill="#427BBD"/>
<circle cx="16.875" cy="3" r="2.5" fill="#D75151" stroke="white"/>
</svg>
