<svg width="23" height="23" viewBox="0 0 23 23" fill="none" xmlns="http://www.w3.org/2000/svg">
<path d="M2.3 19.5586V17.2643H4.6V9.23441C4.6 7.64755 5.07917 6.23772 6.0375 5.00494C6.99583 3.77215 8.24166 2.96419 9.775 2.58105V0.0573566H13.225V2.58105C14.7583 2.96342 16.0042 3.77139 16.9625 5.00494C17.9208 6.23849 18.4 7.64831 18.4 9.23441V17.2643H20.7V19.5586H2.3ZM11.5 23C10.8675 23 10.3262 22.7755 9.8762 22.3266C9.42616 21.8777 9.20076 21.3374 9.2 20.7057H13.8C13.8 21.3367 13.575 21.877 13.1249 22.3266C12.6749 22.7763 12.1333 23.0008 11.5 23ZM6.9 17.2643H16.1V9.23441C16.1 7.97257 15.6496 6.89235 14.7487 5.99377C13.8479 5.09518 12.765 4.64589 11.5 4.64589C10.235 4.64589 9.15208 5.09518 8.25125 5.99377C7.35042 6.89235 6.9 7.97257 6.9 9.23441V17.2643ZM0 9.23441C0 7.32253 0.42665 5.56856 1.27995 3.97252C2.13325 2.37648 3.27827 1.0523 4.715 0L6.06625 1.83541C4.91625 2.67664 4.00123 3.73774 3.3212 5.0187C2.64117 6.29967 2.30077 7.7049 2.3 9.23441H0ZM20.7 9.23441C20.7 7.7049 20.3596 6.29967 19.6788 5.0187C18.998 3.73774 18.0834 2.67664 16.9349 1.83541L18.2861 0C19.7236 1.05154 20.869 2.37571 21.7223 3.97252C22.5756 5.56933 23.0015 7.32329 23 9.23441H20.7Z" fill="#427BBD"/>
</svg>
