<svg width="22" height="22" viewBox="0 0 22 22" fill="none" xmlns="http://www.w3.org/2000/svg">
<path d="M11 10.0833C11.5042 10.0833 11.9359 9.90367 12.2953 9.54433C12.654 9.18561 12.8333 8.75417 12.8333 8.25C12.8333 7.74583 12.654 7.31408 12.2953 6.95475C11.9359 6.59603 11.5042 6.41667 11 6.41667C10.4958 6.41667 10.0644 6.59603 9.70567 6.95475C9.34633 7.31408 9.16667 7.74583 9.16667 8.25C9.16667 8.75417 9.34633 9.18561 9.70567 9.54433C10.0644 9.90367 10.4958 10.0833 11 10.0833ZM11 11.9167C9.99167 11.9167 9.12847 11.5576 8.41042 10.8396C7.69236 10.1215 7.33333 9.25833 7.33333 8.25C7.33333 7.24167 7.69236 6.37847 8.41042 5.66042C9.12847 4.94236 9.99167 4.58333 11 4.58333C12.0083 4.58333 12.8715 4.94236 13.5896 5.66042C14.3076 6.37847 14.6667 7.24167 14.6667 8.25C14.6667 9.25833 14.3076 10.1215 13.5896 10.8396C12.8715 11.5576 12.0083 11.9167 11 11.9167ZM11 22C9.4875 22 8.063 21.7134 6.7265 21.1402C5.38939 20.5676 4.22064 19.7811 3.22025 18.7807C2.21925 17.7797 1.43244 16.6109 0.859833 15.2744C0.286611 13.9373 0 12.5125 0 11C0 9.4875 0.286611 8.06269 0.859833 6.72558C1.43244 5.38908 2.21925 4.22033 3.22025 3.21933C4.22064 2.21894 5.38939 1.43244 6.7265 0.859833C8.063 0.286611 9.4875 0 11 0C12.5125 0 13.9373 0.286611 15.2744 0.859833C16.6109 1.43244 17.7797 2.21894 18.7807 3.21933C19.7811 4.22033 20.5676 5.38908 21.1402 6.72558C21.7134 8.06269 22 9.4875 22 11C22 12.5125 21.7134 13.9373 21.1402 15.2744C20.5676 16.6109 19.7811 17.7797 18.7807 18.7807C17.7797 19.7811 16.6109 20.5676 15.2744 21.1402C13.9373 21.7134 12.5125 22 11 22ZM11 20.1667C12.1 20.1667 13.1313 19.991 14.0938 19.6396C15.0563 19.2882 15.9347 18.7917 16.7292 18.15C16.225 17.5847 15.484 17.0922 14.5063 16.6723C13.5285 16.2519 12.3597 16.0417 11 16.0417C9.64028 16.0417 8.47153 16.2519 7.49375 16.6723C6.51597 17.0922 5.775 17.5847 5.27083 18.15C6.06528 18.7917 6.94375 19.2882 7.90625 19.6396C8.86875 19.991 9.9 20.1667 11 20.1667ZM3.94167 16.8667C4.675 16.0722 5.66042 15.4306 6.89792 14.9417C8.13542 14.4528 9.50278 14.2083 11 14.2083C12.4972 14.2083 13.8609 14.4528 15.0911 14.9417C16.3206 15.4306 17.3021 16.0722 18.0354 16.8667C18.7076 16.0569 19.2311 15.1556 19.6057 14.1625C19.9797 13.1694 20.1667 12.1153 20.1667 11C20.1667 9.73194 19.9259 8.54425 19.4443 7.43692C18.9634 6.32897 18.3064 5.35883 17.4735 4.5265C16.6412 3.69356 15.671 3.03631 14.5631 2.55475C13.4558 2.07381 12.2681 1.83333 11 1.83333C9.74722 1.83333 8.56319 2.07381 7.44792 2.55475C6.33264 3.03631 5.35883 3.69356 4.5265 4.5265C3.69356 5.35883 3.03661 6.32897 2.55567 7.43692C2.07411 8.54425 1.83333 9.73194 1.83333 11C1.83333 12.1153 2.01667 13.1734 2.38333 14.1744C2.75 15.1748 3.26944 16.0722 3.94167 16.8667Z" fill="white"/>
</svg>
