<svg width="33" height="22" viewBox="0 0 33 22" fill="none" xmlns="http://www.w3.org/2000/svg">
<path d="M5.55433 21.065C8.92446 13.145 24.077 13.145 27.4485 21.065C27.6382 21.5133 27.2917 22 26.7926 22H6.20884C5.70971 22 5.36321 21.5133 5.55433 21.065ZM16.5007 0C12.7043 0 9.62571 3.07863 9.62571 6.875C9.62571 10.6714 12.7043 13.75 16.5007 13.75C20.2971 13.75 23.3757 10.6714 23.3757 6.875C23.3757 3.07863 20.2971 0 16.5007 0Z" fill="#427BBD"/>
<path d="M30.9377 10.3125C30.9377 12.2114 29.3991 13.75 27.5002 13.75C25.6014 13.75 24.0627 12.2114 24.0627 10.3125C24.0627 8.41363 25.6014 6.875 27.5002 6.875C29.3991 6.875 30.9377 8.41363 30.9377 10.3125ZM5.50023 6.875C3.60135 6.875 2.06273 8.41363 2.06273 10.3125C2.06273 12.2114 3.60135 13.75 5.50023 13.75C7.3991 13.75 8.93773 12.2114 8.93773 10.3125C8.93773 8.41363 7.3991 6.875 5.50023 6.875ZM32.9741 17.4075C31.6417 14.278 26.6395 13.6318 23.7644 15.4495C25.0087 16.0985 26.0977 16.9111 26.9777 17.875H32.6469C32.8957 17.875 33.069 17.6316 32.9741 17.4075ZM9.2361 15.4495C6.36098 13.6318 1.35873 14.278 0.0263518 17.4075C-0.0685232 17.6316 0.104727 17.875 0.354977 17.875H6.0241C6.90273 16.9111 7.99173 16.0985 9.2361 15.4495Z" fill="#427BBD" fill-opacity="0.69"/>
</svg>
