<svg width="239" height="181" viewBox="0 0 239 181" fill="none" xmlns="http://www.w3.org/2000/svg">
<path d="M238.902 171.893H0V172.013H238.902V171.893Z" fill="#EBEBEB"/>
<path d="M214.964 179.581H199.139V179.7H214.964V179.581Z" fill="#EBEBEB"/>
<path d="M158.258 180.881H154.106V181H158.258V180.881Z" fill="#EBEBEB"/>
<path d="M198.661 175.147H189.492V175.266H198.661V175.147Z" fill="#EBEBEB"/>
<path d="M45.702 175.95H25.0656V176.069H45.702V175.95Z" fill="#EBEBEB"/>
<path d="M52.9837 175.95H49.9592V176.069H52.9837V175.95Z" fill="#EBEBEB"/>
<path d="M107.578 177.966H62.8169V178.085H107.578V177.966Z" fill="#EBEBEB"/>
<path d="M113.24 150.583H20.9804C20.2576 150.582 19.5649 150.294 19.0543 149.782C18.5437 149.271 18.2569 148.577 18.2569 147.855V18.1643C18.2632 17.4457 18.5528 16.7586 19.0627 16.2523C19.5726 15.7459 20.2617 15.4612 20.9804 15.46H113.24C113.963 15.46 114.657 15.7474 115.169 16.2591C115.68 16.7707 115.968 17.4646 115.968 18.1882V147.855C115.968 148.578 115.68 149.272 115.169 149.784C114.657 150.296 113.963 150.583 113.24 150.583ZM20.9804 15.5555C20.2893 15.5568 19.627 15.8322 19.1388 16.3213C18.6505 16.8104 18.3763 17.4733 18.3763 18.1643V147.855C18.3763 148.546 18.6505 149.209 19.1388 149.698C19.627 150.187 20.2893 150.462 20.9804 150.464H113.24C113.931 150.462 114.594 150.187 115.083 149.698C115.572 149.209 115.847 148.546 115.848 147.855V18.1643C115.847 17.4728 115.572 16.81 115.083 16.321C114.594 15.832 113.931 15.5568 113.24 15.5555H20.9804Z" fill="#EBEBEB"/>
<path d="M216.593 150.583H124.329C123.606 150.582 122.913 150.294 122.402 149.782C121.89 149.271 121.602 148.578 121.601 147.855V18.1643C121.609 17.4453 121.899 16.7582 122.41 16.252C122.921 15.7457 123.61 15.4612 124.329 15.46H216.593C217.311 15.4624 217.999 15.7477 218.508 16.2539C219.017 16.7602 219.306 17.4466 219.312 18.1643V147.855C219.312 148.577 219.026 149.269 218.516 149.781C218.007 150.292 217.315 150.58 216.593 150.583ZM124.329 15.5555C123.638 15.5568 122.975 15.832 122.486 16.321C121.997 16.81 121.722 17.4728 121.721 18.1643V147.855C121.722 148.546 121.997 149.209 122.486 149.698C122.975 150.187 123.638 150.462 124.329 150.464H216.593C217.285 150.462 217.948 150.187 218.437 149.698C218.926 149.209 219.201 148.546 219.202 147.855V18.1643C219.201 17.4728 218.926 16.81 218.437 16.321C217.948 15.832 217.285 15.5568 216.593 15.5555H124.329Z" fill="#EBEBEB"/>
<path d="M115.791 72.2612H47.9524V171.726H115.791V72.2612Z" fill="#F0F0F0"/>
<path d="M113.392 75.3909H50.3462V93.7624H113.392V75.3909Z" fill="#E0E0E0"/>
<path d="M53.9297 78.3628H50.3462V93.7576H53.9297V78.3628Z" fill="#EBEBEB"/>
<path d="M71.2502 78.3628H67.6666V93.7576H71.2502V78.3628Z" fill="#EBEBEB"/>
<path d="M90.9079 77.9762L87.3765 78.585L89.9915 93.7561L93.523 93.1474L90.9079 77.9762Z" fill="#EBEBEB"/>
<path d="M58.3686 80.3936H54.785V93.7625H58.3686V80.3936Z" fill="#EBEBEB"/>
<path d="M66.6011 80.3936H63.0176V93.7625H66.6011V80.3936Z" fill="#EBEBEB"/>
<path d="M87.3808 80.3936H83.7973V93.7625H87.3808V80.3936Z" fill="#EBEBEB"/>
<path d="M75.9571 79.9296L72.4589 80.707L75.3593 93.7576L78.8575 92.9801L75.9571 79.9296Z" fill="#EBEBEB"/>
<path d="M61.4647 77.5984H59.673V93.7577H61.4647V77.5984Z" fill="#EBEBEB"/>
<path d="M82.7652 77.5984H80.9734V93.7577H82.7652V77.5984Z" fill="#EBEBEB"/>
<path d="M50.351 115.044L113.397 115.044V96.6724H50.351V115.044Z" fill="#E0E0E0"/>
<path d="M109.809 115.039H113.392V99.6442H109.809V115.039Z" fill="#EBEBEB"/>
<path d="M92.4933 115.039H96.0768V99.6442H92.4933V115.039Z" fill="#EBEBEB"/>
<path d="M70.2215 114.427L73.7529 115.036L76.368 99.865L72.8365 99.2563L70.2215 114.427Z" fill="#EBEBEB"/>
<path d="M105.37 115.044H108.954V101.675H105.37V115.044Z" fill="#EBEBEB"/>
<path d="M97.1424 115.044H100.726V101.675H97.1424V115.044Z" fill="#EBEBEB"/>
<path d="M76.3626 115.044H79.9462V101.675H76.3626V115.044Z" fill="#EBEBEB"/>
<path d="M84.8976 114.263L88.3958 115.04L91.2962 101.99L87.798 101.212L84.8976 114.263Z" fill="#EBEBEB"/>
<path d="M102.274 115.039H104.066V98.8797H102.274V115.039Z" fill="#EBEBEB"/>
<path d="M80.9783 115.039H82.77V98.8797H80.9783V115.039Z" fill="#EBEBEB"/>
<path d="M53.9297 99.6443H50.3462V115.039H53.9297V99.6443Z" fill="#EBEBEB"/>
<path d="M58.3686 101.67H54.785V115.039H58.3686V101.67Z" fill="#EBEBEB"/>
<path d="M66.6011 101.67H63.0176V115.039H66.6011V101.67Z" fill="#EBEBEB"/>
<path d="M61.4647 98.8799H59.673V115.039H61.4647V98.8799Z" fill="#EBEBEB"/>
<path d="M113.392 117.949H50.3462V136.321H113.392V117.949Z" fill="#E0E0E0"/>
<path d="M90.1186 120.921H86.5351V136.316H90.1186V120.921Z" fill="#EBEBEB"/>
<path d="M109.779 120.533L106.248 121.142L108.863 136.313L112.394 135.704L109.779 120.533Z" fill="#EBEBEB"/>
<path d="M77.237 122.952H73.6535V136.321H77.237V122.952Z" fill="#EBEBEB"/>
<path d="M85.4696 122.952H81.886V136.321H85.4696V122.952Z" fill="#EBEBEB"/>
<path d="M106.249 122.952H102.666V136.321H106.249V122.952Z" fill="#EBEBEB"/>
<path d="M94.8272 122.488L91.329 123.266L94.2294 136.316L97.7276 135.539L94.8272 122.488Z" fill="#EBEBEB"/>
<path d="M80.3332 120.156H78.5414V136.316H80.3332V120.156Z" fill="#EBEBEB"/>
<path d="M101.634 120.156H99.8419V136.316H101.634V120.156Z" fill="#EBEBEB"/>
<path d="M68.575 120.537L65.0435 121.146L67.6586 136.317L71.19 135.708L68.575 120.537Z" fill="#EBEBEB"/>
<path d="M65.0435 122.952H61.46V136.321H65.0435V122.952Z" fill="#EBEBEB"/>
<path d="M53.6232 122.488L50.1251 123.266L53.0255 136.316L56.5236 135.539L53.6232 122.488Z" fill="#EBEBEB"/>
<path d="M60.4327 120.156H58.6409V136.316H60.4327V120.156Z" fill="#EBEBEB"/>
<path d="M36.2462 171.984H47.9524L47.9524 72.2614H36.2462L36.2462 171.984Z" fill="#E0E0E0"/>
<path d="M155.497 169.38H145.553L150.781 126.788C150.906 125.898 151.343 125.082 152.014 124.484C152.685 123.887 153.547 123.547 154.445 123.525H197.811L191.451 169.361L155.497 169.38Z" fill="#F5F5F5"/>
<path d="M187.032 169.38H196.975L202.207 126.788C202.271 126.379 202.244 125.96 202.128 125.562C202.012 125.165 201.81 124.797 201.537 124.486C201.263 124.174 200.925 123.927 200.545 123.761C200.166 123.595 199.754 123.514 199.34 123.525H195.924C195.027 123.552 194.168 123.894 193.498 124.491C192.828 125.087 192.39 125.901 192.259 126.788L187.032 169.38Z" fill="#F0F0F0"/>
<path d="M183.372 169.313L185.173 148.72C185.211 148.273 185.401 147.853 185.712 147.529C186.022 147.206 186.434 146.998 186.879 146.942L187.619 146.847C188.217 146.772 188.771 146.493 189.188 146.058C189.605 145.623 189.859 145.058 189.908 144.458L190.238 140.702C190.27 140.338 190.227 139.971 190.11 139.625C189.992 139.278 189.805 138.96 189.558 138.691C189.311 138.421 189.011 138.206 188.676 138.058C188.342 137.911 187.98 137.835 187.615 137.835H204.233C204.598 137.835 204.96 137.911 205.294 138.058C205.629 138.206 205.929 138.421 206.176 138.691C206.423 138.96 206.61 139.278 206.728 139.625C206.845 139.971 206.888 140.338 206.856 140.702L206.526 144.458C206.477 145.058 206.223 145.623 205.806 146.058C205.389 146.493 204.835 146.772 204.237 146.847L203.497 146.942C203.052 146.999 202.641 147.207 202.331 147.53C202.02 147.853 201.83 148.273 201.791 148.72L199.99 169.313C199.925 170.037 199.592 170.71 199.057 171.201C198.521 171.692 197.821 171.964 197.094 171.965H180.476C181.203 171.964 181.903 171.692 182.439 171.201C182.974 170.71 183.307 170.037 183.372 169.313Z" fill="#E6E6E6"/>
<path d="M137.636 143.583C137.505 142.02 136.791 140.563 135.636 139.501C134.481 138.439 132.97 137.85 131.401 137.849H145.869C147.433 137.856 148.939 138.448 150.089 139.509C151.238 140.571 151.949 142.024 152.08 143.583L153.514 159.905H139.065L137.636 143.583Z" fill="#E6E6E6"/>
<path d="M124.974 137.869H131.396C132.965 137.869 134.476 138.459 135.631 139.52C136.786 140.582 137.5 142.039 137.631 143.602L139.065 159.924H173.524L174.958 143.602C175.088 142.043 175.798 140.589 176.948 139.527C178.098 138.466 179.604 137.874 181.169 137.869H187.595C187.961 137.869 188.323 137.945 188.657 138.092C188.992 138.239 189.292 138.454 189.539 138.724C189.785 138.994 189.973 139.312 190.09 139.658C190.207 140.005 190.251 140.371 190.219 140.735L189.889 144.491C189.84 145.091 189.585 145.657 189.169 146.092C188.752 146.527 188.198 146.805 187.6 146.88L186.86 146.976C186.415 147.032 186.003 147.239 185.692 147.563C185.382 147.886 185.192 148.306 185.154 148.753L183.372 169.313C183.307 170.037 182.974 170.71 182.439 171.201C181.903 171.692 181.203 171.964 180.476 171.965H132.113C131.386 171.964 130.686 171.692 130.15 171.201C129.615 170.71 129.282 170.037 129.217 169.313L127.416 148.72C127.376 148.273 127.186 147.854 126.876 147.531C126.565 147.208 126.154 147 125.71 146.942L124.97 146.847C124.372 146.771 123.818 146.493 123.4 146.058C122.983 145.623 122.727 145.058 122.676 144.458L122.351 140.702C122.324 140.341 122.371 139.977 122.49 139.635C122.61 139.293 122.798 138.979 123.044 138.713C123.291 138.447 123.589 138.235 123.921 138.089C124.253 137.944 124.612 137.869 124.974 137.869Z" fill="#F0F0F0"/>
<path d="M48.8125 67.2921C48.8125 67.2921 48.2821 63.7994 50.8288 61.5585C53.3755 59.3176 53.1509 57.9893 52.4199 57.8173C51.6888 57.6453 51.0247 59.8814 49.9066 60.4978C49.9066 60.4978 49.8684 57.306 51.0056 56.1354C52.1428 54.9648 52.74 51.9307 51.6554 51.8782C50.5708 51.8256 50.4657 53.6747 50.222 54.9887C49.9783 56.3026 48.7886 58.147 48.7886 58.147C48.7886 58.147 48.5544 55.2801 47.833 54.1191C47.1115 52.958 49.0561 50.2584 48.3108 49.0878C47.5654 47.9172 46.2132 50.1485 46.3231 52.6665C46.433 55.1846 48.1149 57.8698 47.7231 60.4978C47.7231 60.4978 46.9825 58.6487 46.3183 58.4814C45.6542 58.3142 44.9805 57.0958 44.5361 56.6419C44.0918 56.188 43.5279 57.7552 44.5361 59.2077C45.5443 60.6602 48.1149 64.5543 47.7231 67.6983L48.8125 67.2921Z" fill="#E6E6E6"/>
<path d="M50.3319 65.7009L51.1681 70.9329C51.2281 71.3128 51.2052 71.7011 51.1007 72.0713C50.9963 72.4414 50.8129 72.7845 50.5631 73.0769C50.3134 73.3694 50.0032 73.6042 49.654 73.7653C49.3047 73.9264 48.9247 74.0098 48.5401 74.0099H47.6514C47.2668 74.0098 46.8869 73.9264 46.5376 73.7653C46.1884 73.6042 45.8782 73.3694 45.6284 73.0769C45.3787 72.7845 45.1953 72.4414 45.0908 72.0713C44.9864 71.7011 44.9634 71.3128 45.0235 70.9329L45.8692 65.7009H50.3319Z" fill="#E6E6E6"/>
<path d="M100.363 72.9875H102.957V61.8308H100.363V72.9875Z" fill="#EBEBEB"/>
<path d="M87.8156 72.9875H90.4101V61.8308H87.8156V72.9875Z" fill="#EBEBEB"/>
<path d="M71.6774 72.5442L74.2342 72.9849L76.1293 61.9903L73.5726 61.5496L71.6774 72.5442Z" fill="#EBEBEB"/>
<path d="M97.1471 72.9827H99.7416V63.2976H97.1471V72.9827Z" fill="#EBEBEB"/>
<path d="M91.1841 72.9827H93.7786V63.2976H91.1841V72.9827Z" fill="#EBEBEB"/>
<path d="M76.1237 72.9827H78.7182V63.2976H76.1237V72.9827Z" fill="#EBEBEB"/>
<path d="M82.3115 72.421L84.8442 72.9839L86.9454 63.5295L84.4127 62.9666L82.3115 72.421Z" fill="#EBEBEB"/>
<path d="M94.9014 72.9875H96.201V61.2766H94.9014V72.9875Z" fill="#EBEBEB"/>
<path d="M79.4636 72.9875H80.7632V61.2766H79.4636V72.9875Z" fill="#EBEBEB"/>
<path d="M70.2133 64.1292H57.5659V72.8586H70.2133V64.1292Z" fill="#EBEBEB"/>
<path d="M113.588 67.7031H102.995V74.2204H113.588V67.7031Z" fill="#EBEBEB"/>
<path d="M111.113 61.9741H105.815V68.4914H111.113V61.9741Z" fill="#EBEBEB"/>
<path d="M199.631 53.3499H187.032V105.851H199.631V53.3499Z" fill="#E0E0E0"/>
<path d="M151.158 105.994H198.279V53.3547L151.158 53.3547V105.994Z" fill="#E0E0E0"/>
<path d="M149.639 105.994H198.528V53.3547L149.639 53.3547V105.994Z" fill="#F0F0F0"/>
<path d="M151.731 103.572H196.521V55.0269L151.731 55.0269V103.572Z" fill="white"/>
<path d="M151.727 103.572H152.558V55.0269H151.727V103.572Z" fill="#E0E0E0"/>
<path d="M152.424 89.9401V91.2493H196.64V89.9401H152.424Z" fill="#E0E0E0"/>
<path d="M151.727 89.9353H197.218V87.7374H151.727V89.9353Z" fill="#F0F0F0"/>
<path d="M208.696 0.000104312H193.979C192.778 0.000104312 191.627 0.477191 190.777 1.32641C189.928 2.17562 189.451 3.32741 189.451 4.52838V17.3346C189.45 17.9297 189.567 18.5191 189.794 19.0691C190.022 19.6191 190.355 20.1188 190.776 20.5399C191.196 20.9609 191.696 21.2949 192.245 21.5228C192.795 21.7507 193.384 21.868 193.979 21.868H198.277L197.253 25.9096L201.351 21.868H208.722C209.924 21.868 211.077 21.3904 211.927 20.5402C212.778 19.69 213.255 18.5369 213.255 17.3346V4.52838C213.255 3.93113 213.137 3.33977 212.908 2.78836C212.678 2.23695 212.342 1.73639 211.918 1.31549C211.494 0.894599 210.992 0.561691 210.439 0.335939C209.886 0.110188 209.293 -0.00394947 208.696 0.000104312Z" fill="#407BFF"/>
<path opacity="0.7" d="M208.696 0.000104312H193.979C192.778 0.000104312 191.627 0.477191 190.777 1.32641C189.928 2.17562 189.451 3.32741 189.451 4.52838V17.3346C189.45 17.9297 189.567 18.5191 189.794 19.0691C190.022 19.6191 190.355 20.1188 190.776 20.5399C191.196 20.9609 191.696 21.2949 192.245 21.5228C192.795 21.7507 193.384 21.868 193.979 21.868H198.277L197.253 25.9096L201.351 21.868H208.722C209.924 21.868 211.077 21.3904 211.927 20.5402C212.778 19.69 213.255 18.5369 213.255 17.3346V4.52838C213.255 3.93113 213.137 3.33977 212.908 2.78836C212.678 2.23695 212.342 1.73639 211.918 1.31549C211.494 0.894599 210.992 0.561691 210.439 0.335939C209.886 0.110188 209.293 -0.00394947 208.696 0.000104312Z" fill="white"/>
<path d="M201.34 16.5918C204.495 16.5918 207.052 14.0347 207.052 10.8803C207.052 7.72586 204.495 5.1687 201.34 5.1687C198.186 5.1687 195.629 7.72586 195.629 10.8803C195.629 14.0347 198.186 16.5918 201.34 16.5918Z" fill="white"/>
<path d="M201.34 3.57569C199.896 3.57569 198.483 4.0041 197.282 4.80674C196.081 5.60939 195.145 6.75022 194.592 8.08497C194.039 9.41973 193.894 10.8885 194.176 12.3054C194.458 13.7224 195.154 15.024 196.175 16.0455C197.197 17.0671 198.498 17.7628 199.915 18.0447C201.332 18.3265 202.801 18.1818 204.136 17.629C205.47 17.0761 206.611 16.1398 207.414 14.9386C208.217 13.7374 208.645 12.3251 208.645 10.8804C208.646 9.9209 208.457 8.97072 208.09 8.08418C207.723 7.19763 207.185 6.3921 206.507 5.71367C205.829 5.03523 205.023 4.4972 204.136 4.13035C203.25 3.76349 202.3 3.57501 201.34 3.57569ZM205.484 8.69817L201.084 13.8821C201.022 13.957 200.943 14.0171 200.855 14.0578C200.766 14.0986 200.669 14.1191 200.572 14.1178C200.475 14.1183 200.378 14.0975 200.29 14.0568C200.201 14.0161 200.123 13.9565 200.06 13.8821L197.196 10.5064C197.136 10.4397 197.089 10.3614 197.06 10.2763C197.03 10.1913 197.018 10.1011 197.024 10.0112C197.03 9.92131 197.054 9.83354 197.094 9.75313C197.135 9.67272 197.191 9.60132 197.26 9.54317C197.329 9.48503 197.409 9.44134 197.495 9.4147C197.581 9.38806 197.672 9.37902 197.761 9.38812C197.851 9.39722 197.938 9.42428 198.017 9.46767C198.096 9.51107 198.165 9.56992 198.221 9.64071L200.572 12.412L204.46 7.83247C204.577 7.7036 204.739 7.62512 204.913 7.61358C205.086 7.60203 205.257 7.65832 205.39 7.77058C205.523 7.88284 205.607 8.0423 205.625 8.21535C205.642 8.38839 205.592 8.56149 205.484 8.69817Z" fill="#407BFF"/>
<path d="M201.355 82.0082C201.355 82.0082 191.824 80.8038 177.383 84.7454C177.383 84.7454 175.062 58.9394 175.335 55.392C175.609 51.8447 197.632 52.8848 197.632 52.8848C197.632 52.8848 198.18 63.2148 199.614 69.4446C201.048 75.6744 202.099 80.8093 201.355 82.0082Z" fill="#7F8CA6"/>
<path opacity="0.2" d="M201.355 82.0082C201.355 82.0082 191.824 80.8038 177.383 84.7454C177.383 84.7454 175.062 58.9394 175.335 55.392C175.609 51.8447 197.632 52.8848 197.632 52.8848C197.632 52.8848 198.18 63.2148 199.614 69.4446C201.048 75.6744 202.099 80.8093 201.355 82.0082Z" fill="#A7ACD0"/>
<path d="M170.419 167.44L174.306 168.541L175.231 162.492L175.73 159.256L171.843 158.156L171.18 162.492L170.419 167.44Z" fill="#E4897B"/>
<path d="M192.766 167.758L196.773 168.289L196.811 162.492L196.839 158.89L192.826 158.364L192.798 162.492L192.766 167.758Z" fill="#E4897B"/>
<path opacity="0.2" d="M192.826 158.364L192.798 162.492H196.811L196.839 158.89L192.826 158.364Z" fill="black"/>
<path opacity="0.2" d="M171.18 162.492H175.231L175.73 159.256L171.843 158.156L171.18 162.492Z" fill="black"/>
<path d="M153.164 57.5105L149.305 56.3718L150.011 60.7787C150.011 60.7787 153.515 61.5834 153.843 59.7604L153.164 57.5105Z" fill="#E4897B"/>
<path d="M145.451 57.3955L147.345 60.9757L150.011 60.7787L149.305 56.3718L145.451 57.3955Z" fill="#E4897B"/>
<path d="M158.491 58.6383L152.152 57.2205L151.577 60.297L157.33 61.6985L158.491 58.6383Z" fill="#E4897B"/>
<path d="M177.667 55.8574L177.295 56.3008C176.496 57.2369 174.558 59.4978 172.538 61.4467C170.896 63.0342 169.253 64.4192 168.159 64.6984C165.055 65.4977 153.772 62.1748 153.772 62.1748L154.938 57.5982C154.938 57.5982 165.449 58.9942 166.264 58.9942C166.883 58.9942 173.277 49.7316 174.826 48.9707L177.667 55.8574Z" fill="#A7ACD0"/>
<path opacity="0.2" d="M177.295 56.3007C176.496 57.2368 174.558 59.4977 172.538 61.4466C172.943 58.2386 174.12 55.2935 175.669 53.4322C175.814 53.2525 175.979 53.0908 176.162 52.9504L177.295 56.3007Z" fill="black"/>
<path d="M170.469 166.833L174.881 166.718C174.961 166.715 175.039 166.74 175.102 166.788C175.166 166.836 175.212 166.904 175.231 166.981L176.162 170.534C176.184 170.619 176.187 170.708 176.17 170.794C176.153 170.88 176.117 170.962 176.065 171.032C176.012 171.102 175.944 171.16 175.866 171.201C175.789 171.242 175.702 171.264 175.615 171.267C174.022 171.267 171.717 171.267 169.719 171.305C167.376 171.371 165.887 171.256 163.15 171.305C161.507 171.349 160.96 169.696 161.661 169.526C164.797 168.749 166.85 168.902 169.522 167.15C169.804 166.962 170.13 166.853 170.469 166.833Z" fill="#263238"/>
<path d="M170.086 167.402C169.44 167.545 168.29 167.736 167.83 167.358C167.763 167.303 167.71 167.232 167.676 167.152C167.642 167.072 167.627 166.985 167.633 166.899C167.633 166.846 167.646 166.795 167.672 166.75C167.698 166.705 167.736 166.667 167.781 166.641C168.268 166.351 169.916 167.134 170.107 167.222C170.124 167.231 170.138 167.244 170.148 167.26C170.157 167.277 170.162 167.296 170.162 167.315C170.161 167.336 170.153 167.356 170.139 167.372C170.125 167.388 170.106 167.399 170.086 167.402ZM167.896 166.795H167.863C167.845 166.805 167.83 166.82 167.819 166.839C167.808 166.857 167.803 166.878 167.803 166.899C167.798 166.955 167.807 167.012 167.829 167.064C167.851 167.117 167.885 167.163 167.929 167.2C168.186 167.413 168.854 167.435 169.741 167.26C169.1 166.992 168.208 166.68 167.907 166.795H167.896Z" fill="#7F8CA6"/>
<path d="M170.085 167.402H170.02C169.522 167.194 168.525 166.351 168.58 165.897C168.58 165.787 168.668 165.65 168.93 165.618C169.027 165.605 169.125 165.612 169.219 165.637C169.313 165.662 169.401 165.706 169.478 165.765C170.025 166.176 170.151 167.254 170.162 167.298C170.164 167.315 170.161 167.332 170.154 167.347C170.148 167.362 170.137 167.376 170.124 167.386L170.085 167.402ZM168.859 165.831C168.777 165.858 168.772 165.902 168.772 165.919C168.739 166.192 169.418 166.86 169.927 167.145C169.868 166.685 169.665 166.256 169.346 165.919C169.292 165.873 169.229 165.84 169.161 165.821C169.093 165.802 169.022 165.798 168.952 165.809C168.92 165.812 168.889 165.819 168.859 165.831Z" fill="#7F8CA6"/>
<path d="M192.924 166.833L197.337 166.718C197.417 166.715 197.496 166.74 197.56 166.787C197.625 166.835 197.672 166.903 197.693 166.981L198.618 170.534C198.641 170.619 198.645 170.708 198.628 170.795C198.612 170.881 198.576 170.963 198.523 171.034C198.47 171.105 198.402 171.163 198.324 171.203C198.245 171.243 198.158 171.265 198.07 171.267C196.477 171.267 194.173 171.267 192.169 171.305C189.831 171.371 188.337 171.256 185.6 171.305C183.957 171.349 183.41 169.696 184.111 169.526C187.248 168.749 189.295 168.902 191.966 167.15C192.251 166.961 192.582 166.851 192.924 166.833Z" fill="#263238"/>
<path d="M192.547 167.402C191.901 167.545 190.746 167.736 190.291 167.358C190.224 167.303 190.171 167.232 190.137 167.152C190.103 167.072 190.088 166.985 190.094 166.899C190.094 166.846 190.107 166.795 190.133 166.75C190.159 166.705 190.197 166.667 190.242 166.641C190.724 166.351 192.377 167.134 192.563 167.222C192.581 167.229 192.597 167.242 192.606 167.259C192.616 167.276 192.62 167.295 192.618 167.315C192.616 167.335 192.609 167.354 192.596 167.37C192.583 167.385 192.566 167.397 192.547 167.402ZM190.357 166.795H190.324C190.306 166.805 190.291 166.82 190.282 166.839C190.272 166.857 190.268 166.878 190.269 166.899C190.264 166.955 190.272 167.012 190.294 167.065C190.316 167.118 190.351 167.164 190.395 167.2C190.653 167.413 191.315 167.435 192.207 167.26C191.556 166.992 190.663 166.68 190.362 166.795H190.357Z" fill="#7F8CA6"/>
<path d="M192.547 167.402H192.476C191.983 167.194 190.981 166.351 191.041 165.897C191.041 165.787 191.123 165.65 191.386 165.617C191.483 165.604 191.581 165.61 191.675 165.636C191.769 165.661 191.857 165.705 191.934 165.765C192.317 166.192 192.556 166.728 192.618 167.298C192.621 167.315 192.618 167.332 192.612 167.347C192.605 167.363 192.594 167.376 192.58 167.386L192.547 167.402ZM191.315 165.831C191.238 165.858 191.233 165.902 191.233 165.918C191.195 166.192 191.879 166.86 192.388 167.145C192.325 166.686 192.123 166.258 191.808 165.918C191.753 165.873 191.69 165.84 191.622 165.821C191.554 165.802 191.483 165.798 191.413 165.809L191.315 165.831Z" fill="#7F8CA6"/>
<path d="M201.032 79.6541C203.156 88.8564 199.51 161.254 199.51 161.254H192.47L189.459 100.922L178.374 161.254L170.846 160.707C175.773 113.967 180.114 86.0645 180.114 86.0645V82.539L201.032 79.6541Z" fill="#263238"/>
<path opacity="0.4" d="M170.846 160.707L178.374 161.254L187.1 113.759L189.459 100.922L192.47 161.254H199.51C199.51 161.254 203.156 88.8564 201.032 79.6541L180.104 82.539V86.0645C180.104 86.0645 175.768 113.967 170.846 160.707Z" fill="white"/>
<path d="M197.238 45.5708C197.022 49.9707 197.134 54.3806 197.572 58.7639C197.868 61.8296 198.273 64.7255 198.705 67.3367C199.718 73.4625 200.868 78.0554 201.032 79.6594L180.104 82.5444C172.472 61.1945 175.346 48.7897 175.346 48.7897C176.911 48.1436 178.515 47.5951 180.147 47.1474C180.492 47.0544 180.843 46.9668 181.204 46.8846C184.143 46.3062 187.113 45.8968 190.1 45.6584C190.647 45.6091 191.244 45.5708 191.802 45.5434C194.66 45.4011 197.238 45.5708 197.238 45.5708Z" fill="#263238"/>
<path d="M186.038 35.9634C186.191 38.8921 186.503 44.3884 188.939 45.7843C188.939 45.7843 187.423 48.6693 184.144 48.9649C181.664 49.1839 181.828 46.7369 181.828 46.7369C183.262 45.6694 182.923 43.8574 181.828 41.81L186.038 35.9634Z" fill="#E4897B"/>
<path opacity="0.2" d="M184.319 38.3503L181.844 41.8101C182.105 42.2833 182.325 42.7778 182.501 43.2882C183.651 42.8283 184.97 41.0984 184.779 39.8448C184.719 39.3226 184.563 38.816 184.319 38.3503Z" fill="black"/>
<path d="M175.363 30.0677C174.886 31.5896 175.149 34.7099 177.268 33.6972C179.386 32.6844 176.184 27.4564 175.363 30.0677Z" fill="#263238"/>
<path d="M186.311 32.1262C186.547 36.0294 186.859 38.3012 185.156 40.5128C182.567 43.8357 177.552 42.5985 176.151 38.8322C174.892 35.4381 174.722 29.6244 178.341 27.6536C179.143 27.2172 180.043 26.9915 180.956 26.9974C181.869 27.0034 182.765 27.2409 183.562 27.6877C184.358 28.1346 185.028 28.7761 185.509 29.5524C185.99 30.3286 186.266 31.2142 186.311 32.1262Z" fill="#E4897B"/>
<path d="M183.574 30.0021V25.6227C183.574 25.6227 188.216 25.2778 188.008 27.6537C190.581 28.9292 189.366 32.9309 185.912 34.8907C184.018 33.3743 184.237 29.7284 184.237 29.7284C184.034 29.8324 183.804 29.92 183.574 30.0021Z" fill="#263238"/>
<path d="M188.2 35.1699C188.111 35.6474 187.926 36.1022 187.658 36.5074C187.391 36.9126 187.044 37.2601 186.64 37.5294C185.545 38.2465 184.598 37.3651 184.56 36.1334C184.527 35.0386 185.047 33.3087 186.306 33.0897C186.581 33.0468 186.863 33.0728 187.126 33.1654C187.389 33.258 187.625 33.4144 187.812 33.6205C188 33.8266 188.134 34.076 188.201 34.3464C188.269 34.6168 188.269 34.8998 188.2 35.1699Z" fill="#E4897B"/>
<path d="M180.547 33.8667C180.585 34.1843 180.448 34.458 180.24 34.4799C180.032 34.5018 179.835 34.2664 179.797 33.9324C179.759 33.5985 179.895 33.3412 180.098 33.3193C180.301 33.2974 180.509 33.5273 180.547 33.8667Z" fill="#263238"/>
<path d="M176.967 34.2665C177.005 34.584 176.868 34.8578 176.66 34.8797C176.452 34.9016 176.255 34.6662 176.217 34.3322C176.178 33.9983 176.315 33.741 176.523 33.7191C176.731 33.6972 176.917 33.949 176.967 34.2665Z" fill="#263238"/>
<path d="M178.122 34.2939C177.845 35.2728 177.434 36.2087 176.901 37.0749C177.137 37.1962 177.396 37.2663 177.661 37.2804C177.927 37.2946 178.192 37.2525 178.439 37.157L178.122 34.2939Z" fill="#DE5753"/>
<path d="M180.284 38.1753C180.149 38.2097 180.012 38.2353 179.874 38.2519C179.849 38.2519 179.825 38.2421 179.808 38.2247C179.79 38.2072 179.781 38.1836 179.781 38.1589C179.781 38.1342 179.79 38.1105 179.808 38.0931C179.825 38.0756 179.849 38.0658 179.874 38.0658C180.267 38.0301 180.646 37.9026 180.981 37.6934C181.315 37.4842 181.596 37.1992 181.801 36.8615C181.805 36.8504 181.812 36.8404 181.821 36.8321C181.83 36.8239 181.84 36.8175 181.851 36.8134C181.863 36.8093 181.875 36.8075 181.887 36.8083C181.899 36.809 181.91 36.8122 181.921 36.8177C181.932 36.8229 181.942 36.8304 181.951 36.8396C181.959 36.8489 181.965 36.8597 181.969 36.8714C181.974 36.8831 181.975 36.8956 181.974 36.908C181.974 36.9204 181.97 36.9325 181.965 36.9436C181.786 37.2545 181.544 37.5247 181.254 37.7368C180.965 37.9489 180.635 38.0982 180.284 38.1753Z" fill="#263238"/>
<path d="M181.51 32.5913C181.477 32.599 181.443 32.598 181.41 32.5884C181.378 32.5788 181.348 32.561 181.324 32.5366C181.166 32.3628 180.969 32.2284 180.749 32.1438C180.53 32.0593 180.294 32.0269 180.06 32.0493C180.036 32.0549 180.011 32.0554 179.986 32.0509C179.962 32.0464 179.939 32.0369 179.918 32.023C179.898 32.0092 179.88 31.9912 179.867 31.9703C179.853 31.9494 179.845 31.926 179.841 31.9015C179.836 31.8774 179.836 31.8527 179.841 31.8286C179.846 31.8045 179.855 31.7816 179.869 31.7613C179.883 31.7409 179.9 31.7235 179.921 31.71C179.941 31.6965 179.964 31.6872 179.989 31.6826C180.284 31.6474 180.584 31.6832 180.863 31.7869C181.142 31.8907 181.392 32.0595 181.593 32.2793C181.61 32.2962 181.625 32.3165 181.634 32.3391C181.644 32.3617 181.649 32.386 181.649 32.4107C181.649 32.4353 181.644 32.4596 181.634 32.4822C181.625 32.5048 181.61 32.5251 181.593 32.542C181.569 32.5643 181.541 32.5811 181.51 32.5913Z" fill="#263238"/>
<path d="M175.275 33.2101C175.24 33.2236 175.201 33.2236 175.166 33.2101C175.119 33.1939 175.081 33.1601 175.06 33.116C175.038 33.072 175.035 33.0212 175.051 32.9747C175.141 32.6929 175.298 32.4372 175.509 32.2294C175.72 32.0216 175.978 31.8678 176.261 31.7813C176.308 31.7689 176.359 31.7761 176.402 31.8013C176.445 31.8265 176.475 31.8675 176.488 31.9154C176.5 31.9633 176.493 32.0142 176.468 32.0568C176.443 32.0994 176.402 32.1303 176.354 32.1426C176.13 32.2116 175.926 32.3345 175.761 32.5006C175.596 32.6667 175.474 32.8709 175.407 33.0951C175.396 33.1238 175.379 33.1494 175.356 33.1695C175.333 33.1896 175.305 33.2036 175.275 33.2101Z" fill="#263238"/>
<path d="M185.633 31.6224C185.633 31.6224 182.895 30.6206 181.647 29.0331C181.647 29.0331 179.162 29.6845 178.653 30.6754C178.421 30.4764 178.27 30.1985 178.231 29.8952C178.191 29.5919 178.266 29.2848 178.439 29.0331C178.439 29.0331 176.578 29.4272 176.211 30.6754C175.909 30.5314 175.66 30.2941 175.503 29.9985C175.345 29.7029 175.286 29.3645 175.335 29.0331C175.335 29.0331 174.509 29.3451 174.24 30.6754C174.24 30.6754 172.188 26.3944 178.97 25.1682C178.457 24.994 177.919 24.9035 177.377 24.9C177.377 24.9 182.113 22.9894 185.862 24.7357C189.612 26.482 188.961 29.8652 185.633 31.6224Z" fill="#263238"/>
<path d="M202.647 83.3437L196.078 84.2196C196.078 84.2196 193.368 65.284 192.174 59.1691V46.1183L195.607 45.2151L198.267 46.1183C198.997 48.7441 199.558 51.4137 199.948 54.1109C200.271 56.1583 200.561 58.348 200.818 60.5651C201.174 63.5869 201.47 66.6635 201.722 69.543C202.116 74.1907 202.379 78.3019 202.521 80.8146C202.603 82.3912 202.647 83.3437 202.647 83.3437Z" fill="#407BFF"/>
<path d="M192.18 59.1585C192.18 59.1585 192.727 49.9452 195.612 45.1935C195.612 45.1935 195.541 43.8359 194.966 43.6169C194.391 43.3979 192.18 44.7118 192.18 44.7118C192.18 44.7118 190.806 43.7702 190.505 44.2081C190.204 44.6461 189.47 47.5584 192.18 59.1585Z" fill="#7F8CA6"/>
<path opacity="0.7" d="M192.18 59.1585C192.18 59.1585 192.727 49.9452 195.612 45.1935C195.612 45.1935 195.541 43.8359 194.966 43.6169C194.391 43.3979 192.18 44.7118 192.18 44.7118C192.18 44.7118 190.806 43.7702 190.505 44.2081C190.204 44.6461 189.47 47.5584 192.18 59.1585Z" fill="white"/>
<path d="M177.246 85.8676L177.996 86.415C177.996 86.415 176.901 80.3112 177.35 64.8736C177.35 64.1291 177.399 63.4119 177.427 62.7276C177.974 49.6659 180.01 47.29 180.164 47.1477L178.27 47.7937L174.837 48.9761C173.803 60.1164 177.246 85.8676 177.246 85.8676Z" fill="#407BFF"/>
<path d="M177.542 60.4776C177.542 60.4776 175.647 51.5216 176.211 48.4341C176.775 45.3466 178.795 46.7206 178.795 46.7206C178.795 46.7206 180.651 45.2207 181.204 46.8739C181.204 46.8739 178.653 48.6695 177.542 60.4776Z" fill="#7F8CA6"/>
<path opacity="0.7" d="M177.542 60.4776C177.542 60.4776 175.647 51.5216 176.211 48.4341C176.775 45.3466 178.795 46.7206 178.795 46.7206C178.795 46.7206 180.651 45.2207 181.204 46.8739C181.204 46.8739 178.653 48.6695 177.542 60.4776Z" fill="white"/>
<path opacity="0.2" d="M200.807 60.5433C198.005 58.9722 197.632 54.8719 197.632 54.8719C197.802 54.8063 198.842 54.4504 199.937 54.0891C200.26 56.1365 200.55 58.3262 200.807 60.5433Z" fill="black"/>
<path opacity="0.2" d="M187.1 113.759L189.459 100.922L189.005 94.1282C189.005 94.1282 185.769 105.909 187.1 113.759Z" fill="black"/>
<path opacity="0.2" d="M202.51 80.7929C200.747 80.6724 199.225 80.5575 199.225 80.5575L198.891 73.3916C199.441 73.0477 200.101 72.9264 200.736 73.0522C201.169 71.9074 201.497 70.7255 201.716 69.5212C202.099 74.1689 202.368 78.2856 202.51 80.7929Z" fill="black"/>
<path d="M203.112 69.5156L199.68 75.0283L202.395 76.5884L205.619 71.6232L203.112 69.5156Z" fill="#E4897B"/>
<path d="M198.12 46.0308C200.43 46.2826 210.251 59.7604 210.683 63.8223C211.116 67.8843 204.913 74.8969 204.913 74.8969L200.775 72.4608C200.775 72.4608 204.979 65.9956 205.198 64.2493C205.417 62.503 197.506 55.4466 197.506 55.4466C196.908 53.821 196.579 52.1088 196.532 50.3774C196.422 47.4103 198.12 46.0308 198.12 46.0308Z" fill="#A7ACD0"/>
<path d="M198.886 73.397C198.886 73.397 202.417 74.1524 203.84 76.375C203.84 76.375 202.362 81.0008 201.306 81.5044C200.249 82.0081 197.632 82.0081 197.632 82.0081C197.632 82.0081 197.463 76.8622 198.886 73.397Z" fill="#407BFF"/>
<path d="M58.1908 158.847H57.8215C57.8215 158.299 58.2763 145.455 60.5115 143.298C62.8088 141.063 65.5105 143.267 65.5338 143.298L65.3006 143.578C65.1995 143.496 62.8244 141.568 60.7641 143.578C58.6378 145.603 58.1946 158.715 58.1908 158.847Z" fill="#407BFF"/>
<path d="M58.0042 161.424L57.6387 161.389C57.6387 161.234 59.0848 145.794 53.491 139.372L53.767 139.131C59.4658 145.673 58.0197 161.269 58.0042 161.424Z" fill="#407BFF"/>
<path d="M58.183 159.776C58.1363 159.045 57.0596 141.895 61.3589 137.93L61.6077 138.202C57.4366 142.035 58.5367 159.582 58.5484 159.749L58.183 159.776Z" fill="#407BFF"/>
<path d="M57.6388 159.765C57.6388 159.648 57.5066 148.103 54.4473 146.365C54.1872 146.194 53.8897 146.087 53.5799 146.055C53.27 146.022 52.9569 146.065 52.6669 146.178C50.8749 146.921 49.9225 150.342 49.9109 150.377L49.5571 150.28C49.596 150.132 50.5678 146.653 52.527 145.84C52.8683 145.703 53.2376 145.65 53.6037 145.686C53.9698 145.722 54.3218 145.846 54.63 146.046C57.8681 147.901 58.0042 159.263 58.0081 159.761L57.6388 159.765Z" fill="#407BFF"/>
<path d="M58.8982 159.772C58.8749 159.384 58.4045 150.661 60.8807 147.422C61.5416 146.563 62.2724 146.155 63.0654 146.213C64.8263 146.334 66.1752 148.721 66.2491 148.822L65.9303 149.005C65.9303 148.981 64.6009 146.672 63.0382 146.579C62.3812 146.528 61.7515 146.89 61.1723 147.648C58.7777 150.758 59.2597 159.663 59.2636 159.753L58.8982 159.772Z" fill="#407BFF"/>
<path d="M58.4045 160.981L58.0391 160.954C58.0391 160.744 59.594 139.916 57.0284 136.441L57.3239 136.223C59.975 139.807 58.4706 160.118 58.4045 160.981Z" fill="#407BFF"/>
<path d="M51.8156 147.912C51.8156 147.912 53.4016 148.499 52.9313 149.879C52.4609 151.259 47.4385 153.533 47.4385 153.533C47.4385 153.533 45.3355 151.609 47.2675 148.48C49.1995 145.35 51.7728 146.925 51.8156 147.912Z" fill="#407BFF"/>
<path opacity="0.2" d="M51.8156 147.912C51.8156 147.912 53.4016 148.499 52.9313 149.879C52.4609 151.259 47.4385 153.533 47.4385 153.533C47.4385 153.533 45.3355 151.609 47.2675 148.48C49.1995 145.35 51.7728 146.925 51.8156 147.912Z" fill="black"/>
<path d="M58.7155 145.284C58.7155 145.284 57.0246 145.214 56.9274 146.668C56.8302 148.122 60.5814 152.157 60.5814 152.157C60.5814 152.157 63.2636 151.185 62.6883 147.551C62.113 143.916 59.1354 144.386 58.7155 145.284Z" fill="#407BFF"/>
<path opacity="0.2" d="M58.7155 145.284C58.7155 145.284 57.0246 145.214 56.9274 146.668C56.8302 148.122 60.5814 152.157 60.5814 152.157C60.5814 152.157 63.2636 151.185 62.6883 147.551C62.113 143.916 59.1354 144.386 58.7155 145.284Z" fill="black"/>
<path d="M60.146 138.311C60.146 138.311 59.0187 138.19 59.1081 137.506C59.1975 136.822 63.4891 135.053 66.0197 137.895C66.0197 137.895 64.3987 140.678 62.0586 140.717C59.7184 140.756 60.146 138.311 60.146 138.311Z" fill="#407BFF"/>
<path opacity="0.2" d="M60.146 138.311C60.146 138.311 59.0187 138.19 59.1081 137.506C59.1975 136.822 63.4891 135.053 66.0197 137.895C66.0197 137.895 64.3987 140.678 62.0586 140.717C59.7184 140.756 60.146 138.311 60.146 138.311Z" fill="black"/>
<path d="M58.0469 136.643C58.0469 136.643 59.0653 137.137 59.353 136.507C59.6407 135.877 56.9312 132.11 53.2733 133.195C53.2733 133.195 53.1761 136.414 55.1431 137.685C57.11 138.956 58.0469 136.643 58.0469 136.643Z" fill="#407BFF"/>
<path opacity="0.2" d="M58.0469 136.643C58.0469 136.643 59.0653 137.137 59.353 136.507C59.6407 135.877 56.9312 132.11 53.2733 133.195C53.2733 133.195 53.1761 136.414 55.1431 137.685C57.11 138.956 58.0469 136.643 58.0469 136.643Z" fill="black"/>
<path d="M63.3802 147.36C63.3802 147.36 62.6028 146.73 63.4424 146.423C64.2821 146.116 68.3987 146.206 68.4415 150.283C68.4415 150.283 63.6446 151.08 63.0537 149.525C62.4628 147.971 63.3802 147.36 63.3802 147.36Z" fill="#407BFF"/>
<path opacity="0.2" d="M63.3802 147.36C63.3802 147.36 62.6028 146.73 63.4424 146.423C64.2821 146.116 68.3987 146.206 68.4415 150.283C68.4415 150.283 63.6446 151.08 63.0537 149.525C62.4628 147.971 63.3802 147.36 63.3802 147.36Z" fill="black"/>
<path d="M53.5843 138.209C53.5843 138.209 54.3618 137.58 53.5221 137.277C52.6825 136.973 48.5658 137.055 48.5231 141.133C48.5231 141.133 53.32 141.933 53.9108 140.379C54.5017 138.824 53.5843 138.209 53.5843 138.209Z" fill="#407BFF"/>
<path opacity="0.2" d="M53.5843 138.209C53.5843 138.209 54.3618 137.58 53.5221 137.277C52.6825 136.973 48.5658 137.055 48.5231 141.133C48.5231 141.133 53.32 141.933 53.9108 140.379C54.5017 138.824 53.5843 138.209 53.5843 138.209Z" fill="black"/>
<path d="M56.1344 141.494C56.1344 141.494 56.2043 140.717 55.5863 141.032C54.9682 141.346 52.8263 143.648 55.0498 145.844C55.0498 145.844 58.0469 143.624 57.5066 142.47C56.9662 141.315 56.1344 141.494 56.1344 141.494Z" fill="#407BFF"/>
<path opacity="0.2" d="M56.1344 141.494C56.1344 141.494 56.2043 140.717 55.5863 141.032C54.9682 141.346 52.8263 143.648 55.0498 145.844C55.0498 145.844 58.0469 143.624 57.5066 142.47C56.9662 141.315 56.1344 141.494 56.1344 141.494Z" fill="black"/>
<path d="M64.0799 142.583C64.0799 142.583 63.6134 141.972 64.2976 141.899C64.9818 141.825 68.0294 142.637 67.318 145.685C67.318 145.685 63.6018 145.405 63.4307 144.13C63.2597 142.855 64.0799 142.583 64.0799 142.583Z" fill="#407BFF"/>
<path opacity="0.2" d="M64.0799 142.583C64.0799 142.583 63.6134 141.972 64.2976 141.899C64.9818 141.825 68.0294 142.637 67.318 145.685C67.318 145.685 63.6018 145.405 63.4307 144.13C63.2597 142.855 64.0799 142.583 64.0799 142.583Z" fill="black"/>
<path d="M52.0916 171.069H64.1072L65.7049 159.384H50.494L52.0916 171.069Z" fill="#263238"/>
<path opacity="0.2" d="M52.0916 171.069H64.1072L65.7049 159.384H50.494L52.0916 171.069Z" fill="white"/>
<path d="M67.2131 158.435V159.547C67.2131 159.904 67.0714 160.246 66.8191 160.498C66.5669 160.75 66.2248 160.892 65.8681 160.892H50.1829C49.8262 160.892 49.4841 160.75 49.2319 160.498C48.9797 160.246 48.838 159.904 48.838 159.547V158.435H67.2131Z" fill="#263238"/>
</svg>
