<svg width="12" height="16" viewBox="0 0 12 16" fill="none" xmlns="http://www.w3.org/2000/svg">
<path d="M11.0612 2.49859C11.0612 1.67063 10.4306 0.999435 9.65284 0.999435H3.08062C2.30282 0.999435 1.67229 1.67063 1.67229 2.49859V14.6567L6.14146 12.0545C6.28183 11.9728 6.45164 11.9728 6.59201 12.0545L11.0612 14.6567V2.49859ZM1.42812 15.938C1.11528 16.1201 0.733398 15.8791 0.733398 15.4996V2.49859C0.733398 1.11866 1.78429 0 3.08062 0H9.65284C10.9492 0 12.0001 1.11866 12.0001 2.49859V15.4996C12.0001 15.8791 11.6182 16.1201 11.3053 15.938L6.36673 13.0625L1.42812 15.938Z" fill="black"/>
</svg>
