<svg width="21" height="21" viewBox="0 0 21 21" fill="none" xmlns="http://www.w3.org/2000/svg">
<path d="M1 10.5C1 6.02165 1 3.78248 2.39125 2.39125C3.78248 1 6.02165 1 10.5 1C14.9783 1 17.2175 1 18.6087 2.39125C20 3.78248 20 6.02165 20 10.5C20 14.9783 20 17.2175 18.6087 18.6087C17.2175 20 14.9783 20 10.5 20C6.02165 20 3.78248 20 2.39125 18.6087C1 17.2175 1 14.9783 1 10.5Z" stroke="#1E3167"/>
<path d="M15.2712 1V7.44683C15.2712 8.3701 15.2712 8.83173 15.148 9.10703C14.8672 9.73452 14.1744 10.0728 13.5022 9.91085C13.2071 9.83973 12.8386 9.55809 12.1015 8.99481C11.6854 8.6768 11.4772 8.5178 11.2606 8.42438C10.7755 8.21523 10.2247 8.21523 9.7396 8.42438C9.52299 8.5178 9.31488 8.6768 8.89874 8.99481C8.1616 9.55809 7.79305 9.83973 7.49805 9.91085C6.82581 10.0728 6.13304 9.73452 5.85223 9.10703C5.729 8.83173 5.729 8.3701 5.729 7.44683V1" stroke="#1E3167"/>
</svg>
