<svg width="22" height="23" viewBox="0 0 22 23" fill="none" xmlns="http://www.w3.org/2000/svg">
<path d="M10.9836 14.7705C12.6948 14.7705 14.082 13.3062 14.082 11.5C14.082 9.69374 12.6948 8.22949 10.9836 8.22949C9.27244 8.22949 7.88525 9.69374 7.88525 11.5C7.88525 13.3062 9.27244 14.7705 10.9836 14.7705Z" stroke="#1E3167"/>
<path d="M12.853 1.15985C12.4638 1 11.9704 1 10.9836 1C9.99682 1 9.50347 1 9.11422 1.15985C8.59532 1.37299 8.18304 1.78181 7.96809 2.29636C7.86997 2.53126 7.83156 2.80442 7.81654 3.20289C7.79446 3.78846 7.49161 4.33048 6.97982 4.62348C6.46805 4.91646 5.84324 4.90552 5.32078 4.6317C4.96526 4.44536 4.70748 4.34175 4.45327 4.30857C3.89639 4.23587 3.3332 4.3855 2.88759 4.72456C2.55338 4.97885 2.30668 5.40254 1.81329 6.24993C1.31991 7.09732 1.07321 7.521 1.01822 7.93516C0.944916 8.48734 1.09582 9.04579 1.43775 9.48767C1.59381 9.68938 1.81316 9.85885 2.15358 10.0709C2.65404 10.3828 2.97604 10.914 2.97601 11.5C2.97597 12.086 2.65398 12.6171 2.15357 12.9288C1.8131 13.141 1.59373 13.3106 1.43765 13.5123C1.09571 13.9542 0.94481 14.5126 1.01813 15.0647C1.07311 15.4789 1.3198 15.9026 1.81319 16.75C2.30659 17.5973 2.55328 18.0211 2.88748 18.2753C3.33309 18.6144 3.89628 18.764 4.45316 18.6913C4.70735 18.6582 4.96512 18.5545 5.32062 18.3683C5.84312 18.0944 6.46797 18.0835 6.97978 18.3764C7.49159 18.6695 7.79446 19.2115 7.81654 19.7972C7.83158 20.1956 7.86997 20.4688 7.96809 20.7037C8.18304 21.2182 8.59532 21.627 9.11422 21.8402C9.50347 22 9.99682 22 10.9836 22C11.9704 22 12.4638 22 12.853 21.8402C13.3719 21.627 13.7842 21.2182 13.9991 20.7037C14.0972 20.4688 14.1357 20.1956 14.1507 19.7971C14.1727 19.2115 14.4756 18.6695 14.9873 18.3764C15.4991 18.0834 16.124 18.0944 16.6465 18.3683C17.002 18.5545 17.2598 18.6581 17.5139 18.6912C18.0708 18.764 18.634 18.6144 19.0796 18.2753C19.4138 18.021 19.6605 17.5974 20.1539 16.7499C20.6473 15.9025 20.894 15.4789 20.949 15.0647C21.0223 14.5126 20.8714 13.9541 20.5295 13.5122C20.3734 13.3105 20.154 13.1409 19.8135 12.9288C19.3132 12.6171 18.9912 12.0859 18.9912 11.4999C18.9912 10.9139 19.3132 10.3829 19.8135 10.0712C20.1541 9.85895 20.3735 9.68948 20.5296 9.48767C20.8715 9.04587 21.0224 8.48741 20.9491 7.93522C20.8941 7.52108 20.6474 7.09738 20.154 6.25C19.6606 5.40262 19.4139 4.97892 19.0797 4.72463C18.6341 4.38558 18.0709 4.23594 17.514 4.30864C17.2599 4.34182 17.0021 4.44543 16.6465 4.63174C16.1241 4.90557 15.4992 4.91652 14.9875 4.62351C14.4756 4.33051 14.1727 3.78844 14.1507 3.20284C14.1357 2.8044 14.0972 2.53125 13.9991 2.29636C13.7842 1.78181 13.3719 1.37299 12.853 1.15985Z" stroke="#1E3167"/>
</svg>
