<svg width="72" height="87" viewBox="0 0 72 87" fill="none" xmlns="http://www.w3.org/2000/svg">
<path d="M10.7333 42.9745C10.1248 39.898 9.65055 36.7948 9.31238 33.677C9.07796 31.5187 10.4974 29.5302 12.6155 29.0517C26.3448 25.95 40.65 25.4244 54.8449 24.914C56.4999 24.8544 58.209 24.803 59.7527 25.4033C60.9309 25.861 61.995 26.8019 62.4182 27.9579C62.4182 27.9579 63.4798 31.6257 63.8919 33.9272C64.304 36.2287 38.8116 42.6349 38.8116 42.6349L10.7333 42.9745Z" fill="#208FAB"/>
<path d="M62.4168 27.9579C61.9932 26.8019 60.9295 25.861 59.7513 25.4033C58.2076 24.803 56.4984 24.8544 54.8435 24.914C40.6485 25.4244 26.3434 25.95 12.614 29.0517C11.0715 29.4003 9.90329 30.5512 9.4707 31.9836C24.9286 29.0718 40.6399 27.5055 56.3685 27.3178C57.1654 27.3081 57.9976 27.3092 58.6739 27.7988C58.9579 28.0042 59.1769 28.2989 59.2577 28.631C59.7157 30.5132 59.5452 31.5772 59.5452 31.5772C59.5452 31.5772 57.9121 36.2639 60.8588 35.5183C62.2832 35.1578 62.8684 32.7569 63.0705 30.3523C62.723 29.0165 62.4168 27.9579 62.4168 27.9579Z" fill="#42C2E3"/>
<path d="M50.7127 22.2014C47.6882 19.6996 43.0403 19.3919 39.712 21.473C36.3831 23.5537 34.6233 27.8663 35.5474 31.6817C36.4707 35.4971 40.0075 38.5277 43.9194 38.8558C47.8314 39.1839 51.8238 36.7844 53.3696 33.1769C54.9161 29.5679 53.9928 24.9136 50.7127 22.2014Z" fill="#F7A145"/>
<path d="M48.6782 23.5608C46.2245 21.9051 42.7175 22.0096 40.3664 23.8081C38.0161 25.6063 36.9987 28.9647 37.9547 31.7655C38.9114 34.5664 41.7701 36.6008 44.73 36.5861C47.6891 36.5707 50.5288 34.5083 51.4568 31.6984C52.3851 28.8879 51.4234 25.4132 48.6782 23.5608Z" fill="#FF8330"/>
<path opacity="0.15" d="M53.3688 33.1778C54.225 31.18 54.3205 28.8627 53.6822 26.731C53.917 30.5654 52.5256 35.1673 48.1103 37.0276C43.5751 38.9385 40.1137 37.3464 38.1328 36.1351C39.6905 37.6566 41.7457 38.6743 43.9187 38.8567C47.8307 39.1848 51.823 36.7853 53.3688 33.1778Z" fill="#2E2854"/>
<path d="M39.7132 21.4725C37.3833 22.929 35.8267 25.4786 35.416 28.1857C35.9854 26.2188 37.2975 23.1315 41.2335 21.5113C43.9618 20.3884 47.0197 20.5858 49.8641 21.5907C46.8668 19.67 42.7445 19.5774 39.7132 21.4725Z" fill="#F5B878"/>
<path d="M48.6782 23.5608C46.2245 21.9051 42.7175 22.0096 40.3664 23.8081C38.0161 25.6063 36.9987 28.9647 37.9547 31.7655C38.9114 34.5664 41.7701 36.6008 44.73 36.5861C47.6891 36.5707 50.5288 34.5083 51.4568 31.6984C52.3851 28.8879 51.4234 25.4132 48.6782 23.5608Z" stroke="#2E2854" stroke-width="1.5" stroke-miterlimit="10" stroke-linecap="round" stroke-linejoin="round"/>
<path d="M47.6035 29.3273C48.0648 29.7523 48.3574 30.3579 48.3606 31.0314L48.3613 31.161C48.3674 32.443 47.3292 33.4866 46.0465 33.4866H45.9898L45.993 34.1726H44.4996L44.4964 33.4866H43.8843L43.8875 34.1726H42.3941L42.3909 33.4866H42.0423H41.3017L41.2945 31.9932H42.0351L42.0265 30.1993L42.0193 28.7051L42.0115 27.0897H41.2708L41.2637 25.5955H42.0043H42.3529L42.3489 24.7559H43.8423L43.8463 25.5955H44.4583L44.4544 24.7559H45.9478L45.9518 25.6024C47.1242 25.6734 48.0612 26.6463 48.0669 27.836L48.0677 27.9588C48.0695 28.4739 47.8954 28.9478 47.6035 29.3273ZM46.8679 31.161L46.8672 31.0314C46.865 30.5723 46.4895 30.1993 46.0304 30.1993H45.8376H43.5196L43.5282 31.9932H43.8455H46.039C46.4985 31.9932 46.8701 31.6198 46.8679 31.161ZM43.5041 27.0897L43.512 28.7051H45.8301C46.2418 28.7051 46.5753 28.3706 46.5735 27.9588L46.5728 27.836C46.5707 27.4243 46.2339 27.0897 45.8222 27.0897H43.8215H43.5041Z" fill="#F5B878"/>
<path d="M15.4099 29.6129C12.3854 27.1114 7.73754 26.8034 4.40931 28.8845C1.08037 30.9652 -0.679419 35.2778 0.244629 39.0932C1.16796 42.9086 4.70476 45.9392 8.61671 46.2673C12.5287 46.5954 16.521 44.1959 18.0668 40.5884C19.613 36.9794 18.6897 32.3254 15.4099 29.6129Z" fill="#F7A145"/>
<path d="M13.3754 30.9724C10.9217 29.3167 7.41472 29.4212 5.06367 31.2197C2.71334 33.0179 1.69596 36.3763 2.65195 39.1772C3.60867 41.978 6.46733 44.0125 9.42723 43.9977C12.3864 43.9823 15.226 41.9199 16.1544 39.11C17.0824 36.2995 16.1207 32.8248 13.3754 30.9724Z" fill="#FF8330"/>
<path opacity="0.15" d="M18.0661 40.5894C18.9223 38.5916 19.0178 36.2743 18.3795 34.1426C18.6143 37.977 17.2228 42.5789 12.8076 44.4392C8.27241 46.3501 4.811 44.758 2.83008 43.5468C4.38775 45.0682 6.44334 46.0859 8.61597 46.2683C12.5279 46.5964 16.5203 44.1969 18.0661 40.5894Z" fill="#2E2854"/>
<path d="M4.40848 28.8844C2.07861 30.3409 0.522016 32.8904 0.111328 35.5976C0.680691 33.6307 1.99281 30.5433 5.92881 28.9232C8.65716 27.8003 11.7151 27.9977 14.5594 29.0025C11.5625 27.0816 7.44017 26.989 4.40848 28.8844Z" fill="#F5B878"/>
<path d="M13.3754 30.9724C10.9217 29.3167 7.41472 29.4212 5.06367 31.2197C2.71334 33.0179 1.69596 36.3763 2.65195 39.1772C3.60867 41.978 6.46733 44.0125 9.42723 43.9977C12.3864 43.9823 15.226 41.9199 16.1544 39.11C17.0824 36.2995 16.1207 32.8248 13.3754 30.9724Z" stroke="#2E2854" stroke-width="1.5" stroke-miterlimit="10" stroke-linecap="round" stroke-linejoin="round"/>
<path d="M12.3008 36.7423C12.7621 37.1674 13.0546 37.773 13.0579 38.4465L13.0586 38.5761C13.0647 39.858 12.0265 40.9016 10.7438 40.9016H10.6871L10.6903 41.5876H9.1969L9.19367 40.9016H8.58158L8.58481 41.5876H7.09141L7.08818 40.9016H6.73959H5.99899L5.99181 39.4082H6.73241L6.7238 37.6143L6.71662 36.1202L6.70872 34.5047H5.96811L5.96094 33.0106H6.70154H7.05012L7.04617 32.1709H8.53958L8.54353 33.0106H9.15562L9.15167 32.1709H10.6451L10.649 33.0174C11.8215 33.0885 12.7585 34.0614 12.7642 35.2507L12.7649 35.3735C12.7671 35.8893 12.5926 36.3629 12.3008 36.7423ZM11.5652 38.5761L11.5645 38.4465C11.5623 37.9873 11.1868 37.6143 10.7276 37.6143H10.5349H8.21685L8.22547 39.4082H8.54282H10.7363C11.1958 39.4082 11.5673 39.0348 11.5652 38.5761ZM8.20177 34.5047L8.20967 36.1202H10.5277C10.9395 36.1202 11.273 35.7856 11.2712 35.3738L11.2704 35.2511C11.2683 34.8393 10.9316 34.5047 10.5198 34.5047H8.51912H8.20177Z" fill="#F5B878"/>
<path d="M23.9998 69.3264C20.9753 66.8246 16.3274 66.5169 12.9992 68.598C9.67021 70.6787 7.91042 74.9913 8.83447 78.8067C9.7578 82.6221 13.2946 85.6527 17.2065 85.9808C21.1185 86.3089 25.1109 83.9094 26.6567 80.3019C28.2029 76.6929 27.2795 72.0389 23.9998 69.3264Z" fill="#F7A145"/>
<path d="M21.9651 70.6857C19.5114 69.03 16.0044 69.1345 13.6537 70.9334C11.3033 72.7316 10.2856 76.09 11.2419 78.8909C12.1987 81.6917 15.0573 83.7261 18.0172 83.7114C20.9764 83.696 23.816 81.6336 24.744 78.8237C25.672 76.0128 24.7103 72.5381 21.9651 70.6857Z" fill="#FF8330"/>
<path opacity="0.15" d="M26.6559 80.3028C27.5121 78.305 27.6076 75.9877 26.9693 73.856C27.2041 77.6904 25.8127 82.2923 21.3974 84.1526C16.8623 86.0635 13.4008 84.4714 11.4199 83.2601C12.9776 84.7815 15.0332 85.7993 17.2058 85.9817C21.1174 86.3098 25.1098 83.9103 26.6559 80.3028Z" fill="#2E2854"/>
<path d="M13.0003 68.5978C10.6704 70.0542 9.11381 72.6038 8.70312 75.311C9.27249 73.3441 10.5846 70.2567 14.5206 68.6366C17.249 67.5137 20.3069 67.7111 23.1512 68.7159C20.1539 66.795 16.0316 66.7023 13.0003 68.5978Z" fill="#F5B878"/>
<path d="M21.9651 70.6857C19.5114 69.03 16.0044 69.1345 13.6537 70.9334C11.3033 72.7316 10.2856 76.09 11.2419 78.8909C12.1987 81.6917 15.0573 83.7261 18.0172 83.7114C20.9764 83.696 23.816 81.6336 24.744 78.8237C25.672 76.0128 24.7103 72.5381 21.9651 70.6857Z" stroke="#2E2854" stroke-width="1.5" stroke-miterlimit="10" stroke-linecap="round" stroke-linejoin="round"/>
<path d="M20.8906 76.4557C21.3519 76.8807 21.6445 77.4864 21.6477 78.1598L21.6484 78.2894C21.6549 79.5714 20.6163 80.615 19.3337 80.615H19.2769L19.2802 81.301H17.7867L17.7835 80.615H17.1714L17.1747 81.301H15.6813L15.678 80.615H15.3294H14.5888L14.5817 79.1216H15.3223L15.3136 77.3277L15.3065 75.8336L15.2986 74.2181H14.558L14.5508 72.724H15.2914H15.64L15.636 71.8843H17.1294L17.1334 72.724H17.7455L17.7415 71.8843H19.2349L19.2389 72.7308C20.4113 72.8019 21.3483 73.7747 21.3541 74.9641L21.3544 75.0869C21.3566 75.6027 21.1821 76.0762 20.8906 76.4557ZM20.1547 78.2894L20.1539 78.1598C20.1518 77.7007 19.7763 77.3277 19.3171 77.3277H19.1244H16.8063L16.815 79.1216H17.1323H19.3258C19.7853 79.1216 20.1568 78.7482 20.1547 78.2894ZM16.7913 74.2181L16.7992 75.8336H19.1172C19.5289 75.8336 19.8624 75.499 19.8606 75.0872L19.8599 74.9644C19.8578 74.5527 19.521 74.2181 19.1093 74.2181H17.1086H16.7913Z" fill="#F5B878"/>
<path opacity="0.15" d="M30.4627 3.71104C27.4382 1.20958 22.7903 0.901558 19.462 2.98264C16.1331 5.06336 14.3733 9.37595 15.2974 13.1913C16.2207 17.0067 19.7575 20.0373 23.6694 20.3654C27.5814 20.6936 31.5738 18.2941 33.1196 14.6865C34.6658 11.0776 33.7428 6.42323 30.4627 3.71104Z" fill="#2E2854"/>
<path d="M29.9705 2.10459C26.946 -0.396871 22.2981 -0.704886 18.9699 1.3762C15.6409 3.45692 13.8811 7.7695 14.8052 11.5849C15.7285 15.4003 19.2653 18.4309 23.1773 18.759C27.0892 19.0871 31.0816 16.6876 32.6274 13.0801C34.1736 9.47113 33.2506 4.81714 29.9705 2.10459Z" fill="#F7A145"/>
<path d="M27.9358 3.46405C25.4821 1.80837 21.9751 1.91284 19.6244 3.71175C17.274 5.50995 16.2563 8.86833 17.2127 11.6692C18.1694 14.4701 21.028 16.5045 23.9879 16.4897C26.9471 16.4743 29.7867 14.4119 30.7147 11.6021C31.6427 8.79115 30.681 5.31645 27.9358 3.46405Z" fill="#FF8330"/>
<path opacity="0.15" d="M32.6266 13.0781C33.4828 11.0804 33.5783 8.76305 32.94 6.63135C33.1748 10.4658 31.7834 15.0677 27.3681 16.928C22.833 18.8389 19.3715 17.2468 17.3906 16.0355C18.9483 17.5569 21.0039 18.5747 23.1765 18.7571C27.0885 19.0852 31.0808 16.6857 32.6266 13.0781Z" fill="#2E2854"/>
<path d="M18.969 1.37614C16.6392 2.83257 15.0826 5.38214 14.6719 8.08931C15.2412 6.12238 16.5534 3.03504 20.4894 1.41491C23.2177 0.291978 26.2756 0.489424 29.1199 1.49425C26.1227 -0.426726 22.0004 -0.519347 18.969 1.37614Z" fill="#F5B878"/>
<path d="M27.9358 3.46405C25.4821 1.80837 21.9751 1.91284 19.6244 3.71175C17.274 5.50995 16.2563 8.86833 17.2127 11.6692C18.1694 14.4701 21.028 16.5045 23.9879 16.4898C26.9471 16.4743 29.7867 14.4119 30.7147 11.6021C31.6427 8.79115 30.681 5.31645 27.9358 3.46405Z" stroke="#2E2854" stroke-width="1.5" stroke-miterlimit="10" stroke-linecap="round" stroke-linejoin="round"/>
<path d="M26.8613 9.2345C27.3226 9.65955 27.6152 10.2652 27.6184 10.9386L27.6191 11.0682C27.6252 12.3502 26.587 13.3938 25.3043 13.3938H25.2476L25.2509 14.0798H23.7575L23.7542 13.3938H23.1421L23.1454 14.0798H21.652L21.6487 13.3938H21.3001H20.5595L20.5524 11.9004H21.293L21.2843 10.1065L21.2772 8.61237L21.2693 6.9969H20.5287L20.5215 5.50277H21.2621H21.6107L21.6064 4.66309H23.0998L23.1037 5.50277H23.7158L23.7119 4.66309H25.2053L25.2092 5.50959C26.3817 5.58067 27.3187 6.55354 27.3244 7.74289L27.3251 7.86566C27.3273 8.38154 27.1528 8.85505 26.8613 9.2345ZM26.1254 11.0682L26.1246 10.9386C26.1225 10.4795 25.747 10.1065 25.2878 10.1065H25.0951H22.777L22.7857 11.9004H23.103H25.2965C25.756 11.9007 26.1279 11.527 26.1254 11.0682ZM22.762 6.9969L22.7699 8.61237H25.0879C25.4996 8.61237 25.8331 8.27779 25.8314 7.86602L25.8306 7.74325C25.8285 7.33148 25.4917 6.9969 25.08 6.9969H23.0793H22.762Z" fill="#F5B878"/>
<path d="M14.5996 10.3291L17.7272 40.1973L37.6355 38.0057L33.2586 8.08789L14.5996 10.3291Z" fill="url(#paint0_linear_211_5794)"/>
<path d="M8.32936 45.1742L7.85477 41.4378C7.55501 39.2415 8.87574 37.1396 10.9899 36.4719C25.9214 31.7551 42.0715 33.7981 57.1926 30.5873C58.1285 30.3887 59.2554 29.968 59.2931 28.9707C59.2974 28.8551 59.2848 28.7417 59.2575 28.6318C59.2575 28.6318 60.1841 29.7684 61.0364 34.4188C61.0364 34.4188 46.9764 40.4187 34.1237 42.0521C21.2707 43.6855 8.32936 45.1742 8.32936 45.1742Z" fill="#42C2E3"/>
<path d="M8.33064 45.173C10.0161 57.5766 10.2882 61.8113 12.9778 73.182C13.4797 75.3037 15.4419 76.7508 17.6171 76.604C34.4919 75.4634 51.1413 73.1698 67.5896 69.9041C69.8071 69.4636 71.3436 67.4432 71.1896 65.1873C70.2871 51.9598 66.8616 40.0132 62.418 27.9575C62.5494 28.3165 62.619 28.696 62.6115 29.0883C62.5881 30.2949 61.8371 31.3999 60.8642 32.1143C59.8917 32.8283 58.7164 33.2067 57.5471 33.5054C54.0035 34.4108 50.3335 34.685 46.6862 34.9561C37.8338 35.6134 28.9814 36.2707 20.1289 36.928C17.4243 37.1291 14.631 37.3545 12.2329 38.6214C9.83482 39.8887 7.9221 42.4914 8.33064 45.173Z" fill="#5C94A3"/>
<path opacity="0.15" d="M68.115 46.0747C66.1639 60.3389 59.3448 62.9858 49.7191 65.2187L47.2956 62.9108C47.2956 62.9108 44.1533 62.396 43.7982 64.8813C43.7354 65.3214 43.8564 65.876 44.0948 66.4892C43.7114 66.5782 43.3258 66.6691 42.9363 66.7631C30.6135 69.7385 17.3117 69.7919 12.1738 69.6781C12.4158 70.7752 12.6807 71.9341 12.9762 73.1826C13.4781 75.3043 15.4403 76.7514 17.6154 76.6046C34.4903 75.464 51.1397 73.1704 67.588 69.9047C69.8055 69.4642 71.342 67.4438 71.188 65.1879C70.7353 58.5526 69.6472 52.2404 68.115 46.0747Z" fill="#2E2854"/>
<path opacity="0.15" d="M10.9458 63.5908C12.61 63.5754 14.7084 63.4451 16.8688 63.0236C21.7213 62.0769 23.1415 60.846 23.7568 58.2659C24.3721 55.6858 22.8101 54.0527 22.8101 54.0527L9.60742 54.8339C10.0242 57.9536 10.4141 60.6467 10.9458 63.5908Z" fill="#2E2854"/>
<defs>
<linearGradient id="paint0_linear_211_5794" x1="27.5076" y1="37.6807" x2="24.3832" y2="12.1172" gradientUnits="userSpaceOnUse">
<stop stop-color="#F7D7B4" stop-opacity="0.75"/>
<stop offset="1" stop-color="#F7D7B4" stop-opacity="0"/>
</linearGradient>
</defs>
</svg>
