<svg width="26" height="20" viewBox="0 0 26 20" fill="none" xmlns="http://www.w3.org/2000/svg">
<path fill-rule="evenodd" clip-rule="evenodd" d="M21.2727 3.33333V1.11111H23.6364V3.33333H26V5.55556H23.6364V7.77778H21.2727V5.55556H18.9091V3.33333H21.2727ZM7.01648 3.16153C7.10021 3.05209 7.1932 2.91812 7.31178 2.73747C7.37823 2.63624 7.62068 2.25918 7.66031 2.19824C8.64002 0.691542 9.35219 0 10.6364 0H16.5455V2.22222H10.6364C10.5339 2.22222 10.2115 2.53525 9.67696 3.35732C9.64265 3.41009 9.39659 3.79276 9.32321 3.90454C9.1779 4.12591 9.05715 4.29987 8.93527 4.45917C8.40553 5.15156 7.87604 5.55556 7.09091 5.55556H3.54545C2.89275 5.55556 2.36364 6.05302 2.36364 6.66667V16.6667C2.36364 17.2803 2.89275 17.7778 3.54545 17.7778H22.4545C23.1072 17.7778 23.6364 17.2803 23.6364 16.6667V10H26V16.6667C26 18.5076 24.4126 20 22.4545 20H3.54545C1.58735 20 0 18.5076 0 16.6667V6.66667C0 4.82572 1.58735 3.33333 3.54545 3.33333H6.87369C6.91303 3.29104 6.96126 3.2337 7.01648 3.16153ZM13 16.6667C9.7365 16.6667 7.09091 14.1794 7.09091 11.1111C7.09091 8.04286 9.7365 5.55556 13 5.55556C16.2635 5.55556 18.9091 8.04286 18.9091 11.1111C18.9091 14.1794 16.2635 16.6667 13 16.6667ZM13 14.4444C14.9581 14.4444 16.5455 12.9521 16.5455 11.1111C16.5455 9.27016 14.9581 7.77778 13 7.77778C11.0419 7.77778 9.45455 9.27016 9.45455 11.1111C9.45455 12.9521 11.0419 14.4444 13 14.4444Z" fill="white"/>
</svg>
