<svg width="15" height="15" viewBox="0 0 15 15" fill="none" xmlns="http://www.w3.org/2000/svg">
<path d="M5 7.50001L6.66436 9L10 6" stroke="white" stroke-linecap="round" stroke-linejoin="round"/>
<path d="M6.68212 1.28755C7.13045 0.904149 7.86468 0.904149 8.31951 1.28755L9.34612 2.17134C9.54105 2.34029 9.90491 2.47676 10.1648 2.47676H11.2694C11.9581 2.47676 12.5234 3.04212 12.5234 3.73095V4.83568C12.5234 5.08911 12.6599 5.45952 12.8288 5.65447L13.7125 6.68119C14.0958 7.12958 14.0958 7.86389 13.7125 8.31878L12.8288 9.34553C12.6599 9.54048 12.5234 9.90439 12.5234 10.1643V11.2691C12.5234 11.9579 11.9581 12.5232 11.2694 12.5232H10.1648C9.91141 12.5232 9.54105 12.6597 9.34612 12.8287L8.31951 13.7124C7.87117 14.0959 7.13695 14.0959 6.68212 13.7124L5.6555 12.8287C5.46058 12.6597 5.09671 12.5232 4.83681 12.5232H3.71273C3.02399 12.5232 2.4587 11.9579 2.4587 11.2691V10.1578C2.4587 9.90439 2.32225 9.54048 2.15982 9.34553L1.28264 8.31228C0.905785 7.86389 0.905785 7.13607 1.28264 6.68768L2.15982 5.65447C2.32225 5.45952 2.4587 5.09561 2.4587 4.84217V3.72445C2.4587 3.03562 3.02399 2.47026 3.71273 2.47026H4.83681C5.09022 2.47026 5.46058 2.33379 5.6555 2.16484L6.68212 1.28755Z" stroke="white" stroke-linecap="round" stroke-linejoin="round"/>
</svg>
