<svg width="54" height="45" viewBox="0 0 54 45" fill="none" xmlns="http://www.w3.org/2000/svg">
<path d="M50.1646 13.3157H44.0595C39.8738 13.3157 36.4805 16.3789 36.4805 20.1578C36.4805 23.9367 39.8738 26.9999 44.0595 26.9999H50.1646C50.3602 26.9999 50.4578 26.9999 50.5404 26.9951C51.8055 26.9201 52.8131 26.0105 52.8961 24.8683C52.9015 24.7938 52.9015 24.7055 52.9015 24.5292V15.7864C52.9015 15.6101 52.9015 15.5217 52.8961 15.4472C52.8131 14.3051 51.8055 13.3954 50.5404 13.3206C50.4578 13.3157 50.3602 13.3157 50.1646 13.3157Z" stroke="white" stroke-width="2"/>
<path d="M14.5859 10.5789H24.1649" stroke="white" stroke-width="2" stroke-linecap="round" stroke-linejoin="round"/>
<path d="M50.1657 12.9737C49.9807 8.49002 49.3837 5.74098 47.4593 3.8056C44.6698 1 40.1798 1 31.2001 1H24.0568C15.077 1 10.5871 1 7.79746 3.8056C5.00781 6.61123 5.00781 11.1268 5.00781 20.1579C5.00781 29.1889 5.00781 33.7047 7.79746 36.5101C10.5871 39.3158 15.077 39.3158 24.0568 39.3158H31.2001C40.1798 39.3158 44.6698 39.3158 47.4593 36.5101C49.3837 34.5749 49.9807 31.8258 50.1657 27.3421" stroke="white" stroke-width="2"/>
<circle cx="10.4813" cy="35.2105" r="9.57895" fill="white"/>
<path d="M6.91047 34.675C6.61474 34.675 6.375 34.9148 6.375 35.2105C6.375 35.5062 6.61474 35.746 6.91047 35.746V34.675ZM10.4803 35.746C10.776 35.746 11.0157 35.5062 11.0157 35.2105C11.0157 34.9148 10.776 34.675 10.4803 34.675V35.746ZM10.4803 34.675C10.1845 34.675 9.94479 34.9148 9.94479 35.2105C9.94479 35.5062 10.1845 35.746 10.4803 35.746V34.675ZM14.0501 35.746C14.3458 35.746 14.5855 35.5062 14.5855 35.2105C14.5855 34.9148 14.3458 34.675 14.0501 34.675V35.746ZM11.0157 35.2105C11.0157 34.9148 10.776 34.675 10.4803 34.675C10.1845 34.675 9.94479 34.9148 9.94479 35.2105H11.0157ZM9.94479 38.7803C9.94479 39.076 10.1845 39.3158 10.4803 39.3158C10.776 39.3158 11.0157 39.076 11.0157 38.7803H9.94479ZM9.94479 35.2105C9.94479 35.5062 10.1845 35.746 10.4803 35.746C10.776 35.746 11.0157 35.5062 11.0157 35.2105H9.94479ZM11.0157 31.6407C11.0157 31.345 10.776 31.1052 10.4803 31.1052C10.1845 31.1052 9.94479 31.345 9.94479 31.6407H11.0157ZM6.91047 35.746H10.4803V34.675H6.91047V35.746ZM10.4803 35.746H14.0501V34.675H10.4803V35.746ZM10.4803 35.2105H9.94479V35.2112C9.94479 35.2113 9.94479 35.2121 9.94479 35.2121C9.94479 35.212 9.94479 35.2121 9.94479 35.2121C9.94479 35.2121 9.94479 35.2128 9.94479 35.2129C9.94479 35.2128 9.94479 35.213 9.94479 35.2129C9.94479 35.213 9.94479 35.2136 9.94479 35.2136C9.94479 35.2137 9.94479 35.2143 9.94479 35.2144C9.94479 35.2145 9.94479 35.2151 9.94479 35.2151C9.94479 35.2152 9.94479 35.2158 9.94479 35.216C9.94479 35.2161 9.94479 35.2167 9.94479 35.2168C9.94479 35.2169 9.94479 35.2177 9.94479 35.2178C9.94479 35.2176 9.94479 35.2179 9.94479 35.2178C9.94479 35.2179 9.94479 35.2183 9.94479 35.2185C9.94479 35.2183 9.94479 35.2186 9.94479 35.2185C9.94479 35.2186 9.94479 35.2191 9.94479 35.2192C9.94479 35.2191 9.94479 35.2193 9.94479 35.2192C9.94479 35.2193 9.94479 35.2198 9.94479 35.22C9.94479 35.2198 9.94479 35.2201 9.94479 35.22C9.94479 35.2201 9.94479 35.2207 9.94479 35.2208C9.94479 35.2207 9.94479 35.221 9.94479 35.2208C9.94479 35.221 9.94479 35.2216 9.94479 35.2217C9.94479 35.2215 9.94479 35.2218 9.94479 35.2217C9.94479 35.2218 9.94479 35.2225 9.94479 35.2226C9.94479 35.2225 9.94479 35.2228 9.94479 35.2226C9.94479 35.2228 9.94479 35.2234 9.94479 35.2236C9.94479 35.2234 9.94479 35.2238 9.94479 35.2236C9.94479 35.2238 9.94479 35.2245 9.94479 35.2246C9.94479 35.2245 9.94479 35.2248 9.94479 35.2246C9.94479 35.2248 9.94479 35.2255 9.94479 35.2257C9.94479 35.2255 9.94479 35.2259 9.94479 35.2257C9.94479 35.2258 9.94479 35.2266 9.94479 35.2268C9.94479 35.2266 9.94479 35.227 9.94479 35.2268C9.94479 35.2271 9.94479 35.2278 9.94479 35.228C9.94479 35.2278 9.94479 35.2282 9.94479 35.228C9.94479 35.2282 9.94479 35.2291 9.94479 35.2293C9.94479 35.2291 9.94479 35.2295 9.94479 35.2293C9.94479 35.2295 9.94479 35.2303 9.94479 35.2305C9.94479 35.2303 9.94479 35.2308 9.94479 35.2305C9.94479 35.2308 9.94479 35.2316 9.94479 35.2319C9.94479 35.2317 9.94479 35.2321 9.94479 35.2319C9.94479 35.2322 9.94479 35.233 9.94479 35.2333C9.94479 35.2335 9.94479 35.2338 9.94479 35.234C9.94479 35.2343 9.94479 35.2345 9.94479 35.2348C9.94479 35.235 9.94479 35.2353 9.94479 35.2355C9.94479 35.2358 9.94479 35.236 9.94479 35.2363C9.94479 35.2365 9.94479 35.2368 9.94479 35.2371C9.94479 35.2373 9.94479 35.2376 9.94479 35.2379C9.94479 35.2382 9.94479 35.2384 9.94479 35.2387C9.94479 35.239 9.94479 35.2393 9.94479 35.2395C9.94479 35.2398 9.94479 35.2401 9.94479 35.2404C9.94479 35.2407 9.94479 35.241 9.94479 35.2413C9.94479 35.2415 9.94479 35.2419 9.94479 35.2422C9.94479 35.2425 9.94479 35.2428 9.94479 35.243C9.94479 35.2434 9.94479 35.2437 9.94479 35.244C9.94479 35.2443 9.94479 35.2446 9.94479 35.2449C9.94479 35.2453 9.94479 35.2455 9.94479 35.2459C9.94479 35.2462 9.94479 35.2465 9.94479 35.2468C9.94479 35.2472 9.94479 35.2475 9.94479 35.2478C9.94479 35.2482 9.94479 35.2485 9.94479 35.2489C9.94479 35.2492 9.94479 35.2495 9.94479 35.2499C9.94479 35.2503 9.94479 35.2506 9.94479 35.251C9.94479 35.2513 9.94479 35.2516 9.94479 35.252C9.94479 35.2523 9.94479 35.2528 9.94479 35.2531C9.94479 35.2535 9.94479 35.2538 9.94479 35.2542C9.94479 35.2545 9.94479 35.2549 9.94479 35.2553C9.94479 35.2557 9.94479 35.256 9.94479 35.2565C9.94479 35.2568 9.94479 35.2573 9.94479 35.2576C9.94479 35.258 9.94479 35.2584 9.94479 35.2588C9.94479 35.2592 9.94479 35.2596 9.94479 35.26C9.94479 35.2604 9.94479 35.2608 9.94479 35.2612C9.94479 35.2616 9.94479 35.262 9.94479 35.2625C9.94479 35.2628 9.94479 35.2632 9.94479 35.2637C9.94479 35.2641 9.94479 35.2645 9.94479 35.265C9.94479 35.2654 9.94479 35.2658 9.94479 35.2662C9.94479 35.2667 9.94479 35.2672 9.94479 35.2676C9.94479 35.268 9.94479 35.2685 9.94479 35.2689C9.94479 35.2694 9.94479 35.2698 9.94479 35.2702C9.94479 35.2707 9.94479 35.2712 9.94479 35.2717C9.94479 35.2721 9.94479 35.2726 9.94479 35.273C9.94479 35.2735 9.94479 35.274 9.94479 35.2745C9.94479 35.275 9.94479 35.2755 9.94479 35.276C9.94479 35.2764 9.94479 35.2769 9.94479 35.2774C9.94479 35.2779 9.94479 35.2784 9.94479 35.2789C9.94479 35.2794 9.94479 35.2799 9.94479 35.2804C9.94479 35.2809 9.94479 35.2814 9.94479 35.2819C9.94479 35.2825 9.94479 35.283 9.94479 35.2835C9.94479 35.284 9.94479 35.2845 9.94479 35.285C9.94479 35.2856 9.94479 35.2861 9.94479 35.2867C9.94479 35.2872 9.94479 35.2877 9.94479 35.2882C9.94479 35.2888 9.94479 35.2894 9.94479 35.2899C9.94479 35.2905 9.94479 35.291 9.94479 35.2916C9.94479 35.2922 9.94479 35.2927 9.94479 35.2932C9.94479 35.2938 9.94479 35.2944 9.94479 35.2949C9.94479 35.2955 9.94479 35.2962 9.94479 35.2967C9.94479 35.2973 9.94479 35.2979 9.94479 35.2984C9.94479 35.2991 9.94479 35.2997 9.94479 35.3002C9.94479 35.3009 9.94479 35.3014 9.94479 35.3021C9.94479 35.3027 9.94479 35.3033 9.94479 35.3039C9.94479 35.3045 9.94479 35.3052 9.94479 35.3057C9.94479 35.3064 9.94479 35.307 9.94479 35.3077C9.94479 35.3082 9.94479 35.3089 9.94479 35.3095C9.94479 35.3102 9.94479 35.3108 9.94479 35.3114C9.94479 35.3121 9.94479 35.3127 9.94479 35.3134C9.94479 35.3141 9.94479 35.3147 9.94479 35.3154C9.94479 35.3161 9.94479 35.3167 9.94479 35.3174C9.94479 35.3181 9.94479 35.3187 9.94479 35.3194C9.94479 35.3201 9.94479 35.3208 9.94479 35.3215C9.94479 35.3222 9.94479 35.3229 9.94479 35.3236C9.94479 35.3243 9.94479 35.3249 9.94479 35.3256C9.94479 35.3264 9.94479 35.3271 9.94479 35.3278C9.94479 35.3285 9.94479 35.3292 9.94479 35.3299C9.94479 35.3307 9.94479 35.3314 9.94479 35.3321C9.94479 35.3329 9.94479 35.3336 9.94479 35.3344C9.94479 35.3351 9.94479 35.3359 9.94479 35.3366C9.94479 35.3374 9.94479 35.3381 9.94479 35.3389C9.94479 35.3396 9.94479 35.3404 9.94479 35.3411C9.94479 35.3419 9.94479 35.3427 9.94479 35.3435C9.94479 35.3443 9.94479 35.3451 9.94479 35.3459C9.94479 35.3466 9.94479 35.3474 9.94479 35.3482C9.94479 35.349 9.94479 35.3498 9.94479 35.3506C9.94479 35.3514 9.94479 35.3522 9.94479 35.3531C9.94479 35.3539 9.94479 35.3546 9.94479 35.3555C9.94479 35.3563 9.94479 35.3571 9.94479 35.358C9.94479 35.3588 9.94479 35.3596 9.94479 35.3605C9.94479 35.3613 9.94479 35.3622 9.94479 35.3631C9.94479 35.3639 9.94479 35.3648 9.94479 35.3656C9.94479 35.3665 9.94479 35.3673 9.94479 35.3682C9.94479 35.3691 9.94479 35.3699 9.94479 35.3708C9.94479 35.3717 9.94479 35.3726 9.94479 35.3735C9.94479 35.3744 9.94479 35.3753 9.94479 35.3762C9.94479 35.3771 9.94479 35.378 9.94479 35.3789C9.94479 35.3798 9.94479 35.3807 9.94479 35.3816C9.94479 35.3826 9.94479 35.3835 9.94479 35.3844C9.94479 35.3853 9.94479 35.3863 9.94479 35.3872C9.94479 35.3881 9.94479 35.3891 9.94479 35.39C9.94479 35.391 9.94479 35.392 9.94479 35.3929C9.94479 35.3939 9.94479 35.3948 9.94479 35.3958C9.94479 35.3968 9.94479 35.3978 9.94479 35.3988C9.94479 35.3997 9.94479 35.4007 9.94479 35.4017C9.94479 35.4027 9.94479 35.4037 9.94479 35.4047C9.94479 35.4057 9.94479 35.4067 9.94479 35.4077C9.94479 35.4087 9.94479 35.4098 9.94479 35.4108C9.94479 35.4118 9.94479 35.4128 9.94479 35.4138C9.94479 35.4149 9.94479 35.4159 9.94479 35.417C9.94479 35.418 9.94479 35.419 9.94479 35.4201C9.94479 35.4212 9.94479 35.4222 9.94479 35.4232C9.94479 35.4243 9.94479 35.4254 9.94479 35.4265C9.94479 35.4275 9.94479 35.4286 9.94479 35.4297C9.94479 35.4308 9.94479 35.4319 9.94479 35.433C9.94479 35.4341 9.94479 35.4352 9.94479 35.4363C9.94479 35.4374 9.94479 35.4385 9.94479 35.4396C9.94479 35.4407 9.94479 35.4419 9.94479 35.443C9.94479 35.4441 9.94479 35.4452 9.94479 35.4464C9.94479 35.4475 9.94479 35.4487 9.94479 35.4498C9.94479 35.4509 9.94479 35.4522 9.94479 35.4533C9.94479 35.4544 9.94479 35.4557 9.94479 35.4568C9.94479 35.4579 9.94479 35.4592 9.94479 35.4604C9.94479 35.4615 9.94479 35.4627 9.94479 35.4639C9.94479 35.4651 9.94479 35.4663 9.94479 35.4675C9.94479 35.4687 9.94479 35.4699 9.94479 35.4712C9.94479 35.4724 9.94479 35.4736 9.94479 35.4748C9.94479 35.4761 9.94479 35.4773 9.94479 35.4785C9.94479 35.4798 9.94479 35.481 9.94479 35.4823C9.94479 35.4835 9.94479 35.4848 9.94479 35.486C9.94479 35.4873 9.94479 35.4886 9.94479 35.4899C9.94479 35.4911 9.94479 35.4924 9.94479 35.4937C9.94479 35.495 9.94479 35.4963 9.94479 35.4976C9.94479 35.4989 9.94479 35.5001 9.94479 35.5015C9.94479 35.5028 9.94479 35.5041 9.94479 35.5054C9.94479 35.5068 9.94479 35.5081 9.94479 35.5094C9.94479 35.5108 9.94479 35.5121 9.94479 35.5134C9.94479 35.5148 9.94479 35.5161 9.94479 35.5175C9.94479 35.5188 9.94479 35.5202 9.94479 35.5216C9.94479 35.523 9.94479 35.5243 9.94479 35.5257C9.94479 35.5271 9.94479 35.5285 9.94479 35.5299C9.94479 35.5313 9.94479 35.5327 9.94479 35.5341C9.94479 35.5355 9.94479 35.5369 9.94479 35.5383C9.94479 35.5398 9.94479 35.5412 9.94479 35.5426C9.94479 35.544 9.94479 35.5455 9.94479 35.5469C9.94479 35.5483 9.94479 35.5498 9.94479 35.5513C9.94479 35.5528 9.94479 35.5542 9.94479 35.5557C9.94479 35.5571 9.94479 35.5586 9.94479 35.5601C9.94479 35.5615 9.94479 35.563 9.94479 35.5645C9.94479 35.566 9.94479 35.5675 9.94479 35.569C9.94479 35.5705 9.94479 35.572 9.94479 35.5736C9.94479 35.5751 9.94479 35.5766 9.94479 35.5782C9.94479 35.5797 9.94479 35.5812 9.94479 35.5827C9.94479 35.5843 9.94479 35.5859 9.94479 35.5875C9.94479 35.589 9.94479 35.5905 9.94479 35.5921C9.94479 35.5937 9.94479 35.5952 9.94479 35.5969C9.94479 35.5985 9.94479 35.6 9.94479 35.6016C9.94479 35.6032 9.94479 35.6048 9.94479 35.6064C9.94479 35.608 9.94479 35.6097 9.94479 35.6113C9.94479 35.6129 9.94479 35.6145 9.94479 35.6162C9.94479 35.6178 9.94479 35.6194 9.94479 35.6211C9.94479 35.6227 9.94479 35.6244 9.94479 35.6261C9.94479 35.6277 9.94479 35.6294 9.94479 35.6311C9.94479 35.6327 9.94479 35.6344 9.94479 35.6361C9.94479 35.6378 9.94479 35.6395 9.94479 35.6412C9.94479 35.6429 9.94479 35.6446 9.94479 35.6464C9.94479 35.6481 9.94479 35.6498 9.94479 35.6515C9.94479 35.6532 9.94479 35.655 9.94479 35.6567C9.94479 35.6584 9.94479 35.6602 9.94479 35.662C9.94479 35.6637 9.94479 35.6655 9.94479 35.6673C9.94479 35.669 9.94479 35.6708 9.94479 35.6726C9.94479 35.6743 9.94479 35.6761 9.94479 35.678C9.94479 35.6798 9.94479 35.6816 9.94479 35.6833C9.94479 35.6852 9.94479 35.687 9.94479 35.6888C9.94479 35.6906 9.94479 35.6925 9.94479 35.6943C9.94479 35.6962 9.94479 35.698 9.94479 35.6998C9.94479 35.7017 9.94479 35.7035 9.94479 35.7055C9.94479 35.7073 9.94479 35.7092 9.94479 35.711C9.94479 35.713 9.94479 35.7148 9.94479 35.7168C9.94479 35.7186 9.94479 35.7205 9.94479 35.7225C9.94479 35.7244 9.94479 35.7263 9.94479 35.7282C9.94479 35.7301 9.94479 35.732 9.94479 35.734C9.94479 35.736 9.94479 35.7379 9.94479 35.7398C9.94479 35.7418 9.94479 35.7437 9.94479 35.7457C9.94479 35.7477 9.94479 35.7497 9.94479 35.7517C9.94479 35.7536 9.94479 35.7556 9.94479 35.7576C9.94479 35.7596 9.94479 35.7616 9.94479 35.7636C9.94479 35.7657 9.94479 35.7677 9.94479 35.7697C9.94479 35.7717 9.94479 35.7737 9.94479 35.7758C9.94479 35.7778 9.94479 35.7799 9.94479 35.7819C9.94479 35.784 9.94479 35.786 9.94479 35.7881C9.94479 35.7902 9.94479 35.7923 9.94479 35.7944C9.94479 35.7964 9.94479 35.7985 9.94479 35.8006C9.94479 35.8027 9.94479 35.8049 9.94479 35.8069C9.94479 35.8091 9.94479 35.8112 9.94479 35.8133C9.94479 35.8154 9.94479 35.8176 9.94479 35.8197C9.94479 35.8219 9.94479 35.824 9.94479 35.8262C9.94479 35.8283 9.94479 35.8305 9.94479 35.8327C9.94479 35.8348 9.94479 35.8371 9.94479 35.8393C9.94479 35.8414 9.94479 35.8436 9.94479 35.8458C9.94479 35.8481 9.94479 35.8503 9.94479 35.8525C9.94479 35.8547 9.94479 35.8569 9.94479 35.8592C9.94479 35.8614 9.94479 35.8636 9.94479 35.8659C9.94479 35.8681 9.94479 35.8704 9.94479 35.8727C9.94479 35.875 9.94479 35.8773 9.94479 35.8795C9.94479 35.8818 9.94479 35.8841 9.94479 35.8864C9.94479 35.8887 9.94479 35.891 9.94479 35.8933C9.94479 35.8956 9.94479 35.898 9.94479 35.9002C9.94479 35.9026 9.94479 35.905 9.94479 35.9073C9.94479 35.9096 9.94479 35.912 9.94479 35.9143C9.94479 35.9167 9.94479 35.9191 9.94479 35.9214C9.94479 35.9238 9.94479 35.9262 9.94479 35.9286C9.94479 35.931 9.94479 35.9334 9.94479 35.9358C9.94479 35.9382 9.94479 35.9407 9.94479 35.9431C9.94479 35.9455 9.94479 35.9479 9.94479 35.9504C9.94479 35.9528 9.94479 35.9553 9.94479 35.9577C9.94479 35.9601 9.94479 35.9626 9.94479 35.9651C9.94479 35.9676 9.94479 35.9701 9.94479 35.9726C9.94479 35.9751 9.94479 35.9776 9.94479 35.9801C9.94479 35.9826 9.94479 35.9851 9.94479 35.9876C9.94479 35.9901 9.94479 35.9926 9.94479 35.9952C9.94479 35.9978 9.94479 36.0003 9.94479 36.0028C9.94479 36.0054 9.94479 36.008 9.94479 36.0105C9.94479 36.0131 9.94479 36.0157 9.94479 36.0183C9.94479 36.0208 9.94479 36.0235 9.94479 36.026C9.94479 36.0287 9.94479 36.0313 9.94479 36.0339C9.94479 36.0365 9.94479 36.0392 9.94479 36.0418C9.94479 36.0445 9.94479 36.0471 9.94479 36.0497C9.94479 36.0524 9.94479 36.055 9.94479 36.0577C9.94479 36.0604 9.94479 36.0631 9.94479 36.0658C9.94479 36.0685 9.94479 36.0712 9.94479 36.0739C9.94479 36.0766 9.94479 36.0793 9.94479 36.082C9.94479 36.0847 9.94479 36.0874 9.94479 36.0902C9.94479 36.0929 9.94479 36.0957 9.94479 36.0984C9.94479 36.1012 9.94479 36.104 9.94479 36.1068C9.94479 36.1095 9.94479 36.1123 9.94479 36.1151C9.94479 36.1179 9.94479 36.1207 9.94479 36.1235C9.94479 36.1264 9.94479 36.1291 9.94479 36.132C9.94479 36.1348 9.94479 36.1376 9.94479 36.1405C9.94479 36.1433 9.94479 36.1462 9.94479 36.1491C9.94479 36.1519 9.94479 36.1548 9.94479 36.1576C9.94479 36.1606 9.94479 36.1634 9.94479 36.1663C9.94479 36.1692 9.94479 36.1721 9.94479 36.175C9.94479 36.1779 9.94479 36.1808 9.94479 36.1838C9.94479 36.1868 9.94479 36.1897 9.94479 36.1926C9.94479 36.1955 9.94479 36.1985 9.94479 36.2015C9.94479 36.2045 9.94479 36.2075 9.94479 36.2104C9.94479 36.2134 9.94479 36.2164 9.94479 36.2194C9.94479 36.2224 9.94479 36.2254 9.94479 36.2285C9.94479 36.2314 9.94479 36.2344 9.94479 36.2375C9.94479 36.2406 9.94479 36.2436 9.94479 36.2467C9.94479 36.2497 9.94479 36.2528 9.94479 36.2559C9.94479 36.2589 9.94479 36.262 9.94479 36.2651C9.94479 36.2682 9.94479 36.2713 9.94479 36.2744C9.94479 36.2775 9.94479 36.2806 9.94479 36.2838C9.94479 36.2869 9.94479 36.2901 9.94479 36.2932C9.94479 36.2963 9.94479 36.2995 9.94479 36.3026C9.94479 36.3058 9.94479 36.309 9.94479 36.3122C9.94479 36.3153 9.94479 36.3186 9.94479 36.3218C9.94479 36.325 9.94479 36.3282 9.94479 36.3314C9.94479 36.3346 9.94479 36.3378 9.94479 36.3411C9.94479 36.3443 9.94479 36.3476 9.94479 36.3508C9.94479 36.3541 9.94479 36.3574 9.94479 36.3606C9.94479 36.3639 9.94479 36.3672 9.94479 36.3705C9.94479 36.3738 9.94479 36.3771 9.94479 36.3804C9.94479 36.3837 9.94479 36.387 9.94479 36.3904C9.94479 36.3937 9.94479 36.3971 9.94479 36.4004C9.94479 36.4037 9.94479 36.4072 9.94479 36.4105C9.94479 36.4139 9.94479 36.4172 9.94479 36.4206C9.94479 36.424 9.94479 36.4274 9.94479 36.4309C9.94479 36.4342 9.94479 36.4376 9.94479 36.4411C9.94479 36.4445 9.94479 36.4479 9.94479 36.4514C9.94479 36.4548 9.94479 36.4583 9.94479 36.4618C9.94479 36.4653 9.94479 36.4687 9.94479 36.4722C9.94479 36.4757 9.94479 36.4792 9.94479 36.4827C9.94479 36.4862 9.94479 36.4897 9.94479 36.4933C9.94479 36.4968 9.94479 36.5003 9.94479 36.5038C9.94479 36.5074 9.94479 36.5109 9.94479 36.5145C9.94479 36.518 9.94479 36.5216 9.94479 36.5252C9.94479 36.5288 9.94479 36.5324 9.94479 36.536C9.94479 36.5396 9.94479 36.5432 9.94479 36.5468C9.94479 36.5504 9.94479 36.5541 9.94479 36.5577C9.94479 36.5614 9.94479 36.565 9.94479 36.5687C9.94479 36.5723 9.94479 36.576 9.94479 36.5796C9.94479 36.5834 9.94479 36.5871 9.94479 36.5907C9.94479 36.5944 9.94479 36.5981 9.94479 36.6019C9.94479 36.6056 9.94479 36.6093 9.94479 36.6131C9.94479 36.6168 9.94479 36.6206 9.94479 36.6243C9.94479 36.6281 9.94479 36.6318 9.94479 36.6356C9.94479 36.6394 9.94479 36.6432 9.94479 36.647C9.94479 36.6508 9.94479 36.6546 9.94479 36.6584C9.94479 36.6623 9.94479 36.6661 9.94479 36.6699C9.94479 36.6737 9.94479 36.6776 9.94479 36.6815C9.94479 36.6853 9.94479 36.6892 9.94479 36.6931C9.94479 36.6969 9.94479 36.7009 9.94479 36.7047C9.94479 36.7087 9.94479 36.7126 9.94479 36.7165C9.94479 36.7204 9.94479 36.7244 9.94479 36.7283C9.94479 36.7322 9.94479 36.7362 9.94479 36.7401C9.94479 36.7441 9.94479 36.7481 9.94479 36.7521C9.94479 36.7561 9.94479 36.7601 9.94479 36.7641C9.94479 36.7681 9.94479 36.7721 9.94479 36.7761C9.94479 36.7801 9.94479 36.7841 9.94479 36.7882C9.94479 36.7923 9.94479 36.7963 9.94479 36.8003C9.94479 36.8044 9.94479 36.8085 9.94479 36.8126C9.94479 36.8167 9.94479 36.8208 9.94479 36.8249C9.94479 36.829 9.94479 36.8331 9.94479 36.8372C9.94479 36.8414 9.94479 36.8455 9.94479 36.8497C9.94479 36.8538 9.94479 36.8579 9.94479 36.8622C9.94479 36.8663 9.94479 36.8705 9.94479 36.8747C9.94479 36.8789 9.94479 36.8831 9.94479 36.8873C9.94479 36.8915 9.94479 36.8957 9.94479 36.8999C9.94479 36.9042 9.94479 36.9084 9.94479 36.9127C9.94479 36.9169 9.94479 36.9212 9.94479 36.9255C9.94479 36.9298 9.94479 36.9341 9.94479 36.9383C9.94479 36.9426 9.94479 36.947 9.94479 36.9513C9.94479 36.9556 9.94479 36.9599 9.94479 36.9643C9.94479 36.9686 9.94479 36.973 9.94479 36.9773C9.94479 36.9817 9.94479 36.9861 9.94479 36.9905C9.94479 36.9948 9.94479 36.9992 9.94479 37.0037C9.94479 37.008 9.94479 37.0124 9.94479 37.0169C9.94479 37.0213 9.94479 37.0257 9.94479 37.0302C9.94479 37.0347 9.94479 37.0391 9.94479 37.0436C9.94479 37.0481 9.94479 37.0525 9.94479 37.057C9.94479 37.0615 9.94479 37.066 9.94479 37.0706C9.94479 37.0751 9.94479 37.0796 9.94479 37.0841C9.94479 37.0886 9.94479 37.0932 9.94479 37.0978C9.94479 37.1023 9.94479 37.1069 9.94479 37.1115C9.94479 37.116 9.94479 37.1206 9.94479 37.1253C9.94479 37.1298 9.94479 37.1345 9.94479 37.1391C9.94479 37.1437 9.94479 37.1483 9.94479 37.153C9.94479 37.1577 9.94479 37.1623 9.94479 37.1669C9.94479 37.1717 9.94479 37.1763 9.94479 37.181C9.94479 37.1857 9.94479 37.1904 9.94479 37.1952C9.94479 37.1999 9.94479 37.2046 9.94479 37.2093C9.94479 37.214 9.94479 37.2188 9.94479 37.2236C9.94479 37.2283 9.94479 37.2331 9.94479 37.2378C9.94479 37.2426 9.94479 37.2474 9.94479 37.2522C9.94479 37.2571 9.94479 37.2618 9.94479 37.2667C9.94479 37.2715 9.94479 37.2763 9.94479 37.2812C9.94479 37.286 9.94479 37.2909 9.94479 37.2957C9.94479 37.3007 9.94479 37.3055 9.94479 37.3105C9.94479 37.3153 9.94479 37.3202 9.94479 37.3252C9.94479 37.3301 9.94479 37.335 9.94479 37.3399C9.94479 37.3449 9.94479 37.3498 9.94479 37.3548C9.94479 37.3597 9.94479 37.3647 9.94479 37.3697C9.94479 37.3747 9.94479 37.3797 9.94479 37.3847C9.94479 37.3897 9.94479 37.3947 9.94479 37.3998C9.94479 37.4048 9.94479 37.4098 9.94479 37.4149C9.94479 37.42 9.94479 37.425 9.94479 37.4301C9.94479 37.4352 9.94479 37.4403 9.94479 37.4454C9.94479 37.4505 9.94479 37.4556 9.94479 37.4607C9.94479 37.4658 9.94479 37.471 9.94479 37.4762C9.94479 37.4813 9.94479 37.4864 9.94479 37.4916C9.94479 37.4968 9.94479 37.5019 9.94479 37.5072C9.94479 37.5124 9.94479 37.5176 9.94479 37.5228C9.94479 37.528 9.94479 37.5332 9.94479 37.5385C9.94479 37.5437 9.94479 37.549 9.94479 37.5543C9.94479 37.5595 9.94479 37.5648 9.94479 37.5701C9.94479 37.5754 9.94479 37.5807 9.94479 37.586C9.94479 37.5913 9.94479 37.5966 9.94479 37.602C9.94479 37.6073 9.94479 37.6127 9.94479 37.618C9.94479 37.6234 9.94479 37.6287 9.94479 37.6342C9.94479 37.6395 9.94479 37.6449 9.94479 37.6504C9.94479 37.6557 9.94479 37.6612 9.94479 37.6666C9.94479 37.672 9.94479 37.6775 9.94479 37.6829C9.94479 37.6884 9.94479 37.6939 9.94479 37.6993C9.94479 37.7048 9.94479 37.7103 9.94479 37.7158C9.94479 37.7213 9.94479 37.7268 9.94479 37.7324C9.94479 37.7379 9.94479 37.7435 9.94479 37.749C9.94479 37.7545 9.94479 37.7601 9.94479 37.7657C9.94479 37.7713 9.94479 37.7769 9.94479 37.7825C9.94479 37.7881 9.94479 37.7937 9.94479 37.7993C9.94479 37.8049 9.94479 37.8106 9.94479 37.8162C9.94479 37.8219 9.94479 37.8276 9.94479 37.8333C9.94479 37.8389 9.94479 37.8446 9.94479 37.8504C9.94479 37.856 9.94479 37.8617 9.94479 37.8675C9.94479 37.8732 9.94479 37.8789 9.94479 37.8847C9.94479 37.8904 9.94479 37.8962 9.94479 37.902C9.94479 37.9078 9.94479 37.9135 9.94479 37.9193C9.94479 37.9251 9.94479 37.931 9.94479 37.9367C9.94479 37.9426 9.94479 37.9484 9.94479 37.9543C9.94479 37.9602 9.94479 37.966 9.94479 37.9719C9.94479 37.9777 9.94479 37.9836 9.94479 37.9895C9.94479 37.9954 9.94479 38.0014 9.94479 38.0073C9.94479 38.0132 9.94479 38.0191 9.94479 38.0251C9.94479 38.0311 9.94479 38.037 9.94479 38.043C9.94479 38.049 9.94479 38.055 9.94479 38.061C9.94479 38.067 9.94479 38.073 9.94479 38.079C9.94479 38.085 9.94479 38.091 9.94479 38.0971C9.94479 38.1032 9.94479 38.1092 9.94479 38.1153C9.94479 38.1214 9.94479 38.1274 9.94479 38.1336C9.94479 38.1396 9.94479 38.1458 9.94479 38.1519C9.94479 38.1581 9.94479 38.1642 9.94479 38.1703C9.94479 38.1765 9.94479 38.1826 9.94479 38.1888C9.94479 38.195 9.94479 38.2012 9.94479 38.2074C9.94479 38.2136 9.94479 38.2198 9.94479 38.226C9.94479 38.2323 9.94479 38.2385 9.94479 38.2448C9.94479 38.251 9.94479 38.2573 9.94479 38.2636C9.94479 38.2699 9.94479 38.2762 9.94479 38.2825C9.94479 38.2888 9.94479 38.2951 9.94479 38.3014C9.94479 38.3078 9.94479 38.3141 9.94479 38.3205C9.94479 38.3268 9.94479 38.3332 9.94479 38.3396C9.94479 38.346 9.94479 38.3524 9.94479 38.3588C9.94479 38.3652 9.94479 38.3716 9.94479 38.3781C9.94479 38.3845 9.94479 38.391 9.94479 38.3975C9.94479 38.4039 9.94479 38.4104 9.94479 38.4169C9.94479 38.4234 9.94479 38.4299 9.94479 38.4364C9.94479 38.4429 9.94479 38.4494 9.94479 38.4559C9.94479 38.4625 9.94479 38.4691 9.94479 38.4756C9.94479 38.4822 9.94479 38.4888 9.94479 38.4954C9.94479 38.502 9.94479 38.5086 9.94479 38.5152C9.94479 38.5218 9.94479 38.5285 9.94479 38.5351C9.94479 38.5417 9.94479 38.5485 9.94479 38.5551C9.94479 38.5618 9.94479 38.5685 9.94479 38.5752C9.94479 38.5819 9.94479 38.5886 9.94479 38.5953C9.94479 38.6021 9.94479 38.6088 9.94479 38.6156C9.94479 38.6223 9.94479 38.6291 9.94479 38.6358C9.94479 38.6426 9.94479 38.6494 9.94479 38.6563C9.94479 38.663 9.94479 38.6699 9.94479 38.6767C9.94479 38.6835 9.94479 38.6904 9.94479 38.6972C9.94479 38.7041 9.94479 38.711 9.94479 38.7179C9.94479 38.7248 9.94479 38.7317 9.94479 38.7386C9.94479 38.7455 9.94479 38.7524 9.94479 38.7594C9.94479 38.7664 9.94479 38.7733 9.94479 38.7803H11.0157C11.0157 38.7733 11.0157 38.7664 11.0157 38.7594C11.0157 38.7524 11.0157 38.7455 11.0157 38.7386C11.0157 38.7317 11.0157 38.7248 11.0157 38.7179C11.0157 38.711 11.0157 38.7041 11.0157 38.6972C11.0157 38.6904 11.0157 38.6835 11.0157 38.6767C11.0157 38.6699 11.0157 38.663 11.0157 38.6563C11.0157 38.6494 11.0157 38.6426 11.0157 38.6358C11.0157 38.6291 11.0157 38.6223 11.0157 38.6156C11.0157 38.6088 11.0157 38.6021 11.0157 38.5953C11.0157 38.5886 11.0157 38.5819 11.0157 38.5752C11.0157 38.5685 11.0157 38.5618 11.0157 38.5551C11.0157 38.5485 11.0157 38.5417 11.0157 38.5351C11.0157 38.5285 11.0157 38.5218 11.0157 38.5152C11.0157 38.5086 11.0157 38.502 11.0157 38.4954C11.0157 38.4888 11.0157 38.4822 11.0157 38.4756C11.0157 38.4691 11.0157 38.4625 11.0157 38.4559C11.0157 38.4494 11.0157 38.4429 11.0157 38.4364C11.0157 38.4299 11.0157 38.4234 11.0157 38.4169C11.0157 38.4104 11.0157 38.4039 11.0157 38.3975C11.0157 38.391 11.0157 38.3845 11.0157 38.3781C11.0157 38.3716 11.0157 38.3652 11.0157 38.3588C11.0157 38.3524 11.0157 38.346 11.0157 38.3396C11.0157 38.3332 11.0157 38.3268 11.0157 38.3205C11.0157 38.3141 11.0157 38.3078 11.0157 38.3014C11.0157 38.2951 11.0157 38.2888 11.0157 38.2825C11.0157 38.2762 11.0157 38.2699 11.0157 38.2636C11.0157 38.2573 11.0157 38.251 11.0157 38.2448C11.0157 38.2385 11.0157 38.2323 11.0157 38.226C11.0157 38.2198 11.0157 38.2136 11.0157 38.2074C11.0157 38.2012 11.0157 38.195 11.0157 38.1888C11.0157 38.1826 11.0157 38.1765 11.0157 38.1703C11.0157 38.1642 11.0157 38.1581 11.0157 38.1519C11.0157 38.1458 11.0157 38.1396 11.0157 38.1336C11.0157 38.1274 11.0157 38.1214 11.0157 38.1153C11.0157 38.1092 11.0157 38.1032 11.0157 38.0971C11.0157 38.091 11.0157 38.085 11.0157 38.079C11.0157 38.073 11.0157 38.067 11.0157 38.061C11.0157 38.055 11.0157 38.049 11.0157 38.043C11.0157 38.037 11.0157 38.0311 11.0157 38.0251C11.0157 38.0191 11.0157 38.0132 11.0157 38.0073C11.0157 38.0014 11.0157 37.9954 11.0157 37.9895C11.0157 37.9836 11.0157 37.9777 11.0157 37.9719C11.0157 37.966 11.0157 37.9602 11.0157 37.9543C11.0157 37.9484 11.0157 37.9426 11.0157 37.9367C11.0157 37.931 11.0157 37.9251 11.0157 37.9193C11.0157 37.9135 11.0157 37.9078 11.0157 37.902C11.0157 37.8962 11.0157 37.8904 11.0157 37.8847C11.0157 37.8789 11.0157 37.8732 11.0157 37.8675C11.0157 37.8617 11.0157 37.856 11.0157 37.8504C11.0157 37.8446 11.0157 37.8389 11.0157 37.8333C11.0157 37.8276 11.0157 37.8219 11.0157 37.8162C11.0157 37.8106 11.0157 37.8049 11.0157 37.7993C11.0157 37.7937 11.0157 37.7881 11.0157 37.7825C11.0157 37.7769 11.0157 37.7713 11.0157 37.7657C11.0157 37.7601 11.0157 37.7545 11.0157 37.749C11.0157 37.7435 11.0157 37.7379 11.0157 37.7324C11.0157 37.7268 11.0157 37.7213 11.0157 37.7158C11.0157 37.7103 11.0157 37.7048 11.0157 37.6993C11.0157 37.6939 11.0157 37.6884 11.0157 37.6829C11.0157 37.6775 11.0157 37.672 11.0157 37.6666C11.0157 37.6612 11.0157 37.6557 11.0157 37.6504C11.0157 37.6449 11.0157 37.6395 11.0157 37.6342C11.0157 37.6287 11.0157 37.6234 11.0157 37.618C11.0157 37.6127 11.0157 37.6073 11.0157 37.602C11.0157 37.5966 11.0157 37.5913 11.0157 37.586C11.0157 37.5807 11.0157 37.5754 11.0157 37.5701C11.0157 37.5648 11.0157 37.5595 11.0157 37.5543C11.0157 37.549 11.0157 37.5437 11.0157 37.5385C11.0157 37.5332 11.0157 37.528 11.0157 37.5228C11.0157 37.5176 11.0157 37.5124 11.0157 37.5072C11.0157 37.5019 11.0157 37.4968 11.0157 37.4916C11.0157 37.4864 11.0157 37.4813 11.0157 37.4762C11.0157 37.471 11.0157 37.4658 11.0157 37.4607C11.0157 37.4556 11.0157 37.4505 11.0157 37.4454C11.0157 37.4403 11.0157 37.4352 11.0157 37.4301C11.0157 37.425 11.0157 37.42 11.0157 37.4149C11.0157 37.4098 11.0157 37.4048 11.0157 37.3998C11.0157 37.3947 11.0157 37.3897 11.0157 37.3847C11.0157 37.3797 11.0157 37.3747 11.0157 37.3697C11.0157 37.3647 11.0157 37.3597 11.0157 37.3548C11.0157 37.3498 11.0157 37.3449 11.0157 37.3399C11.0157 37.335 11.0157 37.3301 11.0157 37.3252C11.0157 37.3202 11.0157 37.3153 11.0157 37.3105C11.0157 37.3055 11.0157 37.3007 11.0157 37.2957C11.0157 37.2909 11.0157 37.286 11.0157 37.2812C11.0157 37.2763 11.0157 37.2715 11.0157 37.2667C11.0157 37.2618 11.0157 37.2571 11.0157 37.2522C11.0157 37.2474 11.0157 37.2426 11.0157 37.2378C11.0157 37.2331 11.0157 37.2283 11.0157 37.2236C11.0157 37.2188 11.0157 37.214 11.0157 37.2093C11.0157 37.2046 11.0157 37.1999 11.0157 37.1952C11.0157 37.1904 11.0157 37.1857 11.0157 37.181C11.0157 37.1763 11.0157 37.1717 11.0157 37.1669C11.0157 37.1623 11.0157 37.1577 11.0157 37.153C11.0157 37.1483 11.0157 37.1437 11.0157 37.1391C11.0157 37.1345 11.0157 37.1298 11.0157 37.1253C11.0157 37.1206 11.0157 37.116 11.0157 37.1115C11.0157 37.1069 11.0157 37.1023 11.0157 37.0978C11.0157 37.0932 11.0157 37.0886 11.0157 37.0841C11.0157 37.0796 11.0157 37.0751 11.0157 37.0706C11.0157 37.066 11.0157 37.0615 11.0157 37.057C11.0157 37.0525 11.0157 37.0481 11.0157 37.0436C11.0157 37.0391 11.0157 37.0347 11.0157 37.0302C11.0157 37.0257 11.0157 37.0213 11.0157 37.0169C11.0157 37.0124 11.0157 37.008 11.0157 37.0037C11.0157 36.9992 11.0157 36.9948 11.0157 36.9905C11.0157 36.9861 11.0157 36.9817 11.0157 36.9773C11.0157 36.973 11.0157 36.9686 11.0157 36.9643C11.0157 36.9599 11.0157 36.9556 11.0157 36.9513C11.0157 36.947 11.0157 36.9426 11.0157 36.9383C11.0157 36.9341 11.0157 36.9298 11.0157 36.9255C11.0157 36.9212 11.0157 36.9169 11.0157 36.9127C11.0157 36.9084 11.0157 36.9042 11.0157 36.8999C11.0157 36.8957 11.0157 36.8915 11.0157 36.8873C11.0157 36.8831 11.0157 36.8789 11.0157 36.8747C11.0157 36.8705 11.0157 36.8663 11.0157 36.8622C11.0157 36.8579 11.0157 36.8538 11.0157 36.8497C11.0157 36.8455 11.0157 36.8414 11.0157 36.8372C11.0157 36.8331 11.0157 36.829 11.0157 36.8249C11.0157 36.8208 11.0157 36.8167 11.0157 36.8126C11.0157 36.8085 11.0157 36.8044 11.0157 36.8003C11.0157 36.7963 11.0157 36.7923 11.0157 36.7882C11.0157 36.7841 11.0157 36.7801 11.0157 36.7761C11.0157 36.7721 11.0157 36.7681 11.0157 36.7641C11.0157 36.7601 11.0157 36.7561 11.0157 36.7521C11.0157 36.7481 11.0157 36.7441 11.0157 36.7401C11.0157 36.7362 11.0157 36.7322 11.0157 36.7283C11.0157 36.7244 11.0157 36.7204 11.0157 36.7165C11.0157 36.7126 11.0157 36.7087 11.0157 36.7047C11.0157 36.7009 11.0157 36.6969 11.0157 36.6931C11.0157 36.6892 11.0157 36.6853 11.0157 36.6815C11.0157 36.6776 11.0157 36.6737 11.0157 36.6699C11.0157 36.6661 11.0157 36.6623 11.0157 36.6584C11.0157 36.6546 11.0157 36.6508 11.0157 36.647C11.0157 36.6432 11.0157 36.6394 11.0157 36.6356C11.0157 36.6318 11.0157 36.6281 11.0157 36.6243C11.0157 36.6206 11.0157 36.6168 11.0157 36.6131C11.0157 36.6093 11.0157 36.6056 11.0157 36.6019C11.0157 36.5981 11.0157 36.5944 11.0157 36.5907C11.0157 36.5871 11.0157 36.5834 11.0157 36.5796C11.0157 36.576 11.0157 36.5723 11.0157 36.5687C11.0157 36.565 11.0157 36.5614 11.0157 36.5577C11.0157 36.5541 11.0157 36.5504 11.0157 36.5468C11.0157 36.5432 11.0157 36.5396 11.0157 36.536C11.0157 36.5324 11.0157 36.5288 11.0157 36.5252C11.0157 36.5216 11.0157 36.518 11.0157 36.5145C11.0157 36.5109 11.0157 36.5074 11.0157 36.5038C11.0157 36.5003 11.0157 36.4968 11.0157 36.4933C11.0157 36.4897 11.0157 36.4862 11.0157 36.4827C11.0157 36.4792 11.0157 36.4757 11.0157 36.4722C11.0157 36.4687 11.0157 36.4653 11.0157 36.4618C11.0157 36.4583 11.0157 36.4548 11.0157 36.4514C11.0157 36.4479 11.0157 36.4445 11.0157 36.4411C11.0157 36.4376 11.0157 36.4342 11.0157 36.4309C11.0157 36.4274 11.0157 36.424 11.0157 36.4206C11.0157 36.4172 11.0157 36.4139 11.0157 36.4105C11.0157 36.4072 11.0157 36.4037 11.0157 36.4004C11.0157 36.3971 11.0157 36.3937 11.0157 36.3904C11.0157 36.387 11.0157 36.3837 11.0157 36.3804C11.0157 36.3771 11.0157 36.3738 11.0157 36.3705C11.0157 36.3672 11.0157 36.3639 11.0157 36.3606C11.0157 36.3574 11.0157 36.3541 11.0157 36.3508C11.0157 36.3476 11.0157 36.3443 11.0157 36.3411C11.0157 36.3378 11.0157 36.3346 11.0157 36.3314C11.0157 36.3282 11.0157 36.325 11.0157 36.3218C11.0157 36.3186 11.0157 36.3153 11.0157 36.3122C11.0157 36.309 11.0157 36.3058 11.0157 36.3026C11.0157 36.2995 11.0157 36.2963 11.0157 36.2932C11.0157 36.2901 11.0157 36.2869 11.0157 36.2838C11.0157 36.2806 11.0157 36.2775 11.0157 36.2744C11.0157 36.2713 11.0157 36.2682 11.0157 36.2651C11.0157 36.262 11.0157 36.2589 11.0157 36.2559C11.0157 36.2528 11.0157 36.2497 11.0157 36.2467C11.0157 36.2436 11.0157 36.2406 11.0157 36.2375C11.0157 36.2344 11.0157 36.2314 11.0157 36.2285C11.0157 36.2254 11.0157 36.2224 11.0157 36.2194C11.0157 36.2164 11.0157 36.2134 11.0157 36.2104C11.0157 36.2075 11.0157 36.2045 11.0157 36.2015C11.0157 36.1985 11.0157 36.1955 11.0157 36.1926C11.0157 36.1897 11.0157 36.1868 11.0157 36.1838C11.0157 36.1808 11.0157 36.1779 11.0157 36.175C11.0157 36.1721 11.0157 36.1692 11.0157 36.1663C11.0157 36.1634 11.0157 36.1606 11.0157 36.1576C11.0157 36.1548 11.0157 36.1519 11.0157 36.1491C11.0157 36.1462 11.0157 36.1433 11.0157 36.1405C11.0157 36.1376 11.0157 36.1348 11.0157 36.132C11.0157 36.1291 11.0157 36.1264 11.0157 36.1235C11.0157 36.1207 11.0157 36.1179 11.0157 36.1151C11.0157 36.1123 11.0157 36.1095 11.0157 36.1068C11.0157 36.104 11.0157 36.1012 11.0157 36.0984C11.0157 36.0957 11.0157 36.0929 11.0157 36.0902C11.0157 36.0874 11.0157 36.0847 11.0157 36.082C11.0157 36.0793 11.0157 36.0766 11.0157 36.0739C11.0157 36.0712 11.0157 36.0685 11.0157 36.0658C11.0157 36.0631 11.0157 36.0604 11.0157 36.0577C11.0157 36.055 11.0157 36.0524 11.0157 36.0497C11.0157 36.0471 11.0157 36.0445 11.0157 36.0418C11.0157 36.0392 11.0157 36.0365 11.0157 36.0339C11.0157 36.0313 11.0157 36.0287 11.0157 36.026C11.0157 36.0235 11.0157 36.0208 11.0157 36.0183C11.0157 36.0157 11.0157 36.0131 11.0157 36.0105C11.0157 36.008 11.0157 36.0054 11.0157 36.0028C11.0157 36.0003 11.0157 35.9978 11.0157 35.9952C11.0157 35.9926 11.0157 35.9901 11.0157 35.9876C11.0157 35.9851 11.0157 35.9826 11.0157 35.9801C11.0157 35.9776 11.0157 35.9751 11.0157 35.9726C11.0157 35.9701 11.0157 35.9676 11.0157 35.9651C11.0157 35.9626 11.0157 35.9601 11.0157 35.9577C11.0157 35.9553 11.0157 35.9528 11.0157 35.9504C11.0157 35.9479 11.0157 35.9455 11.0157 35.9431C11.0157 35.9407 11.0157 35.9382 11.0157 35.9358C11.0157 35.9334 11.0157 35.931 11.0157 35.9286C11.0157 35.9262 11.0157 35.9238 11.0157 35.9214C11.0157 35.9191 11.0157 35.9167 11.0157 35.9143C11.0157 35.912 11.0157 35.9096 11.0157 35.9073C11.0157 35.905 11.0157 35.9026 11.0157 35.9002C11.0157 35.898 11.0157 35.8956 11.0157 35.8933C11.0157 35.891 11.0157 35.8887 11.0157 35.8864C11.0157 35.8841 11.0157 35.8818 11.0157 35.8795C11.0157 35.8773 11.0157 35.875 11.0157 35.8727C11.0157 35.8704 11.0157 35.8681 11.0157 35.8659C11.0157 35.8636 11.0157 35.8614 11.0157 35.8592C11.0157 35.8569 11.0157 35.8547 11.0157 35.8525C11.0157 35.8503 11.0157 35.8481 11.0157 35.8458C11.0157 35.8436 11.0157 35.8414 11.0157 35.8393C11.0157 35.8371 11.0157 35.8348 11.0157 35.8327C11.0157 35.8305 11.0157 35.8283 11.0157 35.8262C11.0157 35.824 11.0157 35.8219 11.0157 35.8197C11.0157 35.8176 11.0157 35.8154 11.0157 35.8133C11.0157 35.8112 11.0157 35.8091 11.0157 35.8069C11.0157 35.8049 11.0157 35.8027 11.0157 35.8006C11.0157 35.7985 11.0157 35.7964 11.0157 35.7944C11.0157 35.7923 11.0157 35.7902 11.0157 35.7881C11.0157 35.786 11.0157 35.784 11.0157 35.7819C11.0157 35.7799 11.0157 35.7778 11.0157 35.7758C11.0157 35.7737 11.0157 35.7717 11.0157 35.7697C11.0157 35.7677 11.0157 35.7657 11.0157 35.7636C11.0157 35.7616 11.0157 35.7596 11.0157 35.7576C11.0157 35.7556 11.0157 35.7536 11.0157 35.7517C11.0157 35.7497 11.0157 35.7477 11.0157 35.7457C11.0157 35.7437 11.0157 35.7418 11.0157 35.7398C11.0157 35.7379 11.0157 35.736 11.0157 35.734C11.0157 35.732 11.0157 35.7301 11.0157 35.7282C11.0157 35.7263 11.0157 35.7244 11.0157 35.7225C11.0157 35.7205 11.0157 35.7186 11.0157 35.7168C11.0157 35.7148 11.0157 35.713 11.0157 35.711C11.0157 35.7092 11.0157 35.7073 11.0157 35.7055C11.0157 35.7035 11.0157 35.7017 11.0157 35.6998C11.0157 35.698 11.0157 35.6962 11.0157 35.6943C11.0157 35.6925 11.0157 35.6906 11.0157 35.6888C11.0157 35.687 11.0157 35.6852 11.0157 35.6833C11.0157 35.6816 11.0157 35.6798 11.0157 35.678C11.0157 35.6761 11.0157 35.6743 11.0157 35.6726C11.0157 35.6708 11.0157 35.669 11.0157 35.6673C11.0157 35.6655 11.0157 35.6637 11.0157 35.662C11.0157 35.6602 11.0157 35.6584 11.0157 35.6567C11.0157 35.655 11.0157 35.6532 11.0157 35.6515C11.0157 35.6498 11.0157 35.6481 11.0157 35.6464C11.0157 35.6446 11.0157 35.6429 11.0157 35.6412C11.0157 35.6395 11.0157 35.6378 11.0157 35.6361C11.0157 35.6344 11.0157 35.6327 11.0157 35.6311C11.0157 35.6294 11.0157 35.6277 11.0157 35.6261C11.0157 35.6244 11.0157 35.6227 11.0157 35.6211C11.0157 35.6194 11.0157 35.6178 11.0157 35.6162C11.0157 35.6145 11.0157 35.6129 11.0157 35.6113C11.0157 35.6097 11.0157 35.608 11.0157 35.6064C11.0157 35.6048 11.0157 35.6032 11.0157 35.6016C11.0157 35.6 11.0157 35.5985 11.0157 35.5969C11.0157 35.5952 11.0157 35.5937 11.0157 35.5921C11.0157 35.5905 11.0157 35.589 11.0157 35.5875C11.0157 35.5859 11.0157 35.5843 11.0157 35.5827C11.0157 35.5812 11.0157 35.5797 11.0157 35.5782C11.0157 35.5766 11.0157 35.5751 11.0157 35.5736C11.0157 35.572 11.0157 35.5705 11.0157 35.569C11.0157 35.5675 11.0157 35.566 11.0157 35.5645C11.0157 35.563 11.0157 35.5615 11.0157 35.5601C11.0157 35.5586 11.0157 35.5571 11.0157 35.5557C11.0157 35.5542 11.0157 35.5528 11.0157 35.5513C11.0157 35.5498 11.0157 35.5483 11.0157 35.5469C11.0157 35.5455 11.0157 35.544 11.0157 35.5426C11.0157 35.5412 11.0157 35.5398 11.0157 35.5383C11.0157 35.5369 11.0157 35.5355 11.0157 35.5341C11.0157 35.5327 11.0157 35.5313 11.0157 35.5299C11.0157 35.5285 11.0157 35.5271 11.0157 35.5257C11.0157 35.5243 11.0157 35.523 11.0157 35.5216C11.0157 35.5202 11.0157 35.5188 11.0157 35.5175C11.0157 35.5161 11.0157 35.5148 11.0157 35.5134C11.0157 35.5121 11.0157 35.5108 11.0157 35.5094C11.0157 35.5081 11.0157 35.5068 11.0157 35.5054C11.0157 35.5041 11.0157 35.5028 11.0157 35.5015C11.0157 35.5001 11.0157 35.4989 11.0157 35.4976C11.0157 35.4963 11.0157 35.495 11.0157 35.4937C11.0157 35.4924 11.0157 35.4911 11.0157 35.4899C11.0157 35.4886 11.0157 35.4873 11.0157 35.486C11.0157 35.4848 11.0157 35.4835 11.0157 35.4823C11.0157 35.481 11.0157 35.4798 11.0157 35.4785C11.0157 35.4773 11.0157 35.4761 11.0157 35.4748C11.0157 35.4736 11.0157 35.4724 11.0157 35.4712C11.0157 35.4699 11.0157 35.4687 11.0157 35.4675C11.0157 35.4663 11.0157 35.4651 11.0157 35.4639C11.0157 35.4627 11.0157 35.4615 11.0157 35.4604C11.0157 35.4592 11.0157 35.4579 11.0157 35.4568C11.0157 35.4557 11.0157 35.4544 11.0157 35.4533C11.0157 35.4522 11.0157 35.4509 11.0157 35.4498C11.0157 35.4487 11.0157 35.4475 11.0157 35.4464C11.0157 35.4452 11.0157 35.4441 11.0157 35.443C11.0157 35.4419 11.0157 35.4407 11.0157 35.4396C11.0157 35.4385 11.0157 35.4374 11.0157 35.4363C11.0157 35.4352 11.0157 35.4341 11.0157 35.433C11.0157 35.4319 11.0157 35.4308 11.0157 35.4297C11.0157 35.4286 11.0157 35.4275 11.0157 35.4265C11.0157 35.4254 11.0157 35.4243 11.0157 35.4232C11.0157 35.4222 11.0157 35.4212 11.0157 35.4201C11.0157 35.419 11.0157 35.418 11.0157 35.417C11.0157 35.4159 11.0157 35.4149 11.0157 35.4138C11.0157 35.4128 11.0157 35.4118 11.0157 35.4108C11.0157 35.4098 11.0157 35.4087 11.0157 35.4077C11.0157 35.4067 11.0157 35.4057 11.0157 35.4047C11.0157 35.4037 11.0157 35.4027 11.0157 35.4017C11.0157 35.4007 11.0157 35.3997 11.0157 35.3988C11.0157 35.3978 11.0157 35.3968 11.0157 35.3958C11.0157 35.3948 11.0157 35.3939 11.0157 35.3929C11.0157 35.392 11.0157 35.391 11.0157 35.39C11.0157 35.3891 11.0157 35.3881 11.0157 35.3872C11.0157 35.3863 11.0157 35.3853 11.0157 35.3844C11.0157 35.3835 11.0157 35.3826 11.0157 35.3816C11.0157 35.3807 11.0157 35.3798 11.0157 35.3789C11.0157 35.378 11.0157 35.3771 11.0157 35.3762C11.0157 35.3753 11.0157 35.3744 11.0157 35.3735C11.0157 35.3726 11.0157 35.3717 11.0157 35.3708C11.0157 35.3699 11.0157 35.3691 11.0157 35.3682C11.0157 35.3673 11.0157 35.3665 11.0157 35.3656C11.0157 35.3648 11.0157 35.3639 11.0157 35.3631C11.0157 35.3622 11.0157 35.3613 11.0157 35.3605C11.0157 35.3596 11.0157 35.3588 11.0157 35.358C11.0157 35.3571 11.0157 35.3563 11.0157 35.3555C11.0157 35.3546 11.0157 35.3539 11.0157 35.3531C11.0157 35.3522 11.0157 35.3514 11.0157 35.3506C11.0157 35.3498 11.0157 35.349 11.0157 35.3482C11.0157 35.3474 11.0157 35.3466 11.0157 35.3459C11.0157 35.3451 11.0157 35.3443 11.0157 35.3435C11.0157 35.3427 11.0157 35.3419 11.0157 35.3411C11.0157 35.3404 11.0157 35.3396 11.0157 35.3389C11.0157 35.3381 11.0157 35.3374 11.0157 35.3366C11.0157 35.3359 11.0157 35.3351 11.0157 35.3344C11.0157 35.3336 11.0157 35.3329 11.0157 35.3321C11.0157 35.3314 11.0157 35.3307 11.0157 35.3299C11.0157 35.3292 11.0157 35.3285 11.0157 35.3278C11.0157 35.3271 11.0157 35.3264 11.0157 35.3256C11.0157 35.3249 11.0157 35.3243 11.0157 35.3236C11.0157 35.3229 11.0157 35.3222 11.0157 35.3215C11.0157 35.3208 11.0157 35.3201 11.0157 35.3194C11.0157 35.3187 11.0157 35.3181 11.0157 35.3174C11.0157 35.3167 11.0157 35.3161 11.0157 35.3154C11.0157 35.3147 11.0157 35.3141 11.0157 35.3134C11.0157 35.3127 11.0157 35.3121 11.0157 35.3114C11.0157 35.3108 11.0157 35.3102 11.0157 35.3095C11.0157 35.3089 11.0157 35.3082 11.0157 35.3077C11.0157 35.307 11.0157 35.3064 11.0157 35.3057C11.0157 35.3052 11.0157 35.3045 11.0157 35.3039C11.0157 35.3033 11.0157 35.3027 11.0157 35.3021C11.0157 35.3014 11.0157 35.3009 11.0157 35.3002C11.0157 35.2997 11.0157 35.2991 11.0157 35.2984C11.0157 35.2979 11.0157 35.2973 11.0157 35.2967C11.0157 35.2962 11.0157 35.2955 11.0157 35.2949C11.0157 35.2944 11.0157 35.2938 11.0157 35.2932C11.0157 35.2927 11.0157 35.2922 11.0157 35.2916C11.0157 35.291 11.0157 35.2905 11.0157 35.2899C11.0157 35.2894 11.0157 35.2888 11.0157 35.2882C11.0157 35.2877 11.0157 35.2872 11.0157 35.2867C11.0157 35.2861 11.0157 35.2856 11.0157 35.285C11.0157 35.2845 11.0157 35.284 11.0157 35.2835C11.0157 35.283 11.0157 35.2825 11.0157 35.2819C11.0157 35.2814 11.0157 35.2809 11.0157 35.2804C11.0157 35.2799 11.0157 35.2794 11.0157 35.2789C11.0157 35.2784 11.0157 35.2779 11.0157 35.2774C11.0157 35.2769 11.0157 35.2764 11.0157 35.276C11.0157 35.2755 11.0157 35.275 11.0157 35.2745C11.0157 35.274 11.0157 35.2735 11.0157 35.273C11.0157 35.2726 11.0157 35.2721 11.0157 35.2717C11.0157 35.2712 11.0157 35.2707 11.0157 35.2702C11.0157 35.2698 11.0157 35.2694 11.0157 35.2689C11.0157 35.2685 11.0157 35.268 11.0157 35.2676C11.0157 35.2672 11.0157 35.2667 11.0157 35.2662C11.0157 35.2658 11.0157 35.2654 11.0157 35.265C11.0157 35.2645 11.0157 35.2641 11.0157 35.2637C11.0157 35.2632 11.0157 35.2628 11.0157 35.2625C11.0157 35.262 11.0157 35.2616 11.0157 35.2612C11.0157 35.2608 11.0157 35.2604 11.0157 35.26C11.0157 35.2596 11.0157 35.2592 11.0157 35.2588C11.0157 35.2584 11.0157 35.258 11.0157 35.2576C11.0157 35.2573 11.0157 35.2568 11.0157 35.2565C11.0157 35.256 11.0157 35.2557 11.0157 35.2553C11.0157 35.2549 11.0157 35.2545 11.0157 35.2542C11.0157 35.2538 11.0157 35.2535 11.0157 35.2531C11.0157 35.2528 11.0157 35.2523 11.0157 35.252C11.0157 35.2516 11.0157 35.2513 11.0157 35.251C11.0157 35.2506 11.0157 35.2503 11.0157 35.2499C11.0157 35.2495 11.0157 35.2492 11.0157 35.2489C11.0157 35.2485 11.0157 35.2482 11.0157 35.2478C11.0157 35.2475 11.0157 35.2472 11.0157 35.2468C11.0157 35.2465 11.0157 35.2462 11.0157 35.2459C11.0157 35.2455 11.0157 35.2453 11.0157 35.2449C11.0157 35.2446 11.0157 35.2443 11.0157 35.244C11.0157 35.2437 11.0157 35.2434 11.0157 35.243C11.0157 35.2428 11.0157 35.2425 11.0157 35.2422C11.0157 35.2419 11.0157 35.2415 11.0157 35.2413C11.0157 35.241 11.0157 35.2407 11.0157 35.2404C11.0157 35.2401 11.0157 35.2398 11.0157 35.2395C11.0157 35.2393 11.0157 35.239 11.0157 35.2387C11.0157 35.2384 11.0157 35.2382 11.0157 35.2379C11.0157 35.2376 11.0157 35.2373 11.0157 35.2371C11.0157 35.2368 11.0157 35.2365 11.0157 35.2363C11.0157 35.236 11.0157 35.2358 11.0157 35.2355C11.0157 35.2353 11.0157 35.235 11.0157 35.2348C11.0157 35.2345 11.0157 35.2343 11.0157 35.234C11.0157 35.2338 11.0157 35.2335 11.0157 35.2333C11.0157 35.233 11.0157 35.2328 11.0157 35.2325C11.0157 35.2328 11.0157 35.2323 11.0157 35.2325C11.0157 35.2323 11.0157 35.2314 11.0157 35.2312C11.0157 35.2314 11.0157 35.231 11.0157 35.2312C11.0157 35.231 11.0157 35.2301 11.0157 35.2299C11.0157 35.2301 11.0157 35.2297 11.0157 35.2299C11.0157 35.2297 11.0157 35.2288 11.0157 35.2286C11.0157 35.2288 11.0157 35.2284 11.0157 35.2286C11.0157 35.2284 11.0157 35.2276 11.0157 35.2274C11.0157 35.2276 11.0157 35.2272 11.0157 35.2274C11.0157 35.2272 11.0157 35.2264 11.0157 35.2263C11.0157 35.2265 11.0157 35.2261 11.0157 35.2263C11.0157 35.2261 11.0157 35.2253 11.0157 35.2251C11.0157 35.2253 11.0157 35.225 11.0157 35.2251C11.0157 35.225 11.0157 35.2243 11.0157 35.2241C11.0157 35.2243 11.0157 35.2239 11.0157 35.2241C11.0157 35.2239 11.0157 35.2233 11.0157 35.2231C11.0157 35.2233 11.0157 35.223 11.0157 35.2231C11.0157 35.223 11.0157 35.2223 11.0157 35.2222C11.0157 35.2223 11.0157 35.222 11.0157 35.2222C11.0157 35.2221 11.0157 35.2214 11.0157 35.2213C11.0157 35.2214 11.0157 35.2211 11.0157 35.2213C11.0157 35.2211 11.0157 35.2206 11.0157 35.2204C11.0157 35.2206 11.0157 35.2203 11.0157 35.2204C11.0157 35.2203 11.0157 35.2198 11.0157 35.2196C11.0157 35.2198 11.0157 35.2195 11.0157 35.2196C11.0157 35.2196 11.0157 35.219 11.0157 35.2188C11.0157 35.2187 11.0157 35.2179 11.0157 35.2178C11.0157 35.2177 11.0157 35.2169 11.0157 35.2168C11.0157 35.2168 11.0157 35.2161 11.0157 35.216C11.0157 35.2159 11.0157 35.2153 11.0157 35.2151C11.0157 35.2151 11.0157 35.2146 11.0157 35.2144C11.0157 35.2143 11.0157 35.2137 11.0157 35.2136C11.0157 35.2137 11.0157 35.2136 11.0157 35.2136C11.0157 35.2136 11.0157 35.213 11.0157 35.2129C11.0157 35.2128 11.0157 35.2121 11.0157 35.2121C11.0157 35.2121 11.0157 35.2114 11.0157 35.2113C11.0157 35.2113 11.0157 35.2105 11.0157 35.2105H10.4803ZM11.0157 35.2105V31.6407H9.94479V35.2105H11.0157Z" fill="#445A81"/>
</svg>
