<svg width="24" height="25" viewBox="0 0 24 25" fill="none" xmlns="http://www.w3.org/2000/svg">
<path d="M12 17.1006C12.2833 17.1006 12.5208 17.0048 12.7125 16.8131C12.9042 16.6214 13 16.3839 13 16.1006C13 15.8173 12.9042 15.5798 12.7125 15.3881C12.5208 15.1964 12.2833 15.1006 12 15.1006C11.7167 15.1006 11.4792 15.1964 11.2875 15.3881C11.0958 15.5798 11 15.8173 11 16.1006C11 16.3839 11.0958 16.6214 11.2875 16.8131C11.4792 17.0048 11.7167 17.1006 12 17.1006ZM11 13.1006H13V7.10059H11V13.1006ZM12 22.1006C10.6167 22.1006 9.31667 21.8381 8.1 21.3131C6.88333 20.7881 5.825 20.0756 4.925 19.1756C4.025 18.2756 3.3125 17.2173 2.7875 16.0006C2.2625 14.7839 2 13.4839 2 12.1006C2 10.7173 2.2625 9.41725 2.7875 8.20059C3.3125 6.98392 4.025 5.92559 4.925 5.02559C5.825 4.12559 6.88333 3.41309 8.1 2.88809C9.31667 2.36309 10.6167 2.10059 12 2.10059C13.3833 2.10059 14.6833 2.36309 15.9 2.88809C17.1167 3.41309 18.175 4.12559 19.075 5.02559C19.975 5.92559 20.6875 6.98392 21.2125 8.20059C21.7375 9.41725 22 10.7173 22 12.1006C22 13.4839 21.7375 14.7839 21.2125 16.0006C20.6875 17.2173 19.975 18.2756 19.075 19.1756C18.175 20.0756 17.1167 20.7881 15.9 21.3131C14.6833 21.8381 13.3833 22.1006 12 22.1006ZM12 20.1006C14.2333 20.1006 16.125 19.3256 17.675 17.7756C19.225 16.2256 20 14.3339 20 12.1006C20 9.86725 19.225 7.97559 17.675 6.42559C16.125 4.87559 14.2333 4.10059 12 4.10059C9.76667 4.10059 7.875 4.87559 6.325 6.42559C4.775 7.97559 4 9.86725 4 12.1006C4 14.3339 4.775 16.2256 6.325 17.7756C7.875 19.3256 9.76667 20.1006 12 20.1006Z" fill="white"/>
</svg>
