<svg width="133" height="94" viewBox="0 0 133 94" fill="none" xmlns="http://www.w3.org/2000/svg">
<path d="M0 0H122C128.075 0 133 4.92487 133 11V94L129.125 87.11C120.515 71.7981 101.553 65.7179 85.6439 73.1676V73.1676L79.633 75.7441C71.0629 79.4176 61.1263 77.602 54.4091 71.1351V71.1351L51.5938 67.4606C47.9105 62.6531 46.2721 56.587 47.034 50.5788L47.3982 47.707C49.7079 29.4945 38.6669 12.2348 21.1638 6.69655L0 0Z" fill="white"/>
<path d="M75.0656 59.9547L74.2545 58.5256C72.8675 56.0816 70.5162 54.334 67.7761 53.7105L66.4098 53.3996C65.8946 53.2922 65.4824 53.0149 65.1733 52.5679C64.8642 52.1209 64.744 51.628 64.8126 51.0892L64.9922 49.1661C65.24 46.5112 64.4172 43.8672 62.7066 41.8216L61.5152 40.397C61.1717 40.003 61 39.5373 61 39C61 38.4627 61.1717 37.997 61.5152 37.603L62.7066 36.1784C64.4172 34.1328 65.24 31.4888 64.9922 28.8339L64.8126 26.9108C64.744 26.3735 64.8642 25.8806 65.1733 25.4321C65.4824 24.9836 65.8946 24.7064 66.4098 24.6004L67.7761 24.2895C70.5162 23.666 72.8675 21.9184 74.2545 19.4744L75.0656 18.0453C75.3404 17.5796 75.7182 17.2659 76.1991 17.104C76.6799 16.942 77.1608 16.9693 77.6417 17.1856L78.9634 17.7688C81.5349 18.9033 84.4651 18.9033 87.0366 17.7688L88.3583 17.1856C88.8392 16.9707 89.3201 16.9435 89.8009 17.104C90.2818 17.2644 90.6596 17.5782 90.9344 18.0453L91.7455 19.4744C93.1325 21.9184 95.4838 23.666 98.2239 24.2895L99.5902 24.6004C100.105 24.7078 100.518 24.9858 100.827 25.4343C101.136 25.8827 101.256 26.3749 101.187 26.9108L101.008 28.8339C100.76 31.4888 101.583 34.1328 103.293 36.1784L104.485 37.603C104.828 37.997 105 38.4627 105 39C105 39.5373 104.828 40.003 104.485 40.397L103.293 41.8216C101.583 43.8672 100.76 46.5112 101.008 49.1661L101.187 51.0892C101.256 51.6265 101.136 52.1194 100.827 52.5679C100.518 53.0164 100.105 53.2936 99.5902 53.3996L98.2239 53.7105C95.4838 54.334 93.1325 56.0816 91.7455 58.5256L90.9344 59.9547C90.6596 60.4204 90.2818 60.7341 89.8009 60.896C89.3201 61.058 88.8392 61.0307 88.3583 60.8144L87.0366 60.2312C84.4651 59.0967 81.5349 59.0967 78.9634 60.2312L77.6417 60.8144C77.1608 61.0293 76.6799 61.0565 76.1991 60.896C75.7182 60.7356 75.3404 60.4218 75.0656 59.9547Z" fill="#1E3167"/>
<path d="M83.9158 28.0082C83.9127 28.0132 83.8982 28.0202 83.8846 28.0232C83.8701 28.0262 83.8316 28.0472 83.7983 28.0682C83.764 28.0902 83.7203 28.1152 83.7006 28.1232C83.6808 28.1323 83.6184 28.1663 83.5612 28.1993C83.5041 28.2313 83.4344 28.2703 83.4053 28.2853C83.3772 28.3003 83.3304 28.3263 83.3013 28.3444C83.2732 28.3624 83.2389 28.3804 83.2264 28.3834C83.2139 28.3874 83.1723 28.4104 83.1339 28.4344C83.0943 28.4594 83.059 28.4794 83.0538 28.4794C83.0486 28.4794 83.0153 28.4974 82.98 28.5194C82.9446 28.5415 82.8957 28.5695 82.8718 28.5815C82.7502 28.6445 82.6316 28.7105 82.6264 28.7185C82.6233 28.7235 82.6098 28.7295 82.5963 28.7335C82.5827 28.7365 82.5401 28.7596 82.5006 28.7846C82.4611 28.8096 82.4236 28.8296 82.4164 28.8296C82.4101 28.8296 82.381 28.8446 82.3529 28.8636C82.3248 28.8826 82.2739 28.9116 82.2396 28.9286C82.1709 28.9647 82.0316 29.0427 81.9755 29.0767C81.9557 29.0897 81.9349 29.0997 81.9297 29.0997C81.9255 29.0997 81.8871 29.1197 81.8465 29.1447C81.8049 29.1698 81.7664 29.1898 81.7602 29.1898C81.754 29.1898 81.7384 29.1978 81.7248 29.2088C81.7113 29.2188 81.6625 29.2478 81.6167 29.2718C81.5709 29.2968 81.4919 29.3408 81.4399 29.3699C81.389 29.3989 81.3266 29.4329 81.3037 29.4449C81.2798 29.4569 81.233 29.4829 81.1987 29.5029C81.1633 29.5239 81.1311 29.5399 81.1259 29.5399C81.1196 29.5399 81.104 29.5479 81.0905 29.559C81.077 29.569 81.0281 29.598 80.9824 29.622C80.9366 29.647 80.8576 29.691 80.8056 29.72C80.7546 29.75 80.6891 29.7851 80.66 29.7991C80.6319 29.8141 80.5893 29.8371 80.5664 29.8511C80.5436 29.8661 80.5061 29.8861 80.4832 29.8971C80.4604 29.9081 80.4188 29.9301 80.3897 29.9471C80.2326 30.0382 80.1578 30.0802 80.1515 30.0802C80.1484 30.0802 80.112 30.1002 80.0704 30.1252C80.0288 30.1502 79.9914 30.1703 79.9862 30.1703C79.982 30.1703 79.9654 30.1783 79.9498 30.1883C79.8687 30.2413 79.8364 30.2603 79.8229 30.2603C79.8156 30.2603 79.7948 30.2703 79.7772 30.2833C79.7595 30.2963 79.7127 30.3243 79.6721 30.3453C79.6326 30.3663 79.5879 30.3904 79.5734 30.4004C79.5588 30.4104 79.537 30.4204 79.5245 30.4244C79.512 30.4284 79.4704 30.4514 79.4319 30.4754C79.3924 30.5004 79.3571 30.5204 79.3519 30.5204C79.3456 30.5204 79.3155 30.5374 79.2843 30.5574C79.252 30.5775 79.2042 30.6045 79.1782 30.6175C79.1522 30.6295 79.0867 30.6675 79.0326 30.7005C78.9786 30.7335 78.9172 30.7685 78.8974 30.7786C78.8465 30.8026 78.6219 30.9256 78.494 30.9997C78.4617 31.0177 78.4045 31.0497 78.3671 31.0687C78.3307 31.0887 78.2839 31.1147 78.2642 31.1277C78.2454 31.1407 78.2246 31.1507 78.2194 31.1507C78.2111 31.1507 78.1997 31.1567 78.1227 31.2078C78.1051 31.2188 78.0791 31.2318 78.0655 31.2358C78.051 31.2398 78.026 31.2538 78.0084 31.2658C77.9917 31.2788 77.947 31.3028 77.9096 31.3208C77.8721 31.3388 77.8274 31.3638 77.8097 31.3768C77.7921 31.3899 77.7744 31.4009 77.7692 31.4009C77.765 31.4009 77.7224 31.4229 77.6746 31.4509C77.6267 31.4779 77.5841 31.5009 77.5789 31.5009C77.5737 31.5009 77.5581 31.5089 77.5446 31.5199C77.5311 31.5299 77.4874 31.5549 77.4468 31.5759C77.4073 31.596 77.3668 31.619 77.3584 31.626C77.3501 31.633 77.3137 31.653 77.2784 31.671C77.242 31.688 77.1889 31.718 77.1598 31.737C77.1307 31.755 77.1026 31.771 77.0974 31.771C77.0912 31.771 77.06 31.787 77.0278 31.8081C76.9955 31.8281 76.955 31.8501 76.9373 31.8581C76.9207 31.8651 76.8759 31.8891 76.8395 31.9111C76.8042 31.9331 76.7709 31.9511 76.7668 31.9511C76.7626 31.9511 76.7272 31.9711 76.6877 31.9962C76.6472 32.0212 76.6108 32.0412 76.6045 32.0412C76.5993 32.0412 76.5733 32.0552 76.5473 32.0722C76.5047 32.1002 76.4423 32.1342 76.3103 32.2013C76.2832 32.2153 76.2343 32.2433 76.2011 32.2633C76.1688 32.2843 76.1366 32.3013 76.1314 32.3013C76.1252 32.3013 76.0981 32.3163 76.0711 32.3333L76.0212 32.3663L76.0139 33.0467C76.0097 33.4209 76.0066 34.2813 76.0066 34.9586C76.0066 35.6359 76.0035 36.2182 76.0004 36.2522L75.9931 36.3143L75.8933 36.3593C75.6385 36.4764 75.6042 36.4914 75.5803 36.4984C75.5657 36.5024 75.5356 36.5164 75.5127 36.5294C75.4898 36.5414 75.4482 36.5604 75.4191 36.5714C75.391 36.5824 75.3297 36.6074 75.2839 36.6284C75.2381 36.6484 75.1539 36.6855 75.0967 36.7105C75.0395 36.7345 74.9501 36.7755 74.8981 36.7995C74.8451 36.8235 74.7972 36.8435 74.791 36.8435C74.7848 36.8435 74.7442 36.8615 74.7016 36.8836C74.6589 36.9056 74.6194 36.9236 74.6132 36.9236C74.608 36.9236 74.5529 36.9466 74.4915 36.9746C74.4291 37.0026 74.3324 37.0456 74.2752 37.0706C74.218 37.0957 74.1286 37.1357 74.0766 37.1597C74.0246 37.1837 73.9768 37.2037 73.9705 37.2037C73.9643 37.2037 73.9248 37.2207 73.8822 37.2427C73.8406 37.2637 73.7948 37.2847 73.7813 37.2888C73.7667 37.2928 73.7106 37.3168 73.6565 37.3408C73.6024 37.3658 73.5109 37.4058 73.4537 37.4308C73.3965 37.4558 73.3113 37.4939 73.2645 37.5149C73.2187 37.5369 73.1771 37.5539 73.173 37.5539C73.1584 37.5539 72.9504 37.6759 72.9265 37.698C72.913 37.71 72.8891 37.728 72.8714 37.739C72.8548 37.749 72.834 37.766 72.8257 37.777C72.8184 37.787 72.7997 37.803 72.7841 37.812C72.7685 37.822 72.7289 37.858 72.6957 37.894C72.6624 37.9301 72.6229 37.9731 72.6073 37.9891C72.5376 38.0631 72.392 38.3012 72.3577 38.3963C72.3473 38.4253 72.3244 38.4883 72.3068 38.5354C72.2849 38.5964 72.2704 38.6694 72.2537 38.7955C72.2277 39.0016 72.1841 39.4108 72.1747 39.5449C72.1705 39.5969 72.1539 39.761 72.1373 39.91C72.0977 40.2672 72.0884 40.3623 72.0759 40.5353C72.0697 40.6154 72.053 40.7815 72.0385 40.9045C72.0239 41.0276 72.0135 41.1336 72.0156 41.1406C72.0177 41.1507 72.0302 41.1486 72.0655 41.1336C72.0915 41.1226 72.1518 41.0966 72.2007 41.0756C72.3889 40.9946 72.5314 40.9315 72.6114 40.8945C72.6582 40.8725 72.6998 40.8555 72.704 40.8555C72.7092 40.8555 72.756 40.8355 72.808 40.8115C72.86 40.7875 72.9515 40.7465 73.0118 40.7204C73.0721 40.6944 73.1688 40.6514 73.227 40.6244C73.2853 40.5974 73.3373 40.5754 73.3435 40.5754C73.3497 40.5754 73.3955 40.5554 73.4454 40.5303C73.4953 40.5053 73.54 40.4853 73.5442 40.4853C73.5494 40.4853 73.591 40.4673 73.6388 40.4463C73.6856 40.4253 73.7782 40.3833 73.8437 40.3553C73.9092 40.3262 74.0069 40.2832 74.0589 40.2592C74.112 40.2352 74.1598 40.2152 74.165 40.2152C74.1702 40.2152 74.2045 40.2002 74.2409 40.1812C74.2773 40.1632 74.3179 40.1452 74.3324 40.1412C74.347 40.1372 74.3959 40.1161 74.4416 40.0951C74.4874 40.0731 74.5789 40.0331 74.6444 40.0041C74.7099 39.9761 74.8035 39.9351 74.8524 39.913C74.9012 39.89 74.9574 39.867 74.9771 39.86C74.9969 39.853 75.0375 39.836 75.0655 39.822C75.1144 39.799 75.2298 39.748 75.4815 39.6379C75.5387 39.6129 75.6187 39.5779 75.6583 39.5599C75.6988 39.5419 75.7591 39.5148 75.7934 39.5008C75.8278 39.4868 75.8787 39.4638 75.9068 39.4498C75.9858 39.4108 75.99 39.4128 75.9827 39.4918C75.9785 39.5299 75.9754 39.918 75.9754 40.3563V41.1527L75.9213 41.1757C75.7903 41.2307 75.6312 41.3007 75.5563 41.3367C75.5116 41.3588 75.47 41.3758 75.4648 41.3758C75.4586 41.3758 75.4108 41.3958 75.3588 41.4198C75.3057 41.4438 75.209 41.4868 75.1435 41.5158C74.9491 41.5999 74.8222 41.6559 74.7213 41.7019C74.6693 41.7259 74.6225 41.7459 74.6173 41.7459C74.6132 41.7459 74.5716 41.764 74.5248 41.785C74.479 41.807 74.3875 41.848 74.322 41.876C74.0485 41.9941 74.0111 42.0101 73.9186 42.0521C73.8655 42.0761 73.8198 42.0961 73.8166 42.0961C73.8135 42.0961 73.7719 42.1131 73.7262 42.1351C73.6794 42.1561 73.5868 42.1972 73.5213 42.2262C73.2842 42.3292 73.2343 42.3522 73.1272 42.4043C73.0326 42.4513 72.9338 42.5083 72.9182 42.5263C72.9151 42.5293 72.8995 42.5403 72.8828 42.5503C72.8132 42.5934 72.5823 42.8175 72.5501 42.8745C72.5449 42.8845 72.5376 42.8935 72.5335 42.8965C72.5241 42.9035 72.4503 43.0126 72.4503 43.0186C72.4503 43.0216 72.4336 43.0496 72.4139 43.0816C72.3941 43.1136 72.3702 43.1626 72.3608 43.1907C72.3515 43.2187 72.34 43.2467 72.3348 43.2517C72.3192 43.2717 72.2828 43.3757 72.2672 43.4478C72.2402 43.5768 72.1934 43.956 72.1799 44.1641C72.1737 44.2512 72.1508 44.4863 72.1289 44.6874C72.1061 44.8885 72.0853 45.0996 72.0811 45.1576C72.077 45.2156 72.0603 45.3817 72.0437 45.5278C72.027 45.6739 72.0104 45.837 72.0062 45.891L72 45.988L72.0821 45.952C72.1269 45.932 72.2111 45.896 72.2683 45.871C72.3255 45.846 72.4149 45.8059 72.4669 45.7819C72.5199 45.7579 72.5667 45.7379 72.5719 45.7379C72.5771 45.7379 72.6166 45.7199 72.6603 45.6989C72.704 45.6769 72.7508 45.6569 72.7643 45.6529C72.7872 45.6459 72.8267 45.6289 73.0555 45.5238C73.1106 45.4988 73.1595 45.4778 73.1647 45.4778C73.1688 45.4778 73.2094 45.4598 73.2562 45.4388C73.3019 45.4167 73.3653 45.3897 73.3965 45.3777C73.4277 45.3657 73.4683 45.3477 73.486 45.3367C73.5036 45.3267 73.5369 45.3117 73.5588 45.3037C73.5983 45.2907 73.6991 45.2457 73.8697 45.1676C73.9154 45.1466 73.9643 45.1266 73.9789 45.1226C73.9934 45.1186 74.0454 45.0956 74.0943 45.0716C74.1442 45.0476 74.1868 45.0276 74.191 45.0276C74.1952 45.0276 74.2316 45.0115 74.2732 44.9915C74.3137 44.9715 74.3657 44.9495 74.3875 44.9415C74.425 44.9285 74.452 44.9165 74.6881 44.8084C74.7494 44.7804 74.8035 44.7574 74.8087 44.7574C74.8128 44.7574 74.8586 44.7374 74.9085 44.7124C74.9595 44.6874 75.0063 44.6674 75.0135 44.6674C75.0208 44.6674 75.0562 44.6524 75.0936 44.6334C75.131 44.6154 75.1726 44.5963 75.1862 44.5923C75.2101 44.5853 75.2933 44.5483 75.494 44.4563C75.5397 44.4353 75.5823 44.4173 75.5875 44.4173C75.5917 44.4173 75.6333 44.3992 75.6791 44.3782C75.8267 44.3082 75.9463 44.2572 75.9619 44.2572C75.9744 44.2572 75.9754 44.3732 75.9702 45.0296C75.9671 45.4548 75.9629 46.7364 75.9598 47.876L75.9536 49.95L75.9827 49.938C75.9983 49.932 76.0264 49.916 76.043 49.905C76.0607 49.8929 76.1044 49.8679 76.1418 49.8499C76.1792 49.8319 76.2239 49.8079 76.2406 49.7959C76.2583 49.7829 76.2999 49.7599 76.3342 49.7429C76.3685 49.7259 76.4153 49.7009 76.4371 49.6858C76.459 49.6718 76.4818 49.6598 76.486 49.6598C76.4912 49.6598 76.5276 49.6398 76.5681 49.6148C76.6087 49.5898 76.6451 49.5698 76.6492 49.5698C76.6534 49.5698 76.6898 49.5498 76.7293 49.5248C76.7699 49.4998 76.8073 49.4797 76.8135 49.4797C76.8198 49.4797 76.8447 49.4667 76.8676 49.4497C76.8915 49.4337 76.9331 49.4097 76.9622 49.3967C76.9903 49.3827 77.035 49.3587 77.061 49.3407C77.0881 49.3237 77.113 49.3097 77.1172 49.3097C77.1224 49.3097 77.1598 49.2887 77.2025 49.2636C77.2451 49.2386 77.2898 49.2136 77.3023 49.2096C77.3137 49.2046 77.3532 49.1826 77.3896 49.1606C77.426 49.1376 77.4593 49.1196 77.4645 49.1196C77.4697 49.1196 77.4988 49.1046 77.5279 49.0856C77.5581 49.0665 77.5934 49.0465 77.608 49.0415C77.6226 49.0365 77.659 49.0155 77.6902 48.9955C77.7203 48.9755 77.7484 48.9595 77.7525 48.9595C77.7567 48.9595 77.8097 48.9285 77.8701 48.8905C78.026 48.7924 78.1924 48.6313 78.2974 48.4763C78.3411 48.4122 78.3775 48.3562 78.3775 48.3522C78.3775 48.3492 78.3941 48.3132 78.4139 48.2732C78.4545 48.1911 78.5169 47.972 78.5324 47.8559C78.5397 47.8039 78.546 46.9085 78.5512 45.1966C78.5543 43.7779 78.5605 42.6164 78.5636 42.6164C78.5761 42.6174 78.7435 42.7084 78.833 42.7644C78.8704 42.7875 78.9058 42.8065 78.911 42.8065C78.9151 42.8065 78.9463 42.8235 78.9786 42.8435C79.0368 42.8795 79.069 42.8965 79.2011 42.9655C79.2375 42.9836 79.2853 43.0116 79.3082 43.0266C79.3487 43.0536 79.4423 43.1066 79.5411 43.1566C79.5682 43.1706 79.6118 43.1967 79.6378 43.2137C79.6638 43.2307 79.6971 43.2477 79.7106 43.2517C79.7231 43.2567 79.7491 43.2697 79.7657 43.2817C79.7834 43.2947 79.8281 43.3207 79.8666 43.3407C79.9051 43.3607 79.9539 43.3877 79.9747 43.4018C79.9955 43.4158 80.0174 43.4268 80.0226 43.4268C80.0278 43.4268 80.0631 43.4468 80.1026 43.4718C80.1422 43.4968 80.1775 43.5168 80.1827 43.5168C80.1879 43.5168 80.2243 43.5368 80.2628 43.5618C80.3023 43.5868 80.3377 43.6069 80.3429 43.6069C80.347 43.6069 80.3678 43.6179 80.3886 43.6319C80.4104 43.6459 80.4635 43.6759 80.5072 43.6979C80.5508 43.7209 80.5945 43.7449 80.6028 43.7529C80.6111 43.7599 80.6309 43.7699 80.6455 43.7759C80.66 43.7809 80.7006 43.802 80.7338 43.823C80.7671 43.844 80.8129 43.87 80.8337 43.882C80.9657 43.951 81.0572 44.0021 81.0708 44.0131C81.0791 44.0191 81.1196 44.0421 81.1592 44.0621C81.1997 44.0831 81.2434 44.1081 81.2569 44.1181C81.2704 44.1291 81.286 44.1371 81.2912 44.1371C81.2975 44.1371 81.3307 44.1551 81.3661 44.1771C81.4014 44.1991 81.4493 44.2272 81.4732 44.2392C81.5907 44.3012 81.6708 44.3452 81.7165 44.3752C81.7446 44.3922 81.7706 44.4073 81.7748 44.4073C81.78 44.4073 81.8143 44.4273 81.8527 44.4513C81.8912 44.4763 81.9328 44.4993 81.9443 44.5023C81.9567 44.5063 81.9942 44.5263 82.0274 44.5483C82.0618 44.5693 82.093 44.5873 82.0982 44.5873C82.1034 44.5873 82.1252 44.5983 82.146 44.6124C82.1668 44.6254 82.2105 44.6514 82.2437 44.6684C82.276 44.6864 82.3217 44.7124 82.3446 44.7274C82.3675 44.7424 82.3976 44.7584 82.4101 44.7624C82.4236 44.7664 82.4548 44.7824 82.4777 44.7974C82.5016 44.8124 82.5453 44.8385 82.5744 44.8535C82.6025 44.8695 82.6514 44.8955 82.6815 44.9125C82.7117 44.9285 82.7678 44.9615 82.8053 44.9855C82.8427 45.0085 82.8791 45.0276 82.8853 45.0276C82.8905 45.0276 82.928 45.0476 82.9664 45.0726C83.006 45.0976 83.0413 45.1176 83.0455 45.1176C83.0486 45.1176 83.0891 45.1396 83.1349 45.1676C83.1807 45.1946 83.2223 45.2176 83.2275 45.2176C83.2327 45.2176 83.2514 45.2287 83.269 45.2417C83.2867 45.2547 83.3273 45.2777 83.3585 45.2927C83.3897 45.3077 83.4344 45.3327 83.4573 45.3477C83.4801 45.3627 83.5155 45.3827 83.5353 45.3917C83.555 45.4007 83.5924 45.4207 83.6184 45.4378C83.6444 45.4538 83.6767 45.4728 83.6912 45.4778C83.7058 45.4838 83.7411 45.5048 83.7713 45.5238C83.8004 45.5428 83.8295 45.5578 83.8347 45.5578C83.8399 45.5578 83.8763 45.5778 83.9158 45.6028C83.9554 45.6269 83.9918 45.6479 83.9959 45.6479C84.0001 45.6479 84.0354 45.6679 84.0749 45.6929C84.1145 45.7179 84.1498 45.7379 84.155 45.7379C84.1602 45.7379 84.181 45.7479 84.2008 45.7609C84.2517 45.7919 84.3942 45.872 84.4555 45.904C84.4847 45.919 84.5314 45.945 84.5595 45.963C84.5886 45.98 84.6438 46.013 84.6833 46.0341C84.7228 46.0551 84.78 46.0861 84.8101 46.1031C84.8403 46.1191 84.8964 46.1501 84.936 46.1721C84.9744 46.1931 85.0254 46.2231 85.0483 46.2372C85.0711 46.2522 85.1159 46.2772 85.147 46.2922C85.1782 46.3082 85.2115 46.3262 85.2198 46.3332C85.2282 46.3402 85.2562 46.3572 85.2822 46.3712C85.3082 46.3842 85.3665 46.4142 85.4122 46.4382C85.458 46.4623 85.51 46.4913 85.5266 46.5033C85.5443 46.5153 85.5838 46.5373 85.615 46.5533C85.6462 46.5683 85.6867 46.5913 85.7044 46.6043C85.7221 46.6173 85.7408 46.6283 85.746 46.6283C85.7512 46.6283 85.7928 46.6514 85.8386 46.6784C85.8843 46.7064 85.9249 46.7284 85.929 46.7284C85.9321 46.7284 85.9644 46.7464 85.9987 46.7684C86.033 46.7904 86.0653 46.8084 86.0705 46.8084C86.0757 46.8084 86.1068 46.8254 86.1412 46.8464C86.2098 46.8885 86.3169 46.9495 86.398 46.9905C86.4271 47.0055 86.4698 47.0305 86.4926 47.0455C86.5166 47.0606 86.5592 47.0846 86.5873 47.0986C86.6361 47.1236 86.6871 47.1516 86.8233 47.2296C86.894 47.2707 86.9814 47.3187 87.0178 47.3377C87.0323 47.3447 87.0739 47.3687 87.1093 47.3897C87.1446 47.4117 87.1779 47.4287 87.1821 47.4287C87.1873 47.4287 87.2164 47.4457 87.2497 47.4668C87.2819 47.4868 87.3412 47.5218 87.3828 47.5438C87.4535 47.5818 87.4899 47.6018 87.5918 47.6588C87.6157 47.6729 87.6562 47.6949 87.6802 47.7089C87.7249 47.7329 87.8153 47.7839 88.0067 47.891C88.0587 47.92 88.118 47.953 88.1398 47.964C88.1606 47.975 88.2032 48 88.2344 48.018C88.2656 48.037 88.3082 48.062 88.3301 48.0731C88.3717 48.0951 88.484 48.1571 88.6462 48.2491C88.6982 48.2782 88.7616 48.3132 88.7887 48.3282C88.9145 48.3962 88.9831 48.4352 89.031 48.4652C89.0601 48.4843 89.0881 48.4993 89.0944 48.4993C89.0996 48.4993 89.136 48.5193 89.1755 48.5443C89.214 48.5683 89.2556 48.5913 89.266 48.5943C89.2774 48.5983 89.3148 48.6183 89.3481 48.6403C89.3824 48.6613 89.4136 48.6794 89.4188 48.6794C89.4251 48.6794 89.4521 48.6944 89.4802 48.7134C89.5083 48.7324 89.5571 48.7594 89.5883 48.7744C89.6195 48.7894 89.659 48.8124 89.6757 48.8244C89.6933 48.8364 89.7277 48.8564 89.7537 48.8684C89.7797 48.8815 89.8202 48.9045 89.8441 48.9195C89.867 48.9345 89.8961 48.9505 89.9076 48.9535C89.919 48.9575 89.9606 48.9805 89.9991 49.0045C90.0386 49.0295 90.0739 49.0495 90.0781 49.0495C90.0833 49.0495 90.1114 49.0655 90.1415 49.0846C90.1706 49.1036 90.1998 49.1196 90.205 49.1196C90.2091 49.1196 90.2445 49.1396 90.283 49.1636C90.3204 49.1876 90.363 49.2106 90.3765 49.2146C90.3901 49.2186 90.4254 49.2386 90.4535 49.2576C90.4826 49.2776 90.5273 49.3037 90.5533 49.3167C90.5793 49.3287 90.6438 49.3637 90.6947 49.3937C90.7467 49.4237 90.8164 49.4627 90.8507 49.4797C90.885 49.4968 90.9277 49.5218 90.9443 49.5338C90.962 49.5468 90.9963 49.5668 91.0223 49.5788C91.0712 49.6018 91.2043 49.6758 91.2791 49.7229C91.3041 49.7379 91.327 49.7499 91.3322 49.7499C91.3363 49.7499 91.3655 49.7659 91.3967 49.7859C91.4278 49.8059 91.4684 49.8289 91.485 49.8369C91.5027 49.8439 91.537 49.8639 91.563 49.8799C91.589 49.8969 91.6285 49.919 91.6514 49.93C91.6743 49.941 91.7117 49.962 91.7357 49.975L91.7783 50L91.7845 49.6018C91.7887 49.3837 91.7918 48.8955 91.7918 48.5183C91.7918 47.7869 91.7897 47.7569 91.7388 47.5858C91.7273 47.5458 91.7117 47.4938 91.7045 47.4688C91.6857 47.4077 91.5828 47.2126 91.5433 47.1646C91.5256 47.1436 91.511 47.1216 91.511 47.1156C91.511 47.1046 91.3592 46.9385 91.3176 46.9035C91.2365 46.8354 91.2095 46.8144 91.1637 46.7814C91.1346 46.7614 91.0857 46.7324 91.0545 46.7154C91.0223 46.6984 90.9817 46.6744 90.9641 46.6614C90.9464 46.6484 90.9277 46.6383 90.9225 46.6383C90.9173 46.6383 90.8788 46.6183 90.8372 46.5933C90.7956 46.5683 90.7582 46.5483 90.753 46.5483C90.7488 46.5483 90.7259 46.5353 90.7031 46.5193C90.6791 46.5033 90.6355 46.4773 90.6053 46.4623C90.5741 46.4473 90.5304 46.4232 90.5076 46.4082C90.4847 46.3942 90.4587 46.3792 90.4504 46.3762C90.4421 46.3732 90.3994 46.3502 90.3568 46.3242C90.3142 46.2992 90.2757 46.2782 90.2715 46.2782C90.2674 46.2782 90.232 46.2582 90.1935 46.2331C90.1551 46.2081 90.1187 46.1881 90.1135 46.1881C90.1072 46.1881 90.075 46.1701 90.0407 46.1481C90.0074 46.1261 89.9752 46.1081 89.971 46.1081C89.9658 46.1081 89.9346 46.0911 89.9024 46.0701C89.8691 46.0501 89.8202 46.022 89.7932 46.008C89.7266 45.974 89.6112 45.911 89.5665 45.883C89.5467 45.87 89.5031 45.846 89.4708 45.8289C89.4375 45.8119 89.3939 45.7859 89.3731 45.7729C89.3523 45.7589 89.3304 45.7479 89.3252 45.7479C89.32 45.7479 89.2847 45.7289 89.2462 45.7049C89.2077 45.6819 89.163 45.6549 89.1453 45.6459C88.981 45.5578 88.9342 45.5318 88.9114 45.5148C88.8968 45.5048 88.8698 45.4898 88.8511 45.4828C88.8323 45.4748 88.7928 45.4538 88.7627 45.4358C88.7336 45.4177 88.6951 45.3947 88.6774 45.3857C88.6483 45.3697 88.6264 45.3577 88.5204 45.2977C88.4965 45.2837 88.4424 45.2547 88.4018 45.2327C88.3602 45.2106 88.3041 45.1776 88.276 45.1606C88.2479 45.1426 88.2219 45.1276 88.2188 45.1276C88.2147 45.1276 88.1772 45.1076 88.1356 45.0826C88.0951 45.0576 88.0576 45.0376 88.0535 45.0376C88.0483 45.0376 88.0192 45.0206 87.988 45.0005C87.9557 44.9805 87.9069 44.9535 87.8798 44.9405C87.8517 44.9275 87.8101 44.9035 87.7862 44.8875C87.7634 44.8705 87.7394 44.8575 87.7342 44.8575C87.729 44.8575 87.6916 44.8375 87.6521 44.8124C87.6126 44.7874 87.5762 44.7674 87.572 44.7674C87.5679 44.7674 87.5325 44.7474 87.493 44.7224C87.4545 44.6984 87.4129 44.6754 87.4004 44.6714C87.388 44.6684 87.3703 44.6594 87.362 44.6524C87.3453 44.6384 87.1925 44.5533 87.0885 44.4993C87.0531 44.4803 87.0095 44.4553 86.9907 44.4413C86.9731 44.4283 86.9533 44.4173 86.9491 44.4173C86.9439 44.4173 86.9055 44.3972 86.8639 44.3722C86.8223 44.3472 86.7848 44.3272 86.7817 44.3272C86.7776 44.3272 86.7536 44.3132 86.7276 44.2962C86.7017 44.2802 86.6538 44.2522 86.6205 44.2362C86.5862 44.2192 86.5405 44.1931 86.5176 44.1771C86.4812 44.1511 86.4781 44.1461 86.4947 44.1401C86.5062 44.1371 86.5405 44.1171 86.5727 44.0971C86.6049 44.0771 86.6445 44.0551 86.6611 44.0501C86.6777 44.0441 86.7193 44.0211 86.7526 43.998C86.7869 43.976 86.8192 43.957 86.8254 43.957C86.8316 43.957 86.8535 43.947 86.8732 43.934C86.9346 43.896 87.1571 43.7729 87.311 43.6919C87.3568 43.6679 87.4348 43.6249 87.5159 43.5778C87.5481 43.5598 87.5991 43.5318 87.6271 43.5168C87.6562 43.5018 87.702 43.4758 87.7301 43.4578C87.7592 43.4408 87.7862 43.4268 87.7904 43.4268C87.7956 43.4268 87.8133 43.4178 87.8299 43.4068C87.8476 43.3958 87.8736 43.3787 87.8902 43.3677C87.9058 43.3577 87.9308 43.3457 87.9443 43.3417C87.9589 43.3377 87.9848 43.3237 88.0015 43.3117C88.0192 43.2987 88.0628 43.2737 88.1003 43.2567C88.1377 43.2387 88.1751 43.2177 88.1835 43.2107C88.2001 43.1977 88.3155 43.1336 88.407 43.0866C88.4361 43.0726 88.4871 43.0436 88.5204 43.0226C88.5547 43.0016 88.59 42.9826 88.5984 42.9795C88.6077 42.9755 88.6483 42.9535 88.6888 42.9305C88.7294 42.9065 88.7668 42.8865 88.772 42.8865C88.7772 42.8865 88.8095 42.8685 88.8438 42.8465C88.8781 42.8245 88.9093 42.8065 88.9134 42.8065C88.9186 42.8065 88.955 42.7865 88.9966 42.7614C89.0382 42.7364 89.0757 42.7164 89.0788 42.7164C89.0829 42.7164 89.1204 42.6964 89.162 42.6714C89.2036 42.6464 89.242 42.6264 89.2462 42.6264C89.2504 42.6264 89.2868 42.6064 89.3263 42.5814C89.3658 42.5563 89.4032 42.5363 89.4084 42.5363C89.4136 42.5363 89.4365 42.5243 89.4583 42.5103C89.4979 42.4843 89.6216 42.4153 89.7069 42.3713C89.7297 42.3602 89.7765 42.3332 89.8098 42.3122C89.8431 42.2912 89.8816 42.2712 89.894 42.2662C89.9065 42.2612 89.9429 42.2412 89.9752 42.2222C90.0074 42.2022 90.0459 42.1812 90.0615 42.1762C90.0771 42.1702 90.1031 42.1561 90.1197 42.1451C90.1519 42.1231 90.2642 42.0601 90.3526 42.0161C90.3817 42.0011 90.4275 41.9751 90.4535 41.957C90.4795 41.94 90.5138 41.921 90.5304 41.915C90.546 41.909 90.5835 41.889 90.6126 41.87C90.6427 41.852 90.6781 41.832 90.6916 41.827C90.7062 41.822 90.7467 41.799 90.7831 41.777C90.8195 41.7539 90.8518 41.7359 90.857 41.7359C90.8611 41.7359 90.8986 41.7159 90.9402 41.6909C90.9817 41.6659 91.0192 41.6459 91.0233 41.6459C91.0265 41.6459 91.0618 41.6259 91.1013 41.6009C91.1398 41.5759 91.1772 41.5558 91.1845 41.5558C91.1908 41.5558 91.2199 41.5408 91.248 41.5218C91.276 41.5028 91.327 41.4738 91.3613 41.4568C91.3946 41.4388 91.4393 41.4158 91.459 41.4038C91.4788 41.3928 91.5339 41.3618 91.5807 41.3347C91.6275 41.3077 91.6691 41.2857 91.6722 41.2857C91.6764 41.2857 91.7065 41.2697 91.7388 41.2507L91.7991 41.2147L91.8053 40.7274C91.8095 40.4593 91.8126 39.6999 91.8126 39.0396C91.8126 38.3793 91.8157 37.6749 91.8199 37.4738L91.8272 37.1087L91.928 37.0606C91.9842 37.0346 92.0351 37.0136 92.0424 37.0136C92.0487 37.0136 92.0902 36.9956 92.1339 36.9746C92.1776 36.9526 92.267 36.9116 92.3325 36.8836C92.4948 36.8135 92.6414 36.7495 92.7558 36.6975C92.8088 36.6734 92.8587 36.6534 92.866 36.6534C92.8733 36.6534 92.8878 36.6474 92.8993 36.6394C92.9107 36.6324 92.9554 36.6114 92.998 36.5944C93.0407 36.5764 93.1093 36.5474 93.1488 36.5284C93.1894 36.5104 93.2757 36.4713 93.3412 36.4433C93.4067 36.4143 93.5045 36.3713 93.5575 36.3473C93.6095 36.3233 93.6594 36.3033 93.6667 36.3033C93.6729 36.3033 93.7 36.2913 93.726 36.2773C93.752 36.2632 93.8008 36.2402 93.8351 36.2262C93.9069 36.1972 94.0327 36.1412 94.1679 36.0772C94.2199 36.0531 94.2656 36.0331 94.2698 36.0331C94.274 36.0331 94.302 36.0161 94.3322 35.9951C94.3624 35.9731 94.3988 35.9501 94.4143 35.9421C94.4674 35.9151 94.6296 35.777 94.7055 35.693C94.8116 35.5769 94.8677 35.5029 94.9322 35.3928C95.032 35.2227 95.1121 34.9636 95.1246 34.7775C95.1277 34.7165 95.1475 34.5264 95.1672 34.3533C95.187 34.1812 95.2098 33.9561 95.2182 33.8531C95.2265 33.751 95.2494 33.5179 95.2691 33.3368C95.2889 33.1547 95.3086 32.9616 95.3118 32.9066C95.3159 32.8516 95.3274 32.7315 95.3367 32.6385C95.3492 32.5254 95.3513 32.4714 95.344 32.4714C95.3336 32.4714 95.2327 32.5154 95.0081 32.6175C94.9561 32.6415 94.9093 32.6615 94.9052 32.6615C94.901 32.6615 94.8605 32.6795 94.8137 32.7005C94.7679 32.7225 94.6754 32.7625 94.6098 32.7915C94.5443 32.8196 94.458 32.8576 94.4175 32.8766C94.378 32.8946 94.3187 32.9196 94.2875 32.9316C94.2563 32.9436 94.2209 32.9586 94.2085 32.9666C94.196 32.9736 94.1565 32.9916 94.1201 33.0066C94.0837 33.0217 94.0254 33.0457 93.9911 33.0617C93.9568 33.0767 93.8747 33.1127 93.8091 33.1417C93.7436 33.1707 93.6469 33.2137 93.5949 33.2378C93.5419 33.2618 93.4951 33.2818 93.4899 33.2818C93.4837 33.2818 93.4369 33.3018 93.3849 33.3268C93.3329 33.3518 93.2871 33.3718 93.283 33.3718C93.2788 33.3718 93.2372 33.3898 93.1915 33.4108C93.1447 33.4329 93.0532 33.4739 92.9877 33.5019C92.9221 33.5309 92.8254 33.5739 92.7734 33.5979C92.7214 33.622 92.6736 33.642 92.6674 33.642C92.6611 33.642 92.6195 33.66 92.5748 33.681C92.5301 33.703 92.4396 33.744 92.3741 33.772C92.2213 33.8381 92.0674 33.9061 91.9717 33.9491C91.9301 33.9681 91.8823 33.9871 91.8646 33.9921L91.8334 34.0011V33.2007C91.8334 32.6745 91.8303 32.4014 91.823 32.4014C91.8178 32.4014 91.8126 32.3963 91.8126 32.3913C91.8126 32.3853 91.8199 32.3813 91.8282 32.3813C91.8376 32.3813 91.8802 32.3643 91.9249 32.3423C91.9686 32.3213 92.0164 32.3003 92.031 32.2963C92.0455 32.2923 92.0923 32.2723 92.136 32.2513C92.1786 32.2303 92.2254 32.2103 92.24 32.2063C92.2535 32.2023 92.293 32.1852 92.3273 32.1692C92.3617 32.1522 92.4074 32.1332 92.4292 32.1252C92.45 32.1182 92.502 32.0962 92.5436 32.0772C92.6123 32.0462 92.7121 32.0022 92.9461 31.9011C92.9949 31.8801 93.0864 31.8401 93.1488 31.8121C93.2123 31.784 93.2674 31.761 93.2705 31.761C93.2747 31.761 93.3214 31.741 93.3755 31.716C93.4296 31.691 93.4785 31.671 93.4847 31.671C93.4909 31.671 93.5357 31.651 93.5866 31.626C93.6365 31.601 93.6833 31.5809 93.6906 31.5809C93.6979 31.5809 93.7457 31.5609 93.7956 31.5359C93.8455 31.5109 93.8934 31.4909 93.9027 31.4909C93.9121 31.4909 93.9235 31.4869 93.9298 31.4819C93.935 31.4769 93.9786 31.4569 94.0275 31.4359C94.0764 31.4159 94.1492 31.3839 94.1887 31.3658C94.2293 31.3468 94.2875 31.3208 94.3187 31.3058C94.4622 31.2408 94.6046 31.1427 94.7284 31.0247C94.8241 30.9326 94.8355 30.9176 94.9145 30.8056C94.9967 30.6885 95.0258 30.6395 95.0476 30.5845C95.0601 30.5514 95.0736 30.5204 95.0778 30.5154C95.1298 30.4424 95.1953 30.0322 95.2182 29.635C95.2223 29.569 95.241 29.3709 95.2608 29.1948C95.2806 29.0187 95.3014 28.8116 95.3066 28.7345C95.3159 28.6145 95.3585 28.2033 95.3731 28.1002C95.3773 28.0722 95.3752 28.0682 95.3606 28.0722C95.3315 28.0802 95.2338 28.1202 95.1537 28.1553C95.1131 28.1733 95.0591 28.1943 95.0341 28.2023C95.0092 28.2113 94.954 28.2333 94.9114 28.2523C94.8688 28.2713 94.822 28.2903 94.8074 28.2943C94.7929 28.2983 94.7429 28.3183 94.6951 28.3404C94.6473 28.3614 94.6046 28.3794 94.5984 28.3794C94.5932 28.3794 94.5371 28.4014 94.4736 28.4294C94.4102 28.4564 94.354 28.4794 94.3499 28.4794C94.3447 28.4794 94.2968 28.4994 94.2438 28.5244C94.1908 28.5495 94.1409 28.5695 94.1346 28.5695C94.1273 28.5695 94.0878 28.5845 94.0462 28.6035C93.9641 28.6405 93.8445 28.6905 93.7624 28.7215C93.7343 28.7325 93.6875 28.7516 93.6584 28.7646C93.6303 28.7766 93.5783 28.7976 93.544 28.8096C93.5097 28.8226 93.4494 28.8476 93.4088 28.8656C93.3693 28.8836 93.3007 28.9126 93.258 28.9306C93.126 28.9837 93.0272 29.0257 92.9617 29.0547C92.9273 29.0697 92.8826 29.0877 92.8629 29.0947C92.8431 29.1017 92.7963 29.1207 92.7589 29.1377C92.6788 29.1738 92.5436 29.2308 92.4417 29.2698C92.4022 29.2858 92.3409 29.3128 92.3076 29.3288C92.2733 29.3458 92.241 29.3599 92.2348 29.3599C92.2285 29.3599 92.1807 29.3799 92.1298 29.4039C92.0778 29.4279 92.0247 29.4509 92.0102 29.4549C91.9956 29.4589 91.954 29.4769 91.9166 29.4949C91.8792 29.5119 91.8303 29.5329 91.8074 29.5399C91.7845 29.5469 91.7294 29.57 91.6857 29.591C91.641 29.613 91.5994 29.63 91.5932 29.63C91.5869 29.63 91.5454 29.647 91.5017 29.669C91.458 29.69 91.4112 29.711 91.3967 29.715C91.3821 29.719 91.3384 29.738 91.2979 29.757C91.2584 29.7761 91.1949 29.8031 91.1575 29.8171C91.12 29.8311 91.0764 29.8501 91.0587 29.8601C91.0421 29.8701 91.0161 29.8811 91.0015 29.8851C90.9869 29.8891 90.9277 29.9141 90.8694 29.9411C90.8102 29.9682 90.7582 29.9902 90.753 29.9902C90.7436 29.9902 90.6594 30.0282 90.4348 30.1312C90.388 30.1532 90.3464 30.1703 90.3412 30.1703C90.336 30.1703 90.3027 30.1833 90.2684 30.2003C90.2341 30.2163 90.1738 30.2423 90.1332 30.2583C90.0937 30.2753 90.0063 30.3113 89.9408 30.3403C89.8753 30.3684 89.7932 30.4034 89.7589 30.4174C89.7245 30.4304 89.658 30.4594 89.6112 30.4814C89.5654 30.5024 89.5228 30.5204 89.5176 30.5204C89.5135 30.5204 89.4719 30.5384 89.4261 30.5604C89.3804 30.5825 89.3388 30.6005 89.3346 30.6005C89.3304 30.6005 89.2774 30.6225 89.2181 30.6505C89.1589 30.6775 89.1048 30.7005 89.0996 30.7005C89.0933 30.7005 89.0486 30.7195 89.0008 30.7425L88.9134 30.7836L88.8531 30.7445C88.8188 30.7225 88.7845 30.7015 88.7741 30.6985C88.7647 30.6945 88.7263 30.6735 88.6878 30.6515C88.6493 30.6285 88.616 30.6105 88.6129 30.6105C88.6098 30.6105 88.5807 30.5935 88.5495 30.5735C88.5173 30.5534 88.4684 30.5264 88.4413 30.5134C88.4133 30.5004 88.3717 30.4764 88.3478 30.4604C88.3249 30.4434 88.301 30.4304 88.2958 30.4304C88.2906 30.4304 88.2573 30.4124 88.2209 30.3904C88.1845 30.3684 88.1512 30.3503 88.1471 30.3503C88.1429 30.3503 88.1076 30.3303 88.0701 30.3063C88.0327 30.2833 87.9911 30.2603 87.9786 30.2563C87.9661 30.2523 87.9381 30.2373 87.9162 30.2233C87.8736 30.1953 87.7342 30.1162 87.6427 30.0682C87.6115 30.0512 87.571 30.0272 87.5523 30.0142C87.5346 30.0012 87.5148 29.9902 87.5107 29.9902C87.5055 29.9902 87.467 29.9702 87.4254 29.9451C87.3838 29.9201 87.3464 29.9001 87.3422 29.9001C87.3391 29.9001 87.31 29.8841 87.2788 29.8641C87.2476 29.8441 87.1956 29.8151 87.1644 29.8001C87.1332 29.7841 87.0916 29.7601 87.0718 29.746C87.0521 29.732 87.0302 29.72 87.025 29.72C87.0188 29.72 86.9814 29.7 86.9429 29.675C86.9034 29.65 86.868 29.63 86.8628 29.63C86.8587 29.63 86.8379 29.619 86.8171 29.605C86.7963 29.591 86.7474 29.564 86.7089 29.5439C86.6705 29.5239 86.6268 29.4989 86.6122 29.4889C86.5966 29.4789 86.5727 29.4659 86.5571 29.4599C86.5415 29.4549 86.501 29.4319 86.4666 29.4099C86.4323 29.3879 86.4001 29.3699 86.3959 29.3699C86.3907 29.3699 86.3699 29.3589 86.3491 29.3448C86.3283 29.3308 86.2795 29.3038 86.241 29.2838C86.2025 29.2638 86.1599 29.2398 86.1453 29.2298C86.1224 29.2158 86.0434 29.1708 85.9321 29.1117C85.9155 29.1027 85.875 29.0797 85.8438 29.0607C85.8126 29.0417 85.7658 29.0157 85.7398 29.0027C85.7138 28.9897 85.6514 28.9547 85.5994 28.9246C85.5484 28.8946 85.4798 28.8576 85.4486 28.8406C85.4174 28.8246 85.3665 28.7956 85.3363 28.7766C85.3072 28.7566 85.2718 28.7375 85.2594 28.7335C85.2365 28.7265 85.223 28.7195 85.1502 28.6715C85.1314 28.6595 85.1127 28.6495 85.1075 28.6495C85.1023 28.6495 85.0701 28.6315 85.0368 28.6095C85.0025 28.5875 84.9703 28.5695 84.9651 28.5695C84.9588 28.5695 84.9287 28.5535 84.8975 28.5334C84.8663 28.5134 84.8101 28.4814 84.7727 28.4614C84.7353 28.4424 84.6926 28.4184 84.677 28.4084C84.6625 28.3974 84.6448 28.3894 84.6396 28.3894C84.6344 28.3894 84.6063 28.3744 84.5782 28.3554C84.5502 28.3364 84.5023 28.3093 84.4722 28.2943C84.442 28.2803 84.3983 28.2543 84.3744 28.2383C84.3515 28.2223 84.3287 28.2093 84.3245 28.2093C84.3193 28.2093 84.2819 28.1893 84.2403 28.1653C84.1987 28.1413 84.1519 28.1152 84.1363 28.1082C84.1217 28.1002 84.0729 28.0732 84.0292 28.0462C83.9512 27.9992 83.9262 27.9912 83.9158 28.0082ZM84.0344 30.9296C84.0604 30.9466 84.0853 30.9606 84.0895 30.9606C84.0937 30.9606 84.129 30.9807 84.1685 31.0057C84.208 31.0307 84.2434 31.0507 84.2476 31.0507C84.2559 31.0507 84.4025 31.1327 84.4919 31.1858C84.5294 31.2088 84.6292 31.2638 84.7269 31.3158C84.832 31.3718 84.9235 31.4239 84.9391 31.4359C84.9474 31.4429 84.9921 31.4669 85.0379 31.4909C85.0836 31.5139 85.1356 31.5439 85.1533 31.5569C85.171 31.5699 85.1907 31.5809 85.198 31.5809C85.2042 31.5809 85.2417 31.6 85.2802 31.624C85.3186 31.647 85.3644 31.674 85.381 31.683C85.3987 31.692 85.4517 31.721 85.5006 31.747C85.5495 31.773 85.6035 31.8041 85.6202 31.8161C85.6379 31.8281 85.6763 31.8501 85.7075 31.8651C85.7387 31.8811 85.7762 31.9011 85.7907 31.9101C85.8396 31.9421 85.9987 32.0312 86.006 32.0312C86.0101 32.0312 86.0372 32.0472 86.0673 32.0662C86.0975 32.0842 86.1464 32.1132 86.1776 32.1292C86.2088 32.1442 86.2763 32.1812 86.3273 32.2113C86.3793 32.2403 86.4396 32.2743 86.4625 32.2863C86.4854 32.2983 86.5249 32.3203 86.5498 32.3353C86.5748 32.3513 86.6195 32.3763 86.6486 32.3913C86.7006 32.4174 86.7807 32.4634 86.8732 32.5174C86.8992 32.5334 86.945 32.5584 86.9762 32.5734C87.0074 32.5894 87.0479 32.6135 87.0666 32.6265C87.0854 32.6405 87.1041 32.6515 87.1093 32.6515C87.1145 32.6515 87.1519 32.6715 87.1935 32.6965C87.2351 32.7215 87.2725 32.7415 87.2777 32.7415C87.2829 32.7415 87.3121 32.7575 87.3422 32.7775C87.3734 32.7975 87.4244 32.8266 87.4556 32.8416C87.4868 32.8576 87.5283 32.8816 87.5481 32.8956C87.5679 32.9096 87.5897 32.9216 87.5949 32.9216C87.6011 32.9216 87.6375 32.9416 87.676 32.9656C87.7145 32.9906 87.7561 33.0137 87.7686 33.0167C87.781 33.0207 87.8101 33.0367 87.8341 33.0517C87.8757 33.0787 87.9692 33.1307 88.068 33.1817C88.0951 33.1957 88.1387 33.2218 88.1647 33.2388C88.1907 33.2558 88.224 33.2728 88.2375 33.2768C88.25 33.2818 88.276 33.2948 88.2926 33.3068C88.3103 33.3198 88.3592 33.3488 88.4018 33.3718C88.4445 33.3958 88.5162 33.4359 88.5609 33.4609C88.6046 33.4859 88.6639 33.5179 88.6909 33.5319C88.718 33.5459 88.7658 33.5719 88.797 33.5909C88.8282 33.6099 88.8719 33.635 88.8927 33.646C88.9634 33.684 89.0715 33.744 89.1245 33.776C89.1537 33.793 89.1911 33.814 89.2077 33.822L89.2389 33.8381L89.2358 36.6534C89.2348 38.2022 89.2306 39.5379 89.2275 39.6209L89.2213 39.772L89.1838 39.789C89.162 39.799 89.1287 39.817 89.1089 39.829C89.0705 39.853 88.9613 39.915 88.8895 39.9521C88.8656 39.9641 88.8147 39.9921 88.7762 40.0141C88.7367 40.0371 88.7024 40.0551 88.6992 40.0551C88.6961 40.0551 88.6639 40.0731 88.6264 40.0961C88.5589 40.1362 88.5339 40.1502 88.4102 40.2142C88.3738 40.2322 88.3207 40.2632 88.2916 40.2812C88.2625 40.3002 88.2344 40.3152 88.2292 40.3152C88.224 40.3152 88.2022 40.3262 88.1814 40.3403C88.1606 40.3543 88.1231 40.3753 88.0982 40.3883C88.0493 40.4133 87.9287 40.4803 87.8455 40.5283C87.8174 40.5444 87.7654 40.5724 87.7311 40.5904C87.6968 40.6074 87.65 40.6344 87.6282 40.6484C87.6063 40.6634 87.5835 40.6754 87.5783 40.6754C87.572 40.6754 87.5554 40.6834 87.5408 40.6944C87.5252 40.7044 87.4805 40.7294 87.44 40.7505C87.4004 40.7705 87.3599 40.7935 87.3516 40.8005C87.3432 40.8075 87.3058 40.8275 87.2684 40.8455C87.2309 40.8635 87.1935 40.8835 87.1852 40.8915C87.1758 40.8985 87.1342 40.9225 87.0916 40.9435C87.0479 40.9656 86.9949 40.9946 86.9731 41.0096C86.9512 41.0236 86.9283 41.0356 86.9231 41.0356C86.9169 41.0356 86.9003 41.0436 86.8857 41.0546C86.8701 41.0646 86.8316 41.0866 86.8004 41.1036C86.7692 41.1196 86.7162 41.1486 86.684 41.1667C86.6049 41.2127 86.5322 41.2527 86.4406 41.3007C86.4001 41.3227 86.3595 41.3457 86.3512 41.3527C86.3439 41.3588 86.3159 41.3738 86.2909 41.3858C86.2649 41.3968 86.2233 41.4188 86.1984 41.4338C86.1391 41.4698 86.0705 41.5068 85.9945 41.5458C85.9602 41.5639 85.9093 41.5929 85.8802 41.6119C85.8521 41.6299 85.8167 41.6489 85.8022 41.6539C85.7876 41.6589 85.7512 41.6799 85.7211 41.6989C85.6919 41.7189 85.6566 41.7379 85.6441 41.7419C85.6306 41.7459 85.6087 41.7559 85.5942 41.766C85.5162 41.817 85.4829 41.836 85.4725 41.836C85.4673 41.836 85.4455 41.847 85.4257 41.859C85.406 41.872 85.3592 41.899 85.3217 41.919C85.2843 41.939 85.2354 41.9671 85.2146 41.9811C85.1928 41.9951 85.1699 42.0061 85.1626 42.0061C85.1554 42.0061 85.1179 42.0261 85.0784 42.0511C85.0399 42.0761 85.0035 42.0961 84.9983 42.0961C84.9931 42.0961 84.9599 42.1141 84.9245 42.1361C84.8621 42.1752 84.8403 42.1872 84.7082 42.2552C84.6718 42.2732 84.6198 42.3032 84.5907 42.3222C84.5626 42.3402 84.5273 42.3592 84.5127 42.3642C84.4982 42.3692 84.4618 42.3903 84.4316 42.4093C84.4025 42.4293 84.3671 42.4483 84.3536 42.4523C84.3412 42.4553 84.3027 42.4763 84.2684 42.4973C84.234 42.5183 84.1862 42.5463 84.1623 42.5583C84.1384 42.5713 84.0937 42.5944 84.0635 42.6104C84.0333 42.6254 83.9824 42.6564 83.9502 42.6774L83.8909 42.7154L83.8275 42.6754C83.7931 42.6544 83.763 42.6364 83.7599 42.6364C83.7547 42.6364 83.6132 42.5563 83.5197 42.4993C83.4853 42.4783 83.4458 42.4573 83.4313 42.4513C83.399 42.4393 83.2711 42.3672 83.1879 42.3142C83.1536 42.2932 83.1224 42.2762 83.1162 42.2762C83.111 42.2762 83.0746 42.2562 83.0361 42.2312C82.9976 42.2062 82.9612 42.1862 82.9571 42.1862C82.9519 42.1862 82.9103 42.1631 82.8645 42.1361C82.8188 42.1081 82.7772 42.0861 82.772 42.0861C82.7668 42.0861 82.747 42.0751 82.7294 42.0621C82.7106 42.0481 82.668 42.0241 82.6347 42.0071C82.6015 41.9911 82.5578 41.9661 82.538 41.952C82.5183 41.937 82.4964 41.926 82.4912 41.926C82.485 41.926 82.4486 41.906 82.4101 41.882C82.3716 41.857 82.3311 41.835 82.3196 41.831C82.3082 41.828 82.2677 41.805 82.2292 41.781C82.1897 41.7559 82.1533 41.7359 82.1481 41.7359C82.1418 41.7359 82.1138 41.7209 82.0846 41.7019C82.0337 41.6689 81.9287 41.6099 81.8517 41.5709C81.8309 41.5599 81.7872 41.5358 81.756 41.5168C81.7259 41.4978 81.6812 41.4728 81.6583 41.4608C81.5959 41.4278 81.467 41.3558 81.415 41.3237C81.389 41.3087 81.365 41.2957 81.3598 41.2957C81.3547 41.2957 81.3214 41.2767 81.286 41.2547C81.2507 41.2317 81.2122 41.2097 81.1997 41.2057C81.1872 41.2007 81.1498 41.1807 81.1165 41.1597C81.0531 41.1196 81.0229 41.1036 80.9127 41.0466C80.8763 41.0286 80.8243 40.9986 80.7952 40.9816C80.7671 40.9646 80.7297 40.9425 80.712 40.9335C80.6829 40.9175 80.6611 40.9055 80.555 40.8455C80.5311 40.8315 80.477 40.8025 80.4364 40.7805C80.3949 40.7585 80.3387 40.7254 80.3106 40.7074C80.2825 40.6904 80.2576 40.6754 80.2545 40.6754C80.2514 40.6754 80.2139 40.6554 80.1723 40.6304C80.1297 40.6054 80.0912 40.5854 80.0881 40.5854C80.0839 40.5854 80.0517 40.5674 80.0163 40.5454C79.981 40.5233 79.9332 40.4953 79.9092 40.4833C79.8853 40.4703 79.8177 40.4333 79.7595 40.4003C79.7002 40.3673 79.6316 40.3282 79.6056 40.3142C79.5796 40.3002 79.537 40.2762 79.511 40.2592C79.485 40.2432 79.4527 40.2252 79.4382 40.2202C79.4236 40.2142 79.3914 40.1972 79.3654 40.1822C79.2604 40.1201 79.1907 40.0811 79.1366 40.0521C79.1054 40.0361 79.0597 40.0091 79.0357 39.9941C79.0118 39.9781 78.989 39.9651 78.9838 39.9651C78.9786 39.9651 78.9401 39.9451 78.8985 39.92C78.8569 39.895 78.8195 39.875 78.8153 39.875C78.8122 39.875 78.7903 39.863 78.7675 39.847C78.7446 39.832 78.6905 39.802 78.6479 39.779L78.5699 39.739V39.0586C78.5699 38.6854 78.5751 37.3538 78.5813 36.1002C78.5917 33.8721 78.5928 33.821 78.6125 33.807C78.6229 33.799 78.6593 33.778 78.6926 33.76C78.7259 33.742 78.7768 33.713 78.807 33.695C78.8371 33.678 78.885 33.652 78.913 33.638C78.9422 33.624 78.991 33.5969 79.0222 33.5769C79.0534 33.5579 79.0836 33.5419 79.0888 33.5419C79.094 33.5419 79.1065 33.5359 79.1148 33.5279C79.1241 33.5209 79.1688 33.4959 79.2146 33.4719C79.2604 33.4489 79.3051 33.4239 79.3134 33.4168C79.3217 33.4098 79.3591 33.3888 79.3966 33.3708C79.434 33.3528 79.4787 33.3288 79.4954 33.3168C79.513 33.3048 79.5567 33.2798 79.5942 33.2618C79.6316 33.2438 79.669 33.2238 79.6773 33.2168C79.6857 33.2097 79.7096 33.1957 79.7304 33.1857C79.7512 33.1747 79.7876 33.1557 79.8125 33.1417C79.9124 33.0847 79.9487 33.0647 80.0215 33.0277C80.0642 33.0066 80.112 32.9796 80.1297 32.9676C80.1463 32.9566 80.191 32.9316 80.2285 32.9136C80.2659 32.8946 80.3033 32.8736 80.3117 32.8666C80.321 32.8586 80.3439 32.8456 80.3637 32.8366C80.3834 32.8276 80.426 32.8055 80.4572 32.7865C80.4884 32.7675 80.5311 32.7455 80.5508 32.7365C80.5706 32.7275 80.5935 32.7145 80.6028 32.7075C80.6111 32.6995 80.6444 32.6815 80.6756 32.6655C80.7068 32.6505 80.7474 32.6285 80.764 32.6165C80.7817 32.6045 80.8243 32.5804 80.8607 32.5634C80.8971 32.5454 80.9397 32.5224 80.9564 32.5114C80.973 32.5004 81.0021 32.4844 81.0209 32.4754C81.0396 32.4674 81.076 32.4474 81.102 32.4314C81.128 32.4144 81.1654 32.3943 81.1852 32.3853C81.2049 32.3763 81.2288 32.3633 81.2371 32.3563C81.2455 32.3493 81.2829 32.3293 81.3203 32.3113C81.3578 32.2933 81.4025 32.2683 81.4191 32.2563C81.4368 32.2443 81.4846 32.2163 81.5262 32.1952C81.6417 32.1362 81.6728 32.1192 81.7467 32.0762C81.8174 32.0352 81.8475 32.0182 81.9567 31.9621C81.9931 31.9441 82.0462 31.9141 82.0742 31.8951C82.1034 31.8771 82.1377 31.8581 82.1522 31.8531C82.1668 31.8481 82.2032 31.8271 82.2333 31.8081C82.2625 31.788 82.2978 31.769 82.3103 31.765C82.3238 31.761 82.3456 31.751 82.3602 31.741C82.4372 31.691 82.4715 31.671 82.4808 31.671C82.486 31.671 82.5068 31.66 82.5266 31.648C82.5463 31.635 82.5942 31.608 82.6326 31.5879C82.6701 31.5679 82.7179 31.5409 82.7377 31.5289C82.7574 31.5159 82.8063 31.4889 82.8458 31.4679C82.9612 31.4059 82.9758 31.3979 83.0528 31.3538C83.0943 31.3298 83.1318 31.3108 83.138 31.3108C83.1432 31.3108 83.1588 31.3028 83.1723 31.2918C83.1859 31.2818 83.2327 31.2558 83.2753 31.2338C83.3179 31.2118 83.372 31.1817 83.3938 31.1677C83.4157 31.1527 83.4385 31.1407 83.4437 31.1407C83.4489 31.1407 83.4843 31.1207 83.5238 31.0957C83.5633 31.0707 83.5987 31.0507 83.6028 31.0507C83.607 31.0507 83.6455 31.0307 83.6881 31.0057C83.7297 30.9807 83.7682 30.9606 83.7723 30.9606C83.7765 30.9606 83.7963 30.9496 83.816 30.9366C83.8358 30.9236 83.8711 30.9036 83.893 30.8926C83.9387 30.8686 83.9429 30.8706 84.0344 30.9296Z" fill="white"/>
</svg>
