<svg width="132" height="93" viewBox="0 0 132 93" fill="none" xmlns="http://www.w3.org/2000/svg">
<path d="M0 0H121C127.075 0 132 4.92487 132 11V92.5L128.23 85.8525C119.626 70.6822 100.819 64.6557 85 72L78.9954 74.552C70.5021 78.1616 60.6755 76.3721 54 70L51.3228 66.5354C47.5944 61.7104 45.9346 55.6024 46.7082 49.554L46.9638 47.5559C49.2994 29.2957 38.2105 11.9876 20.6458 6.47711L0 0Z" fill="url(#paint0_linear_1360_2615)"/>
<path d="M75.5656 58.9547L74.7545 57.5256C73.3675 55.0816 71.0162 53.334 68.2761 52.7105L66.9098 52.3996C66.3946 52.2922 65.9824 52.0149 65.6733 51.5679C65.3642 51.1209 65.244 50.628 65.3126 50.0892L65.4922 48.1661C65.74 45.5112 64.9172 42.8672 63.2066 40.8216L62.0152 39.397C61.6717 39.003 61.5 38.5373 61.5 38C61.5 37.4627 61.6717 36.997 62.0152 36.603L63.2066 35.1784C64.9172 33.1328 65.74 30.4888 65.4922 27.8339L65.3126 25.9108C65.244 25.3735 65.3642 24.8806 65.6733 24.4321C65.9824 23.9836 66.3946 23.7064 66.9098 23.6004L68.2761 23.2895C71.0162 22.666 73.3675 20.9184 74.7545 18.4744L75.5656 17.0453C75.8404 16.5796 76.2182 16.2659 76.6991 16.104C77.1799 15.942 77.6608 15.9693 78.1417 16.1856L79.4634 16.7688C82.0349 17.9033 84.9651 17.9033 87.5366 16.7688L88.8583 16.1856C89.3392 15.9707 89.8201 15.9435 90.3009 16.104C90.7818 16.2644 91.1596 16.5782 91.4344 17.0453L92.2455 18.4744C93.6325 20.9184 95.9838 22.666 98.7239 23.2895L100.09 23.6004C100.605 23.7078 101.018 23.9858 101.327 24.4343C101.636 24.8827 101.756 25.3749 101.687 25.9108L101.508 27.8339C101.26 30.4888 102.083 33.1328 103.793 35.1784L104.985 36.603C105.328 36.997 105.5 37.4627 105.5 38C105.5 38.5373 105.328 39.003 104.985 39.397L103.793 40.8216C102.083 42.8672 101.26 45.5112 101.508 48.1661L101.687 50.0892C101.756 50.6265 101.636 51.1194 101.327 51.5679C101.018 52.0164 100.605 52.2936 100.09 52.3996L98.7239 52.7105C95.9838 53.334 93.6325 55.0816 92.2455 57.5256L91.4344 58.9547C91.1596 59.4204 90.7818 59.7341 90.3009 59.896C89.8201 60.058 89.3392 60.0307 88.8583 59.8144L87.5366 59.2312C84.9651 58.0967 82.0349 58.0967 79.4634 59.2312L78.1417 59.8144C77.6608 60.0293 77.1799 60.0565 76.6991 59.896C76.2182 59.7356 75.8404 59.4218 75.5656 58.9547Z" fill="#1E3167"/>
<mask id="path-3-inside-1_1360_2615" fill="white">
<path d="M84.4158 27.0082C84.4127 27.0132 84.3982 27.0202 84.3846 27.0232C84.3701 27.0262 84.3316 27.0472 84.2983 27.0682C84.264 27.0902 84.2203 27.1152 84.2006 27.1232C84.1808 27.1323 84.1184 27.1663 84.0612 27.1993C84.0041 27.2313 83.9344 27.2703 83.9053 27.2853C83.8772 27.3003 83.8304 27.3263 83.8013 27.3444C83.7732 27.3624 83.7389 27.3804 83.7264 27.3834C83.7139 27.3874 83.6723 27.4104 83.6339 27.4344C83.5943 27.4594 83.559 27.4794 83.5538 27.4794C83.5486 27.4794 83.5153 27.4974 83.48 27.5194C83.4446 27.5415 83.3957 27.5695 83.3718 27.5815C83.2502 27.6445 83.1316 27.7105 83.1264 27.7185C83.1233 27.7235 83.1098 27.7295 83.0963 27.7335C83.0827 27.7365 83.0401 27.7596 83.0006 27.7846C82.9611 27.8096 82.9236 27.8296 82.9164 27.8296C82.9101 27.8296 82.881 27.8446 82.8529 27.8636C82.8248 27.8826 82.7739 27.9116 82.7396 27.9286C82.6709 27.9647 82.5316 28.0427 82.4755 28.0767C82.4557 28.0897 82.4349 28.0997 82.4297 28.0997C82.4255 28.0997 82.3871 28.1197 82.3465 28.1447C82.3049 28.1698 82.2664 28.1898 82.2602 28.1898C82.254 28.1898 82.2384 28.1978 82.2248 28.2088C82.2113 28.2188 82.1625 28.2478 82.1167 28.2718C82.0709 28.2968 81.9919 28.3408 81.9399 28.3699C81.889 28.3989 81.8266 28.4329 81.8037 28.4449C81.7798 28.4569 81.733 28.4829 81.6987 28.5029C81.6633 28.5239 81.6311 28.5399 81.6259 28.5399C81.6196 28.5399 81.604 28.5479 81.5905 28.559C81.577 28.569 81.5281 28.598 81.4824 28.622C81.4366 28.647 81.3576 28.691 81.3056 28.72C81.2546 28.75 81.1891 28.7851 81.16 28.7991C81.1319 28.8141 81.0893 28.8371 81.0664 28.8511C81.0436 28.8661 81.0061 28.8861 80.9832 28.8971C80.9604 28.9081 80.9188 28.9301 80.8897 28.9471C80.7326 29.0382 80.6578 29.0802 80.6515 29.0802C80.6484 29.0802 80.612 29.1002 80.5704 29.1252C80.5288 29.1502 80.4914 29.1703 80.4862 29.1703C80.482 29.1703 80.4654 29.1783 80.4498 29.1883C80.3687 29.2413 80.3364 29.2603 80.3229 29.2603C80.3156 29.2603 80.2948 29.2703 80.2772 29.2833C80.2595 29.2963 80.2127 29.3243 80.1721 29.3453C80.1326 29.3663 80.0879 29.3904 80.0734 29.4004C80.0588 29.4104 80.037 29.4204 80.0245 29.4244C80.012 29.4284 79.9704 29.4514 79.9319 29.4754C79.8924 29.5004 79.8571 29.5204 79.8519 29.5204C79.8456 29.5204 79.8155 29.5374 79.7843 29.5574C79.752 29.5775 79.7042 29.6045 79.6782 29.6175C79.6522 29.6295 79.5867 29.6675 79.5326 29.7005C79.4786 29.7335 79.4172 29.7685 79.3974 29.7786C79.3465 29.8026 79.1219 29.9256 78.994 29.9997C78.9617 30.0177 78.9045 30.0497 78.8671 30.0687C78.8307 30.0887 78.7839 30.1147 78.7642 30.1277C78.7454 30.1407 78.7246 30.1507 78.7194 30.1507C78.7111 30.1507 78.6997 30.1567 78.6227 30.2078C78.6051 30.2188 78.5791 30.2318 78.5655 30.2358C78.551 30.2398 78.526 30.2538 78.5084 30.2658C78.4917 30.2788 78.447 30.3028 78.4096 30.3208C78.3721 30.3388 78.3274 30.3638 78.3097 30.3768C78.2921 30.3899 78.2744 30.4009 78.2692 30.4009C78.265 30.4009 78.2224 30.4229 78.1746 30.4509C78.1267 30.4779 78.0841 30.5009 78.0789 30.5009C78.0737 30.5009 78.0581 30.5089 78.0446 30.5199C78.0311 30.5299 77.9874 30.5549 77.9468 30.5759C77.9073 30.596 77.8668 30.619 77.8584 30.626C77.8501 30.633 77.8137 30.653 77.7784 30.671C77.742 30.688 77.6889 30.718 77.6598 30.737C77.6307 30.755 77.6026 30.771 77.5974 30.771C77.5912 30.771 77.56 30.787 77.5278 30.8081C77.4955 30.8281 77.455 30.8501 77.4373 30.8581C77.4207 30.8651 77.3759 30.8891 77.3395 30.9111C77.3042 30.9331 77.2709 30.9511 77.2668 30.9511C77.2626 30.9511 77.2272 30.9711 77.1877 30.9962C77.1472 31.0212 77.1108 31.0412 77.1045 31.0412C77.0993 31.0412 77.0733 31.0552 77.0473 31.0722C77.0047 31.1002 76.9423 31.1342 76.8103 31.2013C76.7832 31.2153 76.7343 31.2433 76.7011 31.2633C76.6688 31.2843 76.6366 31.3013 76.6314 31.3013C76.6252 31.3013 76.5981 31.3163 76.5711 31.3333L76.5212 31.3663L76.5139 32.0467C76.5097 32.4209 76.5066 33.2813 76.5066 33.9586C76.5066 34.6359 76.5035 35.2182 76.5004 35.2522L76.4931 35.3143L76.3933 35.3593C76.1385 35.4764 76.1042 35.4914 76.0803 35.4984C76.0657 35.5024 76.0356 35.5164 76.0127 35.5294C75.9898 35.5414 75.9482 35.5604 75.9191 35.5714C75.891 35.5824 75.8297 35.6074 75.7839 35.6284C75.7381 35.6484 75.6539 35.6855 75.5967 35.7105C75.5395 35.7345 75.4501 35.7755 75.3981 35.7995C75.3451 35.8235 75.2972 35.8435 75.291 35.8435C75.2848 35.8435 75.2442 35.8615 75.2016 35.8836C75.1589 35.9056 75.1194 35.9236 75.1132 35.9236C75.108 35.9236 75.0529 35.9466 74.9915 35.9746C74.9291 36.0026 74.8324 36.0456 74.7752 36.0706C74.718 36.0957 74.6286 36.1357 74.5766 36.1597C74.5246 36.1837 74.4768 36.2037 74.4705 36.2037C74.4643 36.2037 74.4248 36.2207 74.3822 36.2427C74.3406 36.2637 74.2948 36.2847 74.2813 36.2888C74.2667 36.2928 74.2106 36.3168 74.1565 36.3408C74.1024 36.3658 74.0109 36.4058 73.9537 36.4308C73.8965 36.4558 73.8113 36.4939 73.7645 36.5149C73.7187 36.5369 73.6771 36.5539 73.673 36.5539C73.6584 36.5539 73.4504 36.6759 73.4265 36.698C73.413 36.71 73.3891 36.728 73.3714 36.739C73.3548 36.749 73.334 36.766 73.3257 36.777C73.3184 36.787 73.2997 36.803 73.2841 36.812C73.2685 36.822 73.2289 36.858 73.1957 36.894C73.1624 36.9301 73.1229 36.9731 73.1073 36.9891C73.0376 37.0631 72.892 37.3012 72.8577 37.3963C72.8473 37.4253 72.8244 37.4883 72.8068 37.5354C72.7849 37.5964 72.7704 37.6694 72.7537 37.7955C72.7277 38.0016 72.6841 38.4108 72.6747 38.5449C72.6705 38.5969 72.6539 38.761 72.6373 38.91C72.5977 39.2672 72.5884 39.3623 72.5759 39.5353C72.5697 39.6154 72.553 39.7815 72.5385 39.9045C72.5239 40.0276 72.5135 40.1336 72.5156 40.1406C72.5177 40.1507 72.5302 40.1486 72.5655 40.1336C72.5915 40.1226 72.6518 40.0966 72.7007 40.0756C72.8889 39.9946 73.0314 39.9315 73.1114 39.8945C73.1582 39.8725 73.1998 39.8555 73.204 39.8555C73.2092 39.8555 73.256 39.8355 73.308 39.8115C73.36 39.7875 73.4515 39.7465 73.5118 39.7204C73.5721 39.6944 73.6688 39.6514 73.727 39.6244C73.7853 39.5974 73.8373 39.5754 73.8435 39.5754C73.8497 39.5754 73.8955 39.5554 73.9454 39.5303C73.9953 39.5053 74.04 39.4853 74.0442 39.4853C74.0494 39.4853 74.091 39.4673 74.1388 39.4463C74.1856 39.4253 74.2782 39.3833 74.3437 39.3553C74.4092 39.3262 74.5069 39.2832 74.5589 39.2592C74.612 39.2352 74.6598 39.2152 74.665 39.2152C74.6702 39.2152 74.7045 39.2002 74.7409 39.1812C74.7773 39.1632 74.8179 39.1452 74.8324 39.1412C74.847 39.1372 74.8959 39.1161 74.9416 39.0951C74.9874 39.0731 75.0789 39.0331 75.1444 39.0041C75.2099 38.9761 75.3035 38.9351 75.3524 38.913C75.4012 38.89 75.4574 38.867 75.4771 38.86C75.4969 38.853 75.5375 38.836 75.5655 38.822C75.6144 38.799 75.7298 38.748 75.9815 38.6379C76.0387 38.6129 76.1187 38.5779 76.1583 38.5599C76.1988 38.5419 76.2591 38.5148 76.2934 38.5008C76.3278 38.4868 76.3787 38.4638 76.4068 38.4498C76.4858 38.4108 76.49 38.4128 76.4827 38.4918C76.4785 38.5299 76.4754 38.918 76.4754 39.3563V40.1527L76.4213 40.1757C76.2903 40.2307 76.1312 40.3007 76.0563 40.3367C76.0116 40.3588 75.97 40.3758 75.9648 40.3758C75.9586 40.3758 75.9108 40.3958 75.8588 40.4198C75.8057 40.4438 75.709 40.4868 75.6435 40.5158C75.4491 40.5999 75.3222 40.6559 75.2213 40.7019C75.1693 40.7259 75.1225 40.7459 75.1173 40.7459C75.1132 40.7459 75.0716 40.764 75.0248 40.785C74.979 40.807 74.8875 40.848 74.822 40.876C74.5485 40.9941 74.5111 41.0101 74.4186 41.0521C74.3655 41.0761 74.3198 41.0961 74.3166 41.0961C74.3135 41.0961 74.2719 41.1131 74.2262 41.1351C74.1794 41.1561 74.0868 41.1972 74.0213 41.2262C73.7842 41.3292 73.7343 41.3522 73.6272 41.4043C73.5326 41.4513 73.4338 41.5083 73.4182 41.5263C73.4151 41.5293 73.3995 41.5403 73.3828 41.5503C73.3132 41.5934 73.0823 41.8175 73.0501 41.8745C73.0449 41.8845 73.0376 41.8935 73.0335 41.8965C73.0241 41.9035 72.9503 42.0126 72.9503 42.0186C72.9503 42.0216 72.9336 42.0496 72.9139 42.0816C72.8941 42.1136 72.8702 42.1626 72.8608 42.1907C72.8515 42.2187 72.84 42.2467 72.8348 42.2517C72.8192 42.2717 72.7828 42.3757 72.7672 42.4478C72.7402 42.5768 72.6934 42.956 72.6799 43.1641C72.6737 43.2512 72.6508 43.4863 72.6289 43.6874C72.6061 43.8885 72.5853 44.0996 72.5811 44.1576C72.577 44.2156 72.5603 44.3817 72.5437 44.5278C72.527 44.6739 72.5104 44.837 72.5062 44.891L72.5 44.988L72.5821 44.952C72.6269 44.932 72.7111 44.896 72.7683 44.871C72.8255 44.846 72.9149 44.8059 72.9669 44.7819C73.0199 44.7579 73.0667 44.7379 73.0719 44.7379C73.0771 44.7379 73.1166 44.7199 73.1603 44.6989C73.204 44.6769 73.2508 44.6569 73.2643 44.6529C73.2872 44.6459 73.3267 44.6289 73.5555 44.5238C73.6106 44.4988 73.6595 44.4778 73.6647 44.4778C73.6688 44.4778 73.7094 44.4598 73.7562 44.4388C73.8019 44.4167 73.8653 44.3897 73.8965 44.3777C73.9277 44.3657 73.9683 44.3477 73.986 44.3367C74.0036 44.3267 74.0369 44.3117 74.0588 44.3037C74.0983 44.2907 74.1991 44.2457 74.3697 44.1676C74.4154 44.1466 74.4643 44.1266 74.4789 44.1226C74.4934 44.1186 74.5454 44.0956 74.5943 44.0716C74.6442 44.0476 74.6868 44.0276 74.691 44.0276C74.6952 44.0276 74.7316 44.0115 74.7732 43.9915C74.8137 43.9715 74.8657 43.9495 74.8875 43.9415C74.925 43.9285 74.952 43.9165 75.1881 43.8084C75.2494 43.7804 75.3035 43.7574 75.3087 43.7574C75.3128 43.7574 75.3586 43.7374 75.4085 43.7124C75.4595 43.6874 75.5063 43.6674 75.5135 43.6674C75.5208 43.6674 75.5562 43.6524 75.5936 43.6334C75.631 43.6154 75.6726 43.5963 75.6862 43.5923C75.7101 43.5853 75.7933 43.5483 75.994 43.4563C76.0397 43.4353 76.0823 43.4173 76.0875 43.4173C76.0917 43.4173 76.1333 43.3992 76.1791 43.3782C76.3267 43.3082 76.4463 43.2572 76.4619 43.2572C76.4744 43.2572 76.4754 43.3732 76.4702 44.0296C76.4671 44.4548 76.4629 45.7364 76.4598 46.876L76.4536 48.95L76.4827 48.938C76.4983 48.932 76.5264 48.916 76.543 48.905C76.5607 48.8929 76.6044 48.8679 76.6418 48.8499C76.6792 48.8319 76.7239 48.8079 76.7406 48.7959C76.7583 48.7829 76.7999 48.7599 76.8342 48.7429C76.8685 48.7259 76.9153 48.7009 76.9371 48.6858C76.959 48.6718 76.9818 48.6598 76.986 48.6598C76.9912 48.6598 77.0276 48.6398 77.0681 48.6148C77.1087 48.5898 77.1451 48.5698 77.1492 48.5698C77.1534 48.5698 77.1898 48.5498 77.2293 48.5248C77.2699 48.4998 77.3073 48.4797 77.3135 48.4797C77.3198 48.4797 77.3447 48.4667 77.3676 48.4497C77.3915 48.4337 77.4331 48.4097 77.4622 48.3967C77.4903 48.3827 77.535 48.3587 77.561 48.3407C77.5881 48.3237 77.613 48.3097 77.6172 48.3097C77.6224 48.3097 77.6598 48.2887 77.7025 48.2636C77.7451 48.2386 77.7898 48.2136 77.8023 48.2096C77.8137 48.2046 77.8532 48.1826 77.8896 48.1606C77.926 48.1376 77.9593 48.1196 77.9645 48.1196C77.9697 48.1196 77.9988 48.1046 78.0279 48.0856C78.0581 48.0665 78.0934 48.0465 78.108 48.0415C78.1226 48.0365 78.159 48.0155 78.1902 47.9955C78.2203 47.9755 78.2484 47.9595 78.2525 47.9595C78.2567 47.9595 78.3097 47.9285 78.3701 47.8905C78.526 47.7924 78.6924 47.6313 78.7974 47.4763C78.8411 47.4122 78.8775 47.3562 78.8775 47.3522C78.8775 47.3492 78.8941 47.3132 78.9139 47.2732C78.9545 47.1911 79.0169 46.972 79.0324 46.8559C79.0397 46.8039 79.046 45.9085 79.0512 44.1966C79.0543 42.7779 79.0605 41.6164 79.0636 41.6164C79.0761 41.6174 79.2435 41.7084 79.333 41.7644C79.3704 41.7875 79.4058 41.8065 79.411 41.8065C79.4151 41.8065 79.4463 41.8235 79.4786 41.8435C79.5368 41.8795 79.569 41.8965 79.7011 41.9655C79.7375 41.9836 79.7853 42.0116 79.8082 42.0266C79.8487 42.0536 79.9423 42.1066 80.0411 42.1566C80.0682 42.1706 80.1118 42.1967 80.1378 42.2137C80.1638 42.2307 80.1971 42.2477 80.2106 42.2517C80.2231 42.2567 80.2491 42.2697 80.2657 42.2817C80.2834 42.2947 80.3281 42.3207 80.3666 42.3407C80.4051 42.3607 80.4539 42.3877 80.4747 42.4018C80.4955 42.4158 80.5174 42.4268 80.5226 42.4268C80.5278 42.4268 80.5631 42.4468 80.6026 42.4718C80.6422 42.4968 80.6775 42.5168 80.6827 42.5168C80.6879 42.5168 80.7243 42.5368 80.7628 42.5618C80.8023 42.5868 80.8377 42.6069 80.8429 42.6069C80.847 42.6069 80.8678 42.6179 80.8886 42.6319C80.9104 42.6459 80.9635 42.6759 81.0072 42.6979C81.0508 42.7209 81.0945 42.7449 81.1028 42.7529C81.1111 42.7599 81.1309 42.7699 81.1455 42.7759C81.16 42.7809 81.2006 42.802 81.2338 42.823C81.2671 42.844 81.3129 42.87 81.3337 42.882C81.4657 42.951 81.5572 43.0021 81.5708 43.0131C81.5791 43.0191 81.6196 43.0421 81.6592 43.0621C81.6997 43.0831 81.7434 43.1081 81.7569 43.1181C81.7704 43.1291 81.786 43.1371 81.7912 43.1371C81.7975 43.1371 81.8307 43.1551 81.8661 43.1771C81.9014 43.1991 81.9493 43.2272 81.9732 43.2392C82.0907 43.3012 82.1708 43.3452 82.2165 43.3752C82.2446 43.3922 82.2706 43.4073 82.2748 43.4073C82.28 43.4073 82.3143 43.4273 82.3527 43.4513C82.3912 43.4763 82.4328 43.4993 82.4443 43.5023C82.4567 43.5063 82.4942 43.5263 82.5274 43.5483C82.5618 43.5693 82.593 43.5873 82.5982 43.5873C82.6034 43.5873 82.6252 43.5983 82.646 43.6124C82.6668 43.6254 82.7105 43.6514 82.7437 43.6684C82.776 43.6864 82.8217 43.7124 82.8446 43.7274C82.8675 43.7424 82.8976 43.7584 82.9101 43.7624C82.9236 43.7664 82.9548 43.7824 82.9777 43.7974C83.0016 43.8125 83.0453 43.8385 83.0744 43.8535C83.1025 43.8695 83.1514 43.8955 83.1815 43.9125C83.2117 43.9285 83.2678 43.9615 83.3053 43.9855C83.3427 44.0085 83.3791 44.0276 83.3853 44.0276C83.3905 44.0276 83.428 44.0476 83.4664 44.0726C83.506 44.0976 83.5413 44.1176 83.5455 44.1176C83.5486 44.1176 83.5891 44.1396 83.6349 44.1676C83.6807 44.1946 83.7223 44.2176 83.7275 44.2176C83.7327 44.2176 83.7514 44.2287 83.769 44.2417C83.7867 44.2547 83.8273 44.2777 83.8585 44.2927C83.8897 44.3077 83.9344 44.3327 83.9573 44.3477C83.9801 44.3627 84.0155 44.3827 84.0353 44.3917C84.055 44.4007 84.0924 44.4207 84.1184 44.4378C84.1444 44.4538 84.1767 44.4728 84.1912 44.4778C84.2058 44.4838 84.2411 44.5048 84.2713 44.5238C84.3004 44.5428 84.3295 44.5578 84.3347 44.5578C84.3399 44.5578 84.3763 44.5778 84.4158 44.6028C84.4554 44.6269 84.4918 44.6479 84.4959 44.6479C84.5001 44.6479 84.5354 44.6679 84.5749 44.6929C84.6145 44.7179 84.6498 44.7379 84.655 44.7379C84.6602 44.7379 84.681 44.7479 84.7008 44.7609C84.7517 44.7919 84.8942 44.872 84.9555 44.904C84.9847 44.919 85.0314 44.945 85.0595 44.963C85.0886 44.98 85.1438 45.013 85.1833 45.0341C85.2228 45.0551 85.28 45.0861 85.3101 45.1031C85.3403 45.1191 85.3964 45.1501 85.436 45.1721C85.4744 45.1931 85.5254 45.2231 85.5483 45.2372C85.5711 45.2522 85.6159 45.2772 85.647 45.2922C85.6782 45.3082 85.7115 45.3262 85.7198 45.3332C85.7282 45.3402 85.7562 45.3572 85.7822 45.3712C85.8082 45.3842 85.8665 45.4142 85.9122 45.4382C85.958 45.4623 86.01 45.4913 86.0266 45.5033C86.0443 45.5153 86.0838 45.5373 86.115 45.5533C86.1462 45.5683 86.1867 45.5913 86.2044 45.6043C86.2221 45.6173 86.2408 45.6283 86.246 45.6283C86.2512 45.6283 86.2928 45.6514 86.3386 45.6784C86.3843 45.7064 86.4249 45.7284 86.429 45.7284C86.4321 45.7284 86.4644 45.7464 86.4987 45.7684C86.533 45.7904 86.5653 45.8084 86.5705 45.8084C86.5757 45.8084 86.6068 45.8254 86.6412 45.8464C86.7098 45.8885 86.8169 45.9495 86.898 45.9905C86.9271 46.0055 86.9698 46.0305 86.9926 46.0455C87.0166 46.0606 87.0592 46.0846 87.0873 46.0986C87.1361 46.1236 87.1871 46.1516 87.3233 46.2296C87.394 46.2707 87.4814 46.3187 87.5178 46.3377C87.5323 46.3447 87.5739 46.3687 87.6093 46.3897C87.6446 46.4117 87.6779 46.4287 87.6821 46.4287C87.6873 46.4287 87.7164 46.4457 87.7497 46.4668C87.7819 46.4868 87.8412 46.5218 87.8828 46.5438C87.9535 46.5818 87.9899 46.6018 88.0918 46.6588C88.1157 46.6729 88.1562 46.6949 88.1802 46.7089C88.2249 46.7329 88.3153 46.7839 88.5067 46.891C88.5587 46.92 88.618 46.953 88.6398 46.964C88.6606 46.975 88.7032 47 88.7344 47.018C88.7656 47.037 88.8082 47.062 88.8301 47.0731C88.8717 47.0951 88.984 47.1571 89.1462 47.2491C89.1982 47.2782 89.2616 47.3132 89.2887 47.3282C89.4145 47.3962 89.4831 47.4352 89.531 47.4652C89.5601 47.4843 89.5881 47.4993 89.5944 47.4993C89.5996 47.4993 89.636 47.5193 89.6755 47.5443C89.714 47.5683 89.7556 47.5913 89.766 47.5943C89.7774 47.5983 89.8148 47.6183 89.8481 47.6403C89.8824 47.6613 89.9136 47.6794 89.9188 47.6794C89.9251 47.6794 89.9521 47.6944 89.9802 47.7134C90.0083 47.7324 90.0571 47.7594 90.0883 47.7744C90.1195 47.7894 90.159 47.8124 90.1757 47.8244C90.1933 47.8364 90.2277 47.8564 90.2537 47.8684C90.2797 47.8815 90.3202 47.9045 90.3441 47.9195C90.367 47.9345 90.3961 47.9505 90.4076 47.9535C90.419 47.9575 90.4606 47.9805 90.4991 48.0045C90.5386 48.0295 90.5739 48.0495 90.5781 48.0495C90.5833 48.0495 90.6114 48.0655 90.6415 48.0846C90.6706 48.1036 90.6998 48.1196 90.705 48.1196C90.7091 48.1196 90.7445 48.1396 90.783 48.1636C90.8204 48.1876 90.863 48.2106 90.8765 48.2146C90.8901 48.2186 90.9254 48.2386 90.9535 48.2576C90.9826 48.2776 91.0273 48.3037 91.0533 48.3167C91.0793 48.3287 91.1438 48.3637 91.1947 48.3937C91.2467 48.4237 91.3164 48.4627 91.3507 48.4797C91.385 48.4968 91.4277 48.5218 91.4443 48.5338C91.462 48.5468 91.4963 48.5668 91.5223 48.5788C91.5712 48.6018 91.7043 48.6758 91.7791 48.7229C91.8041 48.7379 91.827 48.7499 91.8322 48.7499C91.8363 48.7499 91.8655 48.7659 91.8967 48.7859C91.9279 48.8059 91.9684 48.8289 91.985 48.8369C92.0027 48.8439 92.037 48.8639 92.063 48.8799C92.089 48.8969 92.1285 48.919 92.1514 48.93C92.1743 48.941 92.2117 48.962 92.2357 48.975L92.2783 49L92.2845 48.6018C92.2887 48.3837 92.2918 47.8955 92.2918 47.5183C92.2918 46.7869 92.2897 46.7569 92.2388 46.5858C92.2273 46.5458 92.2117 46.4938 92.2045 46.4688C92.1857 46.4077 92.0828 46.2126 92.0433 46.1646C92.0256 46.1436 92.011 46.1216 92.011 46.1156C92.011 46.1046 91.8592 45.9385 91.8176 45.9035C91.7365 45.8354 91.7095 45.8144 91.6637 45.7814C91.6346 45.7614 91.5857 45.7324 91.5545 45.7154C91.5223 45.6984 91.4817 45.6744 91.4641 45.6614C91.4464 45.6484 91.4277 45.6383 91.4225 45.6383C91.4173 45.6383 91.3788 45.6183 91.3372 45.5933C91.2956 45.5683 91.2582 45.5483 91.253 45.5483C91.2488 45.5483 91.2259 45.5353 91.2031 45.5193C91.1791 45.5033 91.1355 45.4773 91.1053 45.4623C91.0741 45.4473 91.0304 45.4232 91.0076 45.4082C90.9847 45.3942 90.9587 45.3792 90.9504 45.3762C90.9421 45.3732 90.8994 45.3502 90.8568 45.3242C90.8141 45.2992 90.7757 45.2782 90.7715 45.2782C90.7674 45.2782 90.732 45.2582 90.6935 45.2331C90.6551 45.2081 90.6187 45.1881 90.6135 45.1881C90.6072 45.1881 90.575 45.1701 90.5407 45.1481C90.5074 45.1261 90.4752 45.1081 90.471 45.1081C90.4658 45.1081 90.4346 45.0911 90.4024 45.0701C90.3691 45.0501 90.3202 45.022 90.2932 45.008C90.2266 44.974 90.1112 44.911 90.0665 44.883C90.0467 44.87 90.0031 44.846 89.9708 44.8289C89.9375 44.8119 89.8939 44.7859 89.8731 44.7729C89.8523 44.7589 89.8304 44.7479 89.8252 44.7479C89.82 44.7479 89.7847 44.7289 89.7462 44.7049C89.7077 44.6819 89.663 44.6549 89.6453 44.6459C89.481 44.5578 89.4342 44.5318 89.4114 44.5148C89.3968 44.5048 89.3698 44.4898 89.3511 44.4828C89.3323 44.4748 89.2928 44.4538 89.2627 44.4358C89.2336 44.4177 89.1951 44.3947 89.1774 44.3857C89.1483 44.3697 89.1264 44.3577 89.0204 44.2977C88.9965 44.2837 88.9424 44.2547 88.9018 44.2327C88.8602 44.2106 88.8041 44.1776 88.776 44.1606C88.7479 44.1426 88.7219 44.1276 88.7188 44.1276C88.7147 44.1276 88.6772 44.1076 88.6356 44.0826C88.5951 44.0576 88.5576 44.0376 88.5535 44.0376C88.5483 44.0376 88.5192 44.0206 88.488 44.0005C88.4557 43.9805 88.4069 43.9535 88.3798 43.9405C88.3517 43.9275 88.3101 43.9035 88.2862 43.8875C88.2634 43.8705 88.2394 43.8575 88.2342 43.8575C88.229 43.8575 88.1916 43.8375 88.1521 43.8124C88.1126 43.7874 88.0762 43.7674 88.072 43.7674C88.0679 43.7674 88.0325 43.7474 87.993 43.7224C87.9545 43.6984 87.9129 43.6754 87.9004 43.6714C87.888 43.6684 87.8703 43.6594 87.862 43.6524C87.8453 43.6384 87.6925 43.5533 87.5885 43.4993C87.5531 43.4803 87.5095 43.4553 87.4907 43.4413C87.4731 43.4283 87.4533 43.4173 87.4491 43.4173C87.4439 43.4173 87.4055 43.3972 87.3639 43.3722C87.3223 43.3472 87.2848 43.3272 87.2817 43.3272C87.2776 43.3272 87.2536 43.3132 87.2276 43.2962C87.2016 43.2802 87.1538 43.2522 87.1205 43.2362C87.0862 43.2192 87.0405 43.1931 87.0176 43.1771C86.9812 43.1511 86.9781 43.1461 86.9947 43.1401C87.0062 43.1371 87.0405 43.1171 87.0727 43.0971C87.1049 43.0771 87.1445 43.0551 87.1611 43.0501C87.1777 43.0441 87.2193 43.0211 87.2526 42.998C87.2869 42.976 87.3192 42.957 87.3254 42.957C87.3316 42.957 87.3535 42.947 87.3732 42.934C87.4346 42.896 87.6571 42.7729 87.811 42.6919C87.8568 42.6679 87.9348 42.6249 88.0159 42.5778C88.0481 42.5598 88.0991 42.5318 88.1271 42.5168C88.1562 42.5018 88.202 42.4758 88.2301 42.4578C88.2592 42.4408 88.2862 42.4268 88.2904 42.4268C88.2956 42.4268 88.3133 42.4178 88.3299 42.4068C88.3476 42.3958 88.3736 42.3787 88.3902 42.3677C88.4058 42.3577 88.4308 42.3457 88.4443 42.3417C88.4588 42.3377 88.4848 42.3237 88.5015 42.3117C88.5192 42.2987 88.5628 42.2737 88.6003 42.2567C88.6377 42.2387 88.6751 42.2177 88.6835 42.2107C88.7001 42.1977 88.8155 42.1336 88.907 42.0866C88.9361 42.0726 88.9871 42.0436 89.0204 42.0226C89.0547 42.0016 89.09 41.9826 89.0984 41.9795C89.1077 41.9755 89.1483 41.9535 89.1888 41.9305C89.2294 41.9065 89.2668 41.8865 89.272 41.8865C89.2772 41.8865 89.3095 41.8685 89.3438 41.8465C89.3781 41.8245 89.4093 41.8065 89.4134 41.8065C89.4186 41.8065 89.455 41.7865 89.4966 41.7614C89.5382 41.7364 89.5757 41.7164 89.5788 41.7164C89.5829 41.7164 89.6204 41.6964 89.662 41.6714C89.7036 41.6464 89.742 41.6264 89.7462 41.6264C89.7504 41.6264 89.7868 41.6064 89.8263 41.5814C89.8658 41.5563 89.9032 41.5363 89.9084 41.5363C89.9136 41.5363 89.9365 41.5243 89.9583 41.5103C89.9979 41.4843 90.1216 41.4153 90.2069 41.3713C90.2297 41.3602 90.2765 41.3332 90.3098 41.3122C90.3431 41.2912 90.3816 41.2712 90.394 41.2662C90.4065 41.2612 90.4429 41.2412 90.4752 41.2222C90.5074 41.2022 90.5459 41.1812 90.5615 41.1762C90.5771 41.1702 90.6031 41.1561 90.6197 41.1451C90.6519 41.1231 90.7642 41.0601 90.8526 41.0161C90.8817 41.0011 90.9275 40.9751 90.9535 40.957C90.9795 40.94 91.0138 40.921 91.0304 40.915C91.046 40.909 91.0835 40.889 91.1126 40.87C91.1427 40.852 91.1781 40.832 91.1916 40.827C91.2062 40.822 91.2467 40.799 91.2831 40.777C91.3195 40.7539 91.3518 40.7359 91.357 40.7359C91.3611 40.7359 91.3986 40.7159 91.4402 40.6909C91.4817 40.6659 91.5192 40.6459 91.5233 40.6459C91.5265 40.6459 91.5618 40.6259 91.6013 40.6009C91.6398 40.5759 91.6772 40.5558 91.6845 40.5558C91.6908 40.5558 91.7199 40.5408 91.748 40.5218C91.776 40.5028 91.827 40.4738 91.8613 40.4568C91.8946 40.4388 91.9393 40.4158 91.959 40.4038C91.9788 40.3928 92.0339 40.3618 92.0807 40.3347C92.1275 40.3077 92.1691 40.2857 92.1722 40.2857C92.1764 40.2857 92.2065 40.2697 92.2388 40.2507L92.2991 40.2147L92.3053 39.7274C92.3095 39.4593 92.3126 38.6999 92.3126 38.0396C92.3126 37.3793 92.3157 36.6749 92.3199 36.4738L92.3272 36.1087L92.428 36.0606C92.4842 36.0346 92.5351 36.0136 92.5424 36.0136C92.5487 36.0136 92.5902 35.9956 92.6339 35.9746C92.6776 35.9526 92.767 35.9116 92.8325 35.8836C92.9948 35.8135 93.1414 35.7495 93.2558 35.6975C93.3088 35.6734 93.3587 35.6534 93.366 35.6534C93.3733 35.6534 93.3878 35.6474 93.3993 35.6394C93.4107 35.6324 93.4554 35.6114 93.498 35.5944C93.5407 35.5764 93.6093 35.5474 93.6488 35.5284C93.6894 35.5104 93.7757 35.4714 93.8412 35.4433C93.9067 35.4143 94.0045 35.3713 94.0575 35.3473C94.1095 35.3233 94.1594 35.3033 94.1667 35.3033C94.1729 35.3033 94.2 35.2913 94.226 35.2773C94.252 35.2632 94.3008 35.2402 94.3351 35.2262C94.4069 35.1972 94.5327 35.1412 94.6679 35.0772C94.7199 35.0531 94.7656 35.0331 94.7698 35.0331C94.774 35.0331 94.802 35.0161 94.8322 34.9951C94.8624 34.9731 94.8988 34.9501 94.9143 34.9421C94.9674 34.9151 95.1296 34.777 95.2055 34.693C95.3116 34.5769 95.3677 34.5029 95.4322 34.3928C95.532 34.2227 95.6121 33.9636 95.6246 33.7775C95.6277 33.7165 95.6475 33.5264 95.6672 33.3533C95.687 33.1812 95.7098 32.9561 95.7182 32.8531C95.7265 32.751 95.7494 32.5179 95.7691 32.3368C95.7889 32.1547 95.8086 31.9616 95.8118 31.9066C95.8159 31.8516 95.8274 31.7315 95.8367 31.6385C95.8492 31.5254 95.8513 31.4714 95.844 31.4714C95.8336 31.4714 95.7327 31.5154 95.5081 31.6175C95.4561 31.6415 95.4093 31.6615 95.4052 31.6615C95.401 31.6615 95.3605 31.6795 95.3137 31.7005C95.2679 31.7225 95.1754 31.7625 95.1098 31.7915C95.0443 31.8196 94.958 31.8576 94.9175 31.8766C94.878 31.8946 94.8187 31.9196 94.7875 31.9316C94.7563 31.9436 94.7209 31.9586 94.7085 31.9666C94.696 31.9736 94.6565 31.9916 94.6201 32.0066C94.5837 32.0217 94.5254 32.0457 94.4911 32.0617C94.4568 32.0767 94.3747 32.1127 94.3091 32.1417C94.2436 32.1707 94.1469 32.2137 94.0949 32.2378C94.0419 32.2618 93.9951 32.2818 93.9899 32.2818C93.9837 32.2818 93.9369 32.3018 93.8849 32.3268C93.8329 32.3518 93.7871 32.3718 93.783 32.3718C93.7788 32.3718 93.7372 32.3898 93.6915 32.4108C93.6447 32.4329 93.5532 32.4739 93.4877 32.5019C93.4221 32.5309 93.3254 32.5739 93.2734 32.5979C93.2214 32.622 93.1736 32.642 93.1674 32.642C93.1611 32.642 93.1195 32.66 93.0748 32.681C93.0301 32.703 92.9396 32.744 92.8741 32.772C92.7213 32.8381 92.5674 32.9061 92.4717 32.9491C92.4301 32.9681 92.3823 32.9871 92.3646 32.9921L92.3334 33.0011V32.2007C92.3334 31.6745 92.3303 31.4014 92.323 31.4014C92.3178 31.4014 92.3126 31.3963 92.3126 31.3913C92.3126 31.3853 92.3199 31.3813 92.3282 31.3813C92.3376 31.3813 92.3802 31.3643 92.4249 31.3423C92.4686 31.3213 92.5164 31.3003 92.531 31.2963C92.5455 31.2923 92.5923 31.2723 92.636 31.2513C92.6786 31.2303 92.7254 31.2103 92.74 31.2063C92.7535 31.2023 92.793 31.1852 92.8273 31.1692C92.8617 31.1522 92.9074 31.1332 92.9292 31.1252C92.95 31.1182 93.002 31.0962 93.0436 31.0772C93.1123 31.0462 93.2121 31.0022 93.4461 30.9011C93.4949 30.8801 93.5864 30.8401 93.6488 30.8121C93.7123 30.784 93.7674 30.761 93.7705 30.761C93.7747 30.761 93.8214 30.741 93.8755 30.716C93.9296 30.691 93.9785 30.671 93.9847 30.671C93.9909 30.671 94.0357 30.651 94.0866 30.626C94.1365 30.601 94.1833 30.5809 94.1906 30.5809C94.1979 30.5809 94.2457 30.5609 94.2956 30.5359C94.3455 30.5109 94.3934 30.4909 94.4027 30.4909C94.4121 30.4909 94.4235 30.4869 94.4298 30.4819C94.435 30.4769 94.4786 30.4569 94.5275 30.4359C94.5764 30.4159 94.6492 30.3839 94.6887 30.3658C94.7293 30.3468 94.7875 30.3208 94.8187 30.3058C94.9622 30.2408 95.1046 30.1427 95.2284 30.0247C95.3241 29.9326 95.3355 29.9176 95.4145 29.8056C95.4967 29.6885 95.5258 29.6395 95.5476 29.5845C95.5601 29.5514 95.5736 29.5204 95.5778 29.5154C95.6298 29.4424 95.6953 29.0322 95.7182 28.635C95.7223 28.569 95.741 28.3709 95.7608 28.1948C95.7806 28.0187 95.8014 27.8116 95.8066 27.7345C95.8159 27.6145 95.8585 27.2033 95.8731 27.1002C95.8773 27.0722 95.8752 27.0682 95.8606 27.0722C95.8315 27.0802 95.7338 27.1202 95.6537 27.1553C95.6131 27.1733 95.5591 27.1943 95.5341 27.2023C95.5092 27.2113 95.454 27.2333 95.4114 27.2523C95.3688 27.2713 95.322 27.2903 95.3074 27.2943C95.2929 27.2983 95.2429 27.3183 95.1951 27.3404C95.1473 27.3614 95.1046 27.3794 95.0984 27.3794C95.0932 27.3794 95.0371 27.4014 94.9736 27.4294C94.9102 27.4564 94.854 27.4794 94.8499 27.4794C94.8447 27.4794 94.7968 27.4994 94.7438 27.5244C94.6908 27.5495 94.6409 27.5695 94.6346 27.5695C94.6273 27.5695 94.5878 27.5845 94.5462 27.6035C94.4641 27.6405 94.3445 27.6905 94.2624 27.7215C94.2343 27.7325 94.1875 27.7516 94.1584 27.7646C94.1303 27.7766 94.0783 27.7976 94.044 27.8096C94.0097 27.8226 93.9494 27.8476 93.9088 27.8656C93.8693 27.8836 93.8007 27.9126 93.758 27.9306C93.626 27.9837 93.5272 28.0257 93.4617 28.0547C93.4273 28.0697 93.3826 28.0877 93.3629 28.0947C93.3431 28.1017 93.2963 28.1207 93.2589 28.1377C93.1788 28.1738 93.0436 28.2308 92.9417 28.2698C92.9022 28.2858 92.8409 28.3128 92.8076 28.3288C92.7733 28.3458 92.741 28.3599 92.7348 28.3599C92.7285 28.3599 92.6807 28.3799 92.6298 28.4039C92.5778 28.4279 92.5247 28.4509 92.5102 28.4549C92.4956 28.4589 92.454 28.4769 92.4166 28.4949C92.3792 28.5119 92.3303 28.5329 92.3074 28.5399C92.2845 28.5469 92.2294 28.57 92.1857 28.591C92.141 28.613 92.0994 28.63 92.0932 28.63C92.0869 28.63 92.0454 28.647 92.0017 28.669C91.958 28.69 91.9112 28.711 91.8967 28.715C91.8821 28.719 91.8384 28.738 91.7979 28.757C91.7584 28.7761 91.6949 28.8031 91.6575 28.8171C91.62 28.8311 91.5764 28.8501 91.5587 28.8601C91.5421 28.8701 91.5161 28.8811 91.5015 28.8851C91.4869 28.8891 91.4277 28.9141 91.3694 28.9411C91.3102 28.9682 91.2582 28.9902 91.253 28.9902C91.2436 28.9902 91.1594 29.0282 90.9348 29.1312C90.888 29.1532 90.8464 29.1703 90.8412 29.1703C90.836 29.1703 90.8027 29.1833 90.7684 29.2003C90.7341 29.2163 90.6738 29.2423 90.6332 29.2583C90.5937 29.2753 90.5063 29.3113 90.4408 29.3403C90.3753 29.3683 90.2932 29.4034 90.2589 29.4174C90.2245 29.4304 90.158 29.4594 90.1112 29.4814C90.0654 29.5024 90.0228 29.5204 90.0176 29.5204C90.0135 29.5204 89.9719 29.5384 89.9261 29.5604C89.8804 29.5825 89.8388 29.6005 89.8346 29.6005C89.8304 29.6005 89.7774 29.6225 89.7181 29.6505C89.6589 29.6775 89.6048 29.7005 89.5996 29.7005C89.5933 29.7005 89.5486 29.7195 89.5008 29.7425L89.4134 29.7836L89.3531 29.7445C89.3188 29.7225 89.2845 29.7015 89.2741 29.6985C89.2647 29.6945 89.2263 29.6735 89.1878 29.6515C89.1493 29.6285 89.116 29.6105 89.1129 29.6105C89.1098 29.6105 89.0807 29.5935 89.0495 29.5735C89.0173 29.5534 88.9684 29.5264 88.9413 29.5134C88.9133 29.5004 88.8717 29.4764 88.8478 29.4604C88.8249 29.4434 88.801 29.4304 88.7958 29.4304C88.7906 29.4304 88.7573 29.4124 88.7209 29.3904C88.6845 29.3684 88.6512 29.3503 88.6471 29.3503C88.6429 29.3503 88.6076 29.3303 88.5701 29.3063C88.5327 29.2833 88.4911 29.2603 88.4786 29.2563C88.4661 29.2523 88.4381 29.2373 88.4162 29.2233C88.3736 29.1953 88.2342 29.1162 88.1427 29.0682C88.1115 29.0512 88.071 29.0272 88.0523 29.0142C88.0346 29.0012 88.0148 28.9902 88.0107 28.9902C88.0055 28.9902 87.967 28.9702 87.9254 28.9451C87.8838 28.9201 87.8464 28.9001 87.8422 28.9001C87.8391 28.9001 87.81 28.8841 87.7788 28.8641C87.7476 28.8441 87.6956 28.8151 87.6644 28.8001C87.6332 28.7841 87.5916 28.7601 87.5718 28.746C87.5521 28.732 87.5302 28.72 87.525 28.72C87.5188 28.72 87.4814 28.7 87.4429 28.675C87.4034 28.65 87.368 28.63 87.3628 28.63C87.3587 28.63 87.3379 28.619 87.3171 28.605C87.2963 28.591 87.2474 28.564 87.2089 28.5439C87.1705 28.5239 87.1268 28.4989 87.1122 28.4889C87.0966 28.4789 87.0727 28.4659 87.0571 28.4599C87.0415 28.4549 87.001 28.4319 86.9666 28.4099C86.9323 28.3879 86.9001 28.3699 86.8959 28.3699C86.8907 28.3699 86.8699 28.3589 86.8491 28.3448C86.8283 28.3308 86.7795 28.3038 86.741 28.2838C86.7025 28.2638 86.6599 28.2398 86.6453 28.2298C86.6224 28.2158 86.5434 28.1708 86.4321 28.1117C86.4155 28.1027 86.375 28.0797 86.3438 28.0607C86.3126 28.0417 86.2658 28.0157 86.2398 28.0027C86.2138 27.9897 86.1514 27.9547 86.0994 27.9246C86.0484 27.8946 85.9798 27.8576 85.9486 27.8406C85.9174 27.8246 85.8665 27.7956 85.8363 27.7766C85.8072 27.7566 85.7718 27.7375 85.7594 27.7335C85.7365 27.7265 85.723 27.7195 85.6502 27.6715C85.6314 27.6595 85.6127 27.6495 85.6075 27.6495C85.6023 27.6495 85.5701 27.6315 85.5368 27.6095C85.5025 27.5875 85.4703 27.5695 85.4651 27.5695C85.4588 27.5695 85.4287 27.5535 85.3975 27.5334C85.3663 27.5134 85.3101 27.4814 85.2727 27.4614C85.2353 27.4424 85.1926 27.4184 85.177 27.4084C85.1625 27.3974 85.1448 27.3894 85.1396 27.3894C85.1344 27.3894 85.1063 27.3744 85.0782 27.3554C85.0502 27.3364 85.0023 27.3093 84.9722 27.2943C84.942 27.2803 84.8983 27.2543 84.8744 27.2383C84.8515 27.2223 84.8287 27.2093 84.8245 27.2093C84.8193 27.2093 84.7819 27.1893 84.7403 27.1653C84.6987 27.1413 84.6519 27.1152 84.6363 27.1082C84.6217 27.1002 84.5729 27.0732 84.5292 27.0462C84.4512 26.9992 84.4262 26.9912 84.4158 27.0082ZM84.5344 29.9296C84.5604 29.9466 84.5853 29.9606 84.5895 29.9606C84.5937 29.9606 84.629 29.9806 84.6685 30.0057C84.708 30.0307 84.7434 30.0507 84.7476 30.0507C84.7559 30.0507 84.9025 30.1327 84.9919 30.1858C85.0294 30.2088 85.1292 30.2638 85.2269 30.3158C85.332 30.3718 85.4235 30.4239 85.4391 30.4359C85.4474 30.4429 85.4921 30.4669 85.5379 30.4909C85.5836 30.5139 85.6356 30.5439 85.6533 30.5569C85.671 30.5699 85.6907 30.5809 85.698 30.5809C85.7042 30.5809 85.7417 30.6 85.7802 30.624C85.8186 30.647 85.8644 30.674 85.881 30.683C85.8987 30.692 85.9517 30.721 86.0006 30.747C86.0495 30.773 86.1035 30.8041 86.1202 30.8161C86.1379 30.8281 86.1763 30.8501 86.2075 30.8651C86.2387 30.8811 86.2762 30.9011 86.2907 30.9101C86.3396 30.9421 86.4987 31.0312 86.506 31.0312C86.5101 31.0312 86.5372 31.0472 86.5673 31.0662C86.5975 31.0842 86.6464 31.1132 86.6776 31.1292C86.7088 31.1442 86.7763 31.1812 86.8273 31.2113C86.8793 31.2403 86.9396 31.2743 86.9625 31.2863C86.9854 31.2983 87.0249 31.3203 87.0498 31.3353C87.0748 31.3513 87.1195 31.3763 87.1486 31.3913C87.2006 31.4174 87.2807 31.4634 87.3732 31.5174C87.3992 31.5334 87.445 31.5584 87.4762 31.5734C87.5074 31.5894 87.5479 31.6135 87.5666 31.6265C87.5854 31.6405 87.6041 31.6515 87.6093 31.6515C87.6145 31.6515 87.6519 31.6715 87.6935 31.6965C87.7351 31.7215 87.7725 31.7415 87.7777 31.7415C87.7829 31.7415 87.8121 31.7575 87.8422 31.7775C87.8734 31.7975 87.9244 31.8266 87.9556 31.8416C87.9867 31.8576 88.0283 31.8816 88.0481 31.8956C88.0679 31.9096 88.0897 31.9216 88.0949 31.9216C88.1011 31.9216 88.1375 31.9416 88.176 31.9656C88.2145 31.9906 88.2561 32.0136 88.2686 32.0167C88.281 32.0207 88.3101 32.0367 88.3341 32.0517C88.3757 32.0787 88.4692 32.1307 88.568 32.1817C88.5951 32.1957 88.6387 32.2218 88.6647 32.2388C88.6907 32.2558 88.724 32.2728 88.7375 32.2768C88.75 32.2818 88.776 32.2948 88.7926 32.3068C88.8103 32.3198 88.8592 32.3488 88.9018 32.3718C88.9445 32.3958 89.0162 32.4359 89.0609 32.4609C89.1046 32.4859 89.1639 32.5179 89.1909 32.5319C89.218 32.5459 89.2658 32.5719 89.297 32.5909C89.3282 32.6099 89.3719 32.635 89.3927 32.646C89.4634 32.684 89.5715 32.744 89.6245 32.776C89.6537 32.793 89.6911 32.814 89.7077 32.822L89.7389 32.8381L89.7358 35.6534C89.7348 37.2022 89.7306 38.5379 89.7275 38.6209L89.7213 38.772L89.6838 38.789C89.662 38.799 89.6287 38.817 89.6089 38.829C89.5705 38.853 89.4613 38.915 89.3895 38.9521C89.3656 38.9641 89.3147 38.9921 89.2762 39.0141C89.2367 39.0371 89.2024 39.0551 89.1992 39.0551C89.1961 39.0551 89.1639 39.0731 89.1264 39.0961C89.0589 39.1362 89.0339 39.1502 88.9102 39.2142C88.8738 39.2322 88.8207 39.2632 88.7916 39.2812C88.7625 39.3002 88.7344 39.3152 88.7292 39.3152C88.724 39.3152 88.7022 39.3262 88.6814 39.3403C88.6606 39.3543 88.6231 39.3753 88.5982 39.3883C88.5493 39.4133 88.4287 39.4803 88.3455 39.5283C88.3174 39.5444 88.2654 39.5724 88.2311 39.5904C88.1968 39.6074 88.15 39.6344 88.1282 39.6484C88.1063 39.6634 88.0835 39.6754 88.0783 39.6754C88.072 39.6754 88.0554 39.6834 88.0408 39.6944C88.0252 39.7044 87.9805 39.7294 87.94 39.7505C87.9004 39.7705 87.8599 39.7935 87.8516 39.8005C87.8432 39.8075 87.8058 39.8275 87.7684 39.8455C87.7309 39.8635 87.6935 39.8835 87.6852 39.8915C87.6758 39.8985 87.6342 39.9225 87.5916 39.9435C87.5479 39.9656 87.4949 39.9946 87.4731 40.0096C87.4512 40.0236 87.4283 40.0356 87.4231 40.0356C87.4169 40.0356 87.4003 40.0436 87.3857 40.0546C87.3701 40.0646 87.3316 40.0866 87.3004 40.1036C87.2692 40.1196 87.2162 40.1486 87.184 40.1667C87.1049 40.2127 87.0322 40.2527 86.9406 40.3007C86.9001 40.3227 86.8595 40.3457 86.8512 40.3527C86.8439 40.3588 86.8159 40.3738 86.7909 40.3858C86.7649 40.3968 86.7233 40.4188 86.6984 40.4338C86.6391 40.4698 86.5705 40.5068 86.4945 40.5458C86.4602 40.5639 86.4093 40.5929 86.3802 40.6119C86.3521 40.6299 86.3167 40.6489 86.3022 40.6539C86.2876 40.6589 86.2512 40.6799 86.2211 40.6989C86.1919 40.7189 86.1566 40.7379 86.1441 40.7419C86.1306 40.7459 86.1087 40.7559 86.0942 40.766C86.0162 40.817 85.9829 40.836 85.9725 40.836C85.9673 40.836 85.9455 40.847 85.9257 40.859C85.906 40.872 85.8592 40.899 85.8217 40.919C85.7843 40.939 85.7354 40.9671 85.7146 40.9811C85.6928 40.9951 85.6699 41.0061 85.6626 41.0061C85.6554 41.0061 85.6179 41.0261 85.5784 41.0511C85.5399 41.0761 85.5035 41.0961 85.4983 41.0961C85.4931 41.0961 85.4599 41.1141 85.4245 41.1361C85.3621 41.1752 85.3403 41.1872 85.2082 41.2552C85.1718 41.2732 85.1198 41.3032 85.0907 41.3222C85.0626 41.3402 85.0273 41.3592 85.0127 41.3642C84.9982 41.3692 84.9618 41.3903 84.9316 41.4093C84.9025 41.4293 84.8671 41.4483 84.8536 41.4523C84.8412 41.4553 84.8027 41.4763 84.7684 41.4973C84.734 41.5183 84.6862 41.5463 84.6623 41.5583C84.6384 41.5713 84.5937 41.5944 84.5635 41.6104C84.5333 41.6254 84.4824 41.6564 84.4502 41.6774L84.3909 41.7154L84.3275 41.6754C84.2931 41.6544 84.263 41.6364 84.2599 41.6364C84.2547 41.6364 84.1132 41.5563 84.0197 41.4993C83.9853 41.4783 83.9458 41.4573 83.9313 41.4513C83.899 41.4393 83.7711 41.3672 83.6879 41.3142C83.6536 41.2932 83.6224 41.2762 83.6162 41.2762C83.611 41.2762 83.5746 41.2562 83.5361 41.2312C83.4976 41.2062 83.4612 41.1862 83.4571 41.1862C83.4519 41.1862 83.4103 41.1631 83.3645 41.1361C83.3188 41.1081 83.2772 41.0861 83.272 41.0861C83.2668 41.0861 83.247 41.0751 83.2294 41.0621C83.2106 41.0481 83.168 41.0241 83.1347 41.0071C83.1015 40.9911 83.0578 40.9661 83.038 40.952C83.0183 40.937 82.9964 40.926 82.9912 40.926C82.985 40.926 82.9486 40.906 82.9101 40.882C82.8716 40.857 82.8311 40.835 82.8196 40.831C82.8082 40.828 82.7677 40.805 82.7292 40.781C82.6897 40.7559 82.6533 40.7359 82.6481 40.7359C82.6418 40.7359 82.6138 40.7209 82.5846 40.7019C82.5337 40.6689 82.4287 40.6099 82.3517 40.5709C82.3309 40.5599 82.2872 40.5358 82.256 40.5168C82.2259 40.4978 82.1812 40.4728 82.1583 40.4608C82.0959 40.4278 81.967 40.3558 81.915 40.3237C81.889 40.3087 81.865 40.2957 81.8598 40.2957C81.8547 40.2957 81.8214 40.2767 81.786 40.2547C81.7507 40.2317 81.7122 40.2097 81.6997 40.2057C81.6872 40.2007 81.6498 40.1807 81.6165 40.1597C81.5531 40.1196 81.5229 40.1036 81.4127 40.0466C81.3763 40.0286 81.3243 39.9986 81.2952 39.9816C81.2671 39.9646 81.2297 39.9425 81.212 39.9335C81.1829 39.9175 81.1611 39.9055 81.055 39.8455C81.0311 39.8315 80.977 39.8025 80.9364 39.7805C80.8949 39.7585 80.8387 39.7254 80.8106 39.7074C80.7825 39.6904 80.7576 39.6754 80.7545 39.6754C80.7514 39.6754 80.7139 39.6554 80.6723 39.6304C80.6297 39.6054 80.5912 39.5854 80.5881 39.5854C80.5839 39.5854 80.5517 39.5674 80.5163 39.5454C80.481 39.5233 80.4332 39.4953 80.4092 39.4833C80.3853 39.4703 80.3177 39.4333 80.2595 39.4003C80.2002 39.3673 80.1316 39.3282 80.1056 39.3142C80.0796 39.3002 80.037 39.2762 80.011 39.2592C79.985 39.2432 79.9527 39.2252 79.9382 39.2202C79.9236 39.2142 79.8914 39.1972 79.8654 39.1822C79.7604 39.1201 79.6907 39.0811 79.6366 39.0521C79.6054 39.0361 79.5597 39.0091 79.5357 38.9941C79.5118 38.9781 79.489 38.9651 79.4838 38.9651C79.4786 38.9651 79.4401 38.9451 79.3985 38.92C79.3569 38.895 79.3195 38.875 79.3153 38.875C79.3122 38.875 79.2903 38.863 79.2675 38.847C79.2446 38.832 79.1905 38.802 79.1479 38.779L79.0699 38.739V38.0586C79.0699 37.6854 79.0751 36.3538 79.0813 35.1002C79.0917 32.8721 79.0928 32.821 79.1125 32.807C79.1229 32.799 79.1593 32.778 79.1926 32.76C79.2259 32.742 79.2768 32.713 79.307 32.695C79.3371 32.678 79.385 32.652 79.413 32.638C79.4422 32.6239 79.491 32.5969 79.5222 32.5769C79.5534 32.5579 79.5836 32.5419 79.5888 32.5419C79.594 32.5419 79.6065 32.5359 79.6148 32.5279C79.6241 32.5209 79.6688 32.4959 79.7146 32.4719C79.7604 32.4489 79.8051 32.4239 79.8134 32.4168C79.8217 32.4098 79.8591 32.3888 79.8966 32.3708C79.934 32.3528 79.9787 32.3288 79.9954 32.3168C80.013 32.3048 80.0567 32.2798 80.0942 32.2618C80.1316 32.2438 80.169 32.2238 80.1773 32.2168C80.1857 32.2097 80.2096 32.1957 80.2304 32.1857C80.2512 32.1747 80.2876 32.1557 80.3125 32.1417C80.4124 32.0847 80.4487 32.0647 80.5215 32.0277C80.5642 32.0066 80.612 31.9796 80.6297 31.9676C80.6463 31.9566 80.691 31.9316 80.7285 31.9136C80.7659 31.8946 80.8033 31.8736 80.8117 31.8666C80.821 31.8586 80.8439 31.8456 80.8637 31.8366C80.8834 31.8276 80.926 31.8055 80.9572 31.7865C80.9884 31.7675 81.0311 31.7455 81.0508 31.7365C81.0706 31.7275 81.0935 31.7145 81.1028 31.7075C81.1111 31.6995 81.1444 31.6815 81.1756 31.6655C81.2068 31.6505 81.2474 31.6285 81.264 31.6165C81.2817 31.6044 81.3243 31.5804 81.3607 31.5634C81.3971 31.5454 81.4397 31.5224 81.4564 31.5114C81.473 31.5004 81.5021 31.4844 81.5209 31.4754C81.5396 31.4674 81.576 31.4474 81.602 31.4314C81.628 31.4144 81.6654 31.3943 81.6852 31.3853C81.7049 31.3763 81.7288 31.3633 81.7371 31.3563C81.7455 31.3493 81.7829 31.3293 81.8203 31.3113C81.8578 31.2933 81.9025 31.2683 81.9191 31.2563C81.9368 31.2443 81.9846 31.2163 82.0262 31.1952C82.1417 31.1362 82.1728 31.1192 82.2467 31.0762C82.3174 31.0352 82.3475 31.0182 82.4567 30.9621C82.4931 30.9441 82.5462 30.9141 82.5742 30.8951C82.6034 30.8771 82.6377 30.8581 82.6522 30.8531C82.6668 30.8481 82.7032 30.8271 82.7333 30.8081C82.7625 30.788 82.7978 30.769 82.8103 30.765C82.8238 30.761 82.8456 30.751 82.8602 30.741C82.9372 30.691 82.9715 30.671 82.9808 30.671C82.986 30.671 83.0068 30.66 83.0266 30.648C83.0463 30.635 83.0942 30.608 83.1326 30.5879C83.1701 30.5679 83.2179 30.5409 83.2377 30.5289C83.2574 30.5159 83.3063 30.4889 83.3458 30.4679C83.4612 30.4059 83.4758 30.3979 83.5528 30.3538C83.5943 30.3298 83.6318 30.3108 83.638 30.3108C83.6432 30.3108 83.6588 30.3028 83.6723 30.2918C83.6859 30.2818 83.7327 30.2558 83.7753 30.2338C83.8179 30.2118 83.872 30.1818 83.8938 30.1677C83.9157 30.1527 83.9385 30.1407 83.9437 30.1407C83.9489 30.1407 83.9843 30.1207 84.0238 30.0957C84.0633 30.0707 84.0987 30.0507 84.1028 30.0507C84.107 30.0507 84.1455 30.0307 84.1881 30.0057C84.2297 29.9806 84.2682 29.9606 84.2723 29.9606C84.2765 29.9606 84.2963 29.9496 84.316 29.9366C84.3358 29.9236 84.3711 29.9036 84.393 29.8926C84.4387 29.8686 84.4429 29.8706 84.5344 29.9296Z"/>
</mask>
<path d="M84.4158 27.0082C84.4127 27.0132 84.3982 27.0202 84.3846 27.0232C84.3701 27.0262 84.3316 27.0472 84.2983 27.0682C84.264 27.0902 84.2203 27.1152 84.2006 27.1232C84.1808 27.1323 84.1184 27.1663 84.0612 27.1993C84.0041 27.2313 83.9344 27.2703 83.9053 27.2853C83.8772 27.3003 83.8304 27.3263 83.8013 27.3444C83.7732 27.3624 83.7389 27.3804 83.7264 27.3834C83.7139 27.3874 83.6723 27.4104 83.6339 27.4344C83.5943 27.4594 83.559 27.4794 83.5538 27.4794C83.5486 27.4794 83.5153 27.4974 83.48 27.5194C83.4446 27.5415 83.3957 27.5695 83.3718 27.5815C83.2502 27.6445 83.1316 27.7105 83.1264 27.7185C83.1233 27.7235 83.1098 27.7295 83.0963 27.7335C83.0827 27.7365 83.0401 27.7596 83.0006 27.7846C82.9611 27.8096 82.9236 27.8296 82.9164 27.8296C82.9101 27.8296 82.881 27.8446 82.8529 27.8636C82.8248 27.8826 82.7739 27.9116 82.7396 27.9286C82.6709 27.9647 82.5316 28.0427 82.4755 28.0767C82.4557 28.0897 82.4349 28.0997 82.4297 28.0997C82.4255 28.0997 82.3871 28.1197 82.3465 28.1447C82.3049 28.1698 82.2664 28.1898 82.2602 28.1898C82.254 28.1898 82.2384 28.1978 82.2248 28.2088C82.2113 28.2188 82.1625 28.2478 82.1167 28.2718C82.0709 28.2968 81.9919 28.3408 81.9399 28.3699C81.889 28.3989 81.8266 28.4329 81.8037 28.4449C81.7798 28.4569 81.733 28.4829 81.6987 28.5029C81.6633 28.5239 81.6311 28.5399 81.6259 28.5399C81.6196 28.5399 81.604 28.5479 81.5905 28.559C81.577 28.569 81.5281 28.598 81.4824 28.622C81.4366 28.647 81.3576 28.691 81.3056 28.72C81.2546 28.75 81.1891 28.7851 81.16 28.7991C81.1319 28.8141 81.0893 28.8371 81.0664 28.8511C81.0436 28.8661 81.0061 28.8861 80.9832 28.8971C80.9604 28.9081 80.9188 28.9301 80.8897 28.9471C80.7326 29.0382 80.6578 29.0802 80.6515 29.0802C80.6484 29.0802 80.612 29.1002 80.5704 29.1252C80.5288 29.1502 80.4914 29.1703 80.4862 29.1703C80.482 29.1703 80.4654 29.1783 80.4498 29.1883C80.3687 29.2413 80.3364 29.2603 80.3229 29.2603C80.3156 29.2603 80.2948 29.2703 80.2772 29.2833C80.2595 29.2963 80.2127 29.3243 80.1721 29.3453C80.1326 29.3663 80.0879 29.3904 80.0734 29.4004C80.0588 29.4104 80.037 29.4204 80.0245 29.4244C80.012 29.4284 79.9704 29.4514 79.9319 29.4754C79.8924 29.5004 79.8571 29.5204 79.8519 29.5204C79.8456 29.5204 79.8155 29.5374 79.7843 29.5574C79.752 29.5775 79.7042 29.6045 79.6782 29.6175C79.6522 29.6295 79.5867 29.6675 79.5326 29.7005C79.4786 29.7335 79.4172 29.7685 79.3974 29.7786C79.3465 29.8026 79.1219 29.9256 78.994 29.9997C78.9617 30.0177 78.9045 30.0497 78.8671 30.0687C78.8307 30.0887 78.7839 30.1147 78.7642 30.1277C78.7454 30.1407 78.7246 30.1507 78.7194 30.1507C78.7111 30.1507 78.6997 30.1567 78.6227 30.2078C78.6051 30.2188 78.5791 30.2318 78.5655 30.2358C78.551 30.2398 78.526 30.2538 78.5084 30.2658C78.4917 30.2788 78.447 30.3028 78.4096 30.3208C78.3721 30.3388 78.3274 30.3638 78.3097 30.3768C78.2921 30.3899 78.2744 30.4009 78.2692 30.4009C78.265 30.4009 78.2224 30.4229 78.1746 30.4509C78.1267 30.4779 78.0841 30.5009 78.0789 30.5009C78.0737 30.5009 78.0581 30.5089 78.0446 30.5199C78.0311 30.5299 77.9874 30.5549 77.9468 30.5759C77.9073 30.596 77.8668 30.619 77.8584 30.626C77.8501 30.633 77.8137 30.653 77.7784 30.671C77.742 30.688 77.6889 30.718 77.6598 30.737C77.6307 30.755 77.6026 30.771 77.5974 30.771C77.5912 30.771 77.56 30.787 77.5278 30.8081C77.4955 30.8281 77.455 30.8501 77.4373 30.8581C77.4207 30.8651 77.3759 30.8891 77.3395 30.9111C77.3042 30.9331 77.2709 30.9511 77.2668 30.9511C77.2626 30.9511 77.2272 30.9711 77.1877 30.9962C77.1472 31.0212 77.1108 31.0412 77.1045 31.0412C77.0993 31.0412 77.0733 31.0552 77.0473 31.0722C77.0047 31.1002 76.9423 31.1342 76.8103 31.2013C76.7832 31.2153 76.7343 31.2433 76.7011 31.2633C76.6688 31.2843 76.6366 31.3013 76.6314 31.3013C76.6252 31.3013 76.5981 31.3163 76.5711 31.3333L76.5212 31.3663L76.5139 32.0467C76.5097 32.4209 76.5066 33.2813 76.5066 33.9586C76.5066 34.6359 76.5035 35.2182 76.5004 35.2522L76.4931 35.3143L76.3933 35.3593C76.1385 35.4764 76.1042 35.4914 76.0803 35.4984C76.0657 35.5024 76.0356 35.5164 76.0127 35.5294C75.9898 35.5414 75.9482 35.5604 75.9191 35.5714C75.891 35.5824 75.8297 35.6074 75.7839 35.6284C75.7381 35.6484 75.6539 35.6855 75.5967 35.7105C75.5395 35.7345 75.4501 35.7755 75.3981 35.7995C75.3451 35.8235 75.2972 35.8435 75.291 35.8435C75.2848 35.8435 75.2442 35.8615 75.2016 35.8836C75.1589 35.9056 75.1194 35.9236 75.1132 35.9236C75.108 35.9236 75.0529 35.9466 74.9915 35.9746C74.9291 36.0026 74.8324 36.0456 74.7752 36.0706C74.718 36.0957 74.6286 36.1357 74.5766 36.1597C74.5246 36.1837 74.4768 36.2037 74.4705 36.2037C74.4643 36.2037 74.4248 36.2207 74.3822 36.2427C74.3406 36.2637 74.2948 36.2847 74.2813 36.2888C74.2667 36.2928 74.2106 36.3168 74.1565 36.3408C74.1024 36.3658 74.0109 36.4058 73.9537 36.4308C73.8965 36.4558 73.8113 36.4939 73.7645 36.5149C73.7187 36.5369 73.6771 36.5539 73.673 36.5539C73.6584 36.5539 73.4504 36.6759 73.4265 36.698C73.413 36.71 73.3891 36.728 73.3714 36.739C73.3548 36.749 73.334 36.766 73.3257 36.777C73.3184 36.787 73.2997 36.803 73.2841 36.812C73.2685 36.822 73.2289 36.858 73.1957 36.894C73.1624 36.9301 73.1229 36.9731 73.1073 36.9891C73.0376 37.0631 72.892 37.3012 72.8577 37.3963C72.8473 37.4253 72.8244 37.4883 72.8068 37.5354C72.7849 37.5964 72.7704 37.6694 72.7537 37.7955C72.7277 38.0016 72.6841 38.4108 72.6747 38.5449C72.6705 38.5969 72.6539 38.761 72.6373 38.91C72.5977 39.2672 72.5884 39.3623 72.5759 39.5353C72.5697 39.6154 72.553 39.7815 72.5385 39.9045C72.5239 40.0276 72.5135 40.1336 72.5156 40.1406C72.5177 40.1507 72.5302 40.1486 72.5655 40.1336C72.5915 40.1226 72.6518 40.0966 72.7007 40.0756C72.8889 39.9946 73.0314 39.9315 73.1114 39.8945C73.1582 39.8725 73.1998 39.8555 73.204 39.8555C73.2092 39.8555 73.256 39.8355 73.308 39.8115C73.36 39.7875 73.4515 39.7465 73.5118 39.7204C73.5721 39.6944 73.6688 39.6514 73.727 39.6244C73.7853 39.5974 73.8373 39.5754 73.8435 39.5754C73.8497 39.5754 73.8955 39.5554 73.9454 39.5303C73.9953 39.5053 74.04 39.4853 74.0442 39.4853C74.0494 39.4853 74.091 39.4673 74.1388 39.4463C74.1856 39.4253 74.2782 39.3833 74.3437 39.3553C74.4092 39.3262 74.5069 39.2832 74.5589 39.2592C74.612 39.2352 74.6598 39.2152 74.665 39.2152C74.6702 39.2152 74.7045 39.2002 74.7409 39.1812C74.7773 39.1632 74.8179 39.1452 74.8324 39.1412C74.847 39.1372 74.8959 39.1161 74.9416 39.0951C74.9874 39.0731 75.0789 39.0331 75.1444 39.0041C75.2099 38.9761 75.3035 38.9351 75.3524 38.913C75.4012 38.89 75.4574 38.867 75.4771 38.86C75.4969 38.853 75.5375 38.836 75.5655 38.822C75.6144 38.799 75.7298 38.748 75.9815 38.6379C76.0387 38.6129 76.1187 38.5779 76.1583 38.5599C76.1988 38.5419 76.2591 38.5148 76.2934 38.5008C76.3278 38.4868 76.3787 38.4638 76.4068 38.4498C76.4858 38.4108 76.49 38.4128 76.4827 38.4918C76.4785 38.5299 76.4754 38.918 76.4754 39.3563V40.1527L76.4213 40.1757C76.2903 40.2307 76.1312 40.3007 76.0563 40.3367C76.0116 40.3588 75.97 40.3758 75.9648 40.3758C75.9586 40.3758 75.9108 40.3958 75.8588 40.4198C75.8057 40.4438 75.709 40.4868 75.6435 40.5158C75.4491 40.5999 75.3222 40.6559 75.2213 40.7019C75.1693 40.7259 75.1225 40.7459 75.1173 40.7459C75.1132 40.7459 75.0716 40.764 75.0248 40.785C74.979 40.807 74.8875 40.848 74.822 40.876C74.5485 40.9941 74.5111 41.0101 74.4186 41.0521C74.3655 41.0761 74.3198 41.0961 74.3166 41.0961C74.3135 41.0961 74.2719 41.1131 74.2262 41.1351C74.1794 41.1561 74.0868 41.1972 74.0213 41.2262C73.7842 41.3292 73.7343 41.3522 73.6272 41.4043C73.5326 41.4513 73.4338 41.5083 73.4182 41.5263C73.4151 41.5293 73.3995 41.5403 73.3828 41.5503C73.3132 41.5934 73.0823 41.8175 73.0501 41.8745C73.0449 41.8845 73.0376 41.8935 73.0335 41.8965C73.0241 41.9035 72.9503 42.0126 72.9503 42.0186C72.9503 42.0216 72.9336 42.0496 72.9139 42.0816C72.8941 42.1136 72.8702 42.1626 72.8608 42.1907C72.8515 42.2187 72.84 42.2467 72.8348 42.2517C72.8192 42.2717 72.7828 42.3757 72.7672 42.4478C72.7402 42.5768 72.6934 42.956 72.6799 43.1641C72.6737 43.2512 72.6508 43.4863 72.6289 43.6874C72.6061 43.8885 72.5853 44.0996 72.5811 44.1576C72.577 44.2156 72.5603 44.3817 72.5437 44.5278C72.527 44.6739 72.5104 44.837 72.5062 44.891L72.5 44.988L72.5821 44.952C72.6269 44.932 72.7111 44.896 72.7683 44.871C72.8255 44.846 72.9149 44.8059 72.9669 44.7819C73.0199 44.7579 73.0667 44.7379 73.0719 44.7379C73.0771 44.7379 73.1166 44.7199 73.1603 44.6989C73.204 44.6769 73.2508 44.6569 73.2643 44.6529C73.2872 44.6459 73.3267 44.6289 73.5555 44.5238C73.6106 44.4988 73.6595 44.4778 73.6647 44.4778C73.6688 44.4778 73.7094 44.4598 73.7562 44.4388C73.8019 44.4167 73.8653 44.3897 73.8965 44.3777C73.9277 44.3657 73.9683 44.3477 73.986 44.3367C74.0036 44.3267 74.0369 44.3117 74.0588 44.3037C74.0983 44.2907 74.1991 44.2457 74.3697 44.1676C74.4154 44.1466 74.4643 44.1266 74.4789 44.1226C74.4934 44.1186 74.5454 44.0956 74.5943 44.0716C74.6442 44.0476 74.6868 44.0276 74.691 44.0276C74.6952 44.0276 74.7316 44.0115 74.7732 43.9915C74.8137 43.9715 74.8657 43.9495 74.8875 43.9415C74.925 43.9285 74.952 43.9165 75.1881 43.8084C75.2494 43.7804 75.3035 43.7574 75.3087 43.7574C75.3128 43.7574 75.3586 43.7374 75.4085 43.7124C75.4595 43.6874 75.5063 43.6674 75.5135 43.6674C75.5208 43.6674 75.5562 43.6524 75.5936 43.6334C75.631 43.6154 75.6726 43.5963 75.6862 43.5923C75.7101 43.5853 75.7933 43.5483 75.994 43.4563C76.0397 43.4353 76.0823 43.4173 76.0875 43.4173C76.0917 43.4173 76.1333 43.3992 76.1791 43.3782C76.3267 43.3082 76.4463 43.2572 76.4619 43.2572C76.4744 43.2572 76.4754 43.3732 76.4702 44.0296C76.4671 44.4548 76.4629 45.7364 76.4598 46.876L76.4536 48.95L76.4827 48.938C76.4983 48.932 76.5264 48.916 76.543 48.905C76.5607 48.8929 76.6044 48.8679 76.6418 48.8499C76.6792 48.8319 76.7239 48.8079 76.7406 48.7959C76.7583 48.7829 76.7999 48.7599 76.8342 48.7429C76.8685 48.7259 76.9153 48.7009 76.9371 48.6858C76.959 48.6718 76.9818 48.6598 76.986 48.6598C76.9912 48.6598 77.0276 48.6398 77.0681 48.6148C77.1087 48.5898 77.1451 48.5698 77.1492 48.5698C77.1534 48.5698 77.1898 48.5498 77.2293 48.5248C77.2699 48.4998 77.3073 48.4797 77.3135 48.4797C77.3198 48.4797 77.3447 48.4667 77.3676 48.4497C77.3915 48.4337 77.4331 48.4097 77.4622 48.3967C77.4903 48.3827 77.535 48.3587 77.561 48.3407C77.5881 48.3237 77.613 48.3097 77.6172 48.3097C77.6224 48.3097 77.6598 48.2887 77.7025 48.2636C77.7451 48.2386 77.7898 48.2136 77.8023 48.2096C77.8137 48.2046 77.8532 48.1826 77.8896 48.1606C77.926 48.1376 77.9593 48.1196 77.9645 48.1196C77.9697 48.1196 77.9988 48.1046 78.0279 48.0856C78.0581 48.0665 78.0934 48.0465 78.108 48.0415C78.1226 48.0365 78.159 48.0155 78.1902 47.9955C78.2203 47.9755 78.2484 47.9595 78.2525 47.9595C78.2567 47.9595 78.3097 47.9285 78.3701 47.8905C78.526 47.7924 78.6924 47.6313 78.7974 47.4763C78.8411 47.4122 78.8775 47.3562 78.8775 47.3522C78.8775 47.3492 78.8941 47.3132 78.9139 47.2732C78.9545 47.1911 79.0169 46.972 79.0324 46.8559C79.0397 46.8039 79.046 45.9085 79.0512 44.1966C79.0543 42.7779 79.0605 41.6164 79.0636 41.6164C79.0761 41.6174 79.2435 41.7084 79.333 41.7644C79.3704 41.7875 79.4058 41.8065 79.411 41.8065C79.4151 41.8065 79.4463 41.8235 79.4786 41.8435C79.5368 41.8795 79.569 41.8965 79.7011 41.9655C79.7375 41.9836 79.7853 42.0116 79.8082 42.0266C79.8487 42.0536 79.9423 42.1066 80.0411 42.1566C80.0682 42.1706 80.1118 42.1967 80.1378 42.2137C80.1638 42.2307 80.1971 42.2477 80.2106 42.2517C80.2231 42.2567 80.2491 42.2697 80.2657 42.2817C80.2834 42.2947 80.3281 42.3207 80.3666 42.3407C80.4051 42.3607 80.4539 42.3877 80.4747 42.4018C80.4955 42.4158 80.5174 42.4268 80.5226 42.4268C80.5278 42.4268 80.5631 42.4468 80.6026 42.4718C80.6422 42.4968 80.6775 42.5168 80.6827 42.5168C80.6879 42.5168 80.7243 42.5368 80.7628 42.5618C80.8023 42.5868 80.8377 42.6069 80.8429 42.6069C80.847 42.6069 80.8678 42.6179 80.8886 42.6319C80.9104 42.6459 80.9635 42.6759 81.0072 42.6979C81.0508 42.7209 81.0945 42.7449 81.1028 42.7529C81.1111 42.7599 81.1309 42.7699 81.1455 42.7759C81.16 42.7809 81.2006 42.802 81.2338 42.823C81.2671 42.844 81.3129 42.87 81.3337 42.882C81.4657 42.951 81.5572 43.0021 81.5708 43.0131C81.5791 43.0191 81.6196 43.0421 81.6592 43.0621C81.6997 43.0831 81.7434 43.1081 81.7569 43.1181C81.7704 43.1291 81.786 43.1371 81.7912 43.1371C81.7975 43.1371 81.8307 43.1551 81.8661 43.1771C81.9014 43.1991 81.9493 43.2272 81.9732 43.2392C82.0907 43.3012 82.1708 43.3452 82.2165 43.3752C82.2446 43.3922 82.2706 43.4073 82.2748 43.4073C82.28 43.4073 82.3143 43.4273 82.3527 43.4513C82.3912 43.4763 82.4328 43.4993 82.4443 43.5023C82.4567 43.5063 82.4942 43.5263 82.5274 43.5483C82.5618 43.5693 82.593 43.5873 82.5982 43.5873C82.6034 43.5873 82.6252 43.5983 82.646 43.6124C82.6668 43.6254 82.7105 43.6514 82.7437 43.6684C82.776 43.6864 82.8217 43.7124 82.8446 43.7274C82.8675 43.7424 82.8976 43.7584 82.9101 43.7624C82.9236 43.7664 82.9548 43.7824 82.9777 43.7974C83.0016 43.8125 83.0453 43.8385 83.0744 43.8535C83.1025 43.8695 83.1514 43.8955 83.1815 43.9125C83.2117 43.9285 83.2678 43.9615 83.3053 43.9855C83.3427 44.0085 83.3791 44.0276 83.3853 44.0276C83.3905 44.0276 83.428 44.0476 83.4664 44.0726C83.506 44.0976 83.5413 44.1176 83.5455 44.1176C83.5486 44.1176 83.5891 44.1396 83.6349 44.1676C83.6807 44.1946 83.7223 44.2176 83.7275 44.2176C83.7327 44.2176 83.7514 44.2287 83.769 44.2417C83.7867 44.2547 83.8273 44.2777 83.8585 44.2927C83.8897 44.3077 83.9344 44.3327 83.9573 44.3477C83.9801 44.3627 84.0155 44.3827 84.0353 44.3917C84.055 44.4007 84.0924 44.4207 84.1184 44.4378C84.1444 44.4538 84.1767 44.4728 84.1912 44.4778C84.2058 44.4838 84.2411 44.5048 84.2713 44.5238C84.3004 44.5428 84.3295 44.5578 84.3347 44.5578C84.3399 44.5578 84.3763 44.5778 84.4158 44.6028C84.4554 44.6269 84.4918 44.6479 84.4959 44.6479C84.5001 44.6479 84.5354 44.6679 84.5749 44.6929C84.6145 44.7179 84.6498 44.7379 84.655 44.7379C84.6602 44.7379 84.681 44.7479 84.7008 44.7609C84.7517 44.7919 84.8942 44.872 84.9555 44.904C84.9847 44.919 85.0314 44.945 85.0595 44.963C85.0886 44.98 85.1438 45.013 85.1833 45.0341C85.2228 45.0551 85.28 45.0861 85.3101 45.1031C85.3403 45.1191 85.3964 45.1501 85.436 45.1721C85.4744 45.1931 85.5254 45.2231 85.5483 45.2372C85.5711 45.2522 85.6159 45.2772 85.647 45.2922C85.6782 45.3082 85.7115 45.3262 85.7198 45.3332C85.7282 45.3402 85.7562 45.3572 85.7822 45.3712C85.8082 45.3842 85.8665 45.4142 85.9122 45.4382C85.958 45.4623 86.01 45.4913 86.0266 45.5033C86.0443 45.5153 86.0838 45.5373 86.115 45.5533C86.1462 45.5683 86.1867 45.5913 86.2044 45.6043C86.2221 45.6173 86.2408 45.6283 86.246 45.6283C86.2512 45.6283 86.2928 45.6514 86.3386 45.6784C86.3843 45.7064 86.4249 45.7284 86.429 45.7284C86.4321 45.7284 86.4644 45.7464 86.4987 45.7684C86.533 45.7904 86.5653 45.8084 86.5705 45.8084C86.5757 45.8084 86.6068 45.8254 86.6412 45.8464C86.7098 45.8885 86.8169 45.9495 86.898 45.9905C86.9271 46.0055 86.9698 46.0305 86.9926 46.0455C87.0166 46.0606 87.0592 46.0846 87.0873 46.0986C87.1361 46.1236 87.1871 46.1516 87.3233 46.2296C87.394 46.2707 87.4814 46.3187 87.5178 46.3377C87.5323 46.3447 87.5739 46.3687 87.6093 46.3897C87.6446 46.4117 87.6779 46.4287 87.6821 46.4287C87.6873 46.4287 87.7164 46.4457 87.7497 46.4668C87.7819 46.4868 87.8412 46.5218 87.8828 46.5438C87.9535 46.5818 87.9899 46.6018 88.0918 46.6588C88.1157 46.6729 88.1562 46.6949 88.1802 46.7089C88.2249 46.7329 88.3153 46.7839 88.5067 46.891C88.5587 46.92 88.618 46.953 88.6398 46.964C88.6606 46.975 88.7032 47 88.7344 47.018C88.7656 47.037 88.8082 47.062 88.8301 47.0731C88.8717 47.0951 88.984 47.1571 89.1462 47.2491C89.1982 47.2782 89.2616 47.3132 89.2887 47.3282C89.4145 47.3962 89.4831 47.4352 89.531 47.4652C89.5601 47.4843 89.5881 47.4993 89.5944 47.4993C89.5996 47.4993 89.636 47.5193 89.6755 47.5443C89.714 47.5683 89.7556 47.5913 89.766 47.5943C89.7774 47.5983 89.8148 47.6183 89.8481 47.6403C89.8824 47.6613 89.9136 47.6794 89.9188 47.6794C89.9251 47.6794 89.9521 47.6944 89.9802 47.7134C90.0083 47.7324 90.0571 47.7594 90.0883 47.7744C90.1195 47.7894 90.159 47.8124 90.1757 47.8244C90.1933 47.8364 90.2277 47.8564 90.2537 47.8684C90.2797 47.8815 90.3202 47.9045 90.3441 47.9195C90.367 47.9345 90.3961 47.9505 90.4076 47.9535C90.419 47.9575 90.4606 47.9805 90.4991 48.0045C90.5386 48.0295 90.5739 48.0495 90.5781 48.0495C90.5833 48.0495 90.6114 48.0655 90.6415 48.0846C90.6706 48.1036 90.6998 48.1196 90.705 48.1196C90.7091 48.1196 90.7445 48.1396 90.783 48.1636C90.8204 48.1876 90.863 48.2106 90.8765 48.2146C90.8901 48.2186 90.9254 48.2386 90.9535 48.2576C90.9826 48.2776 91.0273 48.3037 91.0533 48.3167C91.0793 48.3287 91.1438 48.3637 91.1947 48.3937C91.2467 48.4237 91.3164 48.4627 91.3507 48.4797C91.385 48.4968 91.4277 48.5218 91.4443 48.5338C91.462 48.5468 91.4963 48.5668 91.5223 48.5788C91.5712 48.6018 91.7043 48.6758 91.7791 48.7229C91.8041 48.7379 91.827 48.7499 91.8322 48.7499C91.8363 48.7499 91.8655 48.7659 91.8967 48.7859C91.9279 48.8059 91.9684 48.8289 91.985 48.8369C92.0027 48.8439 92.037 48.8639 92.063 48.8799C92.089 48.8969 92.1285 48.919 92.1514 48.93C92.1743 48.941 92.2117 48.962 92.2357 48.975L92.2783 49L92.2845 48.6018C92.2887 48.3837 92.2918 47.8955 92.2918 47.5183C92.2918 46.7869 92.2897 46.7569 92.2388 46.5858C92.2273 46.5458 92.2117 46.4938 92.2045 46.4688C92.1857 46.4077 92.0828 46.2126 92.0433 46.1646C92.0256 46.1436 92.011 46.1216 92.011 46.1156C92.011 46.1046 91.8592 45.9385 91.8176 45.9035C91.7365 45.8354 91.7095 45.8144 91.6637 45.7814C91.6346 45.7614 91.5857 45.7324 91.5545 45.7154C91.5223 45.6984 91.4817 45.6744 91.4641 45.6614C91.4464 45.6484 91.4277 45.6383 91.4225 45.6383C91.4173 45.6383 91.3788 45.6183 91.3372 45.5933C91.2956 45.5683 91.2582 45.5483 91.253 45.5483C91.2488 45.5483 91.2259 45.5353 91.2031 45.5193C91.1791 45.5033 91.1355 45.4773 91.1053 45.4623C91.0741 45.4473 91.0304 45.4232 91.0076 45.4082C90.9847 45.3942 90.9587 45.3792 90.9504 45.3762C90.9421 45.3732 90.8994 45.3502 90.8568 45.3242C90.8141 45.2992 90.7757 45.2782 90.7715 45.2782C90.7674 45.2782 90.732 45.2582 90.6935 45.2331C90.6551 45.2081 90.6187 45.1881 90.6135 45.1881C90.6072 45.1881 90.575 45.1701 90.5407 45.1481C90.5074 45.1261 90.4752 45.1081 90.471 45.1081C90.4658 45.1081 90.4346 45.0911 90.4024 45.0701C90.3691 45.0501 90.3202 45.022 90.2932 45.008C90.2266 44.974 90.1112 44.911 90.0665 44.883C90.0467 44.87 90.0031 44.846 89.9708 44.8289C89.9375 44.8119 89.8939 44.7859 89.8731 44.7729C89.8523 44.7589 89.8304 44.7479 89.8252 44.7479C89.82 44.7479 89.7847 44.7289 89.7462 44.7049C89.7077 44.6819 89.663 44.6549 89.6453 44.6459C89.481 44.5578 89.4342 44.5318 89.4114 44.5148C89.3968 44.5048 89.3698 44.4898 89.3511 44.4828C89.3323 44.4748 89.2928 44.4538 89.2627 44.4358C89.2336 44.4177 89.1951 44.3947 89.1774 44.3857C89.1483 44.3697 89.1264 44.3577 89.0204 44.2977C88.9965 44.2837 88.9424 44.2547 88.9018 44.2327C88.8602 44.2106 88.8041 44.1776 88.776 44.1606C88.7479 44.1426 88.7219 44.1276 88.7188 44.1276C88.7147 44.1276 88.6772 44.1076 88.6356 44.0826C88.5951 44.0576 88.5576 44.0376 88.5535 44.0376C88.5483 44.0376 88.5192 44.0206 88.488 44.0005C88.4557 43.9805 88.4069 43.9535 88.3798 43.9405C88.3517 43.9275 88.3101 43.9035 88.2862 43.8875C88.2634 43.8705 88.2394 43.8575 88.2342 43.8575C88.229 43.8575 88.1916 43.8375 88.1521 43.8124C88.1126 43.7874 88.0762 43.7674 88.072 43.7674C88.0679 43.7674 88.0325 43.7474 87.993 43.7224C87.9545 43.6984 87.9129 43.6754 87.9004 43.6714C87.888 43.6684 87.8703 43.6594 87.862 43.6524C87.8453 43.6384 87.6925 43.5533 87.5885 43.4993C87.5531 43.4803 87.5095 43.4553 87.4907 43.4413C87.4731 43.4283 87.4533 43.4173 87.4491 43.4173C87.4439 43.4173 87.4055 43.3972 87.3639 43.3722C87.3223 43.3472 87.2848 43.3272 87.2817 43.3272C87.2776 43.3272 87.2536 43.3132 87.2276 43.2962C87.2016 43.2802 87.1538 43.2522 87.1205 43.2362C87.0862 43.2192 87.0405 43.1931 87.0176 43.1771C86.9812 43.1511 86.9781 43.1461 86.9947 43.1401C87.0062 43.1371 87.0405 43.1171 87.0727 43.0971C87.1049 43.0771 87.1445 43.0551 87.1611 43.0501C87.1777 43.0441 87.2193 43.0211 87.2526 42.998C87.2869 42.976 87.3192 42.957 87.3254 42.957C87.3316 42.957 87.3535 42.947 87.3732 42.934C87.4346 42.896 87.6571 42.7729 87.811 42.6919C87.8568 42.6679 87.9348 42.6249 88.0159 42.5778C88.0481 42.5598 88.0991 42.5318 88.1271 42.5168C88.1562 42.5018 88.202 42.4758 88.2301 42.4578C88.2592 42.4408 88.2862 42.4268 88.2904 42.4268C88.2956 42.4268 88.3133 42.4178 88.3299 42.4068C88.3476 42.3958 88.3736 42.3787 88.3902 42.3677C88.4058 42.3577 88.4308 42.3457 88.4443 42.3417C88.4588 42.3377 88.4848 42.3237 88.5015 42.3117C88.5192 42.2987 88.5628 42.2737 88.6003 42.2567C88.6377 42.2387 88.6751 42.2177 88.6835 42.2107C88.7001 42.1977 88.8155 42.1336 88.907 42.0866C88.9361 42.0726 88.9871 42.0436 89.0204 42.0226C89.0547 42.0016 89.09 41.9826 89.0984 41.9795C89.1077 41.9755 89.1483 41.9535 89.1888 41.9305C89.2294 41.9065 89.2668 41.8865 89.272 41.8865C89.2772 41.8865 89.3095 41.8685 89.3438 41.8465C89.3781 41.8245 89.4093 41.8065 89.4134 41.8065C89.4186 41.8065 89.455 41.7865 89.4966 41.7614C89.5382 41.7364 89.5757 41.7164 89.5788 41.7164C89.5829 41.7164 89.6204 41.6964 89.662 41.6714C89.7036 41.6464 89.742 41.6264 89.7462 41.6264C89.7504 41.6264 89.7868 41.6064 89.8263 41.5814C89.8658 41.5563 89.9032 41.5363 89.9084 41.5363C89.9136 41.5363 89.9365 41.5243 89.9583 41.5103C89.9979 41.4843 90.1216 41.4153 90.2069 41.3713C90.2297 41.3602 90.2765 41.3332 90.3098 41.3122C90.3431 41.2912 90.3816 41.2712 90.394 41.2662C90.4065 41.2612 90.4429 41.2412 90.4752 41.2222C90.5074 41.2022 90.5459 41.1812 90.5615 41.1762C90.5771 41.1702 90.6031 41.1561 90.6197 41.1451C90.6519 41.1231 90.7642 41.0601 90.8526 41.0161C90.8817 41.0011 90.9275 40.9751 90.9535 40.957C90.9795 40.94 91.0138 40.921 91.0304 40.915C91.046 40.909 91.0835 40.889 91.1126 40.87C91.1427 40.852 91.1781 40.832 91.1916 40.827C91.2062 40.822 91.2467 40.799 91.2831 40.777C91.3195 40.7539 91.3518 40.7359 91.357 40.7359C91.3611 40.7359 91.3986 40.7159 91.4402 40.6909C91.4817 40.6659 91.5192 40.6459 91.5233 40.6459C91.5265 40.6459 91.5618 40.6259 91.6013 40.6009C91.6398 40.5759 91.6772 40.5558 91.6845 40.5558C91.6908 40.5558 91.7199 40.5408 91.748 40.5218C91.776 40.5028 91.827 40.4738 91.8613 40.4568C91.8946 40.4388 91.9393 40.4158 91.959 40.4038C91.9788 40.3928 92.0339 40.3618 92.0807 40.3347C92.1275 40.3077 92.1691 40.2857 92.1722 40.2857C92.1764 40.2857 92.2065 40.2697 92.2388 40.2507L92.2991 40.2147L92.3053 39.7274C92.3095 39.4593 92.3126 38.6999 92.3126 38.0396C92.3126 37.3793 92.3157 36.6749 92.3199 36.4738L92.3272 36.1087L92.428 36.0606C92.4842 36.0346 92.5351 36.0136 92.5424 36.0136C92.5487 36.0136 92.5902 35.9956 92.6339 35.9746C92.6776 35.9526 92.767 35.9116 92.8325 35.8836C92.9948 35.8135 93.1414 35.7495 93.2558 35.6975C93.3088 35.6734 93.3587 35.6534 93.366 35.6534C93.3733 35.6534 93.3878 35.6474 93.3993 35.6394C93.4107 35.6324 93.4554 35.6114 93.498 35.5944C93.5407 35.5764 93.6093 35.5474 93.6488 35.5284C93.6894 35.5104 93.7757 35.4714 93.8412 35.4433C93.9067 35.4143 94.0045 35.3713 94.0575 35.3473C94.1095 35.3233 94.1594 35.3033 94.1667 35.3033C94.1729 35.3033 94.2 35.2913 94.226 35.2773C94.252 35.2632 94.3008 35.2402 94.3351 35.2262C94.4069 35.1972 94.5327 35.1412 94.6679 35.0772C94.7199 35.0531 94.7656 35.0331 94.7698 35.0331C94.774 35.0331 94.802 35.0161 94.8322 34.9951C94.8624 34.9731 94.8988 34.9501 94.9143 34.9421C94.9674 34.9151 95.1296 34.777 95.2055 34.693C95.3116 34.5769 95.3677 34.5029 95.4322 34.3928C95.532 34.2227 95.6121 33.9636 95.6246 33.7775C95.6277 33.7165 95.6475 33.5264 95.6672 33.3533C95.687 33.1812 95.7098 32.9561 95.7182 32.8531C95.7265 32.751 95.7494 32.5179 95.7691 32.3368C95.7889 32.1547 95.8086 31.9616 95.8118 31.9066C95.8159 31.8516 95.8274 31.7315 95.8367 31.6385C95.8492 31.5254 95.8513 31.4714 95.844 31.4714C95.8336 31.4714 95.7327 31.5154 95.5081 31.6175C95.4561 31.6415 95.4093 31.6615 95.4052 31.6615C95.401 31.6615 95.3605 31.6795 95.3137 31.7005C95.2679 31.7225 95.1754 31.7625 95.1098 31.7915C95.0443 31.8196 94.958 31.8576 94.9175 31.8766C94.878 31.8946 94.8187 31.9196 94.7875 31.9316C94.7563 31.9436 94.7209 31.9586 94.7085 31.9666C94.696 31.9736 94.6565 31.9916 94.6201 32.0066C94.5837 32.0217 94.5254 32.0457 94.4911 32.0617C94.4568 32.0767 94.3747 32.1127 94.3091 32.1417C94.2436 32.1707 94.1469 32.2137 94.0949 32.2378C94.0419 32.2618 93.9951 32.2818 93.9899 32.2818C93.9837 32.2818 93.9369 32.3018 93.8849 32.3268C93.8329 32.3518 93.7871 32.3718 93.783 32.3718C93.7788 32.3718 93.7372 32.3898 93.6915 32.4108C93.6447 32.4329 93.5532 32.4739 93.4877 32.5019C93.4221 32.5309 93.3254 32.5739 93.2734 32.5979C93.2214 32.622 93.1736 32.642 93.1674 32.642C93.1611 32.642 93.1195 32.66 93.0748 32.681C93.0301 32.703 92.9396 32.744 92.8741 32.772C92.7213 32.8381 92.5674 32.9061 92.4717 32.9491C92.4301 32.9681 92.3823 32.9871 92.3646 32.9921L92.3334 33.0011V32.2007C92.3334 31.6745 92.3303 31.4014 92.323 31.4014C92.3178 31.4014 92.3126 31.3963 92.3126 31.3913C92.3126 31.3853 92.3199 31.3813 92.3282 31.3813C92.3376 31.3813 92.3802 31.3643 92.4249 31.3423C92.4686 31.3213 92.5164 31.3003 92.531 31.2963C92.5455 31.2923 92.5923 31.2723 92.636 31.2513C92.6786 31.2303 92.7254 31.2103 92.74 31.2063C92.7535 31.2023 92.793 31.1852 92.8273 31.1692C92.8617 31.1522 92.9074 31.1332 92.9292 31.1252C92.95 31.1182 93.002 31.0962 93.0436 31.0772C93.1123 31.0462 93.2121 31.0022 93.4461 30.9011C93.4949 30.8801 93.5864 30.8401 93.6488 30.8121C93.7123 30.784 93.7674 30.761 93.7705 30.761C93.7747 30.761 93.8214 30.741 93.8755 30.716C93.9296 30.691 93.9785 30.671 93.9847 30.671C93.9909 30.671 94.0357 30.651 94.0866 30.626C94.1365 30.601 94.1833 30.5809 94.1906 30.5809C94.1979 30.5809 94.2457 30.5609 94.2956 30.5359C94.3455 30.5109 94.3934 30.4909 94.4027 30.4909C94.4121 30.4909 94.4235 30.4869 94.4298 30.4819C94.435 30.4769 94.4786 30.4569 94.5275 30.4359C94.5764 30.4159 94.6492 30.3839 94.6887 30.3658C94.7293 30.3468 94.7875 30.3208 94.8187 30.3058C94.9622 30.2408 95.1046 30.1427 95.2284 30.0247C95.3241 29.9326 95.3355 29.9176 95.4145 29.8056C95.4967 29.6885 95.5258 29.6395 95.5476 29.5845C95.5601 29.5514 95.5736 29.5204 95.5778 29.5154C95.6298 29.4424 95.6953 29.0322 95.7182 28.635C95.7223 28.569 95.741 28.3709 95.7608 28.1948C95.7806 28.0187 95.8014 27.8116 95.8066 27.7345C95.8159 27.6145 95.8585 27.2033 95.8731 27.1002C95.8773 27.0722 95.8752 27.0682 95.8606 27.0722C95.8315 27.0802 95.7338 27.1202 95.6537 27.1553C95.6131 27.1733 95.5591 27.1943 95.5341 27.2023C95.5092 27.2113 95.454 27.2333 95.4114 27.2523C95.3688 27.2713 95.322 27.2903 95.3074 27.2943C95.2929 27.2983 95.2429 27.3183 95.1951 27.3404C95.1473 27.3614 95.1046 27.3794 95.0984 27.3794C95.0932 27.3794 95.0371 27.4014 94.9736 27.4294C94.9102 27.4564 94.854 27.4794 94.8499 27.4794C94.8447 27.4794 94.7968 27.4994 94.7438 27.5244C94.6908 27.5495 94.6409 27.5695 94.6346 27.5695C94.6273 27.5695 94.5878 27.5845 94.5462 27.6035C94.4641 27.6405 94.3445 27.6905 94.2624 27.7215C94.2343 27.7325 94.1875 27.7516 94.1584 27.7646C94.1303 27.7766 94.0783 27.7976 94.044 27.8096C94.0097 27.8226 93.9494 27.8476 93.9088 27.8656C93.8693 27.8836 93.8007 27.9126 93.758 27.9306C93.626 27.9837 93.5272 28.0257 93.4617 28.0547C93.4273 28.0697 93.3826 28.0877 93.3629 28.0947C93.3431 28.1017 93.2963 28.1207 93.2589 28.1377C93.1788 28.1738 93.0436 28.2308 92.9417 28.2698C92.9022 28.2858 92.8409 28.3128 92.8076 28.3288C92.7733 28.3458 92.741 28.3599 92.7348 28.3599C92.7285 28.3599 92.6807 28.3799 92.6298 28.4039C92.5778 28.4279 92.5247 28.4509 92.5102 28.4549C92.4956 28.4589 92.454 28.4769 92.4166 28.4949C92.3792 28.5119 92.3303 28.5329 92.3074 28.5399C92.2845 28.5469 92.2294 28.57 92.1857 28.591C92.141 28.613 92.0994 28.63 92.0932 28.63C92.0869 28.63 92.0454 28.647 92.0017 28.669C91.958 28.69 91.9112 28.711 91.8967 28.715C91.8821 28.719 91.8384 28.738 91.7979 28.757C91.7584 28.7761 91.6949 28.8031 91.6575 28.8171C91.62 28.8311 91.5764 28.8501 91.5587 28.8601C91.5421 28.8701 91.5161 28.8811 91.5015 28.8851C91.4869 28.8891 91.4277 28.9141 91.3694 28.9411C91.3102 28.9682 91.2582 28.9902 91.253 28.9902C91.2436 28.9902 91.1594 29.0282 90.9348 29.1312C90.888 29.1532 90.8464 29.1703 90.8412 29.1703C90.836 29.1703 90.8027 29.1833 90.7684 29.2003C90.7341 29.2163 90.6738 29.2423 90.6332 29.2583C90.5937 29.2753 90.5063 29.3113 90.4408 29.3403C90.3753 29.3683 90.2932 29.4034 90.2589 29.4174C90.2245 29.4304 90.158 29.4594 90.1112 29.4814C90.0654 29.5024 90.0228 29.5204 90.0176 29.5204C90.0135 29.5204 89.9719 29.5384 89.9261 29.5604C89.8804 29.5825 89.8388 29.6005 89.8346 29.6005C89.8304 29.6005 89.7774 29.6225 89.7181 29.6505C89.6589 29.6775 89.6048 29.7005 89.5996 29.7005C89.5933 29.7005 89.5486 29.7195 89.5008 29.7425L89.4134 29.7836L89.3531 29.7445C89.3188 29.7225 89.2845 29.7015 89.2741 29.6985C89.2647 29.6945 89.2263 29.6735 89.1878 29.6515C89.1493 29.6285 89.116 29.6105 89.1129 29.6105C89.1098 29.6105 89.0807 29.5935 89.0495 29.5735C89.0173 29.5534 88.9684 29.5264 88.9413 29.5134C88.9133 29.5004 88.8717 29.4764 88.8478 29.4604C88.8249 29.4434 88.801 29.4304 88.7958 29.4304C88.7906 29.4304 88.7573 29.4124 88.7209 29.3904C88.6845 29.3684 88.6512 29.3503 88.6471 29.3503C88.6429 29.3503 88.6076 29.3303 88.5701 29.3063C88.5327 29.2833 88.4911 29.2603 88.4786 29.2563C88.4661 29.2523 88.4381 29.2373 88.4162 29.2233C88.3736 29.1953 88.2342 29.1162 88.1427 29.0682C88.1115 29.0512 88.071 29.0272 88.0523 29.0142C88.0346 29.0012 88.0148 28.9902 88.0107 28.9902C88.0055 28.9902 87.967 28.9702 87.9254 28.9451C87.8838 28.9201 87.8464 28.9001 87.8422 28.9001C87.8391 28.9001 87.81 28.8841 87.7788 28.8641C87.7476 28.8441 87.6956 28.8151 87.6644 28.8001C87.6332 28.7841 87.5916 28.7601 87.5718 28.746C87.5521 28.732 87.5302 28.72 87.525 28.72C87.5188 28.72 87.4814 28.7 87.4429 28.675C87.4034 28.65 87.368 28.63 87.3628 28.63C87.3587 28.63 87.3379 28.619 87.3171 28.605C87.2963 28.591 87.2474 28.564 87.2089 28.5439C87.1705 28.5239 87.1268 28.4989 87.1122 28.4889C87.0966 28.4789 87.0727 28.4659 87.0571 28.4599C87.0415 28.4549 87.001 28.4319 86.9666 28.4099C86.9323 28.3879 86.9001 28.3699 86.8959 28.3699C86.8907 28.3699 86.8699 28.3589 86.8491 28.3448C86.8283 28.3308 86.7795 28.3038 86.741 28.2838C86.7025 28.2638 86.6599 28.2398 86.6453 28.2298C86.6224 28.2158 86.5434 28.1708 86.4321 28.1117C86.4155 28.1027 86.375 28.0797 86.3438 28.0607C86.3126 28.0417 86.2658 28.0157 86.2398 28.0027C86.2138 27.9897 86.1514 27.9547 86.0994 27.9246C86.0484 27.8946 85.9798 27.8576 85.9486 27.8406C85.9174 27.8246 85.8665 27.7956 85.8363 27.7766C85.8072 27.7566 85.7718 27.7375 85.7594 27.7335C85.7365 27.7265 85.723 27.7195 85.6502 27.6715C85.6314 27.6595 85.6127 27.6495 85.6075 27.6495C85.6023 27.6495 85.5701 27.6315 85.5368 27.6095C85.5025 27.5875 85.4703 27.5695 85.4651 27.5695C85.4588 27.5695 85.4287 27.5535 85.3975 27.5334C85.3663 27.5134 85.3101 27.4814 85.2727 27.4614C85.2353 27.4424 85.1926 27.4184 85.177 27.4084C85.1625 27.3974 85.1448 27.3894 85.1396 27.3894C85.1344 27.3894 85.1063 27.3744 85.0782 27.3554C85.0502 27.3364 85.0023 27.3093 84.9722 27.2943C84.942 27.2803 84.8983 27.2543 84.8744 27.2383C84.8515 27.2223 84.8287 27.2093 84.8245 27.2093C84.8193 27.2093 84.7819 27.1893 84.7403 27.1653C84.6987 27.1413 84.6519 27.1152 84.6363 27.1082C84.6217 27.1002 84.5729 27.0732 84.5292 27.0462C84.4512 26.9992 84.4262 26.9912 84.4158 27.0082ZM84.5344 29.9296C84.5604 29.9466 84.5853 29.9606 84.5895 29.9606C84.5937 29.9606 84.629 29.9806 84.6685 30.0057C84.708 30.0307 84.7434 30.0507 84.7476 30.0507C84.7559 30.0507 84.9025 30.1327 84.9919 30.1858C85.0294 30.2088 85.1292 30.2638 85.2269 30.3158C85.332 30.3718 85.4235 30.4239 85.4391 30.4359C85.4474 30.4429 85.4921 30.4669 85.5379 30.4909C85.5836 30.5139 85.6356 30.5439 85.6533 30.5569C85.671 30.5699 85.6907 30.5809 85.698 30.5809C85.7042 30.5809 85.7417 30.6 85.7802 30.624C85.8186 30.647 85.8644 30.674 85.881 30.683C85.8987 30.692 85.9517 30.721 86.0006 30.747C86.0495 30.773 86.1035 30.8041 86.1202 30.8161C86.1379 30.8281 86.1763 30.8501 86.2075 30.8651C86.2387 30.8811 86.2762 30.9011 86.2907 30.9101C86.3396 30.9421 86.4987 31.0312 86.506 31.0312C86.5101 31.0312 86.5372 31.0472 86.5673 31.0662C86.5975 31.0842 86.6464 31.1132 86.6776 31.1292C86.7088 31.1442 86.7763 31.1812 86.8273 31.2113C86.8793 31.2403 86.9396 31.2743 86.9625 31.2863C86.9854 31.2983 87.0249 31.3203 87.0498 31.3353C87.0748 31.3513 87.1195 31.3763 87.1486 31.3913C87.2006 31.4174 87.2807 31.4634 87.3732 31.5174C87.3992 31.5334 87.445 31.5584 87.4762 31.5734C87.5074 31.5894 87.5479 31.6135 87.5666 31.6265C87.5854 31.6405 87.6041 31.6515 87.6093 31.6515C87.6145 31.6515 87.6519 31.6715 87.6935 31.6965C87.7351 31.7215 87.7725 31.7415 87.7777 31.7415C87.7829 31.7415 87.8121 31.7575 87.8422 31.7775C87.8734 31.7975 87.9244 31.8266 87.9556 31.8416C87.9867 31.8576 88.0283 31.8816 88.0481 31.8956C88.0679 31.9096 88.0897 31.9216 88.0949 31.9216C88.1011 31.9216 88.1375 31.9416 88.176 31.9656C88.2145 31.9906 88.2561 32.0136 88.2686 32.0167C88.281 32.0207 88.3101 32.0367 88.3341 32.0517C88.3757 32.0787 88.4692 32.1307 88.568 32.1817C88.5951 32.1957 88.6387 32.2218 88.6647 32.2388C88.6907 32.2558 88.724 32.2728 88.7375 32.2768C88.75 32.2818 88.776 32.2948 88.7926 32.3068C88.8103 32.3198 88.8592 32.3488 88.9018 32.3718C88.9445 32.3958 89.0162 32.4359 89.0609 32.4609C89.1046 32.4859 89.1639 32.5179 89.1909 32.5319C89.218 32.5459 89.2658 32.5719 89.297 32.5909C89.3282 32.6099 89.3719 32.635 89.3927 32.646C89.4634 32.684 89.5715 32.744 89.6245 32.776C89.6537 32.793 89.6911 32.814 89.7077 32.822L89.7389 32.8381L89.7358 35.6534C89.7348 37.2022 89.7306 38.5379 89.7275 38.6209L89.7213 38.772L89.6838 38.789C89.662 38.799 89.6287 38.817 89.6089 38.829C89.5705 38.853 89.4613 38.915 89.3895 38.9521C89.3656 38.9641 89.3147 38.9921 89.2762 39.0141C89.2367 39.0371 89.2024 39.0551 89.1992 39.0551C89.1961 39.0551 89.1639 39.0731 89.1264 39.0961C89.0589 39.1362 89.0339 39.1502 88.9102 39.2142C88.8738 39.2322 88.8207 39.2632 88.7916 39.2812C88.7625 39.3002 88.7344 39.3152 88.7292 39.3152C88.724 39.3152 88.7022 39.3262 88.6814 39.3403C88.6606 39.3543 88.6231 39.3753 88.5982 39.3883C88.5493 39.4133 88.4287 39.4803 88.3455 39.5283C88.3174 39.5444 88.2654 39.5724 88.2311 39.5904C88.1968 39.6074 88.15 39.6344 88.1282 39.6484C88.1063 39.6634 88.0835 39.6754 88.0783 39.6754C88.072 39.6754 88.0554 39.6834 88.0408 39.6944C88.0252 39.7044 87.9805 39.7294 87.94 39.7505C87.9004 39.7705 87.8599 39.7935 87.8516 39.8005C87.8432 39.8075 87.8058 39.8275 87.7684 39.8455C87.7309 39.8635 87.6935 39.8835 87.6852 39.8915C87.6758 39.8985 87.6342 39.9225 87.5916 39.9435C87.5479 39.9656 87.4949 39.9946 87.4731 40.0096C87.4512 40.0236 87.4283 40.0356 87.4231 40.0356C87.4169 40.0356 87.4003 40.0436 87.3857 40.0546C87.3701 40.0646 87.3316 40.0866 87.3004 40.1036C87.2692 40.1196 87.2162 40.1486 87.184 40.1667C87.1049 40.2127 87.0322 40.2527 86.9406 40.3007C86.9001 40.3227 86.8595 40.3457 86.8512 40.3527C86.8439 40.3588 86.8159 40.3738 86.7909 40.3858C86.7649 40.3968 86.7233 40.4188 86.6984 40.4338C86.6391 40.4698 86.5705 40.5068 86.4945 40.5458C86.4602 40.5639 86.4093 40.5929 86.3802 40.6119C86.3521 40.6299 86.3167 40.6489 86.3022 40.6539C86.2876 40.6589 86.2512 40.6799 86.2211 40.6989C86.1919 40.7189 86.1566 40.7379 86.1441 40.7419C86.1306 40.7459 86.1087 40.7559 86.0942 40.766C86.0162 40.817 85.9829 40.836 85.9725 40.836C85.9673 40.836 85.9455 40.847 85.9257 40.859C85.906 40.872 85.8592 40.899 85.8217 40.919C85.7843 40.939 85.7354 40.9671 85.7146 40.9811C85.6928 40.9951 85.6699 41.0061 85.6626 41.0061C85.6554 41.0061 85.6179 41.0261 85.5784 41.0511C85.5399 41.0761 85.5035 41.0961 85.4983 41.0961C85.4931 41.0961 85.4599 41.1141 85.4245 41.1361C85.3621 41.1752 85.3403 41.1872 85.2082 41.2552C85.1718 41.2732 85.1198 41.3032 85.0907 41.3222C85.0626 41.3402 85.0273 41.3592 85.0127 41.3642C84.9982 41.3692 84.9618 41.3903 84.9316 41.4093C84.9025 41.4293 84.8671 41.4483 84.8536 41.4523C84.8412 41.4553 84.8027 41.4763 84.7684 41.4973C84.734 41.5183 84.6862 41.5463 84.6623 41.5583C84.6384 41.5713 84.5937 41.5944 84.5635 41.6104C84.5333 41.6254 84.4824 41.6564 84.4502 41.6774L84.3909 41.7154L84.3275 41.6754C84.2931 41.6544 84.263 41.6364 84.2599 41.6364C84.2547 41.6364 84.1132 41.5563 84.0197 41.4993C83.9853 41.4783 83.9458 41.4573 83.9313 41.4513C83.899 41.4393 83.7711 41.3672 83.6879 41.3142C83.6536 41.2932 83.6224 41.2762 83.6162 41.2762C83.611 41.2762 83.5746 41.2562 83.5361 41.2312C83.4976 41.2062 83.4612 41.1862 83.4571 41.1862C83.4519 41.1862 83.4103 41.1631 83.3645 41.1361C83.3188 41.1081 83.2772 41.0861 83.272 41.0861C83.2668 41.0861 83.247 41.0751 83.2294 41.0621C83.2106 41.0481 83.168 41.0241 83.1347 41.0071C83.1015 40.9911 83.0578 40.9661 83.038 40.952C83.0183 40.937 82.9964 40.926 82.9912 40.926C82.985 40.926 82.9486 40.906 82.9101 40.882C82.8716 40.857 82.8311 40.835 82.8196 40.831C82.8082 40.828 82.7677 40.805 82.7292 40.781C82.6897 40.7559 82.6533 40.7359 82.6481 40.7359C82.6418 40.7359 82.6138 40.7209 82.5846 40.7019C82.5337 40.6689 82.4287 40.6099 82.3517 40.5709C82.3309 40.5599 82.2872 40.5358 82.256 40.5168C82.2259 40.4978 82.1812 40.4728 82.1583 40.4608C82.0959 40.4278 81.967 40.3558 81.915 40.3237C81.889 40.3087 81.865 40.2957 81.8598 40.2957C81.8547 40.2957 81.8214 40.2767 81.786 40.2547C81.7507 40.2317 81.7122 40.2097 81.6997 40.2057C81.6872 40.2007 81.6498 40.1807 81.6165 40.1597C81.5531 40.1196 81.5229 40.1036 81.4127 40.0466C81.3763 40.0286 81.3243 39.9986 81.2952 39.9816C81.2671 39.9646 81.2297 39.9425 81.212 39.9335C81.1829 39.9175 81.1611 39.9055 81.055 39.8455C81.0311 39.8315 80.977 39.8025 80.9364 39.7805C80.8949 39.7585 80.8387 39.7254 80.8106 39.7074C80.7825 39.6904 80.7576 39.6754 80.7545 39.6754C80.7514 39.6754 80.7139 39.6554 80.6723 39.6304C80.6297 39.6054 80.5912 39.5854 80.5881 39.5854C80.5839 39.5854 80.5517 39.5674 80.5163 39.5454C80.481 39.5233 80.4332 39.4953 80.4092 39.4833C80.3853 39.4703 80.3177 39.4333 80.2595 39.4003C80.2002 39.3673 80.1316 39.3282 80.1056 39.3142C80.0796 39.3002 80.037 39.2762 80.011 39.2592C79.985 39.2432 79.9527 39.2252 79.9382 39.2202C79.9236 39.2142 79.8914 39.1972 79.8654 39.1822C79.7604 39.1201 79.6907 39.0811 79.6366 39.0521C79.6054 39.0361 79.5597 39.0091 79.5357 38.9941C79.5118 38.9781 79.489 38.9651 79.4838 38.9651C79.4786 38.9651 79.4401 38.9451 79.3985 38.92C79.3569 38.895 79.3195 38.875 79.3153 38.875C79.3122 38.875 79.2903 38.863 79.2675 38.847C79.2446 38.832 79.1905 38.802 79.1479 38.779L79.0699 38.739V38.0586C79.0699 37.6854 79.0751 36.3538 79.0813 35.1002C79.0917 32.8721 79.0928 32.821 79.1125 32.807C79.1229 32.799 79.1593 32.778 79.1926 32.76C79.2259 32.742 79.2768 32.713 79.307 32.695C79.3371 32.678 79.385 32.652 79.413 32.638C79.4422 32.6239 79.491 32.5969 79.5222 32.5769C79.5534 32.5579 79.5836 32.5419 79.5888 32.5419C79.594 32.5419 79.6065 32.5359 79.6148 32.5279C79.6241 32.5209 79.6688 32.4959 79.7146 32.4719C79.7604 32.4489 79.8051 32.4239 79.8134 32.4168C79.8217 32.4098 79.8591 32.3888 79.8966 32.3708C79.934 32.3528 79.9787 32.3288 79.9954 32.3168C80.013 32.3048 80.0567 32.2798 80.0942 32.2618C80.1316 32.2438 80.169 32.2238 80.1773 32.2168C80.1857 32.2097 80.2096 32.1957 80.2304 32.1857C80.2512 32.1747 80.2876 32.1557 80.3125 32.1417C80.4124 32.0847 80.4487 32.0647 80.5215 32.0277C80.5642 32.0066 80.612 31.9796 80.6297 31.9676C80.6463 31.9566 80.691 31.9316 80.7285 31.9136C80.7659 31.8946 80.8033 31.8736 80.8117 31.8666C80.821 31.8586 80.8439 31.8456 80.8637 31.8366C80.8834 31.8276 80.926 31.8055 80.9572 31.7865C80.9884 31.7675 81.0311 31.7455 81.0508 31.7365C81.0706 31.7275 81.0935 31.7145 81.1028 31.7075C81.1111 31.6995 81.1444 31.6815 81.1756 31.6655C81.2068 31.6505 81.2474 31.6285 81.264 31.6165C81.2817 31.6044 81.3243 31.5804 81.3607 31.5634C81.3971 31.5454 81.4397 31.5224 81.4564 31.5114C81.473 31.5004 81.5021 31.4844 81.5209 31.4754C81.5396 31.4674 81.576 31.4474 81.602 31.4314C81.628 31.4144 81.6654 31.3943 81.6852 31.3853C81.7049 31.3763 81.7288 31.3633 81.7371 31.3563C81.7455 31.3493 81.7829 31.3293 81.8203 31.3113C81.8578 31.2933 81.9025 31.2683 81.9191 31.2563C81.9368 31.2443 81.9846 31.2163 82.0262 31.1952C82.1417 31.1362 82.1728 31.1192 82.2467 31.0762C82.3174 31.0352 82.3475 31.0182 82.4567 30.9621C82.4931 30.9441 82.5462 30.9141 82.5742 30.8951C82.6034 30.8771 82.6377 30.8581 82.6522 30.8531C82.6668 30.8481 82.7032 30.8271 82.7333 30.8081C82.7625 30.788 82.7978 30.769 82.8103 30.765C82.8238 30.761 82.8456 30.751 82.8602 30.741C82.9372 30.691 82.9715 30.671 82.9808 30.671C82.986 30.671 83.0068 30.66 83.0266 30.648C83.0463 30.635 83.0942 30.608 83.1326 30.5879C83.1701 30.5679 83.2179 30.5409 83.2377 30.5289C83.2574 30.5159 83.3063 30.4889 83.3458 30.4679C83.4612 30.4059 83.4758 30.3979 83.5528 30.3538C83.5943 30.3298 83.6318 30.3108 83.638 30.3108C83.6432 30.3108 83.6588 30.3028 83.6723 30.2918C83.6859 30.2818 83.7327 30.2558 83.7753 30.2338C83.8179 30.2118 83.872 30.1818 83.8938 30.1677C83.9157 30.1527 83.9385 30.1407 83.9437 30.1407C83.9489 30.1407 83.9843 30.1207 84.0238 30.0957C84.0633 30.0707 84.0987 30.0507 84.1028 30.0507C84.107 30.0507 84.1455 30.0307 84.1881 30.0057C84.2297 29.9806 84.2682 29.9606 84.2723 29.9606C84.2765 29.9606 84.2963 29.9496 84.316 29.9366C84.3358 29.9236 84.3711 29.9036 84.393 29.8926C84.4387 29.8686 84.4429 29.8706 84.5344 29.9296Z" fill="#FFB125" stroke="#E58217" mask="url(#path-3-inside-1_1360_2615)"/>
<defs>
<linearGradient id="paint0_linear_1360_2615" x1="69.5" y1="-27" x2="140" y2="193" gradientUnits="userSpaceOnUse">
<stop stop-color="#E58217"/>
<stop offset="1" stop-color="#FFCE77"/>
</linearGradient>
</defs>
</svg>
